<svg width="587" height="305" viewBox="0 0 587 305" fill="none" xmlns="http://www.w3.org/2000/svg">
<g id="appdev">
<g id="XMLID 45">
<path id="XMLID 41" d="M584.3 221.7C584.3 184.5 556.1 153.9 519.6 150.4V142H497.7V302.7H519.6V293C556 289.5 584.3 258.9 584.3 221.7ZM519.5 269.9V173.6C542.9 177 561.3 197.3 561.3 221.8C561.3 246.2 542.9 266.5 519.5 269.9Z" fill="#F09F54"/>
<path id="XMLID 222" opacity="0.29" d="M519.5 150.4V142H497.6V302.7H519.5V293C556 289.5 584.2 259 584.2 221.7C584.3 184.5 556 153.9 519.5 150.4ZM519.5 285.6V293.9H499V149.3H519.5V157.8C551.6 160.9 577.5 188.3 577.5 221.7C577.6 255.1 551.7 282.5 519.5 285.6Z" fill="#F09F54"/>
<path id="XMLID 48" d="M584.3 221.7C584.3 184.5 556.1 153.9 519.6 150.4V142H497.7V302.7H519.6V293C556 289.5 584.3 258.9 584.3 221.7ZM519.5 269.9V173.6C542.9 177 561.3 197.3 561.3 221.8C561.3 246.2 542.9 266.5 519.5 269.9Z" stroke="#444E59" stroke-width="4" stroke-miterlimit="10" stroke-linecap="round" stroke-linejoin="round"/>
<g id="XMLID 49">
<g id="XMLID 67">
<path id="XMLID 68" d="M506.4 286.6H497.6" stroke="#444E59" stroke-width="3" stroke-miterlimit="10" stroke-linecap="round" stroke-linejoin="round"/>
</g>
<g id="XMLID 65">
<path id="XMLID 66" d="M506.4 270.6H497.6" stroke="#444E59" stroke-width="3" stroke-miterlimit="10" stroke-linecap="round" stroke-linejoin="round"/>
</g>
<g id="XMLID 63">
<path id="XMLID 64" d="M506.4 254.5H497.6" stroke="#444E59" stroke-width="3" stroke-miterlimit="10" stroke-linecap="round" stroke-linejoin="round"/>
</g>
<g id="XMLID 61">
<path id="XMLID 62" d="M506.4 238.4H497.6" stroke="#444E59" stroke-width="3" stroke-miterlimit="10" stroke-linecap="round" stroke-linejoin="round"/>
</g>
<g id="XMLID 59">
<path id="XMLID 60" d="M506.4 222.4H497.6" stroke="#444E59" stroke-width="3" stroke-miterlimit="10" stroke-linecap="round" stroke-linejoin="round"/>
</g>
<g id="XMLID 56">
<path id="XMLID 57" d="M506.4 206.3H497.6" stroke="#444E59" stroke-width="3" stroke-miterlimit="10" stroke-linecap="round" stroke-linejoin="round"/>
</g>
<g id="XMLID 54">
<path id="XMLID 55" d="M506.4 190.2H497.6" stroke="#444E59" stroke-width="3" stroke-miterlimit="10" stroke-linecap="round" stroke-linejoin="round"/>
</g>
<g id="XMLID 52">
<path id="XMLID 53" d="M506.4 174.1H497.6" stroke="#444E59" stroke-width="3" stroke-miterlimit="10" stroke-linecap="round" stroke-linejoin="round"/>
</g>
<g id="XMLID 50">
<path id="XMLID 51" d="M506.4 158.1H497.6" stroke="#444E59" stroke-width="3" stroke-miterlimit="10" stroke-linecap="round" stroke-linejoin="round"/>
</g>
</g>
</g>
<g id="XMLID 212">
<path id="XMLID 207" d="M482.2 60.7H449.1V302.3H482.2V60.7Z" fill="#F09F54"/>
<path id="XMLID 208" d="M482.2 60.7H449.1V302.3H482.2V60.7Z" fill="#F09F54"/>
<path id="XMLID 209" opacity="0.29" d="M482.2 60.7H467.8V302.3H482.2V60.7Z" fill="#F09F54"/>
<path id="XMLID 121" d="M482.2 60.7H449.1V302.3H482.2V60.7Z" stroke="#444E59" stroke-width="4" stroke-miterlimit="10" stroke-linecap="round" stroke-linejoin="round"/>
<g id="XMLID 203">
<g id="XMLID 266">
<path id="XMLID 269" d="M460.6 277.9H449.1" stroke="#444E59" stroke-width="3" stroke-miterlimit="10" stroke-linecap="round" stroke-linejoin="round"/>
<path id="XMLID 268" d="M456.2 289.4H449.1" stroke="#444E59" stroke-width="3" stroke-miterlimit="10" stroke-linecap="round" stroke-linejoin="round"/>
</g>
<g id="XMLID 262">
<path id="XMLID 265" d="M460.6 254.9H449.1" stroke="#444E59" stroke-width="3" stroke-miterlimit="10" stroke-linecap="round" stroke-linejoin="round"/>
<path id="XMLID 264" d="M456.2 266.4H449.1" stroke="#444E59" stroke-width="3" stroke-miterlimit="10" stroke-linecap="round" stroke-linejoin="round"/>
</g>
<g id="XMLID 258">
<path id="XMLID 261" d="M460.6 231.9H449.1" stroke="#444E59" stroke-width="3" stroke-miterlimit="10" stroke-linecap="round" stroke-linejoin="round"/>
<path id="XMLID 260" d="M456.2 243.4H449.1" stroke="#444E59" stroke-width="3" stroke-miterlimit="10" stroke-linecap="round" stroke-linejoin="round"/>
</g>
<g id="XMLID 254">
<path id="XMLID 257" d="M460.6 208.8H449.1" stroke="#444E59" stroke-width="3" stroke-miterlimit="10" stroke-linecap="round" stroke-linejoin="round"/>
<path id="XMLID 256" d="M456.2 220.3H449.1" stroke="#444E59" stroke-width="3" stroke-miterlimit="10" stroke-linecap="round" stroke-linejoin="round"/>
</g>
<g id="XMLID 249">
<path id="XMLID 253" d="M460.6 185.8H449.1" stroke="#444E59" stroke-width="3" stroke-miterlimit="10" stroke-linecap="round" stroke-linejoin="round"/>
<path id="XMLID 251" d="M456.2 197.3H449.1" stroke="#444E59" stroke-width="3" stroke-miterlimit="10" stroke-linecap="round" stroke-linejoin="round"/>
</g>
<g id="XMLID 245">
<path id="XMLID 248" d="M460.6 162.8H449.1" stroke="#444E59" stroke-width="3" stroke-miterlimit="10" stroke-linecap="round" stroke-linejoin="round"/>
<path id="XMLID 247" d="M456.2 174.3H449.1" stroke="#444E59" stroke-width="3" stroke-miterlimit="10" stroke-linecap="round" stroke-linejoin="round"/>
</g>
<g id="XMLID 223">
<path id="XMLID 244" d="M460.6 139.8H449.1" stroke="#444E59" stroke-width="3" stroke-miterlimit="10" stroke-linecap="round" stroke-linejoin="round"/>
<path id="XMLID 243" d="M456.2 151.3H449.1" stroke="#444E59" stroke-width="3" stroke-miterlimit="10" stroke-linecap="round" stroke-linejoin="round"/>
</g>
<g id="XMLID 215">
<path id="XMLID 219" d="M460.6 116.8H449.1" stroke="#444E59" stroke-width="3" stroke-miterlimit="10" stroke-linecap="round" stroke-linejoin="round"/>
<path id="XMLID 218" d="M456.2 128.3H449.1" stroke="#444E59" stroke-width="3" stroke-miterlimit="10" stroke-linecap="round" stroke-linejoin="round"/>
</g>
<g id="XMLID 118">
<path id="XMLID 210" d="M460.6 93.7999H449.1" stroke="#444E59" stroke-width="3" stroke-miterlimit="10" stroke-linecap="round" stroke-linejoin="round"/>
<path id="XMLID 141" d="M456.2 105.3H449.1" stroke="#444E59" stroke-width="3" stroke-miterlimit="10" stroke-linecap="round" stroke-linejoin="round"/>
</g>
<g id="XMLID 36">
<path id="XMLID 113" d="M460.6 70.7999H449.1" stroke="#444E59" stroke-width="3" stroke-miterlimit="10" stroke-linecap="round" stroke-linejoin="round"/>
<path id="XMLID 112" d="M456.2 82.2999H449.1" stroke="#444E59" stroke-width="3" stroke-miterlimit="10" stroke-linecap="round" stroke-linejoin="round"/>
</g>
</g>
</g>
<g id="XMLID 1">
<path id="XMLID 93" d="M400.8 119.1H387.9V153.2H400.8V119.1Z" fill="#848484"/>
<path id="XMLID 237" opacity="0.25" d="M392.7 119.1H387.9V153.2H392.7V119.1Z" fill="#848484"/>
<path id="XMLID 40" d="M400.8 119.1H387.9V153.2H400.8V119.1Z" stroke="#444E59" stroke-width="4" stroke-miterlimit="10" stroke-linecap="round" stroke-linejoin="round"/>
<path id="XMLID 95" d="M397.3 153.3H391.4V169.8H397.3V153.3Z" fill="white"/>
<path id="XMLID 42" d="M397.3 153.3H391.4V169.8H397.3V153.3Z" stroke="#444E59" stroke-width="4" stroke-miterlimit="10" stroke-linecap="round" stroke-linejoin="round"/>
<g id="XMLID 16">
<path id="XMLID 98" d="M384.4 184.5L354.4 302.2L400 186.1L384.4 184.5Z" fill="white"/>
<path id="XMLID 37" d="M384.4 184.5L354.4 302.2L400 186.1L384.4 184.5Z" stroke="#444E59" stroke-width="4" stroke-miterlimit="10" stroke-linecap="round" stroke-linejoin="round"/>
<path id="XMLID 97" d="M404.4 184.5L434.4 302.2L388.9 186.1L404.4 184.5Z" fill="white"/>
<path id="XMLID 38" d="M404.4 184.5L434.4 302.2L388.9 186.1L404.4 184.5Z" stroke="#444E59" stroke-width="4" stroke-miterlimit="10" stroke-linecap="round" stroke-linejoin="round"/>
</g>
<path id="XMLID 91" d="M394.4 207.6C405.446 207.6 414.4 198.646 414.4 187.6C414.4 176.554 405.446 167.6 394.4 167.6C383.354 167.6 374.4 176.554 374.4 187.6C374.4 198.646 383.354 207.6 394.4 207.6Z" fill="#71A850"/>
<path id="XMLID 241" opacity="0.4" d="M380 187.6C380 177.5 387.5 169.2 397.2 167.8C396.3 167.7 395.4 167.6 394.4 167.6C383.4 167.6 374.4 176.6 374.4 187.6C374.4 198.6 383.4 207.6 394.4 207.6C395.3 207.6 396.3 207.5 397.2 207.4C387.5 206 380 197.7 380 187.6Z" fill="#71A850"/>
<path id="XMLID 39" d="M394.4 207.6C405.446 207.6 414.4 198.646 414.4 187.6C414.4 176.554 405.446 167.6 394.4 167.6C383.354 167.6 374.4 176.554 374.4 187.6C374.4 198.646 383.354 207.6 394.4 207.6Z" stroke="#444E59" stroke-width="4" stroke-miterlimit="10" stroke-linecap="round" stroke-linejoin="round"/>
<path id="XMLID 94" d="M394.4 194.4C398.155 194.4 401.2 191.356 401.2 187.6C401.2 183.845 398.155 180.8 394.4 180.8C390.644 180.8 387.6 183.845 387.6 187.6C387.6 191.356 390.644 194.4 394.4 194.4Z" fill="#444E59"/>
<path id="XMLID 92" d="M394.4 194.4C398.155 194.4 401.2 191.356 401.2 187.6C401.2 183.845 398.155 180.8 394.4 180.8C390.644 180.8 387.6 183.845 387.6 187.6C387.6 191.356 390.644 194.4 394.4 194.4Z" stroke="#444E59" stroke-width="4" stroke-miterlimit="10" stroke-linecap="round" stroke-linejoin="round"/>
</g>
<path id="XMLID 75" d="M322.2 302H190.2C182.5 302 176.2 295.7 176.2 288V16C176.2 8.3 182.5 2 190.2 2H322.2C329.9 2 336.2 8.3 336.2 16V288C336.2 295.7 329.9 302 322.2 302Z" fill="#848484"/>
<path id="XMLID 116" opacity="0.28" d="M322.2 2H313.8C321.5 2 327.8 8.3 327.8 16V288C327.8 295.7 321.5 302 313.8 302H322.3C330 302 336.3 295.7 336.3 288V16C336.2 8.2 329.9 2 322.2 2Z" fill="#848484"/>
<path id="XMLID 81" opacity="0.48" d="M184.5 288V16C184.5 8.3 190.8 2 198.5 2H190.2C182.5 2 176.2 8.3 176.2 16V288C176.2 295.7 182.5 302 190.2 302H198.5C190.8 302 184.5 295.7 184.5 288Z" fill="#848484"/>
<path id="XMLID 3" d="M322.2 302H190.2C182.5 302 176.2 295.7 176.2 288V16C176.2 8.3 182.5 2 190.2 2H322.2C329.9 2 336.2 8.3 336.2 16V288C336.2 295.7 329.9 302 322.2 302Z" stroke="#444E59" stroke-width="4" stroke-miterlimit="10" stroke-linecap="round" stroke-linejoin="round"/>
<path id="XMLID 77" d="M336.219 263.488L336.219 39.488L176.219 39.488L176.219 263.488H336.219Z" fill="#E9FBFF"/>
<path id="XMLID 5" d="M335.4 111.7H322.9C316.1 111.7 310.6 106.2 310.6 99.4V68.9C310.6 62.1 316.1 56.6 322.9 56.6H335.4V111.7Z" fill="#C9C9C9"/>
<path id="XMLID 2" d="M185.4 235.3H176.2V138H185.4C192.3 138 197.9 143.6 197.9 150.5V222.8C197.8 229.7 192.3 235.3 185.4 235.3Z" fill="#C9C9C9"/>
<path id="XMLID 6" d="M336.219 263.488L336.219 39.488L176.219 39.488L176.219 263.488H336.219Z" stroke="#444E59" stroke-width="4" stroke-miterlimit="10" stroke-linecap="round" stroke-linejoin="round"/>
<g id="XMLID 4">
<path id="XMLID 9" d="M278.2 22H285.2" stroke="#444E59" stroke-width="5" stroke-miterlimit="10" stroke-linecap="round" stroke-linejoin="round"/>
<path id="XMLID 7" d="M227.2 22H267.2" stroke="#444E59" stroke-width="5" stroke-miterlimit="10" stroke-linecap="round" stroke-linejoin="round"/>
</g>
<g id="XMLID 228">
<path id="XMLID 8" opacity="0.29" d="M256.2 291.4C262.275 291.4 267.2 286.475 267.2 280.4C267.2 274.325 262.275 269.4 256.2 269.4C250.125 269.4 245.2 274.325 245.2 280.4C245.2 286.475 250.125 291.4 256.2 291.4Z" fill="#848484"/>
<path id="XMLID 78" d="M256.2 288.8C260.839 288.8 264.6 285.039 264.6 280.4C264.6 275.761 260.839 272 256.2 272C251.561 272 247.8 275.761 247.8 280.4C247.8 285.039 251.561 288.8 256.2 288.8Z" fill="#444E59"/>
</g>
<g id="XMLID 14" opacity="0.3">
<g id="XMLID 32" opacity="0.3">
<g id="XMLID 58" opacity="0.3">
<path id="Vector" opacity="0.3" d="M219.7 236.7H203.7C199.3 236.7 195.7 233.1 195.7 228.7V212.7C195.7 208.3 199.3 204.7 203.7 204.7H219.7C224.1 204.7 227.7 208.3 227.7 212.7V228.7C227.7 233.1 224.1 236.7 219.7 236.7Z" stroke="#444E59" stroke-width="2" stroke-linecap="round" stroke-linejoin="round" stroke-dasharray="4.08 4.08"/>
</g>
<g id="XMLID 35" opacity="0.3">
<path id="Vector_2" opacity="0.3" d="M308.2 236.7H292.2C287.8 236.7 284.2 233.1 284.2 228.7V212.7C284.2 208.3 287.8 204.7 292.2 204.7H308.2C312.6 204.7 316.2 208.3 316.2 212.7V228.7C316.2 233.1 312.6 236.7 308.2 236.7Z" stroke="#444E59" stroke-width="2" stroke-linecap="round" stroke-linejoin="round" stroke-dasharray="4.08 4.08"/>
</g>
<g id="XMLID 34" opacity="0.3">
<path id="Vector_3" opacity="0.3" d="M264.2 236.7H248.2C243.8 236.7 240.2 233.1 240.2 228.7V212.7C240.2 208.3 243.8 204.7 248.2 204.7H264.2C268.6 204.7 272.2 208.3 272.2 212.7V228.7C272.2 233.1 268.6 236.7 264.2 236.7Z" stroke="#444E59" stroke-width="2" stroke-linecap="round" stroke-linejoin="round" stroke-dasharray="4.08 4.08"/>
</g>
</g>
<g id="XMLID 27" opacity="0.3">
<g id="XMLID 31" opacity="0.3">
<path id="Vector_4" opacity="0.3" d="M219.7 188.7H203.7C199.3 188.7 195.7 185.1 195.7 180.7V164.7C195.7 160.3 199.3 156.7 203.7 156.7H219.7C224.1 156.7 227.7 160.3 227.7 164.7V180.7C227.7 185.1 224.1 188.7 219.7 188.7Z" stroke="#444E59" stroke-width="2" stroke-linecap="round" stroke-linejoin="round" stroke-dasharray="4.08 4.08"/>
</g>
<g id="XMLID 30" opacity="0.3">
<path id="Vector_5" opacity="0.3" d="M308.2 188.7H292.2C287.8 188.7 284.2 185.1 284.2 180.7V164.7C284.2 160.3 287.8 156.7 292.2 156.7H308.2C312.6 156.7 316.2 160.3 316.2 164.7V180.7C316.2 185.1 312.6 188.7 308.2 188.7Z" stroke="#444E59" stroke-width="2" stroke-linecap="round" stroke-linejoin="round" stroke-dasharray="4.08 4.08"/>
</g>
<g id="XMLID 29" opacity="0.3">
<path id="Vector_6" opacity="0.3" d="M264.2 188.7H248.2C243.8 188.7 240.2 185.1 240.2 180.7V164.7C240.2 160.3 243.8 156.7 248.2 156.7H264.2C268.6 156.7 272.2 160.3 272.2 164.7V180.7C272.2 185.1 268.6 188.7 264.2 188.7Z" stroke="#444E59" stroke-width="2" stroke-linecap="round" stroke-linejoin="round" stroke-dasharray="4.08 4.08"/>
</g>
</g>
<g id="XMLID 22" opacity="0.3">
<g id="XMLID 26" opacity="0.3">
<path id="Vector_7" opacity="0.3" d="M219.7 140.7H203.7C199.3 140.7 195.7 137.1 195.7 132.7V116.7C195.7 112.3 199.3 108.7 203.7 108.7H219.7C224.1 108.7 227.7 112.3 227.7 116.7V132.7C227.7 137.1 224.1 140.7 219.7 140.7Z" stroke="#444E59" stroke-width="2" stroke-linecap="round" stroke-linejoin="round" stroke-dasharray="4.08 4.08"/>
</g>
<g id="XMLID 25" opacity="0.3">
<path id="Vector_8" opacity="0.3" d="M308.2 140.7H292.2C287.8 140.7 284.2 137.1 284.2 132.7V116.7C284.2 112.3 287.8 108.7 292.2 108.7H308.2C312.6 108.7 316.2 112.3 316.2 116.7V132.7C316.2 137.1 312.6 140.7 308.2 140.7Z" stroke="#444E59" stroke-width="2" stroke-linecap="round" stroke-linejoin="round" stroke-dasharray="4.08 4.08"/>
</g>
<g id="XMLID 24" opacity="0.3">
<path id="Vector_9" opacity="0.3" d="M264.2 140.7H248.2C243.8 140.7 240.2 137.1 240.2 132.7V116.7C240.2 112.3 243.8 108.7 248.2 108.7H264.2C268.6 108.7 272.2 112.3 272.2 116.7V132.7C272.2 137.1 268.6 140.7 264.2 140.7Z" stroke="#444E59" stroke-width="2" stroke-linecap="round" stroke-linejoin="round" stroke-dasharray="4.08 4.08"/>
</g>
</g>
<g id="XMLID 17" opacity="0.3">
<g id="XMLID 21" opacity="0.3">
<path id="Vector_10" opacity="0.3" d="M219.7 92.7H203.7C199.3 92.7 195.7 89.1 195.7 84.7V68.7C195.7 64.3 199.3 60.7 203.7 60.7H219.7C224.1 60.7 227.7 64.3 227.7 68.7V84.7C227.7 89.1 224.1 92.7 219.7 92.7Z" stroke="#444E59" stroke-width="2" stroke-linecap="round" stroke-linejoin="round" stroke-dasharray="4.08 4.08"/>
</g>
<g id="XMLID 20" opacity="0.3">
<path id="Vector_11" opacity="0.3" d="M308.2 92.7H292.2C287.8 92.7 284.2 89.1 284.2 84.7V68.7C284.2 64.3 287.8 60.7 292.2 60.7H308.2C312.6 60.7 316.2 64.3 316.2 68.7V84.7C316.2 89.1 312.6 92.7 308.2 92.7Z" stroke="#444E59" stroke-width="2" stroke-linecap="round" stroke-linejoin="round" stroke-dasharray="4.08 4.08"/>
</g>
<g id="XMLID 19" opacity="0.3">
<path id="Vector_12" opacity="0.3" d="M264.2 92.7H248.2C243.8 92.7 240.2 89.1 240.2 84.7V68.7C240.2 64.3 243.8 60.7 248.2 60.7H264.2C268.6 60.7 272.2 64.3 272.2 68.7V84.7C272.2 89.1 268.6 92.7 264.2 92.7Z" stroke="#444E59" stroke-width="2" stroke-linecap="round" stroke-linejoin="round" stroke-dasharray="4.08 4.08"/>
</g>
</g>
</g>
<g id="blue-icon-group">
<path id="XMLID 70" d="M308.2 188.7H292.2C287.8 188.7 284.2 185.1 284.2 180.7V164.7C284.2 160.3 287.8 156.7 292.2 156.7H308.2C312.6 156.7 316.2 160.3 316.2 164.7V180.7C316.2 185.1 312.6 188.7 308.2 188.7Z" fill="#2FA9ED"/>
<path id="XMLID 71" d="M308.2 188.7H292.2C287.8 188.7 284.2 185.1 284.2 180.7V164.7C284.2 160.3 287.8 156.7 292.2 156.7H308.2C312.6 156.7 316.2 160.3 316.2 164.7V180.7C316.2 185.1 312.6 188.7 308.2 188.7Z" stroke="#444E59" stroke-width="4" stroke-miterlimit="10" stroke-linecap="round" stroke-linejoin="round"/>
<path id="XMLID 10" d="M297.6 165.7L306.8 171C308.1 171.8 308.1 173.7 306.8 174.4L297.6 179.7C296.3 180.5 294.6 179.5 294.6 178V167.4C294.6 165.9 296.3 164.9 297.6 165.7Z" fill="white"/>
</g>
<g id="red-icon-group">
<path id="XMLID 90" d="M264.2 140.7H248.2C243.8 140.7 240.2 137.1 240.2 132.7V116.7C240.2 112.3 243.8 108.7 248.2 108.7H264.2C268.6 108.7 272.2 112.3 272.2 116.7V132.7C272.2 137.1 268.6 140.7 264.2 140.7Z" fill="#E7534E"/>
<path id="XMLID 23" d="M264.2 140.7H248.2C243.8 140.7 240.2 137.1 240.2 132.7V116.7C240.2 112.3 243.8 108.7 248.2 108.7H264.2C268.6 108.7 272.2 112.3 272.2 116.7V132.7C272.2 137.1 268.6 140.7 264.2 140.7Z" stroke="#444E59" stroke-width="4" stroke-miterlimit="10" stroke-linecap="round" stroke-linejoin="round"/>
<path id="XMLID 12" d="M256.2 132.2C260.342 132.2 263.7 128.842 263.7 124.7C263.7 120.558 260.342 117.2 256.2 117.2C252.058 117.2 248.7 120.558 248.7 124.7C248.7 128.842 252.058 132.2 256.2 132.2Z" stroke="white" stroke-width="4" stroke-miterlimit="10" stroke-linecap="round" stroke-linejoin="round"/>
</g>
<g id="yellow-icon-group">
<path id="XMLID 72" d="M264.2 236.7H248.2C243.8 236.7 240.2 233.1 240.2 228.7V212.7C240.2 208.3 243.8 204.7 248.2 204.7H264.2C268.6 204.7 272.2 208.3 272.2 212.7V228.7C272.2 233.1 268.6 236.7 264.2 236.7Z" fill="#F09F54"/>
<path id="XMLID 15" d="M260.4 214.5H252C250.2 214.5 248.8 216 248.8 217.7V223.9C248.8 225.7 250.3 227.1 252 227.1H252.3L251.6 229.9C251.5 230.1 251.8 230.3 252 230.1L256.3 227.1H260.6C262.4 227.1 263.8 225.6 263.8 223.9V217.7C263.7 215.9 262.2 214.5 260.4 214.5Z" fill="white"/>
<path id="XMLID 74" d="M264.2 236.7H248.2C243.8 236.7 240.2 233.1 240.2 228.7V212.7C240.2 208.3 243.8 204.7 248.2 204.7H264.2C268.6 204.7 272.2 208.3 272.2 212.7V228.7C272.2 233.1 268.6 236.7 264.2 236.7Z" stroke="#444E59" stroke-width="4" stroke-miterlimit="10" stroke-linecap="round" stroke-linejoin="round"/>
</g>
<g id="green-icon-group">
<path id="XMLID 73" d="M219.7 236.7H203.7C199.3 236.7 195.7 233.1 195.7 228.7V212.7C195.7 208.3 199.3 204.7 203.7 204.7H219.7C224.1 204.7 227.7 208.3 227.7 212.7V228.7C227.7 233.1 224.1 236.7 219.7 236.7Z" fill="#71A850"/>
<path id="XMLID 11" d="M205.5 220.7L209.2 224.4C209.7 224.9 210.5 224.9 211 224.4L219.3 216.1" stroke="white" stroke-width="4" stroke-miterlimit="10" stroke-linecap="round" stroke-linejoin="round"/>
<path id="XMLID 76" d="M219.7 236.7H203.7C199.3 236.7 195.7 233.1 195.7 228.7V212.7C195.7 208.3 199.3 204.7 203.7 204.7H219.7C224.1 204.7 227.7 208.3 227.7 212.7V228.7C227.7 233.1 224.1 236.7 219.7 236.7Z" stroke="#444E59" stroke-width="4" stroke-miterlimit="10" stroke-linecap="round" stroke-linejoin="round"/>
</g>
<g id="gear-group">
<path id="XMLID 115" d="M195.8 85.7L195.6 70.7L185.6 70.8C185 68.9 184.3 67.2 183.3 65.5L190.3 58.3L179.6 47.8L172.6 55C170.9 54.1 169.1 53.4 167.2 52.9L167.1 42.9L152.1 43.1L152.2 53.1C150.3 53.7 148.6 54.4 146.9 55.4L139.7 48.4L129.2 59.1L136.4 66.1C135.5 67.8 134.8 69.6 134.3 71.5L124.3 71.6L124.5 86.6L134.5 86.5C135.1 88.4 135.8 90.1 136.8 91.8L129.8 99L140.5 109.5L147.5 102.3C149.2 103.2 151 103.9 152.9 104.4L153 114.4L168 114.2L167.9 104.2C169.8 103.6 171.5 102.9 173.2 101.9L180.4 108.9L190.9 98.2L183.7 91.2C184.6 89.5 185.3 87.7 185.8 85.8L195.8 85.7ZM160.3 90.3C153.8 90.4 148.6 85.2 148.5 78.7C148.4 72.2 153.6 67 160.1 66.9C166.6 66.8 171.8 72 171.9 78.5C171.9 85 166.7 90.2 160.3 90.3Z" fill="white"/>
<path id="XMLID 191" d="M195.8 85.7L195.6 70.7L185.6 70.8C185 68.9 184.3 67.2 183.3 65.5L190.3 58.3L179.6 47.8L172.6 55C170.9 54.1 169.1 53.4 167.2 52.9L167.1 42.9L152.1 43.1L152.2 53.1C150.3 53.7 148.6 54.4 146.9 55.4L139.7 48.4L129.2 59.1L136.4 66.1C135.5 67.8 134.8 69.6 134.3 71.5L124.3 71.6L124.5 86.6L134.5 86.5C135.1 88.4 135.8 90.1 136.8 91.8L129.8 99L140.5 109.5L147.5 102.3C149.2 103.2 151 103.9 152.9 104.4L153 114.4L168 114.2L167.9 104.2C169.8 103.6 171.5 102.9 173.2 101.9L180.4 108.9L190.9 98.2L183.7 91.2C184.6 89.5 185.3 87.7 185.8 85.8L195.8 85.7ZM160.3 90.3C153.8 90.4 148.6 85.2 148.5 78.7C148.4 72.2 153.6 67 160.1 66.9C166.6 66.8 171.8 72 171.9 78.5C171.9 85 166.7 90.2 160.3 90.3Z" fill="#F09F54"/>
<path id="XMLID 234" d="M195.8 85.7L195.6 70.7L185.6 70.8C185 68.9 184.3 67.2 183.3 65.5L190.3 58.3L179.6 47.8L172.6 55C170.9 54.1 169.1 53.4 167.2 52.9L167.1 42.9L152.1 43.1L152.2 53.1C150.3 53.7 148.6 54.4 146.9 55.4L139.7 48.4L129.2 59.1L136.4 66.1C135.5 67.8 134.8 69.6 134.3 71.5L124.3 71.6L124.5 86.6L134.5 86.5C135.1 88.4 135.8 90.1 136.8 91.8L129.8 99L140.5 109.5L147.5 102.3C149.2 103.2 151 103.9 152.9 104.4L153 114.4L168 114.2L167.9 104.2C169.8 103.6 171.5 102.9 173.2 101.9L180.4 108.9L190.9 98.2L183.7 91.2C184.6 89.5 185.3 87.7 185.8 85.8L195.8 85.7ZM160.3 90.3C153.8 90.4 148.6 85.2 148.5 78.7C148.4 72.2 153.6 67 160.1 66.9C166.6 66.8 171.8 72 171.9 78.5C171.9 85 166.7 90.2 160.3 90.3Z" fill="#F09F54"/>
<g id="XMLID 246" opacity="0.29">
<path id="XMLID 250" opacity="0.29" d="M192 70.8001C192 70.8001 192 70.9001 192 70.8001H195.7V70.7001L192 70.8001Z" fill="#F09F54"/>
<path id="XMLID 252" opacity="0.29" d="M179 55.1L182.9 51.1L179.7 47.9L174.5 53.2C176.1 53.7 177.6 54.3 179 55.1Z" fill="#F09F54"/>
<path id="XMLID 255" opacity="0.29" d="M166.3 66.9C165.2 66.9 164.2 67.1 163.3 67.3C168.2 68.7 171.8 73.1 171.8 78.4C171.9 83.8 168.2 88.4 163.3 89.8C164.3 90.1 165.5 90.3 166.6 90.2C173.1 90.1 178.2 84.8 178.2 78.4C178.2 72 172.8 66.9 166.3 66.9Z" fill="#F09F54"/>
<path id="XMLID 259" opacity="0.29" d="M151.4 53.4001L153.4 55.3C155.1 54.4 156.8 53.6001 158.7 53.0001L158.6 43.0001L167.2 42.9001V42.8L152.2 43.0001L152.3 53.0001C152.1 53.2001 151.7 53.3001 151.4 53.4001Z" fill="#F09F54"/>
<path id="XMLID 263" opacity="0.29" d="M159.2 104.3C157.3 103.8 155.5 103.1 153.8 102.2L152 104.1C152.3 104.2 152.6 104.3 152.9 104.4L153 114.4L159.3 114.3L159.2 104.3Z" fill="#F09F54"/>
<path id="XMLID 267" opacity="0.29" d="M130.8 71.5001L140.8 71.4001C141.3 69.5001 142 67.7001 142.9 66.0001L135.7 59.0001L143.1 51.5001L139.9 48.3L129.4 59.0001L136.6 66.0001C135.7 67.7001 135 69.5001 134.5 71.4001L124.5 71.5001L124.7 86.5001L131 86.4001L130.8 71.5001Z" fill="#F09F54"/>
<path id="XMLID 270" opacity="0.29" d="M179.5 101.9C178.1 102.7 176.7 103.3 175.2 103.8L180.4 108.9L183.5 105.7L179.5 101.9Z" fill="#F09F54"/>
<path id="XMLID 271" opacity="0.29" d="M136.2 98.8L143.2 91.6C142.3 89.9 141.5 88.2 140.9 86.3L134.6 86.4001C135.2 88.2001 135.9 90 136.8 91.6L129.8 98.8L140.5 109.3L143.6 106.1L136.2 98.8Z" fill="#F09F54"/>
</g>
<path id="XMLID 130" d="M195.8 85.7L195.6 70.7L185.6 70.8C185 68.9 184.3 67.2 183.3 65.5L190.3 58.3L179.6 47.8L172.6 55C170.9 54.1 169.1 53.4 167.2 52.9L167.1 42.9L152.1 43.1L152.2 53.1C150.3 53.7 148.6 54.4 146.9 55.4L139.7 48.4L129.2 59.1L136.4 66.1C135.5 67.8 134.8 69.6 134.3 71.5L124.3 71.6L124.5 86.6L134.5 86.5C135.1 88.4 135.8 90.1 136.8 91.8L129.8 99L140.5 109.5L147.5 102.3C149.2 103.2 151 103.9 152.9 104.4L153 114.4L168 114.2L167.9 104.2C169.8 103.6 171.5 102.9 173.2 101.9L180.4 108.9L190.9 98.2L183.7 91.2C184.6 89.5 185.3 87.7 185.8 85.8L195.8 85.7ZM160.3 90.3C153.8 90.4 148.6 85.2 148.5 78.7C148.4 72.2 153.6 67 160.1 66.9C166.6 66.8 171.8 72 171.9 78.5C171.9 85 166.7 90.2 160.3 90.3Z" stroke="#444E59" stroke-width="4" stroke-miterlimit="10" stroke-linecap="round" stroke-linejoin="round"/>
</g>
<g id="XMLID 190">
<path id="XMLID 183" d="M133.3 302H9.59996C5.49996 302 2.19995 298.7 2.19995 294.6V210C2.19995 205.9 5.49996 202.6 9.59996 202.6H133.4C137.5 202.6 140.8 205.9 140.8 210V294.6C140.7 298.7 137.4 302 133.3 302Z" fill="#444E59"/>
<path id="XMLID 134" d="M140.7 218.7H2.19995V210C2.19995 205.9 5.49996 202.6 9.59996 202.6H133.4C137.5 202.6 140.8 205.9 140.8 210V218.7H140.7Z" fill="#BCBCBC"/>
<path id="XMLID 132" d="M133.3 302H9.59996C5.49996 302 2.19995 298.7 2.19995 294.6V210C2.19995 205.9 5.49996 202.6 9.59996 202.6H133.4C137.5 202.6 140.8 205.9 140.8 210V294.6C140.7 298.7 137.4 302 133.3 302Z" stroke="#444E59" stroke-width="4" stroke-miterlimit="10" stroke-linecap="round" stroke-linejoin="round"/>
<path id="XMLID 182" d="M133.3 302H9.59996C5.49996 302 2.19995 298.7 2.19995 294.6V210C2.19995 205.9 5.49996 202.6 9.59996 202.6H133.4C137.5 202.6 140.8 205.9 140.8 210V294.6C140.7 298.7 137.4 302 133.3 302Z" stroke="#444E59" stroke-width="4" stroke-miterlimit="10" stroke-linecap="round" stroke-linejoin="round"/>
<path id="XMLID 133" d="M140.7 218.7H2.19995V210C2.19995 205.9 5.49996 202.6 9.59996 202.6H133.4C137.5 202.6 140.8 205.9 140.8 210V218.7H140.7Z" stroke="#444E59" stroke-width="4" stroke-miterlimit="10" stroke-linecap="round" stroke-linejoin="round"/>
<g id="XMLID 135">
<g id="XMLID 169">
<path id="XMLID 172" d="M21.3 289.3H36.9001" stroke="white" stroke-width="4" stroke-miterlimit="10" stroke-linecap="round" stroke-linejoin="round"/>
<path id="XMLID 171" d="M10.3 289.3H11.4001" stroke="white" stroke-width="4" stroke-miterlimit="10" stroke-linecap="round" stroke-linejoin="round"/>
</g>
<g id="XMLID 165">
<path id="XMLID 168" d="M21.3 280.7H60.8" stroke="white" stroke-width="4" stroke-miterlimit="10" stroke-linecap="round" stroke-linejoin="round"/>
<path id="XMLID 167" d="M10.3 280.7H11.4001" stroke="white" stroke-width="4" stroke-miterlimit="10" stroke-linecap="round" stroke-linejoin="round"/>
</g>
<g id="XMLID 160">
<path id="XMLID 163" d="M79.6001 272H90.4001" stroke="#64BDFF" stroke-width="4" stroke-miterlimit="10" stroke-linecap="round" stroke-linejoin="round"/>
<path id="XMLID 185" d="M50.2 272H70.2" stroke="white" stroke-width="4" stroke-miterlimit="10" stroke-linecap="round" stroke-linejoin="round"/>
<path id="XMLID 164" d="M21.3 272H41.1" stroke="#FF5F5F" stroke-width="4" stroke-miterlimit="10" stroke-linecap="round" stroke-linejoin="round"/>
<path id="XMLID 162" d="M10.3 272H11.4001" stroke="white" stroke-width="4" stroke-miterlimit="10" stroke-linecap="round" stroke-linejoin="round"/>
</g>
<g id="XMLID 156">
<path id="XMLID 173" d="M54.6001 263.4H102.8" stroke="white" stroke-width="4" stroke-miterlimit="10" stroke-linecap="round" stroke-linejoin="round"/>
<path id="XMLID 159" d="M21.3 263.4H46.5001" stroke="#64BDFF" stroke-width="4" stroke-miterlimit="10" stroke-linecap="round" stroke-linejoin="round"/>
<path id="XMLID 158" d="M10.3 263.4H11.4001" stroke="white" stroke-width="4" stroke-miterlimit="10" stroke-linecap="round" stroke-linejoin="round"/>
</g>
<g id="XMLID 152">
<path id="XMLID 170" d="M54.6001 254.8H72.6001" stroke="#FF5F5F" stroke-width="4" stroke-miterlimit="10" stroke-linecap="round" stroke-linejoin="round"/>
<path id="XMLID 155" d="M21.3 254.8H46.5001" stroke="#FFBE78" stroke-width="4" stroke-miterlimit="10" stroke-linecap="round" stroke-linejoin="round"/>
<path id="XMLID 154" d="M10.3 254.8H11.4001" stroke="white" stroke-width="4" stroke-miterlimit="10" stroke-linecap="round" stroke-linejoin="round"/>
</g>
<g id="XMLID 148">
<path id="XMLID 157" d="M58.1001 246.2H63.0001" stroke="#64BDFF" stroke-width="4" stroke-miterlimit="10" stroke-linecap="round" stroke-linejoin="round"/>
<path id="XMLID 161" d="M39.1001 246.2H50.2001" stroke="#FF5F5F" stroke-width="4" stroke-miterlimit="10" stroke-linecap="round" stroke-linejoin="round"/>
<path id="XMLID 151" d="M21.3 246.2H30.5" stroke="#C383F2" stroke-width="4" stroke-miterlimit="10" stroke-linecap="round" stroke-linejoin="round"/>
<path id="XMLID 150" d="M10.3 246.2H11.4001" stroke="white" stroke-width="4" stroke-miterlimit="10" stroke-linecap="round" stroke-linejoin="round"/>
</g>
<g id="XMLID 144">
<path id="XMLID 137" d="M94.1001 237.5H102.8" stroke="#64BDFF" stroke-width="4" stroke-miterlimit="10" stroke-linecap="round" stroke-linejoin="round"/>
<path id="XMLID 149" d="M49 237.5H83.1" stroke="#FF5F5F" stroke-width="4" stroke-miterlimit="10" stroke-linecap="round" stroke-linejoin="round"/>
<path id="XMLID 147" d="M21.3 237.5H41.6" stroke="#FFBE78" stroke-width="4" stroke-miterlimit="10" stroke-linecap="round" stroke-linejoin="round"/>
<path id="XMLID 146" d="M10.3 237.5H11.4001" stroke="white" stroke-width="4" stroke-miterlimit="10" stroke-linecap="round" stroke-linejoin="round"/>
</g>
<g id="XMLID 139">
<path id="XMLID 145" d="M72.6001 228.9H90.4001" stroke="#FFBE78" stroke-width="4" stroke-miterlimit="10" stroke-linecap="round" stroke-linejoin="round"/>
<path id="XMLID 138" d="M50.2 228.9H64" stroke="#6DBF7B" stroke-width="4" stroke-miterlimit="10" stroke-linecap="round" stroke-linejoin="round"/>
<path id="XMLID 140" d="M35.2 228.9H43" stroke="#FFBE78" stroke-width="4" stroke-miterlimit="10" stroke-linecap="round" stroke-linejoin="round"/>
<path id="XMLID 143" d="M21.3 228.9H27.7" stroke="#6DBF7B" stroke-width="4" stroke-miterlimit="10" stroke-linecap="round" stroke-linejoin="round"/>
<path id="XMLID 142" d="M10.3 228.9H11.4001" stroke="white" stroke-width="4" stroke-miterlimit="10" stroke-linecap="round" stroke-linejoin="round"/>
</g>
</g>
<g id="XMLID 153">
<path id="XMLID 136" d="M15.8999 213.2C17.2806 213.2 18.3999 212.081 18.3999 210.7C18.3999 209.319 17.2806 208.2 15.8999 208.2C14.5192 208.2 13.3999 209.319 13.3999 210.7C13.3999 212.081 14.5192 213.2 15.8999 213.2Z" fill="#E7534E"/>
<path id="XMLID 166" d="M24.8999 213.2C26.2806 213.2 27.3999 212.081 27.3999 210.7C27.3999 209.319 26.2806 208.2 24.8999 208.2C23.5192 208.2 22.3999 209.319 22.3999 210.7C22.3999 212.081 23.5192 213.2 24.8999 213.2Z" fill="#444E59"/>
<path id="XMLID 174" d="M34 213.2C35.3807 213.2 36.5 212.081 36.5 210.7C36.5 209.319 35.3807 208.2 34 208.2C32.6193 208.2 31.5 209.319 31.5 210.7C31.5 212.081 32.6193 213.2 34 213.2Z" fill="#444E59"/>
</g>
</g>
<g id="image-group">
<path id="XMLID 176" d="M182.6 227.5H93C88.6 227.5 85 223.9 85 219.5V138.6C85 134.2 88.6 130.6 93 130.6H182.6C187 130.6 190.6 134.2 190.6 138.6V219.5C190.6 223.9 187 227.5 182.6 227.5Z" fill="white"/>
<path id="XMLID 184" d="M182.6 227.5H93C88.6 227.5 85 223.9 85 219.5V138.6C85 134.2 88.6 130.6 93 130.6H182.6C187 130.6 190.6 134.2 190.6 138.6V219.5C190.6 223.9 187 227.5 182.6 227.5Z" fill="white"/>
<path id="XMLID 175" d="M182.6 227.5H93C88.6 227.5 85 223.9 85 219.5V138.6C85 134.2 88.6 130.6 93 130.6H182.6C187 130.6 190.6 134.2 190.6 138.6V219.5C190.6 223.9 187 227.5 182.6 227.5Z" stroke="#444E59" stroke-width="4" stroke-miterlimit="10" stroke-linecap="round" stroke-linejoin="round"/>
<path id="XMLID 186" d="M180.9 138.8H94.0999V196.5H180.9V138.8Z" fill="#9483C4"/>
<path id="XMLID 177" d="M180.9 138.8H94.0999V196.5H180.9V138.8Z" stroke="#444E59" stroke-width="4" stroke-miterlimit="10" stroke-linecap="round" stroke-linejoin="round"/>
<path id="XMLID 179" d="M94.0999 205.7H148.9" stroke="#444E59" stroke-width="4" stroke-miterlimit="10" stroke-linecap="round" stroke-linejoin="round"/>
<path id="XMLID 180" d="M94.0999 214.9H126.5" stroke="#444E59" stroke-width="4" stroke-miterlimit="10" stroke-linecap="round" stroke-linejoin="round"/>
<path id="XMLID 178" d="M102.8 186.2L121.5 167.7L138.9 185.1" stroke="#444E59" stroke-width="4" stroke-miterlimit="10" stroke-linecap="round" stroke-linejoin="round"/>
<path id="XMLID 181" d="M171.5 186.2L148.9 156.7L130.8 176.9" stroke="#444E59" stroke-width="4" stroke-miterlimit="10" stroke-linecap="round" stroke-linejoin="round"/>
<path id="XMLID 187" d="M171.3 214.8C174.006 214.8 176.2 212.606 176.2 209.9C176.2 207.194 174.006 205 171.3 205C168.594 205 166.4 207.194 166.4 209.9C166.4 212.606 168.594 214.8 171.3 214.8Z" stroke="#444E59" stroke-width="4" stroke-miterlimit="10" stroke-linecap="round" stroke-linejoin="round"/>
<path id="XMLID 189" d="M127 162.9C130.424 162.9 133.2 160.124 133.2 156.7C133.2 153.276 130.424 150.5 127 150.5C123.576 150.5 120.8 153.276 120.8 156.7C120.8 160.124 123.576 162.9 127 162.9Z" fill="#F09F54"/>
<path id="XMLID 188" d="M127 162.9C130.424 162.9 133.2 160.124 133.2 156.7C133.2 153.276 130.424 150.5 127 150.5C123.576 150.5 120.8 153.276 120.8 156.7C120.8 160.124 123.576 162.9 127 162.9Z" stroke="#444E59" stroke-width="4" stroke-miterlimit="10" stroke-linecap="round" stroke-linejoin="round"/>
</g>
<g id="XMLID 194">
<path id="XMLID 198" d="M83.3 102.1H110.1" stroke="#444E59" stroke-width="4" stroke-miterlimit="10" stroke-linecap="round" stroke-linejoin="round"/>
<path id="XMLID 195" d="M69 102.1H76.1" stroke="#444E59" stroke-width="4" stroke-miterlimit="10" stroke-linecap="round" stroke-linejoin="round"/>
<path id="XMLID 199" d="M96.7 89.7H110.1" stroke="#444E59" stroke-width="4" stroke-miterlimit="10" stroke-linecap="round" stroke-linejoin="round"/>
<path id="XMLID 196" d="M85.8999 89.7H89.8999" stroke="#444E59" stroke-width="4" stroke-miterlimit="10" stroke-linecap="round" stroke-linejoin="round"/>
</g>
<g id="XMLID 200">
<path id="XMLID 205" d="M54.3 180.5H75.2" stroke="#444E59" stroke-width="4" stroke-miterlimit="10" stroke-linecap="round" stroke-linejoin="round"/>
<path id="XMLID 204" d="M43.2 180.5H48.7" stroke="#444E59" stroke-width="4" stroke-miterlimit="10" stroke-linecap="round" stroke-linejoin="round"/>
<path id="XMLID 202" d="M66.7 168.1H75.2" stroke="#444E59" stroke-width="4" stroke-miterlimit="10" stroke-linecap="round" stroke-linejoin="round"/>
<path id="XMLID 201" d="M56.3 168.1H59.5001" stroke="#444E59" stroke-width="4" stroke-miterlimit="10" stroke-linecap="round" stroke-linejoin="round"/>
</g>
<g id="XMLID 229">
<path id="XMLID 233" d="M387.6 35.4H407.4" stroke="#444E59" stroke-width="4" stroke-miterlimit="10" stroke-linecap="round" stroke-linejoin="round"/>
<path id="XMLID 232" d="M375.4 35.4H381" stroke="#444E59" stroke-width="4" stroke-miterlimit="10" stroke-linecap="round" stroke-linejoin="round"/>
<path id="XMLID 231" d="M398.9 23H407.4" stroke="#444E59" stroke-width="4" stroke-miterlimit="10" stroke-linecap="round" stroke-linejoin="round"/>
<path id="XMLID 230" d="M388.6 23H391.7" stroke="#444E59" stroke-width="4" stroke-miterlimit="10" stroke-linecap="round" stroke-linejoin="round"/>
</g>
<g id="card-group">
<path id="XMLID 211" d="M403 105.3H324.8C320 105.3 316.2 101.4 316.2 96.7V58.8C316.2 54 320.1 50.2 324.8 50.2H403C407.8 50.2 411.6 54.1 411.6 58.8V96.5999C411.6 101.4 407.8 105.3 403 105.3Z" fill="#2FA9ED"/>
<path id="XMLID 197" d="M403 105.3H324.8C320 105.3 316.2 101.4 316.2 96.7V58.8C316.2 54 320.1 50.2 324.8 50.2H403C407.8 50.2 411.6 54.1 411.6 58.8V96.5999C411.6 101.4 407.8 105.3 403 105.3Z" stroke="#444E59" stroke-width="3" stroke-miterlimit="10" stroke-linecap="round" stroke-linejoin="round"/>
<path id="XMLID 214" opacity="0.56" d="M363.9 65H397.7" stroke="white" stroke-width="3" stroke-miterlimit="10" stroke-linecap="round" stroke-linejoin="round"/>
<path id="XMLID 216" opacity="0.56" d="M363.9 75.9H386.3" stroke="white" stroke-width="3" stroke-miterlimit="10" stroke-linecap="round" stroke-linejoin="round"/>
<g id="XMLID 224" opacity="0.56">
<path id="XMLID 217" opacity="0.56" d="M380.9 92.2H367.3C365.5 92.2 364 90.7 364 88.9C364 87.1 365.5 85.6 367.3 85.6H380.9C382.7 85.6 384.2 87.1 384.2 88.9C384.2 90.7 382.8 92.2 380.9 92.2Z" fill="white"/>
<path id="XMLID 213" opacity="0.56" d="M380.9 92.2H367.3C365.5 92.2 364 90.7 364 88.9C364 87.1 365.5 85.6 367.3 85.6H380.9C382.7 85.6 384.2 87.1 384.2 88.9C384.2 90.7 382.8 92.2 380.9 92.2Z" stroke="white" stroke-width="3" stroke-miterlimit="10" stroke-linecap="round" stroke-linejoin="round"/>
</g>
<g id="XMLID 226">
<path id="XMLID 206" d="M349.8 92.7H331.9C329.3 92.7 327.3 90.6 327.3 88.1V67.2C327.3 64.6 329.4 62.6 331.9 62.6H349.8C352.4 62.6 354.4 64.7 354.4 67.2V88.1C354.4 90.6 352.4 92.7 349.8 92.7Z" stroke="white" stroke-width="3" stroke-miterlimit="10" stroke-linecap="round" stroke-linejoin="round"/>
<path id="XMLID 225" d="M340.9 79C343.551 79 345.7 76.851 345.7 74.2C345.7 71.549 343.551 69.4 340.9 69.4C338.249 69.4 336.1 71.549 336.1 74.2C336.1 76.851 338.249 79 340.9 79Z" stroke="white" stroke-width="3" stroke-miterlimit="10" stroke-linecap="round" stroke-linejoin="round"/>
<path id="XMLID 227" d="M331.8 92.2C331.8 87.2 335.9 83.1 340.9 83.1C345.9 83.1 350 87.2 350 92.2" stroke="white" stroke-width="3" stroke-miterlimit="10" stroke-linecap="round" stroke-linejoin="round"/>
</g>
</g>
</g>
</svg>
