<svg width="402" height="459" viewBox="0 0 402 459" fill="none" xmlns="http://www.w3.org/2000/svg">
<path d="M38.3999 276.85C27.5999 276.85 16.6999 276.85 5.8999 276.85C12.5999 266.85 12.5999 253.85 5.8999 242.85C16.6999 242.85 27.5999 242.85 38.3999 242.85C31.6999 253.85 31.6999 266.85 38.3999 276.85Z" fill="#102D3B"/>
<path d="M380 408.85H104V12.85H380C389.9 12.85 398 20.65 398 30.55V390.55C398 400.55 389.9 408.85 380 408.85Z" fill="#4C5B60"/>
<path d="M357 12.85H333V408.85H357V12.85Z" fill="#3E4B4F"/>
<path opacity="0.3" d="M121 12.85H104V408.85H121V12.85Z" fill="#CCDDE5"/>
<path d="M380 408.85H104V12.85H380C389.9 12.85 398 20.65 398 30.55V390.55C398 400.55 389.9 408.85 380 408.85Z" stroke="#102D3B" stroke-width="8" stroke-miterlimit="10" stroke-linecap="round" stroke-linejoin="round"/>
<path d="M138 12.85H104V408.85H138V12.85Z" stroke="#102D3B" stroke-width="8" stroke-miterlimit="10" stroke-linecap="round" stroke-linejoin="round"/>
<path d="M398 126.85H104V238.85H398V126.85Z" fill="#FF9852"/>
<path opacity="0.6" d="M138 126.85V238.85" stroke="#D85639" stroke-width="8" stroke-miterlimit="10"/>
<path d="M121 126.85H104V238.85H121V126.85Z" fill="#FDBA5D"/>
<path opacity="0.61" d="M357 126.85H340V238.85H357V126.85Z" fill="#D85639"/>
<path d="M398 126.85H104V238.85H398V126.85Z" stroke="#102D3B" stroke-width="8" stroke-miterlimit="10" stroke-linecap="round" stroke-linejoin="round"/>
<path d="M340.2 416.85H327.9C324.7 416.85 322.1 414.25 322.1 411.05V10.65C322.1 7.44996 324.7 4.84998 327.9 4.84998H340.2C343.4 4.84998 346 7.44996 346 10.65V410.95C346 414.25 343.4 416.85 340.2 416.85Z" fill="#B7C8CE"/>
<path d="M340.2 416.85H327.9C324.7 416.85 322.1 414.25 322.1 411.05V10.65C322.1 7.44996 324.7 4.84998 327.9 4.84998H340.2C343.4 4.84998 346 7.44996 346 10.65V410.95C346 414.25 343.4 416.85 340.2 416.85Z" stroke="#102D3B" stroke-width="8" stroke-miterlimit="10" stroke-linecap="round" stroke-linejoin="round"/>
<path d="M165 454.55L135 437.85V408.85H165V454.55Z" fill="#EA3939"/>
<path opacity="0.62" d="M165 408.85H135V420.15H165V408.85Z" fill="#EA3939"/>
<path d="M165 454.55L135 437.85V408.85H165V454.55Z" stroke="#102D3B" stroke-width="8" stroke-miterlimit="10" stroke-linecap="round" stroke-linejoin="round"/>
<path d="M38 91.85H6V242.85H38V91.85Z" fill="#526066"/>
<path d="M38 91.85H6V242.85H38V91.85Z" fill="#526066"/>
<path opacity="0.64" d="M16 91.85H6V242.85H16V91.85Z" fill="#526066"/>
<path opacity="0.3" d="M38 91.85H29V242.85H38V91.85Z" fill="#526066"/>
<path d="M38 91.85H6V242.85H38V91.85Z" stroke="#102D3B" stroke-width="8" stroke-miterlimit="10" stroke-linecap="round" stroke-linejoin="round"/>
<path d="M38.4 344.85C27.6 344.85 16.7 344.85 5.89995 344.85C3.79995 322.85 3.79995 299.85 5.89995 276.85C16.7 276.85 27.6 276.85 38.4 276.85C40.5 299.85 40.5 322.85 38.4 344.85Z" fill="#42708A"/>
<path d="M38.4 344.85C27.6 344.85 16.7 344.85 5.89995 344.85C3.79995 322.85 3.79995 299.85 5.89995 276.85C16.7 276.85 27.6 276.85 38.4 276.85C40.5 299.85 40.5 322.85 38.4 344.85Z" fill="#526066"/>
<path opacity="0.3" d="M38.4001 276.85C35.8001 276.85 33.2001 276.85 30.6001 276.85C32.7001 299.85 32.7001 322.85 30.6001 344.85C33.2001 344.85 35.8001 344.85 38.4001 344.85C40.5001 322.85 40.5001 299.85 38.4001 276.85Z" fill="#526066"/>
<path opacity="0.73" d="M17.4 343.85C15.8 343.85 14.3 343.85 12.7 343.85C10.6 322.15 10.6 299.55 12.6 276.85C14.2 276.85 15.8 276.85 17.4 276.85C15.4 299.55 15.4 322.15 17.4 343.85Z" fill="#CCDDE5"/>
<path d="M38.4 344.85C27.6 344.85 16.7 344.85 5.89995 344.85C3.79995 322.85 3.79995 299.85 5.89995 276.85C16.7 276.85 27.6 276.85 38.4 276.85C40.5 299.85 40.5 322.85 38.4 344.85Z" stroke="#102D3B" stroke-width="8" stroke-miterlimit="10" stroke-linecap="round" stroke-linejoin="round"/>
<path d="M40 300.85H4V321.85H40V300.85Z" stroke="#102D3B" stroke-width="8" stroke-miterlimit="10" stroke-linecap="round" stroke-linejoin="round"/>
<path d="M38.3999 276.85C27.5999 276.85 16.6999 276.85 5.8999 276.85C12.5999 266.85 12.5999 253.85 5.8999 242.85C16.6999 242.85 27.5999 242.85 38.3999 242.85C31.6999 253.85 31.6999 266.85 38.3999 276.85Z" stroke="#102D3B" stroke-width="8" stroke-miterlimit="10" stroke-linecap="round" stroke-linejoin="round"/>
<path d="M26.2999 391.85C31.6999 375.85 38.1999 360.85 38.3999 344.85H5.8999C6.0999 360.85 12.5999 375.85 17.9999 391.85H26.2999Z" fill="#CCDDE5"/>
<path d="M38.3999 344.85C38.3999 345.15 38.3999 345.55 38.3999 345.85H16.9999C17.0999 361.55 19.8999 376.55 23.1999 391.85H17.9999C12.5999 375.85 6.0999 360.85 5.8999 344.85H38.3999Z" fill="white"/>
<path d="M26.2999 391.85C31.6999 375.85 38.1999 360.85 38.3999 344.85H5.8999C6.0999 360.85 12.5999 375.85 17.9999 391.85H26.2999Z" stroke="#102D3B" stroke-width="8" stroke-miterlimit="10" stroke-linecap="round" stroke-linejoin="round"/>
<path d="M26 391.85H18V397.85H26V391.85Z" stroke="#102D3B" stroke-width="8" stroke-miterlimit="10" stroke-linecap="round" stroke-linejoin="round"/>
<path d="M22 398.85V411.85" stroke="#102D3B" stroke-width="8" stroke-miterlimit="10" stroke-linecap="round" stroke-linejoin="round"/>
<path d="M34 69.85H10V91.85H34V69.85Z" stroke="#102D3B" stroke-width="8" stroke-miterlimit="10" stroke-linecap="round" stroke-linejoin="round"/>
<path d="M34 69.85H10V91.85H34V69.85Z" fill="#102D3B"/>
<path d="M31 69.85H13V44.15C13 40.65 16.2 37.85 19.7 37.85H24.7C28.2 37.85 31 40.65 31 44.15V69.85Z" fill="#CCDDE5"/>
<path d="M31 69.85H13V44.15C13 40.65 16.2 37.85 19.7 37.85H24.7C28.2 37.85 31 40.65 31 44.15V69.85Z" stroke="#102D3B" stroke-width="8" stroke-miterlimit="10" stroke-linecap="round" stroke-linejoin="round"/>
<path d="M49 105.85H18V123.85H49V105.85Z" fill="#CCDDE5"/>
<path d="M49 105.85H18V123.85H49V105.85Z" stroke="#102D3B" stroke-width="8" stroke-miterlimit="10" stroke-linecap="round" stroke-linejoin="round"/>
<path d="M49 185.15L38 170.65V123.85H49V185.15Z" fill="#CCDDE5"/>
<path d="M49 185.15L38 170.65V123.85H49V185.15Z" stroke="#102D3B" stroke-width="8" stroke-miterlimit="10" stroke-linecap="round" stroke-linejoin="round"/>
</svg>
