<svg width="543" height="319" viewBox="0 0 543 319" fill="none" xmlns="http://www.w3.org/2000/svg">
<g id="camera">
<path id="XMLID_89_" d="M174.5 39.6001H90.5V25.6001C90.5 16.8001 97.7 9.6001 106.5 9.6001H158.5C167.3 9.6001 174.5 16.8001 174.5 25.6001V39.6001Z" fill="#C1A7A7"/>
<path id="XMLID_2_" d="M174.5 39.6001H90.5V25.6001C90.5 16.8001 97.7 9.6001 106.5 9.6001H158.5C167.3 9.6001 174.5 16.8001 174.5 25.6001V39.6001Z" stroke="#493B3B" stroke-width="6" stroke-miterlimit="10" stroke-linecap="round" stroke-linejoin="round"/>
<g id="XMLID_190_">
<g id="XMLID_217_">
<path id="XMLID_218_" d="M169.8 12.8999V39.5999" stroke="#493B3B" stroke-width="4" stroke-miterlimit="10" stroke-linecap="round" stroke-linejoin="round"/>
</g>
<g id="XMLID_214_">
<path id="XMLID_215_" d="M160.8 12.8999V39.5999" stroke="#493B3B" stroke-width="4" stroke-miterlimit="10" stroke-linecap="round" stroke-linejoin="round"/>
</g>
<g id="XMLID_211_">
<path id="XMLID_212_" d="M151.8 12.8999V39.5999" stroke="#493B3B" stroke-width="4" stroke-miterlimit="10" stroke-linecap="round" stroke-linejoin="round"/>
</g>
<g id="XMLID_208_">
<path id="XMLID_209_" d="M142.8 12.8999V39.5999" stroke="#493B3B" stroke-width="4" stroke-miterlimit="10" stroke-linecap="round" stroke-linejoin="round"/>
</g>
<g id="XMLID_205_">
<path id="XMLID_206_" d="M133.8 12.8999V39.5999" stroke="#493B3B" stroke-width="4" stroke-miterlimit="10" stroke-linecap="round" stroke-linejoin="round"/>
</g>
<g id="XMLID_202_">
<path id="XMLID_203_" d="M124.8 12.8999V39.5999" stroke="#493B3B" stroke-width="4" stroke-miterlimit="10" stroke-linecap="round" stroke-linejoin="round"/>
</g>
<g id="XMLID_199_">
<path id="XMLID_200_" d="M115.8 12.8999V39.5999" stroke="#493B3B" stroke-width="4" stroke-miterlimit="10" stroke-linecap="round" stroke-linejoin="round"/>
</g>
<g id="XMLID_196_">
<path id="XMLID_197_" d="M106.8 12.8999V39.5999" stroke="#493B3B" stroke-width="4" stroke-miterlimit="10" stroke-linecap="round" stroke-linejoin="round"/>
</g>
<g id="XMLID_193_">
<path id="XMLID_194_" d="M97.7998 12.8999V39.5999" stroke="#493B3B" stroke-width="4" stroke-miterlimit="10" stroke-linecap="round" stroke-linejoin="round"/>
</g>
</g>
<path id="XMLID_53_" d="M515.9 3.7002H193.9C185 3.7002 176.8 8.00018 171.4 15.0002C160.1 30.0002 142.1 39.7002 121.9 39.7002H3.8999V291.7C3.8999 305 14.5999 315.7 27.8999 315.7H515.9C529.2 315.7 539.9 305 539.9 291.7V27.7002C539.9 14.4002 529.1 3.7002 515.9 3.7002Z" fill="#E2A86D"/>
<path id="XMLID_80_" d="M32.8999 83.3999H3.8999V287.5H32.8999V83.3999Z" fill="#D6975F"/>
<path id="XMLID_111_" d="M539.9 83.3999H510.9V287.5H539.9V83.3999Z" fill="#D6975F"/>
<g id="XMLID_120_">
<path id="XMLID_117_" d="M161.1 270.9L211.4 248.7L192 204.8L141.7 227C129.6 232.4 124.1 246.5 129.4 258.6C134.8 270.8 149 276.2 161.1 270.9Z" fill="#E5D6D6"/>
<path id="XMLID_106_" d="M161.1 270.9L211.4 248.7L192 204.8L141.7 227C129.6 232.4 124.1 246.5 129.4 258.6C134.8 270.8 149 276.2 161.1 270.9Z" stroke="#493B3B" stroke-width="6" stroke-miterlimit="10" stroke-linecap="round" stroke-linejoin="round"/>
<path id="XMLID_119_" d="M151.4 263.3C159.353 263.3 165.8 256.853 165.8 248.9C165.8 240.947 159.353 234.5 151.4 234.5C143.447 234.5 137 240.947 137 248.9C137 256.853 143.447 263.3 151.4 263.3Z" fill="#EFE6E6"/>
<path id="XMLID_110_" d="M151.4 263.3C159.353 263.3 165.8 256.853 165.8 248.9C165.8 240.947 159.353 234.5 151.4 234.5C143.447 234.5 137 240.947 137 248.9C137 256.853 143.447 263.3 151.4 263.3Z" stroke="#493B3B" stroke-width="4" stroke-miterlimit="10" stroke-linecap="round" stroke-linejoin="round"/>
</g>
<path id="XMLID_55_" d="M3.8999 287.5V291.6C3.8999 304.9 14.5999 315.6 27.8999 315.6H515.9C529.2 315.6 539.9 304.9 539.9 291.6V287.5H3.8999Z" fill="#E5D6D6"/>
<path id="XMLID_147_" opacity="0.2" d="M271.9 86.2998C209.2 86.2998 158.4 137.3 158.4 200.1C158.4 208.1 159.2 215.9 160.8 223.5L141.7 231.9C129.6 237.3 124.1 251.4 129.4 263.5C134.8 275.6 148.9 281.1 161 275.8L180.2 267.3C200.8 295.6 234.2 313.9 271.8 313.9C334.5 313.9 385.3 262.9 385.3 200.1C385.4 137.3 334.6 86.2998 271.9 86.2998Z" fill="#2D2D2D" stroke="#2D2D2D" stroke-width="8" stroke-miterlimit="10" stroke-linecap="round" stroke-linejoin="round"/>
<path id="XMLID_153_" d="M515.9 315.7H510.9V287.6H539.9V291.7C539.9 304.9 529.1 315.7 515.9 315.7Z" fill="#DBC8C8"/>
<path id="XMLID_133_" d="M27.8999 315.7H32.8999V287.6H3.8999V291.7C3.8999 304.9 14.5999 315.7 27.8999 315.7Z" fill="#DBC8C8"/>
<path id="XMLID_54_" d="M515.9 3.3999H193.9C185 3.3999 176.7 7.6999 171.4 14.7999C160.1 29.8999 142.1 39.5999 121.9 39.5999H3.8999V83.3999H539.9V27.4999C539.9 14.1999 529.1 3.3999 515.9 3.3999Z" fill="#E5D6D6"/>
<path id="XMLID_4_" d="M32.8999 40.6001H3.8999V83.4001H32.8999V40.6001Z" fill="#DBC8C8"/>
<path id="XMLID_166_" d="M371.1 67.6H36.0998C34.2998 67.6 32.7998 66.1 32.7998 64.3C32.7998 62.5 34.2998 61 36.0998 61H371.1C372.9 61 374.4 62.5 374.4 64.3C374.4 66.1 372.9 67.6 371.1 67.6Z" fill="#C1A7A7"/>
<path id="XMLID_142_" d="M515.8 3.3999H510.8V83.3999H539.8V27.3999C539.8 14.1999 529.1 3.3999 515.8 3.3999Z" fill="#DBC8C8"/>
<path id="shutter" d="M271 276C321.258 276 362 235.258 362 185C362 134.742 321.258 94 271 94C220.742 94 180 134.742 180 185C180 235.258 220.742 276 271 276Z" fill="#493B3B"/>
<g id="lens">
<path id="part2" d="M271.9 297C334.584 297 385.4 246.05 385.4 183.2C385.4 120.35 334.584 69.3999 271.9 69.3999C209.216 69.3999 158.4 120.35 158.4 183.2C158.4 246.05 209.216 297 271.9 297Z" fill="#E5D6D6"/>
<path id="XMLID_90_" d="M271.9 274.2C322.158 274.2 362.9 233.458 362.9 183.2C362.9 132.942 322.158 92.2002 271.9 92.2002C221.642 92.2002 180.9 132.942 180.9 183.2C180.9 233.458 221.642 274.2 271.9 274.2Z" fill="#845B5B"/>
<path id="XMLID_126_" d="M271.9 112.2C318.7 112.2 357.4 147.7 362.3 193.2C362.7 189.9 362.9 186.6 362.9 183.2C362.9 133 322.1 92.2002 271.9 92.2002C221.7 92.2002 180.9 133 180.9 183.2C180.9 186.6 181.1 189.9 181.5 193.2C186.4 147.7 225.1 112.2 271.9 112.2Z" fill="#704848"/>
<path id="XMLID_24_" d="M271.9 285.7C328.509 285.7 374.4 239.809 374.4 183.2C374.4 126.591 328.509 80.7002 271.9 80.7002C215.291 80.7002 169.4 126.591 169.4 183.2C169.4 239.809 215.291 285.7 271.9 285.7Z" stroke="#493B3B" stroke-width="3" stroke-miterlimit="10" stroke-linecap="round" stroke-linejoin="round"/>
<path id="XMLID_25_" d="M271.9 274.2C322.158 274.2 362.9 233.458 362.9 183.2C362.9 132.942 322.158 92.2002 271.9 92.2002C221.642 92.2002 180.9 132.942 180.9 183.2C180.9 233.458 221.642 274.2 271.9 274.2Z" stroke="#493B3B" stroke-width="8" stroke-miterlimit="10" stroke-linecap="round" stroke-linejoin="round"/>
<path id="XMLID_82_" d="M271.9 245.2C306.142 245.2 333.9 217.442 333.9 183.2C333.9 148.959 306.142 121.2 271.9 121.2C237.658 121.2 209.9 148.959 209.9 183.2C209.9 217.442 237.658 245.2 271.9 245.2Z" fill="#B57F7F"/>
<path id="XMLID_91_" opacity="0.34" d="M314.6 183.2C344.6 183.2 361.1 218.2 341.9 241.2C325.2 261.3 300 274.2 271.9 274.2C243.8 274.2 218.6 261.4 201.9 241.2C182.7 218.1 199.3 183.2 229.2 183.2H314.6Z" fill="white"/>
<path id="XMLID_108_" d="M271.9 141.2C302.7 141.2 328.3 163.8 333.1 193.2C333.6 189.9 333.9 186.6 333.9 183.2C333.9 149 306.1 121.2 271.9 121.2C237.7 121.2 209.9 149 209.9 183.2C209.9 186.6 210.2 189.9 210.7 193.2C215.5 163.7 241.1 141.2 271.9 141.2Z" fill="#AD6D6D"/>
<path id="XMLID_27_" d="M271.9 245.2C306.142 245.2 333.9 217.442 333.9 183.2C333.9 148.959 306.142 121.2 271.9 121.2C237.658 121.2 209.9 148.959 209.9 183.2C209.9 217.442 237.658 245.2 271.9 245.2Z" stroke="#493B3B" stroke-width="6" stroke-miterlimit="10" stroke-linecap="round" stroke-linejoin="round"/>
<path id="XMLID_84_" d="M308.438 189.13C311.712 168.96 298.014 149.954 277.843 146.68C257.672 143.407 238.666 157.105 235.393 177.276C232.119 197.447 245.817 216.452 265.988 219.726C286.159 222.999 305.165 209.301 308.438 189.13Z" fill="#4C3535"/>
<path id="XMLID_37_" d="M308.438 189.13C311.712 168.96 298.014 149.954 277.843 146.68C257.672 143.407 238.666 157.105 235.393 177.276C232.119 197.447 245.817 216.452 265.988 219.726C286.159 222.999 305.165 209.301 308.438 189.13Z" stroke="#493B3B" stroke-width="3" stroke-miterlimit="10" stroke-linecap="round" stroke-linejoin="round"/>
<path id="part1" d="M295.113 186.968C297.192 174.157 288.492 162.085 275.68 160.006C262.869 157.927 250.798 166.627 248.719 179.438C246.64 192.25 255.34 204.321 268.151 206.4C280.962 208.479 293.033 199.779 295.113 186.968Z" fill="#3F2E2E"/>
<path id="XMLID_98_" opacity="0.38" d="M271.9 159.7C258.9 159.7 248.4 170.2 248.4 183.2C248.4 183.3 248.4 183.3 248.4 183.4C251.5 180.8 256.1 179.4 262.2 179.9C268.3 180.4 269.4 182.3 276.2 184.3C282.2 186 289.9 185.4 295.4 182.7C295.1 169.9 284.7 159.7 271.9 159.7Z" fill="white"/>
</g>
<path id="XMLID_150_" d="M79.3 39.6001H27V29.6001C27 26.3001 29.7 23.6001 33 23.6001H73.3C76.6 23.6001 79.3 26.3001 79.3 29.6001V39.6001Z" fill="#6A4949"/>
<path id="XMLID_20_" d="M79.3 39.6001H27V29.6001C27 26.3001 29.7 23.6001 33 23.6001H73.3C76.6 23.6001 79.3 26.3001 79.3 29.6001V39.6001Z" stroke="#493B3B" stroke-width="6" stroke-miterlimit="10" stroke-linecap="round" stroke-linejoin="round"/>
<path id="XMLID_29_" d="M71.2002 11.7002H35.2002V23.6002H71.2002V11.7002Z" stroke="#493B3B" stroke-width="6" stroke-miterlimit="10" stroke-linecap="round" stroke-linejoin="round"/>
<path id="XMLID_115_" d="M71.2002 11.7002H35.2002V23.6002H71.2002V11.7002Z" fill="#493B3B"/>
<path id="XMLID_79_" d="M271.9 297C334.584 297 385.4 246.05 385.4 183.2C385.4 120.35 334.584 69.3999 271.9 69.3999C209.216 69.3999 158.4 120.35 158.4 183.2C158.4 246.05 209.216 297 271.9 297Z" stroke="#493B3B" stroke-width="8" stroke-miterlimit="10" stroke-linecap="round" stroke-linejoin="round"/>
<path id="XMLID_52_" d="M515.9 3.7002H193.9C185 3.7002 176.8 8.00018 171.4 15.0002C160.1 30.0002 142.1 39.7002 121.9 39.7002H3.8999V291.7C3.8999 305 14.5999 315.7 27.8999 315.7H515.9C529.2 315.7 539.9 305 539.9 291.7V27.7002C539.9 14.4002 529.1 3.7002 515.9 3.7002Z" stroke="#493B3B" stroke-width="6" stroke-miterlimit="10" stroke-linecap="round" stroke-linejoin="round"/>
<path id="XMLID_26_" d="M271.9 259.2C313.874 259.2 347.9 225.174 347.9 183.2C347.9 141.227 313.874 107.2 271.9 107.2C229.926 107.2 195.9 141.227 195.9 183.2C195.9 225.174 229.926 259.2 271.9 259.2Z" stroke="#493B3B" stroke-width="3" stroke-miterlimit="10" stroke-linecap="round" stroke-linejoin="round"/>
<path id="XMLID_86_" d="M271.9 274.2C322.158 274.2 362.9 233.458 362.9 183.2C362.9 132.942 322.158 92.2002 271.9 92.2002C221.642 92.2002 180.9 132.942 180.9 183.2C180.9 233.458 221.642 274.2 271.9 274.2Z" stroke="#493B3B" stroke-width="8" stroke-miterlimit="10" stroke-linecap="round" stroke-linejoin="round"/>
<path id="XMLID_114_" d="M485.4 75.4001H399.7C393.2 75.4001 387.9 70.1001 387.9 63.6001V29.4001C387.9 22.9001 393.2 17.6001 399.7 17.6001H485.4C491.9 17.6001 497.2 22.9001 497.2 29.4001V63.6001C497.2 70.1001 491.9 75.4001 485.4 75.4001Z" fill="#443636"/>
<path id="XMLID_151_" d="M485.4 75.4001H399.7C393.2 75.4001 387.9 70.1001 387.9 63.6001V29.4001C387.9 22.9001 393.2 17.6001 399.7 17.6001H485.4C491.9 17.6001 497.2 22.9001 497.2 29.4001V63.6001C497.2 70.1001 491.9 75.4001 485.4 75.4001Z" stroke="#493B3B" stroke-width="4" stroke-miterlimit="10" stroke-linecap="round" stroke-linejoin="round"/>
<path id="XMLID_149_" d="M477.9 69.4001H407.2C401.7 69.4001 397.2 64.9001 397.2 59.4001V33.6001C397.2 28.1001 401.7 23.6001 407.2 23.6001H477.9C483.4 23.6001 487.9 28.1001 487.9 33.6001V59.4001C487.9 65.0001 483.4 69.4001 477.9 69.4001Z" fill="#845B5B"/>
<path id="XMLID_395_" opacity="0.38" d="M460.6 69.4001L487.8 32.2001C487.1 27.4001 483 23.6001 477.9 23.6001H474.7L441.3 69.4001H460.6Z" fill="white"/>
<path id="XMLID_394_" opacity="0.38" d="M434 69.4001L467.4 23.6001H461.5L428.1 69.4001H434Z" fill="white"/>
</g>
</svg>
