<svg width="1000" height="1000" viewBox="0 0 1000 1000" fill="none" xmlns="http://www.w3.org/2000/svg">
<path opacity="0.41" d="M692.3 414.8H312.3C239.4 414.8 180.3 473.9 180.3 546.8C180.3 619.7 239.4 678.8 312.3 678.8C363.6 678.8 408.1 649.5 429.9 606.8H574.7C596.5 649.5 641 678.8 692.3 678.8C765.2 678.8 824.3 619.7 824.3 546.8C824.3 473.9 765.2 414.8 692.3 414.8Z" fill="black" stroke="black" stroke-width="10" stroke-miterlimit="10" stroke-linecap="round" stroke-linejoin="round"/>
<path opacity="0.41" d="M502.3 382.5V263.1C502.3 249.4 491.2 238.3 477.5 238.3H290C276.3 238.3 265.2 227.2 265.2 213.5C265.2 199.8 276.3 188.7 290 188.7H687.5C701.2 188.7 712.3 177.6 712.3 163.9C712.3 150.2 701.2 139.1 687.5 139.1H527C513.3 139.1 502.2 128 502.2 114.3V9" stroke="black" stroke-width="10" stroke-miterlimit="10" stroke-linecap="round" stroke-linejoin="round"/>
<path d="M502.3 369.2V249.8C502.3 236.1 491.2 225 477.5 225H290C276.3 225 265.2 213.9 265.2 200.2C265.2 186.5 276.3 175.4 290 175.4H687.5C701.2 175.4 712.3 164.3 712.3 150.6C712.3 136.9 701.2 125.8 687.5 125.8H527C513.3 125.8 502.2 114.7 502.2 101V0" stroke="#663C3B" stroke-width="10" stroke-miterlimit="10" stroke-linejoin="round"/>
<path d="M531.3 379H473.3V391.5H531.3V379Z" fill="#663C3B"/>
<path d="M523 372.8H481.5V382.6H523V372.8Z" fill="#663C3B"/>
<path d="M517.5 366.5H487V375.9H517.5V366.5Z" fill="#663C3B"/>
<path d="M692.3 391.8H312.3C239.4 391.8 180.3 450.9 180.3 523.8C180.3 596.7 239.4 655.8 312.3 655.8C363.6 655.8 408.1 626.5 429.9 583.8H574.7C596.5 626.5 641 655.8 692.3 655.8C765.2 655.8 824.3 596.7 824.3 523.8C824.3 450.9 765.2 391.8 692.3 391.8Z" fill="#FEC556"/>
<path d="M481.7 443.6H453.7C451.5 443.6 449.7 441.8 449.7 439.6C449.7 437.4 451.5 435.6 453.7 435.6H481.7C483.9 435.6 485.7 437.4 485.7 439.6C485.7 441.8 484 443.6 481.7 443.6Z" fill="#F29940"/>
<path d="M560.4 443.9H503.5C501.3 443.9 499.5 442.1 499.5 439.9C499.5 437.7 501.3 435.9 503.5 435.9H560.4C562.6 435.9 564.4 437.7 564.4 439.9C564.4 442.1 562.7 443.9 560.4 443.9Z" fill="#F29940"/>
<path d="M560.4 460.4H453.6C451.4 460.4 449.6 458.6 449.6 456.4C449.6 454.2 451.4 452.4 453.6 452.4H560.4C562.6 452.4 564.4 454.2 564.4 456.4C564.4 458.6 562.6 460.4 560.4 460.4Z" fill="#F29940"/>
<path d="M452.4 542.7C448.9 539.2 448.9 533.5 452.4 530L482.1 500.3C485.6 496.8 491.3 496.8 494.8 500.3C498.3 503.8 498.3 509.5 494.8 513L465.1 542.7C461.6 546.2 455.9 546.2 452.4 542.7Z" fill="#F29940"/>
<path d="M519.4 542.7C515.9 539.2 515.9 533.5 519.4 530L549.1 500.3C552.6 496.8 558.3 496.8 561.8 500.3C565.3 503.8 565.3 509.5 561.8 513L532.1 542.7C528.6 546.2 522.9 546.2 519.4 542.7Z" fill="#F29940"/>
<path d="M312.3 403.3H692.3C763.6 403.3 821.7 458.9 824.2 528.4C824.3 526.8 824.3 525.3 824.3 523.7C824.3 450.8 765.2 391.7 692.3 391.7H312.3C239.4 391.7 180.3 450.8 180.3 523.7C180.3 525.3 180.3 526.8 180.4 528.4C182.8 458.9 240.9 403.3 312.3 403.3Z" fill="#F29940"/>
<path d="M692.3 638.8C641 638.8 599.5 617.5 577.7 574.8H426.9C405.1 617.5 363.6 638.8 312.3 638.8C242.3 638.8 185 584.2 180.6 515.3C180.4 518.1 180.3 520.9 180.3 523.8C180.3 596.7 239.4 655.8 312.3 655.8C363.6 655.8 408.1 626.5 429.9 583.8H574.7C596.5 626.5 641 655.8 692.3 655.8C765.2 655.8 824.3 596.7 824.3 523.8C824.3 520.9 824.2 518.1 824 515.3C819.6 584.2 762.3 638.8 692.3 638.8Z" fill="#F29940"/>
<path d="M312.8 616C359.744 616 397.8 577.944 397.8 531C397.8 484.056 359.744 446 312.8 446C265.856 446 227.8 484.056 227.8 531C227.8 577.944 265.856 616 312.8 616Z" fill="#F29940"/>
<path d="M312.8 607.8C359.192 607.8 396.8 570.192 396.8 523.8C396.8 477.408 359.192 439.8 312.8 439.8C266.408 439.8 228.8 477.408 228.8 523.8C228.8 570.192 266.408 607.8 312.8 607.8Z" fill="#835559"/>
<path d="M312.8 594.8C352.012 594.8 383.8 563.012 383.8 523.8C383.8 484.588 352.012 452.8 312.8 452.8C273.588 452.8 241.8 484.588 241.8 523.8C241.8 563.012 273.588 594.8 312.8 594.8Z" fill="#95676B"/>
<path d="M363.2 507.8H328.8V473.4C328.8 470.9 326.7 468.8 324.2 468.8H301.4C298.9 468.8 296.8 470.9 296.8 473.4V507.8H262.4C259.9 507.8 257.8 509.9 257.8 512.4V535.2C257.8 537.7 259.9 539.8 262.4 539.8H296.8V574.2C296.8 576.7 298.9 578.8 301.4 578.8H324.2C326.7 578.8 328.8 576.7 328.8 574.2V539.8H363.2C365.7 539.8 367.8 537.7 367.8 535.2V512.4C367.8 509.8 365.7 507.8 363.2 507.8Z" fill="#663C3B"/>
<path d="M312.8 607.8C359.192 607.8 396.8 570.192 396.8 523.8C396.8 477.408 359.192 439.8 312.8 439.8C266.408 439.8 228.8 477.408 228.8 523.8C228.8 570.192 266.408 607.8 312.8 607.8Z" stroke="#663C3B" stroke-width="6" stroke-miterlimit="10" stroke-linecap="round" stroke-linejoin="round"/>
<path d="M692.8 616C739.744 616 777.8 577.944 777.8 531C777.8 484.056 739.744 446 692.8 446C645.856 446 607.8 484.056 607.8 531C607.8 577.944 645.856 616 692.8 616Z" fill="#F29940"/>
<path d="M692.8 607.8C739.192 607.8 776.8 570.192 776.8 523.8C776.8 477.408 739.192 439.8 692.8 439.8C646.408 439.8 608.8 477.408 608.8 523.8C608.8 570.192 646.408 607.8 692.8 607.8Z" fill="#835559"/>
<path d="M692.8 594.8C732.012 594.8 763.8 563.012 763.8 523.8C763.8 484.588 732.012 452.8 692.8 452.8C653.588 452.8 621.8 484.588 621.8 523.8C621.8 563.012 653.588 594.8 692.8 594.8Z" fill="#95676B"/>
<path d="M692.8 607.8C739.192 607.8 776.8 570.192 776.8 523.8C776.8 477.408 739.192 439.8 692.8 439.8C646.408 439.8 608.8 477.408 608.8 523.8C608.8 570.192 646.408 607.8 692.8 607.8Z" stroke="#663C3B" stroke-width="6" stroke-miterlimit="10" stroke-linecap="round" stroke-linejoin="round"/>
<path d="M306.3 487.2L311.8 477.6C312.2 476.9 313.2 476.9 313.6 477.6L319.1 487.2C319.5 487.9 319 488.8 318.2 488.8H307.1C306.4 488.8 305.9 487.9 306.3 487.2Z" fill="#FEC556"/>
<path d="M306.3 560.4L311.8 570C312.2 570.7 313.2 570.7 313.6 570L319.1 560.4C319.5 559.7 319 558.8 318.2 558.8H307.1C306.4 558.8 305.9 559.7 306.3 560.4Z" fill="#FEC556"/>
<path d="M363.2 507.8H328.8V473.4C328.8 470.9 326.7 468.8 324.2 468.8H301.4C298.9 468.8 296.8 470.9 296.8 473.4V507.8H262.4C259.9 507.8 257.8 509.9 257.8 512.4V535.2C257.8 537.7 259.9 539.8 262.4 539.8H296.8V574.2C296.8 576.7 298.9 578.8 301.4 578.8H324.2C326.7 578.8 328.8 576.7 328.8 574.2V539.8H363.2C365.7 539.8 367.8 537.7 367.8 535.2V512.4C367.8 509.8 365.7 507.8 363.2 507.8Z" stroke="#663C3B" stroke-width="3" stroke-miterlimit="10" stroke-linecap="round" stroke-linejoin="round"/>
<path d="M347.6 517.3L357.2 522.8C357.9 523.2 357.9 524.2 357.2 524.6L347.6 530.1C346.9 530.5 346 530 346 529.2V518.1C346 517.4 346.9 516.9 347.6 517.3Z" fill="#FEC556"/>
<path d="M276.2 517.3L266.6 522.8C265.9 523.2 265.9 524.2 266.6 524.6L276.2 530.1C276.9 530.5 277.8 530 277.8 529.2V518.1C277.8 517.4 276.9 516.9 276.2 517.3Z" fill="#FEC556"/>
<path d="M602 385.8H692.8C712.3 385.8 730.9 389.9 747.8 397.2" stroke="#663C3B" stroke-width="8" stroke-miterlimit="10" stroke-linecap="round" stroke-linejoin="round"/>
<path d="M257.8 397.2C274.7 389.8 293.3 385.8 312.8 385.8H402" stroke="#663C3B" stroke-width="8" stroke-miterlimit="10" stroke-linecap="round" stroke-linejoin="round"/>
<path d="M692.3 391.8H312.3C239.4 391.8 180.3 450.9 180.3 523.8C180.3 596.7 239.4 655.8 312.3 655.8C363.6 655.8 408.1 626.5 429.9 583.8H574.7C596.5 626.5 641 655.8 692.3 655.8C765.2 655.8 824.3 596.7 824.3 523.8C824.3 450.9 765.2 391.8 692.3 391.8Z" stroke="#663C3B" stroke-width="6" stroke-miterlimit="10" stroke-linecap="round" stroke-linejoin="round"/>
<path opacity="0.17" d="M706.3 511.5L666.7 551.1C658.1 559.7 644.2 559.7 635.6 551.1C627 542.5 627 528.6 635.6 520L675.2 480.4C683.8 471.8 697.7 471.8 706.3 480.4C714.9 488.9 714.9 502.9 706.3 511.5Z" fill="black"/>
<path d="M704.3 507.5L664.7 547.1C656.1 555.7 642.2 555.7 633.6 547.1C625 538.5 625 524.6 633.6 516L673.2 476.4C681.8 467.8 695.7 467.8 704.3 476.4C712.9 484.9 712.9 498.9 704.3 507.5Z" fill="#FEC556"/>
<path d="M704.3 507.5L664.7 547.1C656.1 555.7 642.2 555.7 633.6 547.1C625 538.5 625 524.6 633.6 516L673.2 476.4C681.8 467.8 695.7 467.8 704.3 476.4C712.9 484.9 712.9 498.9 704.3 507.5Z" stroke="#663C3B" stroke-width="3" stroke-miterlimit="10" stroke-linecap="round" stroke-linejoin="round"/>
<path d="M649.2 545.5C656.932 545.5 663.2 539.232 663.2 531.5C663.2 523.768 656.932 517.5 649.2 517.5C641.468 517.5 635.2 523.768 635.2 531.5C635.2 539.232 641.468 545.5 649.2 545.5Z" fill="#32B94D"/>
<path d="M640.2 530.7C640.6 525.7 645 522.1 650 522.5" stroke="#663C3B" stroke-width="2" stroke-miterlimit="10" stroke-linecap="round" stroke-linejoin="round"/>
<path d="M649.2 545.5C656.932 545.5 663.2 539.232 663.2 531.5C663.2 523.768 656.932 517.5 649.2 517.5C641.468 517.5 635.2 523.768 635.2 531.5C635.2 539.232 641.468 545.5 649.2 545.5Z" stroke="#663C3B" stroke-width="3" stroke-miterlimit="10" stroke-linecap="round" stroke-linejoin="round"/>
<path d="M688.8 505.9C696.532 505.9 702.8 499.632 702.8 491.9C702.8 484.168 696.532 477.9 688.8 477.9C681.068 477.9 674.8 484.168 674.8 491.9C674.8 499.632 681.068 505.9 688.8 505.9Z" fill="#8BD8F5"/>
<path d="M679.8 491.9C679.8 486.9 683.8 482.9 688.8 482.9" stroke="#663C3B" stroke-width="2" stroke-miterlimit="10" stroke-linecap="round" stroke-linejoin="round"/>
<path d="M688.8 505.9C696.532 505.9 702.8 499.632 702.8 491.9C702.8 484.168 696.532 477.9 688.8 477.9C681.068 477.9 674.8 484.168 674.8 491.9C674.8 499.632 681.068 505.9 688.8 505.9Z" stroke="#663C3B" stroke-width="3" stroke-miterlimit="10" stroke-linecap="round" stroke-linejoin="round"/>
<path opacity="0.17" d="M752.9 537.7L713.3 577.3C704.7 585.9 690.8 585.9 682.2 577.3C673.6 568.7 673.6 554.8 682.2 546.2L721.8 506.6C730.4 498 744.3 498 752.9 506.6C761.5 515.2 761.5 529.1 752.9 537.7Z" fill="black"/>
<path d="M751.9 532.7L712.3 572.3C703.7 580.9 689.8 580.9 681.2 572.3C672.6 563.7 672.6 549.8 681.2 541.2L720.8 501.6C729.4 493 743.3 493 751.9 501.6C760.5 510.2 760.5 524.1 751.9 532.7Z" fill="#FEC556"/>
<path d="M751.9 532.7L712.3 572.3C703.7 580.9 689.8 580.9 681.2 572.3C672.6 563.7 672.6 549.8 681.2 541.2L720.8 501.6C729.4 493 743.3 493 751.9 501.6C760.5 510.2 760.5 524.1 751.9 532.7Z" stroke="#663C3B" stroke-width="3" stroke-miterlimit="10" stroke-linecap="round" stroke-linejoin="round"/>
<path d="M696.8 570.8C704.532 570.8 710.8 564.532 710.8 556.8C710.8 549.068 704.532 542.8 696.8 542.8C689.068 542.8 682.8 549.068 682.8 556.8C682.8 564.532 689.068 570.8 696.8 570.8Z" fill="#FEF585"/>
<path d="M687.8 556.8C687.8 551.8 691.8 547.8 696.8 547.8" stroke="#663C3B" stroke-width="2" stroke-miterlimit="10" stroke-linecap="round" stroke-linejoin="round"/>
<path d="M696.8 570.8C704.532 570.8 710.8 564.532 710.8 556.8C710.8 549.068 704.532 542.8 696.8 542.8C689.068 542.8 682.8 549.068 682.8 556.8C682.8 564.532 689.068 570.8 696.8 570.8Z" stroke="#663C3B" stroke-width="3" stroke-miterlimit="10" stroke-linecap="round" stroke-linejoin="round"/>
<path d="M736.4 531.2C744.132 531.2 750.4 524.932 750.4 517.2C750.4 509.468 744.132 503.2 736.4 503.2C728.668 503.2 722.4 509.468 722.4 517.2C722.4 524.932 728.668 531.2 736.4 531.2Z" fill="#E7503B"/>
<path d="M727.4 517.2C727.4 512.2 731.4 508.2 736.4 508.2" stroke="#663C3B" stroke-width="2" stroke-miterlimit="10" stroke-linecap="round" stroke-linejoin="round"/>
<path d="M736.4 531.2C744.132 531.2 750.4 524.932 750.4 517.2C750.4 509.468 744.132 503.2 736.4 503.2C728.668 503.2 722.4 509.468 722.4 517.2C722.4 524.932 728.668 531.2 736.4 531.2Z" stroke="#663C3B" stroke-width="3" stroke-miterlimit="10" stroke-linecap="round" stroke-linejoin="round"/>
<path d="M452.4 538.7C448.9 535.2 448.9 529.5 452.4 526L482.1 496.3C485.6 492.8 491.3 492.8 494.8 496.3C498.3 499.8 498.3 505.5 494.8 509L465.1 538.7C461.6 542.2 455.9 542.2 452.4 538.7Z" fill="#663C3B"/>
<path d="M519.4 538.7C515.9 535.2 515.9 529.5 519.4 526L549.1 496.3C552.6 492.8 558.3 492.8 561.8 496.3C565.3 499.8 565.3 505.5 561.8 509L532.1 538.7C528.6 542.2 522.9 542.2 519.4 538.7Z" fill="#663C3B"/>
<path d="M312.8 539.8C321.637 539.8 328.8 532.637 328.8 523.8C328.8 514.963 321.637 507.8 312.8 507.8C303.963 507.8 296.8 514.963 296.8 523.8C296.8 532.637 303.963 539.8 312.8 539.8Z" fill="#FEC556"/>
<path d="M312.8 536.5C304.7 536.5 297.7 530.1 296.9 522.1C296.8 522.6 296.8 523.2 296.8 523.7C296.8 532.4 304.1 539.7 312.8 539.7C321.5 539.7 328.8 532.4 328.8 523.7C328.8 523.1 328.8 522.6 328.7 522.1C327.8 530.1 320.9 536.5 312.8 536.5Z" fill="#F29940"/>
<path d="M300.8 523.8C300.8 517.3 306.3 511.8 312.8 511.8" stroke="#663C3B" stroke-width="2" stroke-miterlimit="10" stroke-linecap="round" stroke-linejoin="round"/>
<path d="M63.2 959.2C63.2 961.7 62 962.9 60.6 962.9C59.5 962.9 58.7 962.4 58.5 961.5C58.1 962 57.5 962.3 56.7 962.3C55.2 962.3 54.1 961.1 54.1 959.5C54.1 957.9 55.2 956.7 56.7 956.7C57.4 956.7 57.9 957 58.3 957.4V956.9H59.9V960.8C59.9 961.6 60.2 962.2 60.9 962.2C61.8 962.2 62.6 961.3 62.6 959.2C62.6 956.2 60.3 953.9 57.2 953.9C54.1 953.9 51.6 956.3 51.6 959.6C51.6 962.9 54.1 965.3 57.5 965.3C58.6 965.3 59.6 965.1 60.4 964.9V965.5C59.6 965.8 58.7 965.9 57.5 965.9C53.8 965.9 51 963.3 51 959.7C51 956.3 53.7 953.5 57.2 953.5C61.1 953.3 63.2 956.4 63.2 959.2ZM58.3 959.5C58.3 958.7 57.7 958.1 57 958.1C56.2 958.1 55.7 958.6 55.7 959.5C55.7 960.3 56.3 960.8 57 960.8C57.8 960.9 58.3 960.3 58.3 959.5Z" fill="#EEF2F4"/>
<path d="M69.3999 955.1V957.1C68.1999 957 66.7999 957.6 66.7999 959.5V963.8H64.8999V955.2H66.7999V956.6C67.2999 955.5 68.2999 955.1 69.3999 955.1Z" fill="#EEF2F4"/>
<path d="M74.6 962.3C75.6 962.3 76.4 961.8 76.8 961.2L78.3 962.1C77.5 963.3 76.2 964 74.5 964C71.7 964 69.8 962.1 69.8 959.5C69.8 957 71.6 955 74.3 955C76.9 955 78.6 957.1 78.6 959.5C78.6 959.8 78.6 960 78.5 960.3H71.7C72.1 961.6 73.2 962.3 74.6 962.3ZM76.9 958.8C76.6 957.3 75.6 956.7 74.4 956.7C73 956.7 72.1 957.5 71.8 958.8H76.9Z" fill="#EEF2F4"/>
<path d="M88.9 955.2V963.8H87V962.6C86.3 963.5 85.3 964.1 84 964.1C81.7 964.1 79.7 962.1 79.7 959.6C79.7 957 81.6 955.1 84 955.1C85.3 955.1 86.3 955.6 87 956.5V955.3H88.9V955.2ZM87.1 959.5C87.1 957.9 85.9 956.8 84.4 956.8C82.9 956.8 81.7 957.9 81.7 959.5C81.7 961.1 82.9 962.2 84.4 962.2C85.9 962.3 87.1 961.1 87.1 959.5Z" fill="#EEF2F4"/>
<path d="M91.1001 951.3H93.0001V963.8H91.1001V951.3Z" fill="#EEF2F4"/>
<path d="M102.9 955.2L99.6 963.8H97.5L94.2 955.2H96.2L98.6 961.7L101 955.2H102.9Z" fill="#EEF2F4"/>
<path d="M104.2 955.2H106.1V964.1C106.1 966.5 104.9 967.6 102.6 967.4V965.6C103.7 965.7 104.3 965.3 104.3 964.1V955.2H104.2ZM104 952.8C104 952.1 104.5 951.6 105.2 951.6C105.9 951.6 106.4 952.1 106.4 952.8C106.4 953.4 105.9 954 105.2 954C104.5 954 104 953.4 104 952.8Z" fill="#EEF2F4"/>
<path d="M116 955.2L112.7 964C111.9 966.2 110.5 967.3 108.5 967.2V965.5C109.7 965.6 110.4 965 110.8 963.8L110.9 963.6L107.3 955.2H109.3L111.9 961.4L114.1 955.2H116V955.2Z" fill="#EEF2F4"/>
<path d="M211.9 938.7C211.9 940.8 210.4 942.5 208.3 942.5H205.3V934.9H208.3C210.4 934.9 211.9 936.6 211.9 938.7ZM210.9 938.7C210.9 937.1 209.8 935.8 208.3 935.8H206.3V941.5H208.3C209.8 941.6 210.9 940.3 210.9 938.7Z" fill="#EEF2F4"/>
<path d="M219.5 940.8H216.1L215.5 942.5H214.4L217.2 934.9H218.3L221.1 942.5H220L219.5 940.8ZM219.2 939.9L217.8 936.1L216.4 939.9H219.2Z" fill="#EEF2F4"/>
<path d="M226.4 939.4V942.5H225.4V939.4L222.7 934.9H223.8L225.9 938.5L228 934.9H229.1L226.4 939.4Z" fill="#EEF2F4"/>
<path d="M237 938.7C237 936.3 238.1 934.7 239.9 934.7C241.8 934.7 242.8 936.3 242.8 938.7C242.8 941.1 241.8 942.7 239.9 942.7C238.1 942.7 237 941 237 938.7ZM241.9 938.7C241.9 936.8 241.2 935.7 240 935.7C238.8 935.7 238.1 936.8 238.1 938.7C238.1 940.6 238.8 941.7 240 941.7C241.2 941.7 241.9 940.6 241.9 938.7Z" fill="#EEF2F4"/>
<path d="M245.9 941.7L248.6 939C249.2 938.4 249.7 937.8 249.7 937.1C249.7 936.2 249.1 935.7 248.3 935.7C247.6 935.7 247.1 936 246.7 936.7L245.9 936.2C246.4 935.2 247.3 934.7 248.3 934.7C249.5 934.7 250.7 935.5 250.7 937C250.7 937.9 250.1 938.8 249.3 939.5L247.3 941.4H250.8V942.4H245.9V941.7V941.7Z" fill="#EEF2F4"/>
<path d="M847.4 942.5H846.4V936.5L843.9 940.7H843.8L841.3 936.6V942.5H840.3V934.9H841.4L843.8 938.9L846.2 934.9H847.3V942.5H847.4Z" fill="#EEF2F4"/>
<path d="M850.9 938.7C850.9 936.5 852.6 934.7 854.8 934.7C857 934.7 858.8 936.5 858.8 938.7C858.8 940.9 857.1 942.7 854.8 942.7C852.7 942.7 850.9 940.9 850.9 938.7ZM857.8 938.7C857.8 937 856.5 935.7 854.9 935.7C853.2 935.7 852 937 852 938.7C852 940.4 853.3 941.7 854.9 941.7C856.6 941.7 857.8 940.4 857.8 938.7Z" fill="#EEF2F4"/>
<path d="M865.2 939.6H863.4V942.5H862.4V934.9H865.4C866.7 934.9 867.8 936 867.8 937.3C867.8 938.3 867.1 939.2 866.2 939.5L868 942.6H866.9L865.2 939.6ZM863.4 938.7H865.4C866.2 938.7 866.8 938.1 866.8 937.3C866.8 936.5 866.2 935.9 865.4 935.9H863.4V938.7Z" fill="#EEF2F4"/>
<path d="M875.9 941.6V942.6H871.3V935H875.8V936H872.3V938.3H875.5V939.2H872.3V941.6H875.9V941.6Z" fill="#EEF2F4"/>
<path d="M58.9001 938.7C58.9001 940.8 57.4 942.5 55.3 942.5H52.3V934.9H55.3C57.4 934.9 58.9001 936.6 58.9001 938.7ZM57.9001 938.7C57.9001 937.1 56.8 935.8 55.3 935.8H53.3V941.5H55.3C56.8 941.6 57.9001 940.3 57.9001 938.7Z" fill="#EEF2F4"/>
<path d="M67.0001 941.6V942.6H62.4001V935H66.9001V936H63.4001V938.3H66.6001V939.2H63.4001V941.6H67.0001V941.6Z" fill="#EEF2F4"/>
<path d="M70 940.8L70.9 940.3C71.2 941.1 71.8 941.7 72.9 941.7C74 941.7 74.5 941.2 74.5 940.5C74.5 939.7 73.8 939.5 72.7 939.1C71.5 938.7 70.3 938.3 70.3 936.9C70.3 935.5 71.4 934.7 72.7 934.7C74 934.7 74.9 935.4 75.3 936.4L74.5 936.9C74.2 936.2 73.7 935.7 72.8 935.7C72 935.7 71.4 936.1 71.4 936.8C71.4 937.5 71.9 937.8 73 938.1C74.3 938.5 75.6 938.9 75.6 940.4C75.6 941.7 74.5 942.6 73 942.6C71.5 942.7 70.4 941.9 70 940.8Z" fill="#EEF2F4"/>
<path d="M80 934.9V942.5H79V934.9H80Z" fill="#EEF2F4"/>
<path d="M91.3001 939.2C91.3001 941.1 89.9001 942.7 87.6001 942.7C85.2001 942.7 83.6001 940.9 83.6001 938.7C83.6001 936.5 85.3001 934.7 87.6001 934.7C89.0001 934.7 90.3001 935.5 90.9001 936.5L90.0001 937C89.6001 936.2 88.6001 935.6 87.6001 935.6C85.8001 935.6 84.6001 936.9 84.6001 938.6C84.6001 940.3 85.8001 941.6 87.6001 941.6C89.2001 941.6 90.1001 940.7 90.3001 939.6H87.5001V938.7H91.3001V939.2V939.2Z" fill="#EEF2F4"/>
<path d="M100.6 934.9V942.5H99.8001L95.9001 936.8V942.5H94.9001V934.9H95.7001L99.6001 940.6V934.9H100.6Z" fill="#EEF2F4"/>
<path d="M109.1 941.6V942.6H104.5V935H109V936H105.5V938.3H108.7V939.2H105.5V941.6H109.1V941.6Z" fill="#EEF2F4"/>
<path d="M119.2 938.7C119.2 940.8 117.7 942.5 115.6 942.5H112.6V934.9H115.6C117.6 934.9 119.2 936.6 119.2 938.7ZM118.2 938.7C118.2 937.1 117.1 935.8 115.6 935.8H113.6V941.5H115.6C117.1 941.6 118.2 940.3 118.2 938.7Z" fill="#EEF2F4"/>
<path d="M133.2 940.4C133.2 941.6 132.2 942.6 131 942.6H127.7V935H130.7C131.9 935 132.8 935.9 132.8 937.1C132.8 937.8 132.5 938.3 132 938.7C132.7 938.9 133.2 939.5 133.2 940.4ZM128.7 935.8V938.1H130.7C131.3 938.1 131.8 937.6 131.8 936.9C131.8 936.3 131.3 935.7 130.7 935.7H128.7V935.8ZM132.2 940.3C132.2 939.6 131.7 939.1 131 939.1H128.7V941.6H131C131.7 941.6 132.2 941 132.2 940.3Z" fill="#EEF2F4"/>
<path d="M139.4 939.4V942.5H138.4V939.4L135.7 934.9H136.8L138.9 938.5L141 934.9H142.1L139.4 939.4Z" fill="#EEF2F4"/>
<path d="M214.2 955.4V963.8C214.2 966.6 212 968 209.7 968C207.8 968 206.2 967.3 205.5 965.9L207.1 964.9C207.5 965.7 208.1 966.3 209.7 966.3C211.3 966.3 212.3 965.4 212.3 963.9V962.8C211.6 963.8 210.6 964.3 209.2 964.3C206.7 964.3 204.7 962.3 204.7 959.7C204.7 957.1 206.7 955.1 209.2 955.1C210.6 955.1 211.6 955.7 212.3 956.6V955.3H214.2V955.4ZM212.4 959.8C212.4 958.2 211.2 957 209.6 957C208 957 206.8 958.2 206.8 959.8C206.8 961.4 208 962.6 209.6 962.6C211.2 962.6 212.4 961.4 212.4 959.8Z" fill="#EEF2F4"/>
<path d="M225.4 955.4V964.3H223.5V963C222.8 963.9 221.8 964.5 220.4 964.5C218 964.5 216 962.5 216 959.8C216 957.2 218 955.1 220.4 955.1C221.8 955.1 222.8 955.7 223.5 956.6V955.3H225.4V955.4ZM223.5 959.9C223.5 958.3 222.3 957.1 220.7 957.1C219.1 957.1 217.9 958.3 217.9 959.9C217.9 961.5 219.1 962.7 220.7 962.7C222.3 962.7 223.5 961.5 223.5 959.9Z" fill="#EEF2F4"/>
<path d="M240.6 958.8V964.3H238.7V958.9C238.7 957.7 238 957 237 957C235.9 957 235.1 957.7 235.1 959.3V964.3H233.2V958.9C233.2 957.7 232.6 957 231.5 957C230.4 957 229.5 957.7 229.5 959.3V964.3H227.6V955.4H229.5V956.5C230.1 955.6 230.9 955.2 232 955.2C233.2 955.2 234 955.7 234.5 956.6C235.1 955.7 236 955.2 237.2 955.2C239.3 955.2 240.6 956.6 240.6 958.8Z" fill="#EEF2F4"/>
<path d="M242.4 952.9C242.4 952.2 242.9 951.7 243.6 951.7C244.3 951.7 244.8 952.2 244.8 952.9C244.8 953.6 244.3 954.1 243.6 954.1C243 954.1 242.4 953.6 242.4 952.9ZM242.7 955.4H244.6V964.3H242.7V955.4Z" fill="#EEF2F4"/>
<path d="M254.9 958.9V964.3H253V959.1C253 957.8 252.2 957 251 957C249.7 957 248.8 957.7 248.8 959.5V964.2H246.9V955.3H248.8V956.4C249.4 955.5 250.3 955 251.5 955C253.5 955.2 254.9 956.6 254.9 958.9Z" fill="#EEF2F4"/>
<path d="M265.9 955.4V963.8C265.9 966.6 263.7 968 261.4 968C259.5 968 257.9 967.3 257.2 965.9L258.8 964.9C259.2 965.7 259.8 966.3 261.4 966.3C263 966.3 264 965.4 264 963.9V962.8C263.3 963.8 262.3 964.3 260.9 964.3C258.4 964.3 256.4 962.3 256.4 959.7C256.4 957.1 258.4 955.1 260.9 955.1C262.3 955.1 263.3 955.7 264 956.6V955.3H265.9V955.4ZM264 959.8C264 958.2 262.8 957 261.2 957C259.6 957 258.4 958.2 258.4 959.8C258.4 961.4 259.6 962.6 261.2 962.6C262.8 962.6 264 961.4 264 959.8Z" fill="#EEF2F4"/>
<path d="M272 959.9C272 957.3 274 955.2 276.7 955.2C278.4 955.2 279.9 956.1 280.6 957.5L279 958.5C278.6 957.7 277.7 957.1 276.7 957.1C275.1 957.1 274 958.3 274 959.9C274 961.5 275.2 962.7 276.7 962.7C277.8 962.7 278.6 962.2 279.1 961.3L280.7 962.2C280 963.6 278.5 964.5 276.7 964.5C274 964.5 272 962.5 272 959.9Z" fill="#EEF2F4"/>
<path d="M281.4 959.9C281.4 957.3 283.5 955.2 286.1 955.2C288.7 955.2 290.8 957.2 290.8 959.9C290.8 962.5 288.7 964.6 286.1 964.6C283.5 964.5 281.4 962.5 281.4 959.9ZM288.9 959.9C288.9 958.3 287.7 957.1 286.1 957.1C284.5 957.1 283.3 958.3 283.3 959.9C283.3 961.5 284.5 962.7 286.1 962.7C287.7 962.7 288.9 961.5 288.9 959.9Z" fill="#EEF2F4"/>
<path d="M300.6 958.9V964.3H298.7V959.1C298.7 957.8 297.9 957 296.7 957C295.4 957 294.5 957.7 294.5 959.5V964.2H292.6V955.3H294.5V956.4C295.1 955.5 296 955 297.2 955C299.2 955.2 300.6 956.6 300.6 958.9Z" fill="#EEF2F4"/>
<path d="M309.1 961.8C309.1 963.6 307.6 964.5 305.6 964.5C303.8 964.5 302.6 963.7 302 962.4L303.6 961.4C303.9 962.2 304.6 962.7 305.6 962.7C306.4 962.7 307.1 962.4 307.1 961.7C307.1 960.1 302.3 961 302.3 957.8C302.3 956.1 303.7 955.1 305.5 955.1C307 955.1 308.2 955.8 308.8 956.9L307.2 957.8C306.9 957.1 306.3 956.8 305.5 956.8C304.8 956.8 304.2 957.1 304.2 957.7C304.3 959.5 309.1 958.5 309.1 961.8Z" fill="#EEF2F4"/>
<path d="M310.1 959.9C310.1 957.3 312.2 955.2 314.8 955.2C317.4 955.2 319.5 957.2 319.5 959.9C319.5 962.5 317.4 964.6 314.8 964.6C312.2 964.5 310.1 962.5 310.1 959.9ZM317.5 959.9C317.5 958.3 316.3 957.1 314.7 957.1C313.1 957.1 311.9 958.3 311.9 959.9C311.9 961.5 313.1 962.7 314.7 962.7C316.3 962.7 317.5 961.5 317.5 959.9Z" fill="#EEF2F4"/>
<path d="M321.2 951.4H323.1V964.3H321.2V951.4Z" fill="#EEF2F4"/>
<path d="M329.6 962.8C330.7 962.8 331.5 962.3 331.9 961.7L333.5 962.6C332.7 963.8 331.4 964.5 329.6 964.5C326.7 964.5 324.8 962.5 324.8 959.8C324.8 957.2 326.7 955.1 329.5 955.1C332.1 955.1 333.9 957.2 333.9 959.8C333.9 960.1 333.9 960.3 333.8 960.6H326.8C327.1 962.1 328.2 962.8 329.6 962.8ZM332 959.1C331.7 957.6 330.6 956.9 329.5 956.9C328.1 956.9 327.1 957.7 326.8 959.1H332Z" fill="#EEF2F4"/>
<path d="M848.8 955.4L845.3 964.3H843.1L839.6 955.4H841.7L844.2 962.1L846.7 955.4H848.8Z" fill="#EEF2F4"/>
<path d="M849.7 952.9C849.7 952.2 850.2 951.7 850.9 951.7C851.6 951.7 852.1 952.2 852.1 952.9C852.1 953.6 851.6 954.1 850.9 954.1C850.3 954.1 849.7 953.6 849.7 952.9ZM850 955.4H851.9V964.3H850V955.4Z" fill="#EEF2F4"/>
<path d="M854.3 955.4H856.2V964.6C856.2 967 855 968.2 852.6 968V966.2C853.8 966.3 854.3 965.9 854.3 964.6V955.4ZM854 952.9C854 952.2 854.5 951.7 855.2 951.7C855.9 951.7 856.4 952.2 856.4 952.9C856.4 953.6 855.9 954.1 855.2 954.1C854.6 954.1 854 953.6 854 952.9Z" fill="#EEF2F4"/>
<path d="M867.3 955.4V964.3H865.4V963C864.7 963.9 863.7 964.5 862.3 964.5C859.9 964.5 857.9 962.5 857.9 959.8C857.9 957.2 859.9 955.1 862.3 955.1C863.7 955.1 864.7 955.7 865.4 956.6V955.3H867.3V955.4ZM865.4 959.9C865.4 958.3 864.2 957.1 862.6 957.1C861 957.1 859.8 958.3 859.8 959.9C859.8 961.5 861 962.7 862.6 962.7C864.2 962.7 865.4 961.5 865.4 959.9Z" fill="#EEF2F4"/>
<path d="M877.6 955.4L874.2 964.5C873.4 966.7 871.9 967.9 869.9 967.8V966C871.1 966.1 871.8 965.4 872.3 964.3L872.4 964.1L868.6 955.4H870.7L873.3 961.8L875.6 955.4H877.6V955.4Z" fill="#EEF2F4"/>
<path d="M886.9 955.4L883.4 964.3H881.2L877.7 955.4H879.8L882.3 962.1L884.8 955.4H886.9Z" fill="#EEF2F4"/>
<path d="M892.1 962.8C893.2 962.8 894 962.3 894.4 961.7L896 962.6C895.2 963.8 893.9 964.5 892.1 964.5C889.2 964.5 887.3 962.5 887.3 959.8C887.3 957.2 889.2 955.1 892 955.1C894.6 955.1 896.4 957.2 896.4 959.8C896.4 960.1 896.4 960.3 896.3 960.6H889.3C889.5 962.1 890.7 962.8 892.1 962.8ZM894.4 959.1C894.1 957.6 893 956.9 891.9 956.9C890.5 956.9 889.5 957.7 889.2 959.1H894.4Z" fill="#EEF2F4"/>
<path d="M902.7 955.3V957.4C901.4 957.3 900 957.9 900 959.9V964.4H898V955.5H899.9V957C900.5 955.7 901.6 955.3 902.7 955.3Z" fill="#EEF2F4"/>
<path d="M917.1 958.8V964.3H915.2V958.9C915.2 957.7 914.5 957 913.5 957C912.4 957 911.6 957.7 911.6 959.3V964.3H909.7V958.9C909.7 957.7 909.1 957 908 957C906.9 957 906 957.7 906 959.3V964.3H904.1V955.4H906V956.5C906.6 955.6 907.4 955.2 908.5 955.2C909.7 955.2 910.5 955.7 911 956.6C911.6 955.7 912.5 955.2 913.7 955.2C915.8 955.2 917.1 956.6 917.1 958.8Z" fill="#EEF2F4"/>
<path d="M928.1 955.4V964.3H926.2V963C925.5 963.9 924.5 964.5 923.1 964.5C920.7 964.5 918.7 962.5 918.7 959.8C918.7 957.2 920.7 955.1 923.1 955.1C924.5 955.1 925.5 955.7 926.2 956.6V955.3H928.1V955.4ZM926.2 959.9C926.2 958.3 925 957.1 923.4 957.1C921.8 957.1 920.6 958.3 920.6 959.9C920.6 961.5 921.8 962.7 923.4 962.7C925 962.7 926.2 961.5 926.2 959.9Z" fill="#EEF2F4"/>
<path d="M930.1 963.2C930.1 962.5 930.7 961.9 931.4 961.9C932.1 961.9 932.7 962.5 932.7 963.2C932.7 963.9 932.1 964.5 931.4 964.5C930.7 964.5 930.1 963.9 930.1 963.2Z" fill="#EEF2F4"/>
<path d="M933.6 959.9C933.6 957.3 935.6 955.2 938.3 955.2C940 955.2 941.5 956.1 942.2 957.5L940.6 958.5C940.2 957.7 939.3 957.1 938.3 957.1C936.7 957.1 935.6 958.3 935.6 959.9C935.6 961.5 936.8 962.7 938.3 962.7C939.4 962.7 940.2 962.2 940.7 961.3L942.3 962.2C941.6 963.6 940.1 964.5 938.3 964.5C935.6 964.5 933.6 962.5 933.6 959.9Z" fill="#EEF2F4"/>
<path d="M943 959.9C943 957.3 945.1 955.2 947.7 955.2C950.3 955.2 952.4 957.2 952.4 959.9C952.4 962.5 950.3 964.6 947.7 964.6C945.1 964.5 943 962.5 943 959.9ZM950.5 959.9C950.5 958.3 949.3 957.1 947.7 957.1C946.1 957.1 944.9 958.3 944.9 959.9C944.9 961.5 946.1 962.7 947.7 962.7C949.3 962.7 950.5 961.5 950.5 959.9Z" fill="#EEF2F4"/>
</svg>
