<svg width="1000" height="1000" viewBox="0 0 1000 1000" fill="none" xmlns="http://www.w3.org/2000/svg">
<path d="M619.9 346.3C623.9 372.7 619.9 413.3 648.8 434.9C676.3 455.4 699 450.3 699 450.3C701.7 440.5 736.5 344.7 619.9 346.3Z" fill="#022266"/>
<path d="M776.2 352.5C751.5 362.5 711 368.1 696.8 401.3C692 412.5 690.2 422.4 689.9 430.5C683 445.8 676.4 458.3 670 468.5C649.4 501.2 631.7 509.7 617.9 510.1C589.8 510.9 579.9 477.7 509.9 418.1C462.3 377.5 434.6 354.6 391.9 348.1C335.3 339.5 291.1 365.9 284.7 369.9C272.4 377.5 237.2 399.1 223.9 440.1C197.6 521.3 278.6 596.7 287.7 604.9C326.6 640.1 369.2 650.3 392.7 655.9C407.9 659.5 461.5 671 527.9 654.5C566.1 645 638.9 626.9 681.9 558.1C704.4 522.1 711 484.6 711.5 454.1C742.4 452.9 798.6 440.4 776.2 352.5Z" fill="#32FD99"/>
<path d="M527.9 654.4C557.2 647.1 606.8 634.8 647.8 598.4C567.2 632.8 514.6 626.7 479.9 612C397.6 577 375.1 475.3 305.9 478C287.5 478.7 263.1 486.4 251.9 506C238.3 529.9 251.3 558.5 253.4 563C260.1 574 271.1 589.5 287.7 604.8C325.5 639.6 367 649.7 392.7 655.8C407.9 659.5 461.5 670.9 527.9 654.4Z" fill="#A6FFD0"/>
<path opacity="0.12" d="M302.5 478C302.5 478 349.5 590 479 617" stroke="#022266" stroke-width="6" stroke-miterlimit="10" stroke-linecap="round" stroke-linejoin="round"/>
<path opacity="0.08" d="M536.1 644.6C469.7 661.1 416.1 649.7 400.9 646C375.2 639.8 333.7 629.8 295.9 595C279.3 579.7 268.3 564.2 261.6 553.2C259.5 548.7 246.5 520.1 260.1 496.2C260.3 495.8 260.6 495.4 260.9 494.9C257.4 498.1 254.4 501.8 252 506C238.4 529.9 251.4 558.5 253.5 563C260.2 574 271.2 589.5 287.8 604.8C325.6 639.6 367.1 649.7 392.8 655.8C408 659.4 461.6 670.9 528 654.4C557.3 647.1 606.9 634.8 647.9 598.4C644.9 599.7 641.9 600.9 638.9 602.1C601.8 628.2 561.3 638.3 536.1 644.6Z" fill="#515151"/>
<path opacity="0.12" d="M253.9 507.8C253.9 507.8 273 581.2 353 622.5C412 653 506.3 669.2 623.9 614" stroke="#022266" stroke-width="6" stroke-miterlimit="10" stroke-linecap="round" stroke-linejoin="round"/>
<path opacity="0.12" d="M269.1 488.7C269.1 488.7 334.5 691 607.4 615.5" stroke="#022266" stroke-width="6" stroke-miterlimit="10" stroke-linecap="round" stroke-linejoin="round"/>
<path d="M527.9 654.4C557.2 647.1 606.8 634.8 647.8 598.4C567.2 632.8 514.6 626.7 479.9 612C397.6 577 375.1 475.3 305.9 478C287.5 478.7 263.1 486.4 251.9 506C238.3 529.9 251.3 558.5 253.4 563C260.1 574 271.1 589.5 287.7 604.8C325.5 639.6 367 649.7 392.7 655.8C407.9 659.5 461.5 670.9 527.9 654.4Z" stroke="#022266" stroke-width="6" stroke-miterlimit="10" stroke-linecap="round" stroke-linejoin="round"/>
<path d="M250.8 471.6C255.826 471.6 259.9 466.317 259.9 459.8C259.9 453.283 255.826 448 250.8 448C245.774 448 241.7 453.283 241.7 459.8C241.7 466.317 245.774 471.6 250.8 471.6Z" fill="#022266"/>
<path d="M327.6 458.6C332.626 458.6 336.7 453.317 336.7 446.8C336.7 440.283 332.626 435 327.6 435C322.574 435 318.5 440.283 318.5 446.8C318.5 453.317 322.574 458.6 327.6 458.6Z" fill="#022266"/>
<path d="M776.2 352.5C751.5 362.5 711 368.1 696.8 401.3C692 412.5 690.2 422.4 689.9 430.5C683 445.8 676.4 458.3 670 468.5C649.4 501.2 631.7 509.7 617.9 510.1C589.8 510.9 579.9 477.7 509.9 418.1C462.3 377.5 434.6 354.6 391.9 348.1C335.3 339.5 291.1 365.9 284.7 369.9C272.4 377.5 237.2 399.1 223.9 440.1C197.6 521.3 278.6 596.7 287.7 604.9C326.6 640.1 369.2 650.3 392.7 655.9C407.9 659.5 461.5 671 527.9 654.5C566.1 645 638.9 626.9 681.9 558.1C704.4 522.1 711 484.6 711.5 454.1C742.4 452.9 798.6 440.4 776.2 352.5Z" stroke="#022266" stroke-width="6" stroke-miterlimit="10" stroke-linecap="round" stroke-linejoin="round"/>
<path d="M499.9 562C499.9 562 556.2 626.9 513.9 704C487.9 730 465.1 648 465.1 622C465.1 596 473.9 581.3 473.9 581.3" fill="#32FD99"/>
<path d="M499.9 562C499.9 562 556.2 626.9 513.9 704C487.9 730 465.1 648 465.1 622C465.1 596 473.9 581.3 473.9 581.3" stroke="#022266" stroke-width="6" stroke-miterlimit="10" stroke-linecap="round" stroke-linejoin="round"/>
</svg>
