<svg width="307" height="307" viewBox="0 0 307 307" fill="none" xmlns="http://www.w3.org/2000/svg">
<g id="disk">
<path id="XMLID 9" d="M285.1 3.8999H41.6996C38.6996 3.8999 35.6996 5.0999 33.5996 7.2999L6.4996 34.3999C4.2996 36.5999 3.09961 39.4999 3.09961 42.4999V285.9C3.09961 295.8 11.1996 303.9 21.0996 303.9H285.1C295 303.9 303.1 295.8 303.1 285.9V21.8999C303.1 11.9999 295 3.8999 285.1 3.8999Z" fill="#747178"/>
<path id="XMLID 24" opacity="0.43" d="M153.1 285.6C223.075 285.6 279.8 228.875 279.8 158.9C279.8 88.9257 223.075 32.2002 153.1 32.2002C83.1259 32.2002 26.4004 88.9257 26.4004 158.9C26.4004 228.875 83.1259 285.6 153.1 285.6Z" fill="#514E55" stroke="#464349" stroke-width="4" stroke-miterlimit="10"/>
<path id="XMLID 16" d="M285.1 3.8999H41.6996C38.6996 3.8999 35.6996 5.0999 33.5996 7.2999L6.4996 34.3999C4.2996 36.5999 3.09961 39.4999 3.09961 42.4999V285.9C3.09961 295.8 11.1996 303.9 21.0996 303.9H285.1C295 303.9 303.1 295.8 303.1 285.9V21.8999C303.1 11.9999 295 3.8999 285.1 3.8999Z" stroke="#413E51" stroke-width="6" stroke-miterlimit="10" stroke-linecap="round" stroke-linejoin="round"/>
<path id="XMLID 2" d="M285.1 3.8999H41.6996C38.6996 3.8999 35.6996 5.0999 33.5996 7.2999L6.4996 34.3999C4.2996 36.5999 3.09961 39.4999 3.09961 42.4999V285.9C3.09961 295.8 11.1996 303.9 21.0996 303.9H285.1C295 303.9 303.1 295.8 303.1 285.9V21.8999C303.1 11.9999 295 3.8999 285.1 3.8999Z" stroke="#413E51" stroke-width="6" stroke-miterlimit="10" stroke-linecap="round" stroke-linejoin="round"/>
<path id="XMLID 15" d="M153.1 200.9C176.296 200.9 195.1 182.096 195.1 158.9C195.1 135.704 176.296 116.9 153.1 116.9C129.904 116.9 111.1 135.704 111.1 158.9C111.1 182.096 129.904 200.9 153.1 200.9Z" fill="#C9C9C9"/>
<path id="XMLID 17" d="M153.1 200.9C176.296 200.9 195.1 182.096 195.1 158.9C195.1 135.704 176.296 116.9 153.1 116.9C129.904 116.9 111.1 135.704 111.1 158.9C111.1 182.096 129.904 200.9 153.1 200.9Z" stroke="#413E51" stroke-width="6" stroke-miterlimit="10" stroke-linecap="round" stroke-linejoin="round"/>
<path id="XMLID 21" d="M257.1 303.9H49.0996V278.9C49.0996 269 57.1996 260.9 67.0996 260.9H239.1C249 260.9 257.1 269 257.1 278.9V303.9Z" fill="#413E51"/>
<path id="XMLID 18" d="M257.1 303.9H49.0996V278.9C49.0996 269 57.1996 260.9 67.0996 260.9H239.1C249 260.9 257.1 269 257.1 278.9V303.9Z" stroke="#413E51" stroke-width="6" stroke-miterlimit="10" stroke-linecap="round" stroke-linejoin="round"/>
<path id="XMLID 28" d="M284.6 260.9H270.6V274.9H284.6V260.9Z" fill="#413E51"/>
<path id="XMLID 22" d="M284.6 260.9H270.6V274.9H284.6V260.9Z" stroke="#413E51" stroke-width="6" stroke-miterlimit="10" stroke-linecap="round" stroke-linejoin="round"/>
<path id="XMLID 32" d="M195.1 247.6H262.1" stroke="#413E51" stroke-width="8" stroke-miterlimit="10" stroke-linecap="round" stroke-linejoin="round"/>
<path id="XMLID 33" d="M156.6 152.9H147.6V161.9H156.6V152.9Z" fill="#413E51"/>
<path id="XMLID 31" d="M156.6 152.9H147.6V161.9H156.6V152.9Z" stroke="#413E51" stroke-width="6" stroke-miterlimit="10" stroke-linecap="round" stroke-linejoin="round"/>
<path id="XMLID 38" d="M172.796 168.381L153.922 174.999L157.231 184.436L176.105 177.818L172.796 168.381Z" fill="#413E51"/>
<path id="XMLID 35" d="M172.796 168.381L153.922 174.999L157.231 184.436L176.105 177.818L172.796 168.381Z" stroke="#413E51" stroke-width="6" stroke-miterlimit="10" stroke-linecap="round" stroke-linejoin="round"/>
<path id="XMLID 44" d="M303.1 65.8999C296.5 65.8999 291.1 60.4999 291.1 53.8999C291.1 47.2999 296.5 41.8999 303.1 41.8999V65.8999Z" fill="#413E51"/>
<path id="XMLID 42" d="M303.1 65.8999C296.5 65.8999 291.1 60.4999 291.1 53.8999C291.1 47.2999 296.5 41.8999 303.1 41.8999V65.8999Z" stroke="#413E51" stroke-width="6" stroke-miterlimit="10" stroke-linecap="round" stroke-linejoin="round"/>
<path id="XMLID 49" d="M3.09961 65.8999C9.69961 65.8999 15.0996 60.4999 15.0996 53.8999C15.0996 47.2999 9.69961 41.8999 3.09961 41.8999V65.8999Z" fill="#413E51"/>
<path id="XMLID 48" d="M3.09961 65.8999C9.69961 65.8999 15.0996 60.4999 15.0996 53.8999C15.0996 47.2999 9.69961 41.8999 3.09961 41.8999V65.8999Z" stroke="#413E51" stroke-width="6" stroke-miterlimit="10" stroke-linecap="round" stroke-linejoin="round"/>
<g id="XMLID 39">
<path id="XMLID 37" d="M24.7998 89.8999C29.4942 89.8999 33.2998 86.0943 33.2998 81.3999C33.2998 76.7055 29.4942 72.8999 24.7998 72.8999C20.1054 72.8999 16.2998 76.7055 16.2998 81.3999C16.2998 86.0943 20.1054 89.8999 24.7998 89.8999Z" fill="#413E51"/>
<path id="XMLID 46" d="M275.3 89.8999C279.994 89.8999 283.8 86.0943 283.8 81.3999C283.8 76.7055 279.994 72.8999 275.3 72.8999C270.605 72.8999 266.8 76.7055 266.8 81.3999C266.8 86.0943 270.605 89.8999 275.3 89.8999Z" fill="#413E51"/>
</g>
<path id="XMLID 23" d="M244.1 95.8999H106.1C96.1996 95.8999 88.0996 87.7999 88.0996 77.8999V3.8999H262.1V77.8999C262.1 87.8999 254 95.8999 244.1 95.8999Z" fill="#514E55"/>
<path id="XMLID 34" opacity="0.48" d="M200.1 95.8999H112.1C102.2 95.8999 94.0996 87.7999 94.0996 77.8999V3.8999H218.1V77.8999C218.1 87.8999 210 95.8999 200.1 95.8999Z" stroke="#413E51" stroke-width="6" stroke-miterlimit="10" stroke-linecap="round" stroke-linejoin="round"/>
<path id="XMLID 14" d="M244.1 95.8999H106.1C96.1996 95.8999 88.0996 87.7999 88.0996 77.8999V3.8999H262.1V77.8999C262.1 87.8999 254 95.8999 244.1 95.8999Z" stroke="#413E51" stroke-width="6" stroke-miterlimit="10" stroke-linecap="round" stroke-linejoin="round"/>
<path id="XMLID 30" d="M212.1 16.8999H245.6" stroke="#413E51" stroke-width="8" stroke-miterlimit="10" stroke-linecap="round" stroke-linejoin="round"/>
<path id="XMLID 20" d="M194.1 95.8999H106.1C96.1996 95.8999 88.0996 87.7999 88.0996 77.8999V3.8999H212.1V77.8999C212.1 87.8999 204 95.8999 194.1 95.8999Z" fill="#BFC1C0"/>
<path id="XMLID 51" opacity="0.52" d="M160.6 95.9L212.1 24.8V8.5L147.2 95.9H160.6Z" fill="#DDDDDD"/>
<path id="XMLID 50" opacity="0.52" d="M109.4 95.6C110.6 95.8 104.8 96 106.1 96H135.9L204.6 4H177.8L109.4 95.6Z" fill="#DDDDDD"/>
<path id="XMLID 19" d="M194.1 95.8999H106.1C96.1996 95.8999 88.0996 87.7999 88.0996 77.8999V3.8999H212.1V77.8999C212.1 87.8999 204 95.8999 194.1 95.8999Z" stroke="#413E51" stroke-width="6" stroke-miterlimit="10" stroke-linecap="round" stroke-linejoin="round"/>
<path id="XMLID 26" d="M134.7 14.8999H110.7V72.8999H134.7V14.8999Z" fill="#514E55"/>
<path id="XMLID 1" opacity="0.48" d="M124.1 14.8999H110.7V72.8999H124.1V14.8999Z" fill="#413E51"/>
<path id="XMLID 25" d="M134.7 14.8999H110.7V72.8999H134.7V14.8999Z" stroke="#413E51" stroke-width="6" stroke-miterlimit="10" stroke-linecap="round" stroke-linejoin="round"/>
<path id="XMLID 27" d="M199.2 14.8999H187.2V20.8999H199.2V14.8999Z" stroke="#413E51" stroke-width="6" stroke-miterlimit="10" stroke-linecap="round" stroke-linejoin="round"/>
<path id="XMLID 5" d="M26.4004 303.9V279.9" stroke="#413E51" stroke-width="6" stroke-miterlimit="10" stroke-linecap="round" stroke-linejoin="round"/>
</g>
</svg>
