<svg width="4902" height="3001" viewBox="0 0 4902 3001" fill="none" xmlns="http://www.w3.org/2000/svg">
<g id="explosion">
<rect id="Rectangle 5" x="1" y="1" width="4900" height="3000" fill="white"/>
<g id="item9">
<path id="XMLID 202" d="M2618.46 1310.99L2266.66 1555.19C2261.76 1558.49 2264.06 1566.19 2269.96 1566.19H2623.86C2626.06 1566.19 2627.86 1564.39 2627.86 1562.19V1315.99C2627.86 1311.19 2622.46 1308.39 2618.46 1310.99ZM2414.36 1516.39L2577.96 1398.09V1516.39H2414.36Z" fill="#CB0000" stroke="#CB0000" stroke-width="8" stroke-miterlimit="10" stroke-linecap="round" stroke-linejoin="round"/>
<g id="XMLID 28">
<path id="XMLID 155" d="M2607.46 1298.99L2255.66 1543.19C2250.76 1546.49 2253.06 1554.19 2258.96 1554.19H2612.86C2615.06 1554.19 2616.86 1552.39 2616.86 1550.19V1303.99C2616.86 1299.19 2611.46 1296.39 2607.46 1298.99ZM2403.36 1504.39L2566.96 1386.09V1504.39H2403.36Z" fill="#FF9E03"/>
<path id="XMLID 32" d="M2607.46 1298.99L2255.66 1543.19C2250.76 1546.49 2253.06 1554.19 2258.96 1554.19H2612.86C2615.06 1554.19 2616.86 1552.39 2616.86 1550.19V1303.99C2616.86 1299.19 2611.46 1296.39 2607.46 1298.99ZM2403.36 1504.39L2566.96 1386.09V1504.39H2403.36Z" stroke="#340600" stroke-width="8" stroke-miterlimit="10" stroke-linecap="round" stroke-linejoin="round"/>
<g id="XMLID 6">
<g id="XMLID 150">
<path id="XMLID 154" d="M2595.76 1553.99V1537.49" stroke="#340600" stroke-width="3" stroke-miterlimit="10" stroke-linejoin="round"/>
</g>
<g id="XMLID 145">
<path id="XMLID 149" d="M2550.76 1553.99V1537.49" stroke="#340600" stroke-width="3" stroke-miterlimit="10" stroke-linejoin="round"/>
<path id="XMLID 148" d="M2562.56 1553.99V1545.39" stroke="#340600" stroke-width="3" stroke-miterlimit="10" stroke-linejoin="round"/>
<path id="XMLID 147" d="M2584.26 1553.99V1545.39" stroke="#340600" stroke-width="3" stroke-miterlimit="10" stroke-linejoin="round"/>
<path id="XMLID 146" d="M2573.36 1553.99V1541.99" stroke="#340600" stroke-width="3" stroke-miterlimit="10" stroke-linejoin="round"/>
</g>
<g id="XMLID 140">
<path id="XMLID 144" d="M2505.76 1553.99V1537.49" stroke="#340600" stroke-width="3" stroke-miterlimit="10" stroke-linejoin="round"/>
<path id="XMLID 143" d="M2517.56 1553.99V1545.39" stroke="#340600" stroke-width="3" stroke-miterlimit="10" stroke-linejoin="round"/>
<path id="XMLID 142" d="M2539.26 1553.99V1545.39" stroke="#340600" stroke-width="3" stroke-miterlimit="10" stroke-linejoin="round"/>
<path id="XMLID 141" d="M2528.36 1553.99V1541.99" stroke="#340600" stroke-width="3" stroke-miterlimit="10" stroke-linejoin="round"/>
</g>
<g id="XMLID 135">
<path id="XMLID 139" d="M2460.76 1553.99V1537.49" stroke="#340600" stroke-width="3" stroke-miterlimit="10" stroke-linejoin="round"/>
<path id="XMLID 138" d="M2472.56 1553.99V1545.39" stroke="#340600" stroke-width="3" stroke-miterlimit="10" stroke-linejoin="round"/>
<path id="XMLID 137" d="M2494.26 1553.99V1545.39" stroke="#340600" stroke-width="3" stroke-miterlimit="10" stroke-linejoin="round"/>
<path id="XMLID 136" d="M2483.36 1553.99V1541.99" stroke="#340600" stroke-width="3" stroke-miterlimit="10" stroke-linejoin="round"/>
</g>
<g id="XMLID 130">
<path id="XMLID 134" d="M2415.76 1553.99V1537.49" stroke="#340600" stroke-width="3" stroke-miterlimit="10" stroke-linejoin="round"/>
<path id="XMLID 133" d="M2427.56 1553.99V1545.39" stroke="#340600" stroke-width="3" stroke-miterlimit="10" stroke-linejoin="round"/>
<path id="XMLID 132" d="M2449.26 1553.99V1545.39" stroke="#340600" stroke-width="3" stroke-miterlimit="10" stroke-linejoin="round"/>
<path id="XMLID 131" d="M2438.36 1553.99V1541.99" stroke="#340600" stroke-width="3" stroke-miterlimit="10" stroke-linejoin="round"/>
</g>
<g id="XMLID 124">
<path id="XMLID 129" d="M2370.76 1553.99V1537.49" stroke="#340600" stroke-width="3" stroke-miterlimit="10" stroke-linejoin="round"/>
<path id="XMLID 128" d="M2382.56 1553.99V1545.39" stroke="#340600" stroke-width="3" stroke-miterlimit="10" stroke-linejoin="round"/>
<path id="XMLID 126" d="M2404.26 1553.99V1545.39" stroke="#340600" stroke-width="3" stroke-miterlimit="10" stroke-linejoin="round"/>
<path id="XMLID 125" d="M2393.36 1553.99V1541.99" stroke="#340600" stroke-width="3" stroke-miterlimit="10" stroke-linejoin="round"/>
</g>
<g id="XMLID 99">
<path id="XMLID 123" d="M2325.76 1553.99V1537.49" stroke="#340600" stroke-width="3" stroke-miterlimit="10" stroke-linejoin="round"/>
<path id="XMLID 117" d="M2337.56 1553.99V1545.39" stroke="#340600" stroke-width="3" stroke-miterlimit="10" stroke-linejoin="round"/>
<path id="XMLID 111" d="M2359.26 1553.99V1545.39" stroke="#340600" stroke-width="3" stroke-miterlimit="10" stroke-linejoin="round"/>
<path id="XMLID 105" d="M2348.36 1553.99V1541.99" stroke="#340600" stroke-width="3" stroke-miterlimit="10" stroke-linejoin="round"/>
</g>
<g id="XMLID 74">
<path id="XMLID 98" d="M2280.76 1553.99V1537.49" stroke="#340600" stroke-width="3" stroke-miterlimit="10" stroke-linejoin="round"/>
<path id="XMLID 92" d="M2292.56 1553.99V1545.39" stroke="#340600" stroke-width="3" stroke-miterlimit="10" stroke-linejoin="round"/>
<path id="XMLID 86" d="M2314.26 1553.99V1545.39" stroke="#340600" stroke-width="3" stroke-miterlimit="10" stroke-linejoin="round"/>
<path id="XMLID 80" d="M2303.36 1553.99V1541.99" stroke="#340600" stroke-width="3" stroke-miterlimit="10" stroke-linejoin="round"/>
</g>
</g>
<g id="XMLID 5">
<g id="XMLID 177">
<path id="XMLID 181" d="M2615.96 1353.79H2599.36" stroke="#340600" stroke-width="3" stroke-miterlimit="10" stroke-linejoin="round"/>
<path id="XMLID 180" d="M2615.96 1341.89H2607.26" stroke="#340600" stroke-width="3" stroke-miterlimit="10" stroke-linejoin="round"/>
<path id="XMLID 179" d="M2615.96 1320.29H2607.26" stroke="#340600" stroke-width="3" stroke-miterlimit="10" stroke-linejoin="round"/>
<path id="XMLID 178" d="M2615.96 1331.09H2603.86" stroke="#340600" stroke-width="3" stroke-miterlimit="10" stroke-linejoin="round"/>
</g>
<g id="XMLID 172">
<path id="XMLID 176" d="M2615.96 1398.79H2599.36" stroke="#340600" stroke-width="3" stroke-miterlimit="10" stroke-linejoin="round"/>
<path id="XMLID 175" d="M2615.96 1386.89H2607.26" stroke="#340600" stroke-width="3" stroke-miterlimit="10" stroke-linejoin="round"/>
<path id="XMLID 174" d="M2615.96 1365.29H2607.26" stroke="#340600" stroke-width="3" stroke-miterlimit="10" stroke-linejoin="round"/>
<path id="XMLID 173" d="M2615.96 1376.09H2603.86" stroke="#340600" stroke-width="3" stroke-miterlimit="10" stroke-linejoin="round"/>
</g>
<g id="XMLID 167">
<path id="XMLID 171" d="M2615.96 1443.79H2599.36" stroke="#340600" stroke-width="3" stroke-miterlimit="10" stroke-linejoin="round"/>
<path id="XMLID 170" d="M2615.96 1431.89H2607.26" stroke="#340600" stroke-width="3" stroke-miterlimit="10" stroke-linejoin="round"/>
<path id="XMLID 169" d="M2615.96 1410.29H2607.26" stroke="#340600" stroke-width="3" stroke-miterlimit="10" stroke-linejoin="round"/>
<path id="XMLID 168" d="M2615.96 1421.09H2603.86" stroke="#340600" stroke-width="3" stroke-miterlimit="10" stroke-linejoin="round"/>
</g>
<g id="XMLID 162">
<path id="XMLID 166" d="M2615.96 1488.79H2599.36" stroke="#340600" stroke-width="3" stroke-miterlimit="10" stroke-linejoin="round"/>
<path id="XMLID 165" d="M2615.96 1476.89H2607.26" stroke="#340600" stroke-width="3" stroke-miterlimit="10" stroke-linejoin="round"/>
<path id="XMLID 164" d="M2615.96 1455.29H2607.26" stroke="#340600" stroke-width="3" stroke-miterlimit="10" stroke-linejoin="round"/>
<path id="XMLID 163" d="M2615.96 1466.09H2603.86" stroke="#340600" stroke-width="3" stroke-miterlimit="10" stroke-linejoin="round"/>
</g>
<g id="XMLID 157">
<path id="XMLID 161" d="M2615.96 1533.79H2599.36" stroke="#340600" stroke-width="3" stroke-miterlimit="10" stroke-linejoin="round"/>
<path id="XMLID 160" d="M2615.96 1521.89H2607.26" stroke="#340600" stroke-width="3" stroke-miterlimit="10" stroke-linejoin="round"/>
<path id="XMLID 159" d="M2615.96 1500.29H2607.26" stroke="#340600" stroke-width="3" stroke-miterlimit="10" stroke-linejoin="round"/>
<path id="XMLID 158" d="M2615.96 1511.09H2603.86" stroke="#340600" stroke-width="3" stroke-miterlimit="10" stroke-linejoin="round"/>
</g>
</g>
</g>
</g>
<g id="item8">
<path id="XMLID 25" d="M2384.6 1435.7H2552.2" stroke="#340600" stroke-width="8" stroke-miterlimit="10" stroke-linecap="round" stroke-linejoin="round"/>
<path id="XMLID 151" d="M2473.4 1456.1H2463.2C2460.8 1456.1 2458.9 1454.2 2458.9 1451.8V1421.1C2458.9 1418.7 2460.8 1416.8 2463.2 1416.8H2473.4C2475.8 1416.8 2477.7 1418.7 2477.7 1421.1V1451.8C2477.7 1454.2 2475.7 1456.1 2473.4 1456.1Z" fill="#BFBFBF"/>
<path id="XMLID 245" d="M2460.7 1417.5C2459.6 1418.3 2458.8 1419.6 2458.8 1421.1V1451.8C2458.8 1453.3 2459.6 1454.6 2460.7 1455.4C2463.9 1452.5 2466.3 1445.1 2466.3 1436.5C2466.3 1427.8 2464 1420.4 2460.7 1417.5Z" fill="white"/>
<path id="XMLID 23" d="M2473.4 1456.1H2463.2C2460.8 1456.1 2458.9 1454.2 2458.9 1451.8V1421.1C2458.9 1418.7 2460.8 1416.8 2463.2 1416.8H2473.4C2475.8 1416.8 2477.7 1418.7 2477.7 1421.1V1451.8C2477.7 1454.2 2475.7 1456.1 2473.4 1456.1Z" stroke="#340600" stroke-width="6" stroke-miterlimit="10" stroke-linecap="round" stroke-linejoin="round"/>
<path id="XMLID 9" d="M2560.7 1544.5L2542 1551.4L2461.6 1330.7L2490.8 1320.1L2543.2 1464.1L2560.7 1544.5Z" fill="white"/>
<path id="XMLID 237" d="M2543.2 1464.1L2490.8 1320.1L2482.8 1323L2534.2 1464.1L2551.7 1544.5L2540.9 1548.5L2542 1551.4L2560.7 1544.5L2543.2 1464.1Z" fill="#BFBFBF"/>
<path id="XMLID 231" d="M2491.8 1319.1L2462.6 1329.7L2485.2 1391.9C2495.2 1391.7 2504.2 1384.6 2506.6 1374.7C2507.3 1371.6 2508 1368.6 2508.7 1365.6L2491.8 1319.1Z" fill="#BFBFBF"/>
<path id="XMLID 11" d="M2571.2 1612.2L2581.8 1641.4" stroke="#340600" stroke-width="8" stroke-miterlimit="10" stroke-linecap="round" stroke-linejoin="round"/>
<path id="XMLID 68" d="M2564.74 1574.98L2552.24 1579.53L2564.35 1612.8L2576.85 1608.25L2564.74 1574.98Z" fill="#BFBFBF"/>
<path id="XMLID 14" d="M2560.7 1544.5L2542 1551.4L2461.6 1330.7L2490.8 1320.1L2543.2 1464.1L2560.7 1544.5Z" stroke="#340600" stroke-width="8" stroke-miterlimit="10" stroke-linecap="round" stroke-linejoin="round"/>
<path id="XMLID 12" d="M2564.74 1574.98L2552.24 1579.53L2564.35 1612.8L2576.85 1608.25L2564.74 1574.98Z" stroke="#340600" stroke-width="8" stroke-miterlimit="10" stroke-linecap="round" stroke-linejoin="round"/>
<path id="XMLID 62" d="M2557.2 1580.7C2568.19 1580.7 2577.1 1571.79 2577.1 1560.8C2577.1 1549.81 2568.19 1540.9 2557.2 1540.9C2546.21 1540.9 2537.3 1549.81 2537.3 1560.8C2537.3 1571.79 2546.21 1580.7 2557.2 1580.7Z" fill="white"/>
<path id="XMLID 233" d="M2562.3 1552.6C2552 1556.4 2546.6 1567.8 2550.4 1578.2C2550.6 1578.8 2550.8 1579.3 2551.1 1579.8C2555.2 1581.1 2559.7 1581.1 2564 1579.6C2574.3 1575.8 2579.7 1564.4 2575.9 1554C2575.7 1553.4 2575.5 1552.9 2575.2 1552.4C2571.2 1551 2566.7 1551 2562.3 1552.6Z" fill="#BFBFBF"/>
<path id="XMLID 13" d="M2557.2 1580.7C2568.19 1580.7 2577.1 1571.79 2577.1 1560.8C2577.1 1549.81 2568.19 1540.9 2557.2 1540.9C2546.21 1540.9 2537.3 1549.81 2537.3 1560.8C2537.3 1571.79 2546.21 1580.7 2557.2 1580.7Z" stroke="#340600" stroke-width="8" stroke-miterlimit="10" stroke-linecap="round" stroke-linejoin="round"/>
<path id="XMLID 8" d="M2376.1 1544.5L2394.9 1551.4L2475.2 1330.7L2446.1 1320.1L2393.6 1464.1L2376.1 1544.5Z" fill="white"/>
<path id="XMLID 228" d="M2376.1 1544.5L2394.9 1551.4L2475.2 1330.7L2446.1 1320.1L2393.6 1464.1L2376.1 1544.5Z" fill="white"/>
<path id="XMLID 232" d="M2446.1 1320.1L2445 1323L2466.2 1330.7L2386.9 1548.5L2394.9 1551.4L2475.2 1330.7L2446.1 1320.1Z" fill="#BFBFBF"/>
<path id="XMLID 230" d="M2448.1 1319.1L2431.2 1365.6C2431.8 1368.6 2432.5 1371.6 2433.3 1374.7C2435.7 1384.5 2444.7 1391.6 2454.7 1391.8L2477.3 1329.6L2448.1 1319.1Z" fill="#BFBFBF"/>
<path id="XMLID 18" d="M2376.1 1544.5L2394.9 1551.4L2475.2 1330.7L2446.1 1320.1L2393.6 1464.1L2376.1 1544.5Z" stroke="#340600" stroke-width="8" stroke-miterlimit="10" stroke-linecap="round" stroke-linejoin="round"/>
<path id="XMLID 153" d="M2372.06 1575L2359.96 1608.27L2372.45 1612.82L2384.56 1579.55L2372.06 1575Z" fill="#BFBFBF"/>
<path id="XMLID 16" d="M2372.06 1575L2359.96 1608.27L2372.45 1612.82L2384.56 1579.55L2372.06 1575Z" stroke="#340600" stroke-width="8" stroke-miterlimit="10" stroke-linecap="round" stroke-linejoin="round"/>
<path id="XMLID 15" d="M2365.6 1612.2L2355 1641.4" stroke="#340600" stroke-width="8" stroke-miterlimit="10" stroke-linecap="round" stroke-linejoin="round"/>
<path id="XMLID 152" d="M2399.56 1561.47C2399.92 1550.48 2391.32 1541.28 2380.33 1540.92C2369.35 1540.55 2360.15 1549.16 2359.78 1560.14C2359.42 1571.13 2368.02 1580.33 2379.01 1580.69C2389.99 1581.06 2399.19 1572.45 2399.56 1561.47Z" fill="white"/>
<path id="XMLID 227" d="M2399.56 1561.47C2399.92 1550.48 2391.32 1541.28 2380.33 1540.92C2369.35 1540.55 2360.15 1549.16 2359.78 1560.14C2359.42 1571.13 2368.02 1580.33 2379.01 1580.69C2389.99 1581.06 2399.19 1572.45 2399.56 1561.47Z" fill="white"/>
<path id="XMLID 235" d="M2398.4 1567.6C2400.3 1562.4 2399.9 1557 2397.7 1552.4C2387.5 1549.1 2376.5 1554.4 2372.9 1564.5C2371 1569.7 2371.4 1575.1 2373.6 1579.7C2383.7 1583 2394.7 1577.7 2398.4 1567.6Z" fill="#BFBFBF"/>
<path id="XMLID 17" d="M2399.56 1561.47C2399.92 1550.48 2391.32 1541.28 2380.33 1540.92C2369.35 1540.55 2360.15 1549.16 2359.78 1560.14C2359.42 1571.13 2368.02 1580.33 2379.01 1580.69C2389.99 1581.06 2399.19 1572.45 2399.56 1561.47Z" stroke="#340600" stroke-width="8" stroke-miterlimit="10" stroke-linecap="round" stroke-linejoin="round"/>
<path id="XMLID 183" d="M2483.9 1381.9C2473.6 1381.9 2463.2 1381.9 2452.9 1381.9C2447.9 1381.9 2443.1 1378.1 2441.9 1373.1C2436.4 1349.9 2432.6 1326.4 2433 1303.2C2433.2 1297.3 2438.9 1292.1 2444.8 1292.1C2460.6 1292.1 2476.4 1292.1 2492.2 1292.1C2498.1 1292.1 2503.8 1297.3 2504 1303.2C2504.4 1326.4 2500.6 1349.9 2495.1 1373.1C2493.7 1378.1 2488.9 1381.9 2483.9 1381.9Z" fill="#BFBFBF"/>
<path id="XMLID 238" d="M2441.5 1373.1C2436 1349.9 2432.2 1326.4 2432.6 1303.2C2432.8 1297.3 2438.5 1292.1 2444.4 1292.1C2455.7 1292.1 2466.9 1292.1 2478.2 1292.1C2480.9 1304.5 2480.9 1317.9 2477.5 1331.2C2472.4 1351.4 2465.8 1379 2445.2 1379C2443.4 1377.5 2442.1 1375.4 2441.5 1373.1Z" fill="white"/>
<path id="XMLID 19" d="M2483.9 1381.9C2473.6 1381.9 2463.2 1381.9 2452.9 1381.9C2447.9 1381.9 2443.1 1378.1 2441.9 1373.1C2436.4 1349.9 2432.6 1326.4 2433 1303.2C2433.2 1297.3 2438.9 1292.1 2444.8 1292.1C2460.6 1292.1 2476.4 1292.1 2492.2 1292.1C2498.1 1292.1 2503.8 1297.3 2504 1303.2C2504.4 1326.4 2500.6 1349.9 2495.1 1373.1C2493.7 1378.1 2488.9 1381.9 2483.9 1381.9Z" stroke="#340600" stroke-width="8" stroke-miterlimit="10" stroke-linecap="round" stroke-linejoin="round"/>
<path id="XMLID 184" d="M2485.7 1198H2450.3V1276.6H2485.7V1198Z" fill="#BFBFBF"/>
<path id="XMLID 239" d="M2460.3 1198H2450.3V1276.6H2460.3V1198Z" fill="#BFBFBF"/>
<path id="XMLID 240" d="M2485.8 1198H2473.3V1276.6H2485.8V1198Z" fill="#BFBFBF"/>
<path id="XMLID 21" d="M2485.7 1198H2450.3V1276.6H2485.7V1198Z" stroke="#340600" stroke-width="8" stroke-miterlimit="10" stroke-linecap="round" stroke-linejoin="round"/>
<path id="XMLID 199" d="M2477.5 1276.6H2458.7V1292.1H2477.5V1276.6Z" fill="#606060"/>
<path id="XMLID 22" d="M2477.5 1276.6H2458.7V1292.1H2477.5V1276.6Z" stroke="#340600" stroke-width="8" stroke-miterlimit="10" stroke-linecap="round" stroke-linejoin="round"/>
<path id="XMLID 24" d="M2461.6 1212V1257.4" stroke="#340600" stroke-width="6" stroke-miterlimit="10" stroke-linecap="round" stroke-linejoin="round"/>
<path id="XMLID 241" d="M2469.9 1347.2C2475.7 1347.2 2480.4 1342.5 2480.4 1336.7C2480.4 1330.9 2475.7 1326.2 2469.9 1326.2C2464.1 1326.2 2459.4 1330.9 2459.4 1336.7C2459.4 1342.5 2464.1 1347.2 2469.9 1347.2Z" fill="#606060"/>
<path id="XMLID 185" d="M2469.9 1347.2C2475.7 1347.2 2480.4 1342.5 2480.4 1336.7C2480.4 1330.9 2475.7 1326.2 2469.9 1326.2C2464.1 1326.2 2459.4 1330.9 2459.4 1336.7C2459.4 1342.5 2464.1 1347.2 2469.9 1347.2Z" stroke="#340600" stroke-width="8" stroke-miterlimit="10" stroke-linecap="round" stroke-linejoin="round"/>
</g>
<path id="path1" d="M2468 1372C386.519 -310.983 -41.8001 136.992 4.2257 571.353" stroke="black"/>
<g id="item7">
<path id="XMLID 22_2" d="M2501.2 1359.1C2509.6 1351.2 2519 1339.1 2520.7 1328H2425.7C2427.4 1339.1 2436.8 1351.1 2445.2 1359.1C2448 1361.7 2441.3 1419.1 2436 1421.9C2417.2 1432 2402 1449.8 2394 1471.8H2552.4C2544.4 1449.8 2529.2 1432 2510.4 1421.9C2505.1 1419.1 2498.4 1361.7 2501.2 1359.1Z" fill="#F42222"/>
<path id="XMLID 4" d="M2501.2 1359.1C2509.6 1351.2 2519 1339.1 2520.7 1328H2425.7C2427.4 1339.1 2436.8 1351.1 2445.2 1359.1C2448 1361.7 2441.3 1419.1 2436 1421.9C2417.2 1432 2402 1449.8 2394 1471.8H2552.4C2544.4 1449.8 2529.2 1432 2510.4 1421.9C2505.1 1419.1 2498.4 1361.7 2501.2 1359.1Z" fill="#F42222"/>
<path id="XMLID 11_2" d="M2510.4 1421.9C2505.1 1419 2498.4 1361.7 2501.2 1359.1C2509.6 1351.2 2519 1339.1 2520.7 1328H2513C2511.3 1339.1 2501.9 1351.1 2493.5 1359.1C2490.7 1361.7 2497.4 1419.1 2502.7 1421.9C2521.5 1432 2536.7 1449.8 2544.7 1471.8H2552.4C2544.3 1449.8 2529.2 1432.1 2510.4 1421.9Z" fill="#F42222"/>
<path id="XMLID 32_2" d="M2463 1328C2448.7 1328 2448.7 1328 2448.7 1328C2448.7 1328 2444.2 1344.7 2460.2 1355.2L2454.9 1424.2C2454.9 1424.2 2429.7 1439.6 2427.1 1471.9H2445.9C2445.9 1471.9 2445.5 1439.6 2462.5 1424.8L2465.5 1355.3C2465.4 1355.2 2458.3 1342.3 2463 1328Z" fill="#FF7676"/>
<path id="XMLID 21_2" d="M2486.2 1471.9H2460.2L2473.2 1567L2486.2 1471.9Z" fill="#E8E8E8"/>
<g id="XMLID 5_2">
<path id="XMLID 14_2" d="M2501.2 1359.1C2509.6 1351.2 2519 1339.1 2520.7 1328H2425.7C2427.4 1339.1 2436.8 1351.1 2445.2 1359.1C2448 1361.7 2441.3 1419.1 2436 1421.9C2417.2 1432 2402 1449.8 2394 1471.8H2552.4C2544.4 1449.8 2529.2 1432 2510.4 1421.9C2505.1 1419.1 2498.4 1361.7 2501.2 1359.1Z" stroke="#102D3B" stroke-width="8" stroke-miterlimit="10" stroke-linecap="round" stroke-linejoin="round"/>
<path id="XMLID 19_2" d="M2486.2 1471.9H2460.2L2473.2 1567L2486.2 1471.9Z" stroke="#102D3B" stroke-width="8" stroke-miterlimit="10" stroke-linecap="round" stroke-linejoin="round"/>
</g>
</g>
<g id="item11">
<path id="XMLID 22_3" d="M2501.2 1367.1C2509.6 1359.2 2519 1347.1 2520.7 1336H2425.7C2427.4 1347.1 2436.8 1359.1 2445.2 1367.1C2448 1369.7 2441.3 1427.1 2436 1429.9C2417.2 1440 2402 1457.8 2394 1479.8H2552.4C2544.4 1457.8 2529.2 1440 2510.4 1429.9C2505.1 1427.1 2498.4 1369.7 2501.2 1367.1Z" fill="#F42222"/>
<path id="XMLID 4_2" d="M2501.2 1367.1C2509.6 1359.2 2519 1347.1 2520.7 1336H2425.7C2427.4 1347.1 2436.8 1359.1 2445.2 1367.1C2448 1369.7 2441.3 1427.1 2436 1429.9C2417.2 1440 2402 1457.8 2394 1479.8H2552.4C2544.4 1457.8 2529.2 1440 2510.4 1429.9C2505.1 1427.1 2498.4 1369.7 2501.2 1367.1Z" fill="#114EFF"/>
<path id="XMLID 11_3" d="M2510.4 1429.9C2505.1 1427 2498.4 1369.7 2501.2 1367.1C2509.6 1359.2 2519 1347.1 2520.7 1336H2513C2511.3 1347.1 2501.9 1359.1 2493.5 1367.1C2490.7 1369.7 2497.4 1427.1 2502.7 1429.9C2521.5 1440 2536.7 1457.8 2544.7 1479.8H2552.4C2544.3 1457.8 2529.2 1440.1 2510.4 1429.9Z" fill="#114EFF"/>
<path id="XMLID 32_3" d="M2463 1336C2448.7 1336 2448.7 1336 2448.7 1336C2448.7 1336 2444.2 1352.7 2460.2 1363.2L2454.9 1432.2C2454.9 1432.2 2429.7 1447.6 2427.1 1479.9H2445.9C2445.9 1479.9 2445.5 1447.6 2462.5 1432.8L2465.5 1363.3C2465.4 1363.2 2458.3 1350.3 2463 1336Z" fill="#114EFF"/>
<path id="XMLID 21_3" d="M2486.2 1479.9H2460.2L2473.2 1575L2486.2 1479.9Z" fill="#E8E8E8"/>
<g id="XMLID 5_3">
<path id="XMLID 14_3" d="M2501.2 1367.1C2509.6 1359.2 2519 1347.1 2520.7 1336H2425.7C2427.4 1347.1 2436.8 1359.1 2445.2 1367.1C2448 1369.7 2441.3 1427.1 2436 1429.9C2417.2 1440 2402 1457.8 2394 1479.8H2552.4C2544.4 1457.8 2529.2 1440 2510.4 1429.9C2505.1 1427.1 2498.4 1369.7 2501.2 1367.1Z" stroke="#102D3B" stroke-width="8" stroke-miterlimit="10" stroke-linecap="round" stroke-linejoin="round"/>
<path id="XMLID 19_3" d="M2486.2 1479.9H2460.2L2473.2 1575L2486.2 1479.9Z" stroke="#102D3B" stroke-width="8" stroke-miterlimit="10" stroke-linecap="round" stroke-linejoin="round"/>
</g>
</g>
<g id="item6">
<path id="XMLID 22_4" d="M2491.2 1351.1C2499.6 1343.2 2509 1331.1 2510.7 1320H2415.7C2417.4 1331.1 2426.8 1343.1 2435.2 1351.1C2438 1353.7 2431.3 1411.1 2426 1413.9C2407.2 1424 2392 1441.8 2384 1463.8H2542.4C2534.4 1441.8 2519.2 1424 2500.4 1413.9C2495.1 1411.1 2488.4 1353.7 2491.2 1351.1Z" fill="#F42222"/>
<path id="XMLID 4_3" d="M2491.2 1351.1C2499.6 1343.2 2509 1331.1 2510.7 1320H2415.7C2417.4 1331.1 2426.8 1343.1 2435.2 1351.1C2438 1353.7 2431.3 1411.1 2426 1413.9C2407.2 1424 2392 1441.8 2384 1463.8H2542.4C2534.4 1441.8 2519.2 1424 2500.4 1413.9C2495.1 1411.1 2488.4 1353.7 2491.2 1351.1Z" fill="#114EFF"/>
<path id="XMLID 11_4" d="M2500.4 1413.9C2495.1 1411 2488.4 1353.7 2491.2 1351.1C2499.6 1343.2 2509 1331.1 2510.7 1320H2503C2501.3 1331.1 2491.9 1343.1 2483.5 1351.1C2480.7 1353.7 2487.4 1411.1 2492.7 1413.9C2511.5 1424 2526.7 1441.8 2534.7 1463.8H2542.4C2534.3 1441.8 2519.2 1424.1 2500.4 1413.9Z" fill="#114EFF"/>
<path id="XMLID 32_4" d="M2453 1320C2438.7 1320 2438.7 1320 2438.7 1320C2438.7 1320 2434.2 1336.7 2450.2 1347.2L2444.9 1416.2C2444.9 1416.2 2419.7 1431.6 2417.1 1463.9H2435.9C2435.9 1463.9 2435.5 1431.6 2452.5 1416.8L2455.5 1347.3C2455.4 1347.2 2448.3 1334.3 2453 1320Z" fill="#114EFF"/>
<path id="XMLID 21_4" d="M2476.2 1463.9H2450.2L2463.2 1559L2476.2 1463.9Z" fill="#E8E8E8"/>
<g id="XMLID 5_4">
<path id="XMLID 14_4" d="M2491.2 1351.1C2499.6 1343.2 2509 1331.1 2510.7 1320H2415.7C2417.4 1331.1 2426.8 1343.1 2435.2 1351.1C2438 1353.7 2431.3 1411.1 2426 1413.9C2407.2 1424 2392 1441.8 2384 1463.8H2542.4C2534.4 1441.8 2519.2 1424 2500.4 1413.9C2495.1 1411.1 2488.4 1353.7 2491.2 1351.1Z" stroke="#102D3B" stroke-width="8" stroke-miterlimit="10" stroke-linecap="round" stroke-linejoin="round"/>
<path id="XMLID 19_4" d="M2476.2 1463.9H2450.2L2463.2 1559L2476.2 1463.9Z" stroke="#102D3B" stroke-width="8" stroke-miterlimit="10" stroke-linecap="round" stroke-linejoin="round"/>
</g>
</g>
<g id="item12">
<path id="XMLID 22_5" d="M2502.2 1351.1C2510.6 1343.2 2520 1331.1 2521.7 1320H2426.7C2428.4 1331.1 2437.8 1343.1 2446.2 1351.1C2449 1353.7 2442.3 1411.1 2437 1413.9C2418.2 1424 2403 1441.8 2395 1463.8H2553.4C2545.4 1441.8 2530.2 1424 2511.4 1413.9C2506.1 1411.1 2499.4 1353.7 2502.2 1351.1Z" fill="#F42222"/>
<path id="XMLID 4_4" d="M2502.2 1351.1C2510.6 1343.2 2520 1331.1 2521.7 1320H2426.7C2428.4 1331.1 2437.8 1343.1 2446.2 1351.1C2449 1353.7 2442.3 1411.1 2437 1413.9C2418.2 1424 2403 1441.8 2395 1463.8H2553.4C2545.4 1441.8 2530.2 1424 2511.4 1413.9C2506.1 1411.1 2499.4 1353.7 2502.2 1351.1Z" fill="#32BF6B"/>
<path id="XMLID 11_5" d="M2511.4 1413.9C2506.1 1411 2499.4 1353.7 2502.2 1351.1C2510.6 1343.2 2520 1331.1 2521.7 1320H2514C2512.3 1331.1 2502.9 1343.1 2494.5 1351.1C2491.7 1353.7 2498.4 1411.1 2503.7 1413.9C2522.5 1424 2537.7 1441.8 2545.7 1463.8H2553.4C2545.3 1441.8 2530.2 1424.1 2511.4 1413.9Z" fill="#114EFF"/>
<path id="XMLID 32_5" d="M2464 1320C2449.7 1320 2449.7 1320 2449.7 1320C2449.7 1320 2445.2 1336.7 2461.2 1347.2L2455.9 1416.2C2455.9 1416.2 2430.7 1431.6 2428.1 1463.9H2446.9C2446.9 1463.9 2446.5 1431.6 2463.5 1416.8L2466.5 1347.3C2466.4 1347.2 2459.3 1334.3 2464 1320Z" fill="#32BF6B"/>
<path id="XMLID 21_5" d="M2487.2 1463.9H2461.2L2474.2 1559L2487.2 1463.9Z" fill="#E8E8E8"/>
<g id="XMLID 5_5">
<path id="XMLID 14_5" d="M2502.2 1351.1C2510.6 1343.2 2520 1331.1 2521.7 1320H2426.7C2428.4 1331.1 2437.8 1343.1 2446.2 1351.1C2449 1353.7 2442.3 1411.1 2437 1413.9C2418.2 1424 2403 1441.8 2395 1463.8H2553.4C2545.4 1441.8 2530.2 1424 2511.4 1413.9C2506.1 1411.1 2499.4 1353.7 2502.2 1351.1Z" stroke="#102D3B" stroke-width="8" stroke-miterlimit="10" stroke-linecap="round" stroke-linejoin="round"/>
<path id="XMLID 19_5" d="M2487.2 1463.9H2461.2L2474.2 1559L2487.2 1463.9Z" stroke="#102D3B" stroke-width="8" stroke-miterlimit="10" stroke-linecap="round" stroke-linejoin="round"/>
</g>
</g>
<g id="item5">
<path id="XMLID 129_2" d="M2541.9 1313.1C2541.3 1306.5 2538.6 1300.2 2534.2 1295L2512.7 1269.5C2508.2 1264.1 2505.7 1257.5 2505.7 1250.7V1236.3H2426.9V1250.7C2426.9 1257.5 2424.4 1264.1 2419.9 1269.5L2398.4 1295C2394 1300.2 2391.3 1306.5 2390.7 1313.1L2368 1567.2H2564.6L2541.9 1313.1Z" fill="#F9B03A"/>
<path id="XMLID 119" opacity="0.4" d="M2565 1567.3L2542.3 1313.2C2541.7 1306.6 2539 1300.3 2534.6 1295.1L2513.1 1269.5C2508.6 1264.1 2506.1 1257.5 2506.1 1250.7V1236.3H2472.3L2472.2 1251.6C2472.1 1259.7 2475 1267.6 2480.3 1274L2505.5 1304.1C2510.6 1310.2 2513.7 1317.6 2514.3 1325.2L2527.8 1480.5C2530.6 1512.8 2514.7 1537.6 2483.5 1546.1L2405.1 1554L2557.3 1586.7L2552.2 1567.3H2565Z" fill="#F9B03A"/>
<path id="XMLID 110" opacity="0.68" d="M2418.6 1325.2C2419.2 1317.5 2422.3 1310.2 2427.4 1304.1L2452.6 1274C2457.9 1267.6 2460.8 1259.8 2460.7 1251.6L2460.6 1236.3H2426.8V1250.7C2426.8 1257.5 2424.3 1264.1 2419.8 1269.5L2398.3 1295C2393.9 1300.2 2391.2 1306.5 2390.6 1313.1L2367.9 1567.2L2385.9 1573.4L2418.6 1325.2Z" fill="#F9B03A"/>
<path id="XMLID 130_2" d="M2556.9 1481.3H2375.6L2386.5 1359.4H2546.1L2556.9 1481.3Z" fill="#EF3E1B"/>
<path id="XMLID 111_2" opacity="0.69" d="M2415.4 1359.4H2386.5L2384.3 1384.2L2375.6 1481.3H2398.1L2415.4 1359.4Z" fill="#EF3E1B"/>
<path id="XMLID 107" opacity="0.48" d="M2517.5 1359.4H2546.5L2548.7 1384.2L2557.4 1481.3H2528.7L2517.5 1359.4Z" fill="#C6321A"/>
<path id="XMLID 13_2" d="M2541.9 1313.1C2541.3 1306.5 2538.6 1300.2 2534.2 1295L2512.7 1269.5C2508.2 1264.1 2505.7 1257.5 2505.7 1250.7V1236.3H2426.9V1250.7C2426.9 1257.5 2424.4 1264.1 2419.9 1269.5L2398.4 1295C2394 1300.2 2391.3 1306.5 2390.7 1313.1L2368 1567.2H2564.6L2541.9 1313.1Z" stroke="#030037" stroke-width="8" stroke-miterlimit="10" stroke-linecap="round" stroke-linejoin="round"/>
<path id="XMLID 132_2" d="M2570.6 1611.7H2361.9L2358 1556.1H2574.6L2570.6 1611.7Z" fill="#FF524E"/>
<path id="XMLID 109" opacity="0.8" d="M2358 1556.1L2361.9 1611.7H2380.9L2377 1556.1H2358Z" fill="#FF524E"/>
<path id="XMLID 116" opacity="0.5" d="M2494.2 1599.3H2361.9L2359.5 1556.1H2358L2362 1611.7H2570.7L2574.7 1556.1H2540C2538.5 1580.3 2518.5 1599.3 2494.2 1599.3Z" fill="#FF524E"/>
<path id="XMLID 7" d="M2570.6 1611.7H2361.9L2358 1556.1H2574.6L2570.6 1611.7Z" stroke="#030037" stroke-width="8" stroke-miterlimit="10" stroke-linecap="round" stroke-linejoin="round"/>
<path id="XMLID 133_2" d="M2520.6 1236.2H2411.9L2415.2 1208.7C2416.7 1195.8 2426.9 1186 2438.3 1186H2494.2C2505.7 1186 2515.8 1195.8 2517.3 1208.7L2520.6 1236.2Z" fill="#FF524E"/>
<path id="XMLID 113" d="M2517.4 1208.7C2515.9 1195.8 2505.7 1186 2494.3 1186H2438.4C2426.9 1186 2416.8 1195.8 2415.3 1208.7L2412 1236.2H2412.8L2415.2 1215.7C2416.7 1202.8 2426.9 1193 2438.3 1193H2494.2C2505.7 1193 2515.8 1202.8 2517.3 1215.7L2519.7 1236.2H2520.5L2517.4 1208.7Z" fill="#FF524E"/>
<path id="XMLID 120" opacity="0.43" d="M2517.4 1208.7C2515.9 1195.8 2505.7 1186 2494.3 1186H2477.9C2489.4 1186 2499.5 1195.8 2501 1208.7L2504.3 1236.2H2520.7L2517.4 1208.7Z" fill="#FF524E"/>
<path id="XMLID 114" d="M2454.2 1186H2438.3C2426.8 1186 2416.7 1195.8 2415.2 1208.7L2411.9 1236.2H2427.8L2431.1 1208.7C2432.6 1195.8 2442.7 1186 2454.2 1186Z" fill="#FF524E"/>
<path id="XMLID 4_5" d="M2520.6 1236.2H2411.9L2415.2 1208.7C2416.7 1195.8 2426.9 1186 2438.3 1186H2494.2C2505.7 1186 2515.8 1195.8 2517.3 1208.7L2520.6 1236.2Z" stroke="#030037" stroke-width="8" stroke-miterlimit="10" stroke-linecap="round" stroke-linejoin="round"/>
<g id="XMLID 5_6">
<path id="XMLID 6_2" d="M2435.4 1213V1236.2" stroke="#030037" stroke-width="8" stroke-miterlimit="10" stroke-linecap="round" stroke-linejoin="round"/>
<path id="XMLID 8_2" d="M2456 1213V1236.2" stroke="#030037" stroke-width="8" stroke-miterlimit="10" stroke-linecap="round" stroke-linejoin="round"/>
<path id="XMLID 14_6" d="M2476.6 1213V1236.2" stroke="#030037" stroke-width="8" stroke-miterlimit="10" stroke-linecap="round" stroke-linejoin="round"/>
<path id="XMLID 15_2" d="M2497.2 1213V1236.2" stroke="#030037" stroke-width="8" stroke-miterlimit="10" stroke-linecap="round" stroke-linejoin="round"/>
</g>
<g id="XMLID 16_2">
<path id="XMLID 12_2" d="M2386 1556.1L2388.6 1611.7" stroke="#030037" stroke-width="8" stroke-miterlimit="10" stroke-linecap="round" stroke-linejoin="round"/>
<path id="Vector" d="M2412.8 1556.1L2414.5 1611.7" stroke="#030037" stroke-width="8" stroke-miterlimit="10" stroke-linecap="round" stroke-linejoin="round"/>
<path id="Vector_2" d="M2439.5 1556.1L2440.4 1611.7" stroke="#030037" stroke-width="8" stroke-miterlimit="10" stroke-linecap="round" stroke-linejoin="round"/>
<path id="Vector_3" d="M2466.3 1556.1V1611.7" stroke="#030037" stroke-width="8" stroke-miterlimit="10" stroke-linecap="round" stroke-linejoin="round"/>
<path id="Vector_4" d="M2493 1556.1L2492.2 1611.7" stroke="#030037" stroke-width="8" stroke-miterlimit="10" stroke-linecap="round" stroke-linejoin="round"/>
<path id="Vector_5" d="M2519.8 1556.1L2518.1 1611.7" stroke="#030037" stroke-width="8" stroke-miterlimit="10" stroke-linecap="round" stroke-linejoin="round"/>
<path id="XMLID 1" d="M2546.5 1556.1L2544 1611.7" stroke="#030037" stroke-width="8" stroke-miterlimit="10" stroke-linecap="round" stroke-linejoin="round"/>
</g>
<g id="XMLID 29">
<g id="Group">
<path id="Vector_6" d="M2392.3 1305.5H2394.3" stroke="#030037" stroke-width="4" stroke-linecap="round" stroke-linejoin="round"/>
<path id="Vector_7" d="M2403.9 1305.5H2533.4" stroke="#030037" stroke-width="4" stroke-linecap="round" stroke-linejoin="round" stroke-dasharray="3.84 3.84"/>
<path id="Vector_8" d="M2538.2 1305.5H2540.2" stroke="#030037" stroke-width="4" stroke-linecap="round" stroke-linejoin="round"/>
</g>
</g>
<path id="XMLID 47" d="M2556.9 1481.3H2375.6L2386.5 1359.4H2546.1L2556.9 1481.3Z" stroke="#030037" stroke-width="8" stroke-miterlimit="10" stroke-linecap="round" stroke-linejoin="round"/>
<path id="XMLID 46" d="M2558.4 1497.6H2374.2L2375.6 1481.3H2556.9L2558.4 1497.6Z" stroke="#030037" stroke-width="8" stroke-miterlimit="10" stroke-linecap="round" stroke-linejoin="round"/>
<path id="XMLID 131_2" d="M2451.1 1411.5L2466.3 1383.8L2481.5 1411.5C2487.8 1423 2479.5 1437.1 2466.3 1437.1C2453.1 1437.1 2444.8 1423.1 2451.1 1411.5Z" fill="#D9D9FF"/>
<path id="XMLID 28_2" d="M2451.1 1411.5L2466.3 1383.8L2481.5 1411.5C2487.8 1423 2479.5 1437.1 2466.3 1437.1C2453.1 1437.1 2444.8 1423.1 2451.1 1411.5Z" stroke="#030037" stroke-width="8" stroke-miterlimit="10" stroke-linecap="round" stroke-linejoin="round"/>
<path id="XMLID 31" d="M2437.7 1458.4H2497.2" stroke="#030037" stroke-width="8" stroke-miterlimit="10" stroke-linecap="round" stroke-linejoin="round"/>
</g>
<path id="item4" d="M2439.7 1480.32L2482.89 1355.3C2486.87 1343.91 2499.78 1337.76 2511.73 1341.51C2523.84 1345.25 2530.37 1357.4 2526.39 1368.64L2476.51 1513.15C2469.66 1532.79 2447.35 1543.58 2426.48 1537.13C2405.61 1530.69 2394.13 1509.7 2400.98 1490.06L2456.59 1328.76C2465.2 1303.88 2493.72 1290.24 2520.17 1298.33C2546.62 1306.43 2561.12 1333.26 2552.52 1358.15L2502.64 1502.36" stroke="#F42222" stroke-width="8" stroke-miterlimit="10" stroke-linecap="round" stroke-linejoin="round"/>
<path id="item3" d="M2430.7 1489.32L2473.89 1364.3C2477.87 1352.91 2490.78 1346.76 2502.73 1350.51C2514.84 1354.25 2521.37 1366.4 2517.39 1377.64L2467.51 1522.15C2460.66 1541.79 2438.35 1552.58 2417.48 1546.13C2396.61 1539.69 2385.13 1518.7 2391.98 1499.06L2447.59 1337.76C2456.2 1312.88 2484.72 1299.24 2511.17 1307.33C2537.62 1315.43 2552.12 1342.26 2543.52 1367.15L2493.64 1511.36" stroke="#114EFF" stroke-width="8" stroke-miterlimit="10" stroke-linecap="round" stroke-linejoin="round"/>
<g id="item2">
<g id="XMLID 27" opacity="0.4">
<path id="XMLID 26" opacity="0.4" d="M2531.8 1549.8C2518.1 1493.1 2512 1441.5 2508.8 1394.9C2508.2 1385.5 2512.1 1376.6 2518.9 1370.4C2524.1 1365.7 2527.4 1359.5 2527.4 1353.5C2527.4 1342.7 2516.5 1330.9 2502.9 1329.1C2487.3 1327.5 2471.5 1327.5 2455.9 1329.1C2442.2 1330.9 2431.4 1342.8 2431.4 1353.5C2431.4 1359.4 2434.7 1365.6 2439.9 1370.4C2446.7 1376.6 2450.6 1385.5 2450 1394.9C2446.9 1441.6 2440.8 1493.2 2427 1549.8" stroke="#2B5621" stroke-width="8" stroke-miterlimit="10" stroke-linecap="round" stroke-linejoin="round"/>
<path id="XMLID 25_2" opacity="0.4" d="M2599.4 1441.7H2359.2L2375.9 1552H2428.3V1555.2C2428.3 1561.8 2430.1 1567.1 2436.6 1567.1H2521.8C2528.4 1567.1 2530.1 1561.8 2530.1 1555.2V1552H2582.5L2599.4 1441.7Z" fill="#2B5621" stroke="#2B5621" stroke-width="8" stroke-miterlimit="10" stroke-linecap="round" stroke-linejoin="round"/>
</g>
<path id="XMLID 18_2" d="M2586.2 1427.9H2346L2362.7 1538.2H2411.6V1541.4C2411.6 1548 2416.9 1553.3 2423.5 1553.3H2508.7C2515.3 1553.3 2520.6 1548 2520.6 1541.4V1538.2H2569.5L2586.2 1427.9Z" fill="#FFC943"/>
<g id="XMLID 35" opacity="0.18">
<path id="XMLID 38" opacity="0.18" d="M2447.1 1427.9C2443.4 1465.6 2437.4 1506.2 2426.8 1549.8" stroke="#351915" stroke-width="8" stroke-miterlimit="10" stroke-linecap="round" stroke-linejoin="round"/>
<path id="XMLID 44" opacity="0.18" d="M2529.2 1538.6C2520.2 1499.2 2514.9 1462.3 2511.6 1427.9" stroke="#351915" stroke-width="8" stroke-miterlimit="10" stroke-linecap="round" stroke-linejoin="round"/>
</g>
<path id="XMLID 33" opacity="0.18" d="M2510.4 1546.6H2428.7C2432.7 1542.5 2435.2 1538 2436.9 1533.7C2438.5 1529.5 2442.3 1526.6 2446.6 1526.6H2492.6C2496.9 1526.6 2500.6 1529.4 2502.3 1533.7C2503.9 1538.1 2506.4 1542.6 2510.4 1546.6Z" stroke="#351915" stroke-width="8" stroke-miterlimit="10" stroke-linecap="round" stroke-linejoin="round"/>
<path id="XMLID 31_2" opacity="0.18" d="M2569.4 1533.7H2527.8L2529.5 1524.7C2530.6 1518.7 2535.9 1514.4 2542 1514.4H2555.2C2561.3 1514.4 2566.5 1518.7 2567.7 1524.7L2569.4 1533.7Z" stroke="#351915" stroke-width="8" stroke-miterlimit="10" stroke-linecap="round" stroke-linejoin="round"/>
<path id="XMLID 24_2" d="M2518.6 1535.9C2504.9 1479.2 2498.8 1427.6 2495.6 1381C2495 1371.6 2498.9 1362.7 2505.7 1356.5C2510.9 1351.8 2514.2 1345.6 2514.2 1339.6C2514.2 1328.8 2503.3 1317 2489.7 1315.2C2474.1 1313.6 2458.3 1313.6 2442.7 1315.2C2429 1317 2418.2 1328.9 2418.2 1339.6C2418.2 1345.5 2421.5 1351.7 2426.7 1356.5C2433.5 1362.7 2437.4 1371.6 2436.8 1381C2433.7 1427.7 2427.6 1479.3 2413.8 1535.9" stroke="#102D3B" stroke-width="8" stroke-miterlimit="10" stroke-linecap="round" stroke-linejoin="round"/>
<path id="XMLID 30" d="M2569.2 1538.1H2527.6L2529.3 1529.1C2530.4 1523.1 2535.7 1518.8 2541.8 1518.8H2555.1C2561.2 1518.8 2566.4 1523.1 2567.6 1529.1L2569.2 1538.1Z" fill="#FFC943"/>
<path id="XMLID 6_3" d="M2569.2 1538.1H2527.6L2529.3 1529.1C2530.4 1523.1 2535.7 1518.8 2541.8 1518.8H2555.1C2561.2 1518.8 2566.4 1523.1 2567.6 1529.1L2569.2 1538.1Z" stroke="#102D3B" stroke-width="8" stroke-miterlimit="10" stroke-linecap="round" stroke-linejoin="round"/>
<path id="XMLID 13_3" d="M2511.5 1427.9H2346L2362.7 1538.2H2415.1V1541.4C2415.1 1548 2416.9 1553.3 2423.4 1553.3H2508.6C2515.2 1553.3 2516.9 1548 2516.9 1541.4V1538.2H2569.3L2586.2 1427.9H2511.5Z" stroke="#102D3B" stroke-width="8" stroke-miterlimit="10" stroke-linecap="round" stroke-linejoin="round"/>
<path id="XMLID 34" d="M2506 1553.3H2424.3C2428.3 1549.2 2430.8 1544.7 2432.5 1540.4C2434.1 1536.2 2437.9 1533.3 2442.2 1533.3H2488.2C2492.5 1533.3 2496.2 1536.1 2497.9 1540.4C2499.5 1544.7 2502 1549.2 2506 1553.3Z" fill="#FFC943"/>
<path id="XMLID 2" d="M2506 1553.3H2424.3C2428.3 1549.2 2430.8 1544.7 2432.5 1540.4C2434.1 1536.2 2437.9 1533.3 2442.2 1533.3H2488.2C2492.5 1533.3 2496.2 1536.1 2497.9 1540.4C2499.5 1544.7 2502 1549.2 2506 1553.3Z" stroke="#102D3B" stroke-width="8" stroke-miterlimit="10" stroke-linecap="round" stroke-linejoin="round"/>
<path id="XMLID 28_3" opacity="0.18" d="M2407.9 1533.7H2366.3L2368 1524.7C2369.1 1518.7 2374.4 1514.4 2380.5 1514.4H2393.8C2399.9 1514.4 2405.1 1518.7 2406.3 1524.7L2407.9 1533.7Z" stroke="#351915" stroke-width="8" stroke-miterlimit="10" stroke-linecap="round" stroke-linejoin="round"/>
<path id="XMLID 29_2" d="M2405.7 1538.1H2364.1L2365.8 1529.1C2366.9 1523.1 2372.2 1518.8 2378.3 1518.8H2391.6C2397.7 1518.8 2402.9 1523.1 2404.1 1529.1L2405.7 1538.1Z" fill="#FFC943"/>
<path id="XMLID 8_3" d="M2405.7 1538.1H2364.1L2365.8 1529.1C2366.9 1523.1 2372.2 1518.8 2378.3 1518.8H2391.6C2397.7 1518.8 2402.9 1523.1 2404.1 1529.1L2405.7 1538.1Z" stroke="#102D3B" stroke-width="8" stroke-miterlimit="10" stroke-linecap="round" stroke-linejoin="round"/>
</g>
<path id="path3" d="M2490 1407C4752.39 704.603 4769.67 177.001 4495.52 1" stroke="black"/>
<path id="path4" d="M2475 1414C383.928 3064.06 -43.3035 2983.68 4.46436 2737.23" stroke="black"/>
<path id="path6" d="M2490 1431C515.91 1991.45 8.12908 1495.19 1 1177" stroke="black"/>
<path id="path7" d="M2487.93 1387.27C1982.11 2671.42 3885.88 1888.15 4901 1336" stroke="black"/>
<path id="path8" d="M2351.71 1399C3439.99 2323.48 1478.02 2848.87 361 2996" stroke="black"/>
<path id="path9" d="M2475 1391C2560.93 154.242 4128.14 624.159 4901 1013.71" stroke="black"/>
<path id="path10" d="M2505 1415.88C1992.85 538.538 622.27 1601.07 1 2242" stroke="black"/>
<g id="item1">
<g id="XMLID 27_2" opacity="0.4">
<path id="XMLID 26_2" opacity="0.4" d="M2547.8 1536.8C2534.1 1480.1 2528 1428.5 2524.8 1381.9C2524.2 1372.5 2528.1 1363.6 2534.9 1357.4C2540.1 1352.7 2543.4 1346.5 2543.4 1340.5C2543.4 1329.7 2532.5 1317.9 2518.9 1316.1C2503.3 1314.5 2487.5 1314.5 2471.9 1316.1C2458.2 1317.9 2447.4 1329.8 2447.4 1340.5C2447.4 1346.4 2450.7 1352.6 2455.9 1357.4C2462.7 1363.6 2466.6 1372.5 2466 1381.9C2462.9 1428.6 2456.8 1480.2 2443 1536.8" stroke="#2B5621" stroke-width="8" stroke-miterlimit="10" stroke-linecap="round" stroke-linejoin="round"/>
<path id="XMLID 25_3" opacity="0.4" d="M2615.4 1428.7H2375.2L2391.9 1539H2444.3V1542.2C2444.3 1548.8 2446.1 1554.1 2452.6 1554.1H2537.8C2544.4 1554.1 2546.1 1548.8 2546.1 1542.2V1539H2598.5L2615.4 1428.7Z" fill="#2B5621" stroke="#2B5621" stroke-width="8" stroke-miterlimit="10" stroke-linecap="round" stroke-linejoin="round"/>
</g>
<path id="XMLID 18_3" d="M2602.2 1414.9H2362L2378.7 1525.2H2427.6V1528.4C2427.6 1535 2432.9 1540.3 2439.5 1540.3H2524.7C2531.3 1540.3 2536.6 1535 2536.6 1528.4V1525.2H2585.5L2602.2 1414.9Z" fill="#32BF6B"/>
<g id="XMLID 35_2" opacity="0.18">
<path id="XMLID 38_2" opacity="0.18" d="M2463.1 1414.9C2459.4 1452.6 2453.4 1493.2 2442.8 1536.8" stroke="#351915" stroke-width="8" stroke-miterlimit="10" stroke-linecap="round" stroke-linejoin="round"/>
<path id="XMLID 44_2" opacity="0.18" d="M2545.2 1525.6C2536.2 1486.2 2530.9 1449.3 2527.6 1414.9" stroke="#351915" stroke-width="8" stroke-miterlimit="10" stroke-linecap="round" stroke-linejoin="round"/>
</g>
<path id="XMLID 33_2" opacity="0.18" d="M2526.4 1533.6H2444.7C2448.7 1529.5 2451.2 1525 2452.9 1520.7C2454.5 1516.5 2458.3 1513.6 2462.6 1513.6H2508.6C2512.9 1513.6 2516.6 1516.4 2518.3 1520.7C2519.9 1525.1 2522.4 1529.6 2526.4 1533.6Z" stroke="#351915" stroke-width="8" stroke-miterlimit="10" stroke-linecap="round" stroke-linejoin="round"/>
<path id="XMLID 31_3" opacity="0.18" d="M2585.4 1520.7H2543.8L2545.5 1511.7C2546.6 1505.7 2551.9 1501.4 2558 1501.4H2571.2C2577.3 1501.4 2582.5 1505.7 2583.7 1511.7L2585.4 1520.7Z" stroke="#351915" stroke-width="8" stroke-miterlimit="10" stroke-linecap="round" stroke-linejoin="round"/>
<path id="XMLID 24_3" d="M2534.6 1522.9C2520.9 1466.2 2514.8 1414.6 2511.6 1368C2511 1358.6 2514.9 1349.7 2521.7 1343.5C2526.9 1338.8 2530.2 1332.6 2530.2 1326.6C2530.2 1315.8 2519.3 1304 2505.7 1302.2C2490.1 1300.6 2474.3 1300.6 2458.7 1302.2C2445 1304 2434.2 1315.9 2434.2 1326.6C2434.2 1332.5 2437.5 1338.7 2442.7 1343.5C2449.5 1349.7 2453.4 1358.6 2452.8 1368C2449.7 1414.7 2443.6 1466.3 2429.8 1522.9" stroke="#102D3B" stroke-width="8" stroke-miterlimit="10" stroke-linecap="round" stroke-linejoin="round"/>
<path id="XMLID 30_2" d="M2585.2 1525.1H2543.6L2545.3 1516.1C2546.4 1510.1 2551.7 1505.8 2557.8 1505.8H2571.1C2577.2 1505.8 2582.4 1510.1 2583.6 1516.1L2585.2 1525.1Z" fill="#32BF6B"/>
<path id="XMLID 6_4" d="M2585.2 1525.1H2543.6L2545.3 1516.1C2546.4 1510.1 2551.7 1505.8 2557.8 1505.8H2571.1C2577.2 1505.8 2582.4 1510.1 2583.6 1516.1L2585.2 1525.1Z" stroke="#102D3B" stroke-width="8" stroke-miterlimit="10" stroke-linecap="round" stroke-linejoin="round"/>
<path id="XMLID 13_4" d="M2527.5 1414.9H2362L2378.7 1525.2H2431.1V1528.4C2431.1 1535 2432.9 1540.3 2439.4 1540.3H2524.6C2531.2 1540.3 2532.9 1535 2532.9 1528.4V1525.2H2585.3L2602.2 1414.9H2527.5Z" stroke="#102D3B" stroke-width="8" stroke-miterlimit="10" stroke-linecap="round" stroke-linejoin="round"/>
<path id="XMLID 34_2" d="M2522 1540.3H2440.3C2444.3 1536.2 2446.8 1531.7 2448.5 1527.4C2450.1 1523.2 2453.9 1520.3 2458.2 1520.3H2504.2C2508.5 1520.3 2512.2 1523.1 2513.9 1527.4C2515.5 1531.7 2518 1536.2 2522 1540.3Z" fill="#32BF6B"/>
<path id="XMLID 2_2" d="M2522 1540.3H2440.3C2444.3 1536.2 2446.8 1531.7 2448.5 1527.4C2450.1 1523.2 2453.9 1520.3 2458.2 1520.3H2504.2C2508.5 1520.3 2512.2 1523.1 2513.9 1527.4C2515.5 1531.7 2518 1536.2 2522 1540.3Z" stroke="#102D3B" stroke-width="8" stroke-miterlimit="10" stroke-linecap="round" stroke-linejoin="round"/>
<path id="XMLID 28_4" opacity="0.18" d="M2423.9 1520.7H2382.3L2384 1511.7C2385.1 1505.7 2390.4 1501.4 2396.5 1501.4H2409.8C2415.9 1501.4 2421.1 1505.7 2422.3 1511.7L2423.9 1520.7Z" stroke="#351915" stroke-width="8" stroke-miterlimit="10" stroke-linecap="round" stroke-linejoin="round"/>
<path id="XMLID 29_3" d="M2421.7 1525.1H2380.1L2381.8 1516.1C2382.9 1510.1 2388.2 1505.8 2394.3 1505.8H2407.6C2413.7 1505.8 2418.9 1510.1 2420.1 1516.1L2421.7 1525.1Z" fill="#32BF6B"/>
<path id="XMLID 8_4" d="M2421.7 1525.1H2380.1L2381.8 1516.1C2382.9 1510.1 2388.2 1505.8 2394.3 1505.8H2407.6C2413.7 1505.8 2418.9 1510.1 2420.1 1516.1L2421.7 1525.1Z" stroke="#102D3B" stroke-width="8" stroke-miterlimit="10" stroke-linecap="round" stroke-linejoin="round"/>
</g>
<g id="item10">
<g id="XMLID 27_3" opacity="0.4">
<path id="XMLID 26_3" opacity="0.4" d="M2536.8 1541.8C2523.1 1485.1 2517 1433.5 2513.8 1386.9C2513.2 1377.5 2517.1 1368.6 2523.9 1362.4C2529.1 1357.7 2532.4 1351.5 2532.4 1345.5C2532.4 1334.7 2521.5 1322.9 2507.9 1321.1C2492.3 1319.5 2476.5 1319.5 2460.9 1321.1C2447.2 1322.9 2436.4 1334.8 2436.4 1345.5C2436.4 1351.4 2439.7 1357.6 2444.9 1362.4C2451.7 1368.6 2455.6 1377.5 2455 1386.9C2451.9 1433.6 2445.8 1485.2 2432 1541.8" stroke="#2B5621" stroke-width="8" stroke-miterlimit="10" stroke-linecap="round" stroke-linejoin="round"/>
<path id="XMLID 25_4" opacity="0.4" d="M2604.4 1433.7H2364.2L2380.9 1544H2433.3V1547.2C2433.3 1553.8 2435.1 1559.1 2441.6 1559.1H2526.8C2533.4 1559.1 2535.1 1553.8 2535.1 1547.2V1544H2587.5L2604.4 1433.7Z" fill="#2B5621" stroke="#2B5621" stroke-width="8" stroke-miterlimit="10" stroke-linecap="round" stroke-linejoin="round"/>
</g>
<path id="XMLID 18_4" d="M2591.2 1419.9H2351L2367.7 1530.2H2416.6V1533.4C2416.6 1540 2421.9 1545.3 2428.5 1545.3H2513.7C2520.3 1545.3 2525.6 1540 2525.6 1533.4V1530.2H2574.5L2591.2 1419.9Z" fill="#FFC943"/>
<g id="XMLID 35_3" opacity="0.18">
<path id="XMLID 38_3" opacity="0.18" d="M2452.1 1419.9C2448.4 1457.6 2442.4 1498.2 2431.8 1541.8" stroke="#351915" stroke-width="8" stroke-miterlimit="10" stroke-linecap="round" stroke-linejoin="round"/>
<path id="XMLID 44_3" opacity="0.18" d="M2534.2 1530.6C2525.2 1491.2 2519.9 1454.3 2516.6 1419.9" stroke="#351915" stroke-width="8" stroke-miterlimit="10" stroke-linecap="round" stroke-linejoin="round"/>
</g>
<path id="XMLID 33_3" opacity="0.18" d="M2515.4 1538.6H2433.7C2437.7 1534.5 2440.2 1530 2441.9 1525.7C2443.5 1521.5 2447.3 1518.6 2451.6 1518.6H2497.6C2501.9 1518.6 2505.6 1521.4 2507.3 1525.7C2508.9 1530.1 2511.4 1534.6 2515.4 1538.6Z" stroke="#351915" stroke-width="8" stroke-miterlimit="10" stroke-linecap="round" stroke-linejoin="round"/>
<path id="XMLID 31_4" opacity="0.18" d="M2574.4 1525.7H2532.8L2534.5 1516.7C2535.6 1510.7 2540.9 1506.4 2547 1506.4H2560.2C2566.3 1506.4 2571.5 1510.7 2572.7 1516.7L2574.4 1525.7Z" stroke="#351915" stroke-width="8" stroke-miterlimit="10" stroke-linecap="round" stroke-linejoin="round"/>
<path id="XMLID 24_4" d="M2523.6 1527.9C2509.9 1471.2 2503.8 1419.6 2500.6 1373C2500 1363.6 2503.9 1354.7 2510.7 1348.5C2515.9 1343.8 2519.2 1337.6 2519.2 1331.6C2519.2 1320.8 2508.3 1309 2494.7 1307.2C2479.1 1305.6 2463.3 1305.6 2447.7 1307.2C2434 1309 2423.2 1320.9 2423.2 1331.6C2423.2 1337.5 2426.5 1343.7 2431.7 1348.5C2438.5 1354.7 2442.4 1363.6 2441.8 1373C2438.7 1419.7 2432.6 1471.3 2418.8 1527.9" stroke="#102D3B" stroke-width="8" stroke-miterlimit="10" stroke-linecap="round" stroke-linejoin="round"/>
<path id="XMLID 30_3" d="M2574.2 1530.1H2532.6L2534.3 1521.1C2535.4 1515.1 2540.7 1510.8 2546.8 1510.8H2560.1C2566.2 1510.8 2571.4 1515.1 2572.6 1521.1L2574.2 1530.1Z" fill="#FFC943"/>
<path id="XMLID 6_5" d="M2574.2 1530.1H2532.6L2534.3 1521.1C2535.4 1515.1 2540.7 1510.8 2546.8 1510.8H2560.1C2566.2 1510.8 2571.4 1515.1 2572.6 1521.1L2574.2 1530.1Z" stroke="#102D3B" stroke-width="8" stroke-miterlimit="10" stroke-linecap="round" stroke-linejoin="round"/>
<path id="XMLID 13_5" d="M2516.5 1419.9H2351L2367.7 1530.2H2420.1V1533.4C2420.1 1540 2421.9 1545.3 2428.4 1545.3H2513.6C2520.2 1545.3 2521.9 1540 2521.9 1533.4V1530.2H2574.3L2591.2 1419.9H2516.5Z" stroke="#102D3B" stroke-width="8" stroke-miterlimit="10" stroke-linecap="round" stroke-linejoin="round"/>
<path id="XMLID 34_3" d="M2511 1545.3H2429.3C2433.3 1541.2 2435.8 1536.7 2437.5 1532.4C2439.1 1528.2 2442.9 1525.3 2447.2 1525.3H2493.2C2497.5 1525.3 2501.2 1528.1 2502.9 1532.4C2504.5 1536.7 2507 1541.2 2511 1545.3Z" fill="#FFC943"/>
<path id="XMLID 2_3" d="M2511 1545.3H2429.3C2433.3 1541.2 2435.8 1536.7 2437.5 1532.4C2439.1 1528.2 2442.9 1525.3 2447.2 1525.3H2493.2C2497.5 1525.3 2501.2 1528.1 2502.9 1532.4C2504.5 1536.7 2507 1541.2 2511 1545.3Z" stroke="#102D3B" stroke-width="8" stroke-miterlimit="10" stroke-linecap="round" stroke-linejoin="round"/>
<path id="XMLID 28_5" opacity="0.18" d="M2412.9 1525.7H2371.3L2373 1516.7C2374.1 1510.7 2379.4 1506.4 2385.5 1506.4H2398.8C2404.9 1506.4 2410.1 1510.7 2411.3 1516.7L2412.9 1525.7Z" stroke="#351915" stroke-width="8" stroke-miterlimit="10" stroke-linecap="round" stroke-linejoin="round"/>
<path id="XMLID 29_4" d="M2410.7 1530.1H2369.1L2370.8 1521.1C2371.9 1515.1 2377.2 1510.8 2383.3 1510.8H2396.6C2402.7 1510.8 2407.9 1515.1 2409.1 1521.1L2410.7 1530.1Z" fill="#FFC943"/>
<path id="XMLID 8_5" d="M2410.7 1530.1H2369.1L2370.8 1521.1C2371.9 1515.1 2377.2 1510.8 2383.3 1510.8H2396.6C2402.7 1510.8 2407.9 1515.1 2409.1 1521.1L2410.7 1530.1Z" stroke="#102D3B" stroke-width="8" stroke-miterlimit="10" stroke-linecap="round" stroke-linejoin="round"/>
</g>
<path id="path11" d="M2471 1449.34C3988.94 1573.07 4723.47 1441.34 4901 1360" stroke="black"/>
<path id="path5" d="M2481.5 1424.5C4485.5 2407.3 4917.83 2822.33 4883.5 2907" stroke="black"/>
<path id="path12" d="M2474.5 1376.5C2611.7 97.3003 2298.33 -53.4998 2124.5 31.0002" stroke="black"/>
<path id="path2" d="M2474.5 1410.5C3682.5 2668.1 3746.5 2982.5 3627.5 2982.5" stroke="black"/>
</g>
</svg>
