<svg width="188" height="37" viewBox="0 0 188 37" fill="none" xmlns="http://www.w3.org/2000/svg">
<path d="M26.864 36H22.544V20.016H4.976V36H0.656V1.728H4.976V16.224H22.544V1.728H26.864V36ZM37.8181 0.623998C38.4581 0.623998 39.0181 0.847998 39.4981 1.296C40.0101 1.712 40.2661 2.384 40.2661 3.312C40.2661 4.208 40.0101 4.88 39.4981 5.328C39.0181 5.776 38.4581 6 37.8181 6C37.1141 6 36.5221 5.776 36.0421 5.328C35.5621 4.88 35.3221 4.208 35.3221 3.312C35.3221 2.384 35.5621 1.712 36.0421 1.296C36.5221 0.847998 37.1141 0.623998 37.8181 0.623998ZM39.8821 10.272V36H35.6581V10.272H39.8821ZM60.0331 9.792C60.5131 9.792 61.0251 9.824 61.5691 9.888C62.1451 9.92 62.6411 9.984 63.0571 10.08L62.5291 13.968C62.1131 13.872 61.6491 13.792 61.1371 13.728C60.6571 13.664 60.1931 13.632 59.7451 13.632C58.4331 13.632 57.2011 14 56.0491 14.736C54.8971 15.44 53.9691 16.448 53.2651 17.76C52.5931 19.04 52.2571 20.544 52.2571 22.272V36H48.0331V10.272H51.4891L51.9691 14.976H52.1611C52.9931 13.568 54.0651 12.352 55.3771 11.328C56.6891 10.304 58.2411 9.792 60.0331 9.792ZM76.8598 9.792C79.0678 9.792 80.9558 10.272 82.5238 11.232C84.1238 12.192 85.3398 13.552 86.1718 15.312C87.0358 17.04 87.4678 19.072 87.4678 21.408V23.952H69.8518C69.9158 26.864 70.6518 29.088 72.0598 30.624C73.4998 32.128 75.4998 32.88 78.0598 32.88C79.6918 32.88 81.1318 32.736 82.3798 32.448C83.6598 32.128 84.9718 31.68 86.3158 31.104V34.8C85.0038 35.376 83.7078 35.792 82.4278 36.048C81.1478 36.336 79.6278 36.48 77.8678 36.48C75.4358 36.48 73.2758 35.984 71.3878 34.992C69.5318 34 68.0758 32.528 67.0198 30.576C65.9958 28.592 65.4838 26.176 65.4838 23.328C65.4838 20.512 65.9478 18.096 66.8758 16.08C67.8358 14.064 69.1638 12.512 70.8598 11.424C72.5878 10.336 74.5878 9.792 76.8598 9.792ZM76.8118 13.248C74.7958 13.248 73.1958 13.904 72.0118 15.216C70.8598 16.496 70.1718 18.288 69.9478 20.592H83.0518C83.0198 18.416 82.5078 16.656 81.5158 15.312C80.5238 13.936 78.9558 13.248 76.8118 13.248ZM138.648 9.792C141.56 9.792 143.736 10.544 145.176 12.048C146.616 13.52 147.336 15.92 147.336 19.248V36H143.16V19.44C143.16 15.376 141.416 13.344 137.928 13.344C135.432 13.344 133.64 14.064 132.552 15.504C131.496 16.944 130.968 19.04 130.968 21.792V36H126.792V19.44C126.792 15.376 125.032 13.344 121.512 13.344C118.92 13.344 117.128 14.144 116.136 15.744C115.144 17.344 114.648 19.648 114.648 22.656V36H110.424V10.272H113.832L114.456 13.776H114.696C115.496 12.432 116.568 11.44 117.912 10.8C119.288 10.128 120.744 9.792 122.28 9.792C126.312 9.792 128.936 11.232 130.152 14.112H130.392C131.256 12.64 132.424 11.552 133.896 10.848C135.4 10.144 136.984 9.792 138.648 9.792ZM165.219 9.792C167.427 9.792 169.315 10.272 170.883 11.232C172.483 12.192 173.699 13.552 174.531 15.312C175.395 17.04 175.827 19.072 175.827 21.408V23.952H158.211C158.275 26.864 159.011 29.088 160.419 30.624C161.859 32.128 163.859 32.88 166.419 32.88C168.051 32.88 169.491 32.736 170.739 32.448C172.019 32.128 173.331 31.68 174.675 31.104V34.8C173.363 35.376 172.067 35.792 170.787 36.048C169.507 36.336 167.987 36.48 166.227 36.48C163.795 36.48 161.635 35.984 159.747 34.992C157.891 34 156.435 32.528 155.379 30.576C154.355 28.592 153.843 26.176 153.843 23.328C153.843 20.512 154.307 18.096 155.235 16.08C156.195 14.064 157.523 12.512 159.219 11.424C160.947 10.336 162.947 9.792 165.219 9.792ZM165.171 13.248C163.155 13.248 161.555 13.904 160.371 15.216C159.219 16.496 158.531 18.288 158.307 20.592H171.411C171.379 18.416 170.867 16.656 169.875 15.312C168.883 13.936 167.315 13.248 165.171 13.248ZM186.121 26.352H183.385L182.185 1.728H187.321L186.121 26.352ZM181.753 33.408C181.753 32.224 182.041 31.392 182.617 30.912C183.193 30.432 183.897 30.192 184.729 30.192C185.529 30.192 186.217 30.432 186.793 30.912C187.401 31.392 187.705 32.224 187.705 33.408C187.705 34.56 187.401 35.392 186.793 35.904C186.217 36.416 185.529 36.672 184.729 36.672C183.897 36.672 183.193 36.416 182.617 35.904C182.041 35.392 181.753 34.56 181.753 33.408Z" fill="#912D2D"/>
</svg>
