<svg width="500" height="500" viewBox="0 0 500 500" fill="none" xmlns="http://www.w3.org/2000/svg">
<g id="icon1">
<path id="{" d="M163.08 450.78V478.86C163.08 483.54 160.74 485.88 156.06 485.88C95.58 485.88 65.34 457.8 65.34 401.64V336.84C65.34 318.84 60.84 304.08 51.84 292.56C43.2 280.68 35.82 274.74 29.7 274.74C23.58 274.74 20.52 272.22 20.52 267.18V250.44C20.52 245.76 23.58 243.42 29.7 243.42C35.82 243.06 43.2 237.12 51.84 225.6C60.84 214.08 65.34 199.14 65.34 180.78V119.22C65.34 62.34 95.58 33.9 156.06 33.9C160.74 33.9 163.08 36.24 163.08 40.92V69C163.08 73.68 160.74 76.02 156.06 76.02C140.22 76.02 128.7 79.8 121.5 87.36C114.3 94.56 110.7 106.44 110.7 123V180.24C110.7 194.64 107.64 207.6 101.52 219.12C95.76 230.64 90 238.56 84.24 242.88L75.6 249.9V268.26C90.72 278.34 101.16 292.92 106.92 312C109.44 319.92 110.7 328.38 110.7 337.38V397.86C110.7 414.42 114.12 426.3 120.96 433.5C128.16 440.34 139.86 443.76 156.06 443.76C160.74 443.76 163.08 446.1 163.08 450.78Z" fill="black"/>
<path id="}" d="M391.132 337.38C391.132 307.5 402.832 284.46 426.232 268.26V249.9C423.712 248.46 420.472 246.12 416.512 242.88C412.552 239.28 407.332 231.54 400.852 219.66C394.372 207.78 391.132 194.64 391.132 180.24V123C391.132 106.44 387.532 94.56 380.332 87.36C373.132 79.8 361.612 76.02 345.772 76.02C340.732 76.02 338.212 73.68 338.212 69V40.92C338.212 36.24 340.732 33.9 345.772 33.9C406.252 33.9 436.492 62.34 436.492 119.22V180.78C436.492 199.14 440.812 214.08 449.452 225.6C458.092 237.12 465.472 243.06 471.592 243.42C477.712 243.42 480.772 245.76 480.772 250.44V267.18C480.772 272.22 477.712 274.74 471.592 274.74C465.832 274.74 458.452 280.68 449.452 292.56C440.812 304.08 436.492 318.84 436.492 336.84V401.64C436.492 457.8 406.252 485.88 345.772 485.88C340.732 485.88 338.212 483.54 338.212 478.86V450.78C338.212 446.1 340.732 443.76 345.772 443.76C361.612 443.76 373.132 440.34 380.332 433.5C387.532 426.3 391.132 414.42 391.132 397.86V337.38Z" fill="black"/>
<g id="balls">
<path id="red" d="M284.335 374C311.231 374 333.035 351.614 333.035 324C333.035 296.386 311.231 274 284.335 274C257.438 274 235.635 296.386 235.635 324C235.635 351.614 257.438 374 284.335 374Z" fill="#FC3A4D"/>
<path id="blue" d="M304.788 252C331.684 252 353.488 229.614 353.488 202C353.488 174.386 331.684 152 304.788 152C277.892 152 256.088 174.386 256.088 202C256.088 229.614 277.892 252 304.788 252Z" fill="#12B0FF"/>
<path id="yellow" d="M195.7 291C222.596 291 244.4 268.614 244.4 241C244.4 213.386 222.596 191 195.7 191C168.804 191 147 213.386 147 241C147 268.614 168.804 291 195.7 291Z" fill="#FCA417"/>
</g>
</g>
</svg>
