<svg width="474" height="445" viewBox="0 0 474 445" fill="none" xmlns="http://www.w3.org/2000/svg">
<path d="M237.6 419.6C363.521 419.6 465.6 327.46 465.6 213.8C465.6 100.14 363.521 8 237.6 8C111.679 8 9.6001 100.14 9.6001 213.8C9.6001 327.46 111.679 419.6 237.6 419.6Z" fill="#8FE3F9"/>
<path d="M237.6 419.6C363.521 419.6 465.6 327.46 465.6 213.8C465.6 100.14 363.521 8 237.6 8C111.679 8 9.6001 100.14 9.6001 213.8C9.6001 327.46 111.679 419.6 237.6 419.6Z" fill="#684A49"/>
<path d="M243.6 415.6C295.7 415.6 343.7 400.3 382.1 374.6L371.6 349.9C349.6 298 297.4 264.1 239.5 264.1C181.6 264.1 129.4 298 107.4 349.9L98.7998 370.3C138.1 398.6 188.6 415.6 243.6 415.6Z" fill="#856A69"/>
<path d="M237.5 196.6L193.9 260.6L226.8 304.4C232.2 311.6 243.1 311.6 248.5 304.4L281.1 260.6L237.5 196.6Z" fill="#7A6160"/>
<path d="M237.6 395.6C116.1 395.6 16.9001 309.9 10.0001 201.8C9.70012 205.8 9.6001 209.8 9.6001 213.8C9.6001 327.4 111.7 419.6 237.6 419.6C363.5 419.6 465.6 327.5 465.6 213.8C465.6 209.8 465.5 205.8 465.2 201.8C458.3 309.9 359 395.6 237.6 395.6Z" fill="#684A49"/>
<path d="M374.4 354.4C336.3 380.2 288.9 395.6 237.6 395.6C187.6 395.6 141.4 381.1 103.9 356.5L98.8999 368.8C138.3 398 188.7 415.6 243.7 415.6C293.4 415.6 339.4 401.2 376.9 376.8C378.7 375.6 380.4 374.3 382.2 373L374.4 354.4Z" fill="#856A69"/>
<path d="M4 214.5C10.4 227.6 19 239.8 29.8 250.7C82.1 303 167 303 219.3 250.7C263.1 206.9 270.2 140.4 240.8 89.2" fill="#684A49"/>
<path d="M464.8 230.1C440.8 266.2 399.8 289.9 353.2 289.9C279.2 289.9 219.2 229.9 219.2 155.9C219.2 122.9 231.1 92.7 250.9 69.3" fill="#684A49"/>
<path d="M237.6 419.6C363.521 419.6 465.6 327.46 465.6 213.8C465.6 100.14 363.521 8 237.6 8C111.679 8 9.6001 100.14 9.6001 213.8C9.6001 327.46 111.679 419.6 237.6 419.6Z" stroke="#413D51" stroke-width="16" stroke-miterlimit="10" stroke-linecap="round" stroke-linejoin="round"/>
<path d="M237.5 168.6L193.9 232.6L237.7 290.9L281.2 232.6L237.5 168.6Z" fill="#413D51"/>
<path d="M237.5 168.6L193.9 232.6L237.7 290.9L281.2 232.6L237.5 168.6Z" stroke="#413D51" stroke-width="16" stroke-miterlimit="10" stroke-linecap="round" stroke-linejoin="round"/>
<path d="M336.5 30.2C306.5 16.2 272.4 8.30005 236.5 8.30005C200.6 8.30005 166.5 16.2 136.5 30.2V170.3H336.5V30.2Z" fill="#413D51"/>
<path d="M349.3 44.1999L458 40.8999C442.3 80.1999 440.2 139.3 453.9 203.9C436.5 240.7 399.5 266.8 356 268.1C294.2 270 242.5 221.4 240.7 159.5C238.8 97.6999 287.4 46.0999 349.3 44.1999Z" fill="#413D51"/>
<path d="M349.3 44.1999L458 40.8999C442.3 80.1999 440.2 139.3 453.9 203.9C436.5 240.7 399.5 266.8 356 268.1C294.2 270 242.5 221.4 240.7 159.5C238.8 97.6999 287.4 46.0999 349.3 44.1999Z" stroke="#413D51" stroke-width="16" stroke-miterlimit="10" stroke-linecap="round" stroke-linejoin="round"/>
<path d="M353.2 268C415.056 268 465.2 217.856 465.2 156C465.2 94.1441 415.056 44 353.2 44C291.344 44 241.2 94.1441 241.2 156C241.2 217.856 291.344 268 353.2 268Z" fill="#F7E8AD"/>
<path d="M353.2 268C415.056 268 465.2 217.856 465.2 156C465.2 94.1441 415.056 44 353.2 44C291.344 44 241.2 94.1441 241.2 156C241.2 217.856 291.344 268 353.2 268Z" fill="#F7E8AD"/>
<path d="M432.4 76.8C410.9 55.3 382.7 44.4 354.5 44C375.7 48.1 396 58.3 412.4 74.8C456.1 118.5 456.1 189.4 412.4 233.2C390.2 255.4 361 266.3 332 266C367.3 272.8 405.1 262.5 432.4 235.2C476.1 191.4 476.1 120.5 432.4 76.8Z" fill="#F7D6A1"/>
<path opacity="0.7" d="M386.321 215.822C419.125 183.018 418.935 129.643 385.897 96.6045C352.859 63.5665 299.483 63.3765 266.68 96.1803C233.876 128.984 234.066 182.359 267.104 215.397C300.142 248.435 353.517 248.625 386.321 215.822Z" fill="white"/>
<path d="M353.2 268C415.056 268 465.2 217.856 465.2 156C465.2 94.1441 415.056 44 353.2 44C291.344 44 241.2 94.1441 241.2 156C241.2 217.856 291.344 268 353.2 268Z" stroke="#413D51" stroke-width="16" stroke-miterlimit="10" stroke-linecap="round" stroke-linejoin="round"/>
<path d="M353.2 268C415.056 268 465.2 217.856 465.2 156C465.2 94.1441 415.056 44 353.2 44C291.344 44 241.2 94.1441 241.2 156C241.2 217.856 291.344 268 353.2 268Z" stroke="#413D51" stroke-width="16" stroke-miterlimit="10" stroke-linecap="round" stroke-linejoin="round"/>
<path d="M328.7 206.4C351.896 206.4 370.7 187.596 370.7 164.4C370.7 141.204 351.896 122.4 328.7 122.4C305.504 122.4 286.7 141.204 286.7 164.4C286.7 187.596 305.504 206.4 328.7 206.4Z" fill="#413D51"/>
<path d="M304.9 178.7C312.632 178.7 318.9 172.432 318.9 164.7C318.9 156.968 312.632 150.7 304.9 150.7C297.168 150.7 290.9 156.968 290.9 164.7C290.9 172.432 297.168 178.7 304.9 178.7Z" fill="white"/>
<path d="M124.6 44.1999L15.8003 40.8999C31.5003 80.1999 33.6003 139.3 19.9003 203.9C37.3003 240.7 74.3003 266.8 117.8 268.1C179.6 270 231.3 221.4 233.1 159.5C235 97.6999 186.4 46.0999 124.6 44.1999Z" fill="#413D51"/>
<path d="M124.6 44.1999L15.8003 40.8999C31.5003 80.1999 33.6003 139.3 19.9003 203.9C37.3003 240.7 74.3003 266.8 117.8 268.1C179.6 270 231.3 221.4 233.1 159.5C235 97.6999 186.4 46.0999 124.6 44.1999Z" stroke="#413D51" stroke-width="16" stroke-miterlimit="10" stroke-linecap="round" stroke-linejoin="round"/>
<path d="M120.6 268C182.456 268 232.6 217.856 232.6 156C232.6 94.1441 182.456 44 120.6 44C58.7442 44 8.6001 94.1441 8.6001 156C8.6001 217.856 58.7442 268 120.6 268Z" fill="#F7E8AD"/>
<path d="M120.6 268C182.456 268 232.6 217.856 232.6 156C232.6 94.1441 182.456 44 120.6 44C58.7442 44 8.6001 94.1441 8.6001 156C8.6001 217.856 58.7442 268 120.6 268Z" fill="#F7E8AD"/>
<path d="M41.4 76.8C62.9 55.3 91.1 44.4 119.3 44C98.1 48.1 77.8 58.3 61.4 74.8C17.7 118.5 17.7 189.4 61.4 233.2C83.6 255.4 112.8 266.3 141.8 266C106.5 272.8 68.7 262.5 41.4 235.2C-2.3 191.4 -2.3 120.5 41.4 76.8Z" fill="#F7D6A1"/>
<path opacity="0.7" d="M206.707 215.418C239.745 182.38 239.935 129.004 207.131 96.2006C174.327 63.3969 120.952 63.5869 87.9139 96.6249C54.8759 129.663 54.6859 183.038 87.4897 215.842C120.293 248.646 173.669 248.456 206.707 215.418Z" fill="white"/>
<path d="M120.6 268C182.456 268 232.6 217.856 232.6 156C232.6 94.1441 182.456 44 120.6 44C58.7442 44 8.6001 94.1441 8.6001 156C8.6001 217.856 58.7442 268 120.6 268Z" stroke="#413D51" stroke-width="16" stroke-miterlimit="10" stroke-linecap="round" stroke-linejoin="round"/>
<path d="M120.6 268C182.456 268 232.6 217.856 232.6 156C232.6 94.1441 182.456 44 120.6 44C58.7442 44 8.6001 94.1441 8.6001 156C8.6001 217.856 58.7442 268 120.6 268Z" stroke="#413D51" stroke-width="16" stroke-miterlimit="10" stroke-linecap="round" stroke-linejoin="round"/>
<path d="M145.2 206.4C168.396 206.4 187.2 187.596 187.2 164.4C187.2 141.204 168.396 122.4 145.2 122.4C122.004 122.4 103.2 141.204 103.2 164.4C103.2 187.596 122.004 206.4 145.2 206.4Z" fill="#413D51"/>
<path d="M169 178.7C176.732 178.7 183 172.432 183 164.7C183 156.968 176.732 150.7 169 150.7C161.268 150.7 155 156.968 155 164.7C155 172.432 161.268 178.7 169 178.7Z" fill="white"/>
<path d="M183.7 444.6C174.9 444.6 167.7 437.4 167.7 428.6V410.6C167.7 401.8 174.9 394.6 183.7 394.6C192.5 394.6 199.7 401.8 199.7 410.6V428.6C199.7 437.4 192.6 444.6 183.7 444.6Z" fill="#413D51"/>
<path d="M151.7 444.6C142.9 444.6 135.7 437.4 135.7 428.6V410.6C135.7 401.8 142.9 394.6 151.7 394.6C160.5 394.6 167.7 401.8 167.7 410.6V428.6C167.7 437.4 160.6 444.6 151.7 444.6Z" fill="#413D51"/>
<path d="M215.5 444.6C206.7 444.6 199.5 437.4 199.5 428.6V410.6C199.5 401.8 206.7 394.6 215.5 394.6C224.3 394.6 231.5 401.8 231.5 410.6V428.6C231.5 437.4 224.3 444.6 215.5 444.6Z" fill="#413D51"/>
<path d="M257.7 444.6C248.9 444.6 241.7 437.4 241.7 428.6V410.6C241.7 401.8 248.9 394.6 257.7 394.6C266.5 394.6 273.7 401.8 273.7 410.6V428.6C273.7 437.4 266.5 444.6 257.7 444.6Z" fill="#413D51"/>
<path d="M289.5 444.6C280.7 444.6 273.5 437.4 273.5 428.6V410.6C273.5 401.8 280.7 394.6 289.5 394.6C298.3 394.6 305.5 401.8 305.5 410.6V428.6C305.5 437.4 298.3 444.6 289.5 444.6Z" fill="#413D51"/>
<path d="M321.5 444.6C312.7 444.6 305.5 437.4 305.5 428.6V410.6C305.5 401.8 312.7 394.6 321.5 394.6C330.3 394.6 337.5 401.8 337.5 410.6V428.6C337.5 437.4 330.3 444.6 321.5 444.6Z" fill="#413D51"/>
<path d="M227.7 313.9C227.7 322.3 220.9 329.1 212.5 329.1C204.1 329.1 197.3 322.3 197.3 313.9" stroke="#413D51" stroke-width="8" stroke-miterlimit="10" stroke-linecap="round" stroke-linejoin="round"/>
<path d="M274.2 313.9C274.2 322.3 267.4 329.1 259 329.1C250.6 329.1 243.8 322.3 243.8 313.9" stroke="#413D51" stroke-width="8" stroke-miterlimit="10" stroke-linecap="round" stroke-linejoin="round"/>
<path opacity="0.31" d="M58.7998 275.1C56.5998 279.8 51.0998 281.9 46.2998 279.7C41.4998 277.5 39.4998 272 41.6998 267.2" stroke="#72C8D6" stroke-width="8" stroke-miterlimit="10" stroke-linecap="round" stroke-linejoin="round"/>
<path opacity="0.31" d="M88.6 290.6C86.4 295.3 80.9 297.4 76.1 295.2C71.4 293 69.3001 287.5 71.5001 282.7" stroke="#72C8D6" stroke-width="8" stroke-miterlimit="10" stroke-linecap="round" stroke-linejoin="round"/>
<path opacity="0.31" d="M71.2998 302.5C69.0998 307.2 63.5998 309.3 58.7998 307.1C54.0998 304.9 51.9998 299.4 54.1998 294.6" stroke="#72C8D6" stroke-width="8" stroke-miterlimit="10" stroke-linecap="round" stroke-linejoin="round"/>
<path opacity="0.31" d="M97.5 322.4C95.3 327.1 89.8 329.2 85 327C80.3 324.8 78.2 319.3 80.4 314.5" stroke="#72C8D6" stroke-width="8" stroke-miterlimit="10" stroke-linecap="round" stroke-linejoin="round"/>
<path opacity="0.31" d="M117.5 304.4C115.3 309.1 109.8 311.2 105 309C100.3 306.8 98.2 301.3 100.4 296.5" stroke="#72C8D6" stroke-width="8" stroke-miterlimit="10" stroke-linecap="round" stroke-linejoin="round"/>
<path opacity="0.31" d="M419.5 277.1C421.7 281.8 427.2 283.9 432 281.7C436.8 279.5 438.8 274 436.6 269.2" stroke="#72C8D6" stroke-width="8" stroke-miterlimit="10" stroke-linecap="round" stroke-linejoin="round"/>
<path opacity="0.31" d="M389.8 292.6C392 297.3 397.5 299.4 402.3 297.2C407 295 409.1 289.5 406.9 284.7" stroke="#72C8D6" stroke-width="8" stroke-miterlimit="10" stroke-linecap="round" stroke-linejoin="round"/>
<path opacity="0.31" d="M407 304.5C409.2 309.2 414.7 311.3 419.5 309.1C424.2 306.9 426.3 301.4 424.1 296.6" stroke="#72C8D6" stroke-width="8" stroke-miterlimit="10" stroke-linecap="round" stroke-linejoin="round"/>
<path opacity="0.31" d="M380.9 324.4C383.1 329.1 388.6 331.2 393.4 329C398.1 326.8 400.2 321.3 398 316.5" stroke="#72C8D6" stroke-width="8" stroke-miterlimit="10" stroke-linecap="round" stroke-linejoin="round"/>
<path opacity="0.31" d="M360.9 306.4C363.1 311.1 368.6 313.2 373.4 311C378.1 308.8 380.2 303.3 378 298.5" stroke="#72C8D6" stroke-width="8" stroke-miterlimit="10" stroke-linecap="round" stroke-linejoin="round"/>
<path d="M204.5 350.4C204.5 358.8 197.7 365.6 189.3 365.6C180.9 365.6 174.1 358.8 174.1 350.4" stroke="#413D51" stroke-width="8" stroke-miterlimit="10" stroke-linecap="round" stroke-linejoin="round"/>
<path d="M251 350.4C251 358.8 244.2 365.6 235.8 365.6C227.4 365.6 220.6 358.8 220.6 350.4" stroke="#413D51" stroke-width="8" stroke-miterlimit="10" stroke-linecap="round" stroke-linejoin="round"/>
<path d="M297.5 350.4C297.5 358.8 290.7 365.6 282.3 365.6C273.9 365.6 267.1 358.8 267.1 350.4" stroke="#413D51" stroke-width="8" stroke-miterlimit="10" stroke-linecap="round" stroke-linejoin="round"/>
</svg>
