<svg width="4900" height="3000" viewBox="0 0 4900 3000" fill="none" xmlns="http://www.w3.org/2000/svg">
<g id="paperclipAnimation">
<rect id="Rectangle 4" width="4900" height="3000" fill="white"/>
<path id="clip19" d="M1944.31 389.842L1977.53 293.633C1980.59 284.865 1990.52 280.135 1999.71 283.019C2009.03 285.903 2014.05 295.248 2010.99 303.9L1972.63 415.106C1967.35 430.218 1950.19 438.524 1934.14 433.564C1918.08 428.603 1909.26 412.453 1914.53 397.341L1957.3 273.214C1963.92 254.064 1985.86 243.567 2006.21 249.796C2026.56 256.025 2037.71 276.675 2031.09 295.824L1992.73 406.8" stroke="#409999" stroke-width="8" stroke-miterlimit="10" stroke-linecap="round" stroke-linejoin="round"/>
<path id="clip18" d="M1944.31 389.842L1977.53 293.633C1980.59 284.865 1990.52 280.135 1999.71 283.019C2009.03 285.903 2014.05 295.248 2010.99 303.9L1972.63 415.106C1967.35 430.218 1950.19 438.524 1934.14 433.564C1918.08 428.603 1909.26 412.453 1914.53 397.341L1957.3 273.214C1963.92 254.064 1985.86 243.567 2006.21 249.796C2026.56 256.025 2037.71 276.675 2031.09 295.824L1992.73 406.8" stroke="#409999" stroke-width="8" stroke-miterlimit="10" stroke-linecap="round" stroke-linejoin="round"/>
<path id="clip17" d="M1759.31 389.842L1792.53 293.633C1795.59 284.865 1805.52 280.135 1814.71 283.019C1824.03 285.903 1829.05 295.248 1825.99 303.9L1787.63 415.106C1782.35 430.218 1765.19 438.524 1749.14 433.564C1733.08 428.603 1724.26 412.453 1729.53 397.341L1772.3 273.214C1778.92 254.064 1800.86 243.567 1821.21 249.796C1841.56 256.025 1852.71 276.675 1846.09 295.824L1807.73 406.8" stroke="#409999" stroke-width="8" stroke-miterlimit="10" stroke-linecap="round" stroke-linejoin="round"/>
<path id="clip16" d="M2110.31 389.842L2143.53 293.633C2146.59 284.865 2156.52 280.135 2165.71 283.019C2175.03 285.903 2180.05 295.248 2176.99 303.9L2138.63 415.106C2133.35 430.218 2116.19 438.524 2100.14 433.564C2084.08 428.603 2075.26 412.453 2080.53 397.341L2123.3 273.214C2129.92 254.064 2151.86 243.567 2172.21 249.796C2192.56 256.025 2203.71 276.675 2197.09 295.824L2158.73 406.8" stroke="#409999" stroke-width="8" stroke-miterlimit="10" stroke-linecap="round" stroke-linejoin="round"/>
<path id="clip15" d="M4469.31 367.842L4502.53 271.633C4505.59 262.865 4515.52 258.135 4524.71 261.019C4534.03 263.903 4539.05 273.248 4535.99 281.9L4497.63 393.106C4492.35 408.218 4475.19 416.524 4459.14 411.564C4443.08 406.603 4434.26 390.453 4439.53 375.341L4482.3 251.214C4488.92 232.064 4510.86 221.567 4531.21 227.796C4551.56 234.025 4562.71 254.675 4556.09 273.824L4517.73 384.8" stroke="#FFC943" stroke-width="8" stroke-miterlimit="10" stroke-linecap="round" stroke-linejoin="round"/>
<path id="clip14" d="M3913.31 367.601L3946.53 270.877C3949.59 262.062 3959.52 257.307 3968.71 260.207C3978.03 263.106 3983.05 272.5 3979.99 281.198L3941.63 393C3936.35 408.193 3919.19 416.543 3903.14 411.556C3887.08 406.569 3878.26 390.332 3883.53 375.139L3926.3 250.349C3932.92 231.097 3954.86 220.543 3975.21 226.806C3995.56 233.068 4006.71 253.828 4000.09 273.08L3961.73 384.649" stroke="#F42222" stroke-width="8" stroke-miterlimit="10" stroke-linecap="round" stroke-linejoin="round"/>
<path id="clip13" d="M2487.31 389.842L2520.53 293.633C2523.59 284.865 2533.52 280.135 2542.71 283.019C2552.03 285.903 2557.05 295.248 2553.99 303.9L2515.63 415.106C2510.35 430.218 2493.19 438.524 2477.14 433.564C2461.08 428.603 2452.26 412.453 2457.53 397.341L2500.3 273.214C2506.92 254.064 2528.86 243.567 2549.21 249.796C2569.56 256.025 2580.71 276.675 2574.09 295.824L2535.73 406.8" stroke="#409999" stroke-width="8" stroke-miterlimit="10" stroke-linecap="round" stroke-linejoin="round"/>
<path id="clip12" d="M1382.31 389.842L1415.53 293.633C1418.59 284.865 1428.52 280.135 1437.71 283.019C1447.03 285.903 1452.05 295.248 1448.99 303.9L1410.63 415.106C1405.35 430.218 1388.19 438.524 1372.14 433.564C1356.08 428.603 1347.26 412.453 1352.53 397.341L1395.3 273.214C1401.92 254.064 1423.86 243.567 1444.21 249.796C1464.56 256.025 1475.71 276.675 1469.09 295.824L1430.73 406.8" stroke="#F42222" stroke-width="8" stroke-miterlimit="10" stroke-linecap="round" stroke-linejoin="round"/>
<path id="clip20" d="M968.311 389.842L1001.53 293.633C1004.59 284.865 1014.52 280.135 1023.71 283.019C1033.03 285.903 1038.05 295.248 1034.99 303.9L996.625 415.106C991.355 430.218 974.195 438.524 958.138 433.564C942.081 428.603 933.256 412.453 938.526 397.341L981.304 273.214C987.923 254.064 1009.86 243.567 1030.21 249.796C1050.56 256.025 1061.71 276.675 1055.09 295.824L1016.73 406.8" stroke="#114EFF" stroke-width="8" stroke-miterlimit="10" stroke-linecap="round" stroke-linejoin="round"/>
<path id="clip11" d="M2890.31 380.842L2923.53 284.633C2926.59 275.865 2936.52 271.135 2945.71 274.019C2955.03 276.903 2960.05 286.248 2956.99 294.9L2918.63 406.106C2913.35 421.218 2896.19 429.524 2880.14 424.564C2864.08 419.603 2855.26 403.453 2860.53 388.341L2903.3 264.214C2909.92 245.064 2931.86 234.567 2952.21 240.796C2972.56 247.025 2983.71 267.675 2977.09 286.824L2938.73 397.8" stroke="#F42222" stroke-width="8" stroke-miterlimit="10" stroke-linecap="round" stroke-linejoin="round"/>
<path id="clip10" d="M4141.17 385.444V284.212C4141.17 274.978 4149.14 267.59 4159.11 267.59C4169.08 267.59 4177.05 274.978 4177.05 284.212V401.258C4177.05 417.187 4163.1 430 4146.03 430C4128.83 430 4115 417.072 4115 401.258V270.591C4115 250.391 4132.69 234 4154.5 234C4176.31 234 4194 250.391 4194 270.591V387.406" stroke="#FFC943" stroke-width="8" stroke-miterlimit="10" stroke-linecap="round" stroke-linejoin="round"/>
<path id="clip9" d="M3728.17 376.444V275.212C3728.17 265.978 3736.14 258.59 3746.11 258.59C3756.08 258.59 3764.05 265.978 3764.05 275.212V392.258C3764.05 408.187 3750.1 421 3733.03 421C3715.83 421 3702 408.072 3702 392.258V261.591C3702 241.391 3719.69 225 3741.5 225C3763.31 225 3781 241.391 3781 261.591V378.406" stroke="#FFC943" stroke-width="8" stroke-miterlimit="10" stroke-linecap="round" stroke-linejoin="round"/>
<path id="clip8" d="M3437.17 385.444V284.212C3437.17 274.978 3445.14 267.59 3455.11 267.59C3465.08 267.59 3473.05 274.978 3473.05 284.212V401.258C3473.05 417.187 3459.1 430 3442.03 430C3424.83 430 3411 417.072 3411 401.258V270.591C3411 250.391 3428.69 234 3450.5 234C3472.31 234 3490 250.391 3490 270.591V387.406" stroke="#114EFF" stroke-width="8" stroke-miterlimit="10" stroke-linecap="round" stroke-linejoin="round"/>
<path id="clip7" d="M519.167 400.217V298.468C519.167 289.187 527.142 281.761 537.11 281.761C547.079 281.761 555.054 289.187 555.054 298.468V416.111C555.054 432.122 541.098 445 524.027 445C506.831 445 493 432.006 493 416.111V284.778C493 264.475 510.694 248 532.5 248C554.306 248 572 264.475 572 284.778V402.189" stroke="#114EFF" stroke-width="8" stroke-miterlimit="10" stroke-linecap="round" stroke-linejoin="round"/>
<path id="clip6" d="M760.167 399.444V298.212C760.167 288.978 768.142 281.59 778.11 281.59C788.079 281.59 796.054 288.978 796.054 298.212V415.258C796.054 431.187 782.098 444 765.027 444C747.831 444 734 431.072 734 415.258V284.591C734 264.391 751.694 248 773.5 248C795.306 248 813 264.391 813 284.591V401.406" stroke="#8A8A8A" stroke-width="8" stroke-miterlimit="10" stroke-linecap="round" stroke-linejoin="round"/>
<path id="clip5" d="M1162.17 399.444V298.212C1162.17 288.978 1170.14 281.59 1180.11 281.59C1190.08 281.59 1198.05 288.978 1198.05 298.212V415.258C1198.05 431.187 1184.1 444 1167.03 444C1149.83 444 1136 431.072 1136 415.258V284.591C1136 264.391 1153.69 248 1175.5 248C1197.31 248 1215 264.391 1215 284.591V401.406" stroke="#777BB4" stroke-width="8" stroke-miterlimit="10" stroke-linecap="round" stroke-linejoin="round"/>
<path id="clip4" d="M1610.17 400.217V298.468C1610.17 289.187 1618.14 281.761 1628.11 281.761C1638.08 281.761 1646.05 289.187 1646.05 298.468V416.111C1646.05 432.122 1632.1 445 1615.03 445C1597.83 445 1584 432.006 1584 416.111V284.778C1584 264.475 1601.69 248 1623.5 248C1645.31 248 1663 264.475 1663 284.778V402.189" stroke="#777BB4" stroke-width="8" stroke-miterlimit="10" stroke-linecap="round" stroke-linejoin="round"/>
<path id="clip3" d="M3146.84 390.444V289.212C3146.84 279.978 3154.71 272.59 3164.55 272.59C3174.39 272.59 3182.27 279.978 3182.27 289.212V406.258C3182.27 422.187 3168.49 435 3151.63 435C3134.66 435 3121 422.072 3121 406.258V275.591C3121 255.391 3138.47 239 3160 239C3181.53 239 3199 255.391 3199 275.591V392.406" stroke="#FFC943" stroke-width="8" stroke-miterlimit="10" stroke-linecap="round" stroke-linejoin="round"/>
<path id="clip2" d="M2719.17 391.217V289.468C2719.17 280.187 2727.14 272.761 2737.11 272.761C2747.08 272.761 2755.05 280.187 2755.05 289.468V407.111C2755.05 423.122 2741.1 436 2724.03 436C2706.83 436 2693 423.006 2693 407.111V275.778C2693 255.475 2710.69 239 2732.5 239C2754.31 239 2772 255.475 2772 275.778V393.189" stroke="#32BF6B" stroke-width="8" stroke-miterlimit="10" stroke-linecap="round" stroke-linejoin="round"/>
<path id="clip1" d="M2330.17 400.217V298.468C2330.17 289.187 2338.14 281.761 2348.11 281.761C2358.08 281.761 2366.05 289.187 2366.05 298.468V416.111C2366.05 432.122 2352.1 445 2335.03 445C2317.83 445 2304 432.006 2304 416.111V284.778C2304 264.475 2321.69 248 2343.5 248C2365.31 248 2383 264.475 2383 284.778V402.189" stroke="#F42222" stroke-width="8" stroke-miterlimit="10" stroke-linecap="round" stroke-linejoin="round"/>
</g>
</svg>
