<svg width="217" height="304" viewBox="0 0 217 304" fill="none" xmlns="http://www.w3.org/2000/svg">
<g id="phone">
<path id="XMLID 75" d="M200 302H68.0001C60.3001 302 54.0001 295.7 54.0001 288V16C54.0001 8.3 60.3001 2 68.0001 2H200C207.7 2 214 8.3 214 16V288C214 295.7 207.7 302 200 302Z" fill="#848484"/>
<path id="XMLID 116" opacity="0.28" d="M200 2H191.6C199.3 2 205.6 8.3 205.6 16V288C205.6 295.7 199.3 302 191.6 302H200.1C207.8 302 214.1 295.7 214.1 288V16C214 8.2 207.7 2 200 2Z" fill="#848484"/>
<path id="XMLID 81" opacity="0.48" d="M62.3001 288V16C62.3001 8.3 68.6001 2 76.3001 2H68.0001C60.3001 2 54.0001 8.3 54.0001 16V288C54.0001 295.7 60.3001 302 68.0001 302H76.3001C68.6001 302 62.3001 295.7 62.3001 288Z" fill="#848484"/>
<path id="XMLID 3" d="M200 302H68.0001C60.3001 302 54.0001 295.7 54.0001 288V16C54.0001 8.3 60.3001 2 68.0001 2H200C207.7 2 214 8.3 214 16V288C214 295.7 207.7 302 200 302Z" stroke="#444E59" stroke-width="4" stroke-miterlimit="10" stroke-linecap="round" stroke-linejoin="round"/>
<path id="XMLID 77" d="M214.019 263.488L214.019 39.488L54.0192 39.488L54.0192 263.488H214.019Z" fill="#E9FBFF"/>
<path id="XMLID 6" d="M214.019 263.488L214.019 39.488L54.0192 39.488L54.0192 263.488H214.019Z" stroke="#444E59" stroke-width="4" stroke-miterlimit="10" stroke-linecap="round" stroke-linejoin="round"/>
<g id="XMLID 4">
<path id="XMLID 9" d="M156 22H163" stroke="#444E59" stroke-width="5" stroke-miterlimit="10" stroke-linecap="round" stroke-linejoin="round"/>
<path id="XMLID 7" d="M105 22H145" stroke="#444E59" stroke-width="5" stroke-miterlimit="10" stroke-linecap="round" stroke-linejoin="round"/>
</g>
<g id="XMLID 228">
<path id="XMLID 8" opacity="0.29" d="M134 291.4C140.075 291.4 145 286.475 145 280.4C145 274.325 140.075 269.4 134 269.4C127.925 269.4 123 274.325 123 280.4C123 286.475 127.925 291.4 134 291.4Z" fill="#848484"/>
<path id="XMLID 78" d="M134 288.8C138.639 288.8 142.4 285.039 142.4 280.4C142.4 275.761 138.639 272 134 272C129.361 272 125.6 275.761 125.6 280.4C125.6 285.039 129.361 288.8 134 288.8Z" fill="#444E59"/>
</g>
<g id="XMLID 14" opacity="0.3">
<g id="XMLID 32" opacity="0.3">
<g id="XMLID 58" opacity="0.3">
<path id="Vector" opacity="0.3" d="M97.5001 236.7H81.5001C77.1001 236.7 73.5001 233.1 73.5001 228.7V212.7C73.5001 208.3 77.1001 204.7 81.5001 204.7H97.5001C101.9 204.7 105.5 208.3 105.5 212.7V228.7C105.5 233.1 101.9 236.7 97.5001 236.7Z" stroke="#444E59" stroke-width="2" stroke-linecap="round" stroke-linejoin="round" stroke-dasharray="4.08 4.08"/>
</g>
<g id="XMLID 35" opacity="0.3">
<path id="Vector_2" opacity="0.3" d="M186 236.7H170C165.6 236.7 162 233.1 162 228.7V212.7C162 208.3 165.6 204.7 170 204.7H186C190.4 204.7 194 208.3 194 212.7V228.7C194 233.1 190.4 236.7 186 236.7Z" stroke="#444E59" stroke-width="2" stroke-linecap="round" stroke-linejoin="round" stroke-dasharray="4.08 4.08"/>
</g>
<g id="XMLID 34" opacity="0.3">
<path id="Vector_3" opacity="0.3" d="M142 236.7H126C121.6 236.7 118 233.1 118 228.7V212.7C118 208.3 121.6 204.7 126 204.7H142C146.4 204.7 150 208.3 150 212.7V228.7C150 233.1 146.4 236.7 142 236.7Z" stroke="#444E59" stroke-width="2" stroke-linecap="round" stroke-linejoin="round" stroke-dasharray="4.08 4.08"/>
</g>
</g>
<g id="XMLID 27" opacity="0.3">
<g id="XMLID 31" opacity="0.3">
<path id="Vector_4" opacity="0.3" d="M97.5001 188.7H81.5001C77.1001 188.7 73.5001 185.1 73.5001 180.7V164.7C73.5001 160.3 77.1001 156.7 81.5001 156.7H97.5001C101.9 156.7 105.5 160.3 105.5 164.7V180.7C105.5 185.1 101.9 188.7 97.5001 188.7Z" stroke="#444E59" stroke-width="2" stroke-linecap="round" stroke-linejoin="round" stroke-dasharray="4.08 4.08"/>
</g>
<g id="XMLID 30" opacity="0.3">
<path id="Vector_5" opacity="0.3" d="M186 188.7H170C165.6 188.7 162 185.1 162 180.7V164.7C162 160.3 165.6 156.7 170 156.7H186C190.4 156.7 194 160.3 194 164.7V180.7C194 185.1 190.4 188.7 186 188.7Z" stroke="#444E59" stroke-width="2" stroke-linecap="round" stroke-linejoin="round" stroke-dasharray="4.08 4.08"/>
</g>
<g id="XMLID 29" opacity="0.3">
<path id="Vector_6" opacity="0.3" d="M142 188.7H126C121.6 188.7 118 185.1 118 180.7V164.7C118 160.3 121.6 156.7 126 156.7H142C146.4 156.7 150 160.3 150 164.7V180.7C150 185.1 146.4 188.7 142 188.7Z" stroke="#444E59" stroke-width="2" stroke-linecap="round" stroke-linejoin="round" stroke-dasharray="4.08 4.08"/>
</g>
</g>
<g id="XMLID 22" opacity="0.3">
<g id="XMLID 26" opacity="0.3">
<path id="Vector_7" opacity="0.3" d="M97.5001 140.7H81.5001C77.1001 140.7 73.5001 137.1 73.5001 132.7V116.7C73.5001 112.3 77.1001 108.7 81.5001 108.7H97.5001C101.9 108.7 105.5 112.3 105.5 116.7V132.7C105.5 137.1 101.9 140.7 97.5001 140.7Z" stroke="#444E59" stroke-width="2" stroke-linecap="round" stroke-linejoin="round" stroke-dasharray="4.08 4.08"/>
</g>
<g id="XMLID 25" opacity="0.3">
<path id="Vector_8" opacity="0.3" d="M186 140.7H170C165.6 140.7 162 137.1 162 132.7V116.7C162 112.3 165.6 108.7 170 108.7H186C190.4 108.7 194 112.3 194 116.7V132.7C194 137.1 190.4 140.7 186 140.7Z" stroke="#444E59" stroke-width="2" stroke-linecap="round" stroke-linejoin="round" stroke-dasharray="4.08 4.08"/>
</g>
<g id="XMLID 24" opacity="0.3">
<path id="Vector_9" opacity="0.3" d="M142 140.7H126C121.6 140.7 118 137.1 118 132.7V116.7C118 112.3 121.6 108.7 126 108.7H142C146.4 108.7 150 112.3 150 116.7V132.7C150 137.1 146.4 140.7 142 140.7Z" stroke="#444E59" stroke-width="2" stroke-linecap="round" stroke-linejoin="round" stroke-dasharray="4.08 4.08"/>
</g>
</g>
<g id="XMLID 17" opacity="0.3">
<g id="XMLID 21" opacity="0.3">
<path id="Vector_10" opacity="0.3" d="M97.5001 92.7H81.5001C77.1001 92.7 73.5001 89.1 73.5001 84.7V68.7C73.5001 64.3 77.1001 60.7 81.5001 60.7H97.5001C101.9 60.7 105.5 64.3 105.5 68.7V84.7C105.5 89.1 101.9 92.7 97.5001 92.7Z" stroke="#444E59" stroke-width="2" stroke-linecap="round" stroke-linejoin="round" stroke-dasharray="4.08 4.08"/>
</g>
<g id="XMLID 20" opacity="0.3">
<path id="Vector_11" opacity="0.3" d="M186 92.7H170C165.6 92.7 162 89.1 162 84.7V68.7C162 64.3 165.6 60.7 170 60.7H186C190.4 60.7 194 64.3 194 68.7V84.7C194 89.1 190.4 92.7 186 92.7Z" stroke="#444E59" stroke-width="2" stroke-linecap="round" stroke-linejoin="round" stroke-dasharray="4.08 4.08"/>
</g>
<g id="XMLID 19" opacity="0.3">
<path id="Vector_12" opacity="0.3" d="M142 92.7H126C121.6 92.7 118 89.1 118 84.7V68.7C118 64.3 121.6 60.7 126 60.7H142C146.4 60.7 150 64.3 150 68.7V84.7C150 89.1 146.4 92.7 142 92.7Z" stroke="#444E59" stroke-width="2" stroke-linecap="round" stroke-linejoin="round" stroke-dasharray="4.08 4.08"/>
</g>
</g>
</g>
<g id="blue-icon-group">
<path id="XMLID 70" d="M186 188.7H170C165.6 188.7 162 185.1 162 180.7V164.7C162 160.3 165.6 156.7 170 156.7H186C190.4 156.7 194 160.3 194 164.7V180.7C194 185.1 190.4 188.7 186 188.7Z" fill="#2FA9ED"/>
<path id="XMLID 71" d="M186 188.7H170C165.6 188.7 162 185.1 162 180.7V164.7C162 160.3 165.6 156.7 170 156.7H186C190.4 156.7 194 160.3 194 164.7V180.7C194 185.1 190.4 188.7 186 188.7Z" stroke="#444E59" stroke-width="4" stroke-miterlimit="10" stroke-linecap="round" stroke-linejoin="round"/>
<path id="XMLID 10" d="M175.4 165.7L184.6 171C185.9 171.8 185.9 173.7 184.6 174.4L175.4 179.7C174.1 180.5 172.4 179.5 172.4 178V167.4C172.4 165.9 174.1 164.9 175.4 165.7Z" fill="white"/>
</g>
<g id="red-icon-group">
<path id="XMLID 90" d="M142 140.7H126C121.6 140.7 118 137.1 118 132.7V116.7C118 112.3 121.6 108.7 126 108.7H142C146.4 108.7 150 112.3 150 116.7V132.7C150 137.1 146.4 140.7 142 140.7Z" fill="#E7534E"/>
<path id="XMLID 23" d="M142 140.7H126C121.6 140.7 118 137.1 118 132.7V116.7C118 112.3 121.6 108.7 126 108.7H142C146.4 108.7 150 112.3 150 116.7V132.7C150 137.1 146.4 140.7 142 140.7Z" stroke="#444E59" stroke-width="4" stroke-miterlimit="10" stroke-linecap="round" stroke-linejoin="round"/>
<path id="XMLID 12" d="M134 132.2C138.142 132.2 141.5 128.842 141.5 124.7C141.5 120.558 138.142 117.2 134 117.2C129.858 117.2 126.5 120.558 126.5 124.7C126.5 128.842 129.858 132.2 134 132.2Z" stroke="white" stroke-width="4" stroke-miterlimit="10" stroke-linecap="round" stroke-linejoin="round"/>
</g>
<g id="yellow-icon-group">
<path id="XMLID 72" d="M142 236.7H126C121.6 236.7 118 233.1 118 228.7V212.7C118 208.3 121.6 204.7 126 204.7H142C146.4 204.7 150 208.3 150 212.7V228.7C150 233.1 146.4 236.7 142 236.7Z" fill="#F09F54"/>
<path id="XMLID 15" d="M138.2 214.5H129.8C128 214.5 126.6 216 126.6 217.7V223.9C126.6 225.7 128.1 227.1 129.8 227.1H130.1L129.4 229.9C129.3 230.1 129.6 230.3 129.8 230.1L134.1 227.1H138.4C140.2 227.1 141.6 225.6 141.6 223.9V217.7C141.5 215.9 140 214.5 138.2 214.5Z" fill="white"/>
<path id="XMLID 74" d="M142 236.7H126C121.6 236.7 118 233.1 118 228.7V212.7C118 208.3 121.6 204.7 126 204.7H142C146.4 204.7 150 208.3 150 212.7V228.7C150 233.1 146.4 236.7 142 236.7Z" stroke="#444E59" stroke-width="4" stroke-miterlimit="10" stroke-linecap="round" stroke-linejoin="round"/>
</g>
<g id="green-icon-group">
<path id="XMLID 73" d="M97.5001 236.7H81.5001C77.1001 236.7 73.5001 233.1 73.5001 228.7V212.7C73.5001 208.3 77.1001 204.7 81.5001 204.7H97.5001C101.9 204.7 105.5 208.3 105.5 212.7V228.7C105.5 233.1 101.9 236.7 97.5001 236.7Z" fill="#71A850"/>
<path id="XMLID 11" d="M83.3002 220.7L87.0002 224.4C87.5002 224.9 88.3002 224.9 88.8002 224.4L97.1002 216.1" stroke="white" stroke-width="4" stroke-miterlimit="10" stroke-linecap="round" stroke-linejoin="round"/>
<path id="XMLID 76" d="M97.5001 236.7H81.5001C77.1001 236.7 73.5001 233.1 73.5001 228.7V212.7C73.5001 208.3 77.1001 204.7 81.5001 204.7H97.5001C101.9 204.7 105.5 208.3 105.5 212.7V228.7C105.5 233.1 101.9 236.7 97.5001 236.7Z" stroke="#444E59" stroke-width="4" stroke-miterlimit="10" stroke-linecap="round" stroke-linejoin="round"/>
</g>
<g id="gear-group">
<path id="XMLID 115" d="M73.6001 85.7001L73.4001 70.7001L63.4001 70.8001C62.8001 68.9001 62.1001 67.2002 61.1001 65.5002L68.1001 58.3001L57.4001 47.8001L50.4001 55.0002C48.7001 54.1002 46.9001 53.4001 45.0001 52.9001L44.9001 42.9001L29.9001 43.1001L30.0001 53.1001C28.1001 53.7001 26.4001 54.4001 24.7001 55.4001L17.5001 48.4001L7.00009 59.1001L14.2001 66.1001C13.3001 67.8001 12.6001 69.6002 12.1001 71.5002L2.1001 71.6001L2.30011 86.6001L12.3001 86.5002C12.9001 88.4002 13.6001 90.1001 14.6001 91.8001L7.6001 99.0002L18.3001 109.5L25.3001 102.3C27.0001 103.2 28.8001 103.9 30.7001 104.4L30.8001 114.4L45.8001 114.2L45.7001 104.2C47.6001 103.6 49.3001 102.9 51.0001 101.9L58.2001 108.9L68.7001 98.2001L61.5001 91.2001C62.4001 89.5001 63.1001 87.7001 63.6001 85.8001L73.6001 85.7001ZM38.1001 90.3001C31.6001 90.4001 26.4001 85.2001 26.3001 78.7001C26.2001 72.2001 31.4001 67.0001 37.9001 66.9001C44.4001 66.8001 49.6001 72.0002 49.7001 78.5002C49.7001 85.0002 44.5001 90.2001 38.1001 90.3001Z" fill="white"/>
<path id="XMLID 191" d="M73.6001 85.7001L73.4001 70.7001L63.4001 70.8001C62.8001 68.9001 62.1001 67.2002 61.1001 65.5002L68.1001 58.3001L57.4001 47.8001L50.4001 55.0002C48.7001 54.1002 46.9001 53.4001 45.0001 52.9001L44.9001 42.9001L29.9001 43.1001L30.0001 53.1001C28.1001 53.7001 26.4001 54.4001 24.7001 55.4001L17.5001 48.4001L7.00009 59.1001L14.2001 66.1001C13.3001 67.8001 12.6001 69.6002 12.1001 71.5002L2.1001 71.6001L2.30011 86.6001L12.3001 86.5002C12.9001 88.4002 13.6001 90.1001 14.6001 91.8001L7.6001 99.0002L18.3001 109.5L25.3001 102.3C27.0001 103.2 28.8001 103.9 30.7001 104.4L30.8001 114.4L45.8001 114.2L45.7001 104.2C47.6001 103.6 49.3001 102.9 51.0001 101.9L58.2001 108.9L68.7001 98.2001L61.5001 91.2001C62.4001 89.5001 63.1001 87.7001 63.6001 85.8001L73.6001 85.7001ZM38.1001 90.3001C31.6001 90.4001 26.4001 85.2001 26.3001 78.7001C26.2001 72.2001 31.4001 67.0001 37.9001 66.9001C44.4001 66.8001 49.6001 72.0002 49.7001 78.5002C49.7001 85.0002 44.5001 90.2001 38.1001 90.3001Z" fill="#F09F54"/>
<path id="XMLID 234" d="M73.6001 85.7001L73.4001 70.7001L63.4001 70.8001C62.8001 68.9001 62.1001 67.2002 61.1001 65.5002L68.1001 58.3001L57.4001 47.8001L50.4001 55.0002C48.7001 54.1002 46.9001 53.4001 45.0001 52.9001L44.9001 42.9001L29.9001 43.1001L30.0001 53.1001C28.1001 53.7001 26.4001 54.4001 24.7001 55.4001L17.5001 48.4001L7.00009 59.1001L14.2001 66.1001C13.3001 67.8001 12.6001 69.6002 12.1001 71.5002L2.1001 71.6001L2.30011 86.6001L12.3001 86.5002C12.9001 88.4002 13.6001 90.1001 14.6001 91.8001L7.6001 99.0002L18.3001 109.5L25.3001 102.3C27.0001 103.2 28.8001 103.9 30.7001 104.4L30.8001 114.4L45.8001 114.2L45.7001 104.2C47.6001 103.6 49.3001 102.9 51.0001 101.9L58.2001 108.9L68.7001 98.2001L61.5001 91.2001C62.4001 89.5001 63.1001 87.7001 63.6001 85.8001L73.6001 85.7001ZM38.1001 90.3001C31.6001 90.4001 26.4001 85.2001 26.3001 78.7001C26.2001 72.2001 31.4001 67.0001 37.9001 66.9001C44.4001 66.8001 49.6001 72.0002 49.7001 78.5002C49.7001 85.0002 44.5001 90.2001 38.1001 90.3001Z" fill="#F09F54"/>
<g id="XMLID 246" opacity="0.29">
<path id="XMLID 250" opacity="0.29" d="M69.8 70.8C69.8 70.8 69.8 70.9 69.8 70.8H73.5V70.7L69.8 70.8Z" fill="#F09F54"/>
<path id="XMLID 252" opacity="0.29" d="M56.8 55.1001L60.7 51.1001L57.5 47.9001L52.3 53.2001C53.9 53.7001 55.4 54.3001 56.8 55.1001Z" fill="#F09F54"/>
<path id="XMLID 255" opacity="0.29" d="M44.1001 66.9001C43.0001 66.9001 42.0001 67.1001 41.1001 67.3001C46.0001 68.7001 49.6001 73.1001 49.6001 78.4001C49.7001 83.8001 46.0001 88.4001 41.1001 89.8001C42.1001 90.1001 43.3001 90.3001 44.4001 90.2001C50.9001 90.1001 56.0001 84.8001 56.0001 78.4001C56.0001 72.0001 50.6001 66.9001 44.1001 66.9001Z" fill="#F09F54"/>
<path id="XMLID 259" opacity="0.29" d="M29.2001 53.4001L31.2001 55.3C32.9001 54.4 34.6001 53.6001 36.5001 53.0001L36.4001 43.0001L45.0001 42.9001V42.8L30.0001 43.0001L30.1001 53.0001C29.9001 53.2001 29.5001 53.3001 29.2001 53.4001Z" fill="#F09F54"/>
<path id="XMLID 263" opacity="0.29" d="M37 104.3C35.1 103.8 33.3 103.1 31.6 102.2L29.8 104.1C30.1 104.2 30.4 104.3 30.7 104.4L30.8 114.4L37.1 114.3L37 104.3Z" fill="#F09F54"/>
<path id="XMLID 267" opacity="0.29" d="M8.60004 71.5001L18.6 71.4001C19.1 69.5001 19.8 67.7001 20.7 66.0001L13.5 59.0001L20.9 51.5001L17.7 48.3L7.20004 59.0001L14.4 66.0001C13.5 67.7001 12.8 69.5001 12.3 71.4001L2.30005 71.5001L2.50003 86.5001L8.80005 86.4001L8.60004 71.5001Z" fill="#F09F54"/>
<path id="XMLID 270" opacity="0.29" d="M57.3 101.9C55.9 102.7 54.5 103.3 53 103.8L58.2 108.9L61.3 105.7L57.3 101.9Z" fill="#F09F54"/>
<path id="XMLID 271" opacity="0.29" d="M14.0001 98.8L21.0001 91.6C20.1001 89.9 19.3001 88.2 18.7001 86.3L12.4001 86.4001C13.0001 88.2001 13.7001 90 14.6001 91.6L7.6001 98.8L18.3001 109.3L21.4001 106.1L14.0001 98.8Z" fill="#F09F54"/>
</g>
<path id="XMLID 130" d="M73.6001 85.7001L73.4001 70.7001L63.4001 70.8001C62.8001 68.9001 62.1001 67.2002 61.1001 65.5002L68.1001 58.3001L57.4001 47.8001L50.4001 55.0002C48.7001 54.1002 46.9001 53.4001 45.0001 52.9001L44.9001 42.9001L29.9001 43.1001L30.0001 53.1001C28.1001 53.7001 26.4001 54.4001 24.7001 55.4001L17.5001 48.4001L7.00009 59.1001L14.2001 66.1001C13.3001 67.8001 12.6001 69.6002 12.1001 71.5002L2.1001 71.6001L2.30011 86.6001L12.3001 86.5002C12.9001 88.4002 13.6001 90.1001 14.6001 91.8001L7.6001 99.0002L18.3001 109.5L25.3001 102.3C27.0001 103.2 28.8001 103.9 30.7001 104.4L30.8001 114.4L45.8001 114.2L45.7001 104.2C47.6001 103.6 49.3001 102.9 51.0001 101.9L58.2001 108.9L68.7001 98.2001L61.5001 91.2001C62.4001 89.5001 63.1001 87.7001 63.6001 85.8001L73.6001 85.7001ZM38.1001 90.3001C31.6001 90.4001 26.4001 85.2001 26.3001 78.7001C26.2001 72.2001 31.4001 67.0001 37.9001 66.9001C44.4001 66.8001 49.6001 72.0002 49.7001 78.5002C49.7001 85.0002 44.5001 90.2001 38.1001 90.3001Z" stroke="#444E59" stroke-width="4" stroke-miterlimit="10" stroke-linecap="round" stroke-linejoin="round"/>
</g>
</g>
</svg>
