<svg width="398" height="373" viewBox="0 0 398 373" fill="none" xmlns="http://www.w3.org/2000/svg">
<g id="power">
<g id="background">
<path id="Vector" d="M195.182 369C276.92 369 343.182 302.738 343.182 221C343.182 139.262 276.92 73 195.182 73C113.444 73 47.182 139.262 47.182 221C47.182 302.738 113.444 369 195.182 369Z" fill="#1895DE"/>
<mask id="mask0" mask-type="alpha" maskUnits="userSpaceOnUse" x="0" y="0" width="398" height="373">
<path id="mask" d="M199 373C308.905 373 398 289.501 398 186.5C398 83.4989 308.905 0 199 0C89.0953 0 0 83.4989 0 186.5C0 289.501 89.0953 373 199 373Z" fill="#1895DE"/>
</mask>
<g mask="url(#mask0)">
<path id="Vector_2" d="M195.182 330.865C255.859 330.865 305.047 281.677 305.047 221C305.047 160.323 255.859 111.135 195.182 111.135C134.505 111.135 85.317 160.323 85.317 221C85.317 281.677 134.505 330.865 195.182 330.865Z" fill="#28B1D5"/>
<path id="star-11" d="M148.303 165.339C147.631 165.339 146.987 165.072 146.512 164.597C146.037 164.122 145.771 163.478 145.771 162.807V162.807C145.78 162.367 145.625 161.939 145.336 161.606C145.048 161.273 144.646 161.06 144.209 161.007C143.971 160.986 143.732 161.014 143.506 161.09C143.28 161.166 143.072 161.289 142.897 161.45C142.721 161.611 142.58 161.806 142.484 162.025C142.388 162.243 142.338 162.479 142.339 162.717V162.806C142.339 163.477 142.072 164.121 141.597 164.596C141.122 165.071 140.478 165.338 139.807 165.338V165.338C139.366 165.329 138.938 165.484 138.606 165.772C138.273 166.061 138.06 166.463 138.007 166.9C137.985 167.137 138.013 167.377 138.09 167.603C138.166 167.829 138.288 168.036 138.449 168.212C138.61 168.388 138.806 168.529 139.024 168.625C139.242 168.721 139.478 168.771 139.717 168.771H139.806C140.477 168.771 141.121 169.038 141.596 169.512C142.07 169.987 142.337 170.631 142.338 171.302V171.302C142.328 171.742 142.483 172.17 142.772 172.503C143.06 172.836 143.462 173.049 143.9 173.102C144.137 173.123 144.376 173.095 144.602 173.019C144.828 172.943 145.036 172.82 145.212 172.659C145.388 172.498 145.528 172.303 145.624 172.084C145.72 171.866 145.77 171.63 145.77 171.392V171.303C145.77 170.632 146.037 169.988 146.512 169.513C146.986 169.039 147.63 168.772 148.302 168.772H148.391C148.629 168.772 148.865 168.722 149.083 168.626C149.301 168.53 149.497 168.389 149.658 168.213C149.819 168.037 149.941 167.83 150.017 167.604C150.094 167.378 150.122 167.138 150.101 166.901C150.047 166.464 149.834 166.063 149.502 165.774C149.17 165.486 148.742 165.331 148.303 165.339V165.339Z" fill="white"/>
<path id="star-10" d="M211.342 220.433C210.959 220.433 210.592 220.281 210.321 220.01C210.05 219.739 209.898 219.372 209.898 218.989V218.989C209.903 218.738 209.814 218.494 209.65 218.305C209.485 218.115 209.256 217.993 209.007 217.963C208.872 217.951 208.735 217.967 208.606 218.011C208.478 218.054 208.359 218.124 208.259 218.216C208.159 218.307 208.078 218.419 208.023 218.543C207.969 218.668 207.94 218.802 207.94 218.938V218.989C207.94 219.179 207.903 219.366 207.83 219.542C207.758 219.717 207.652 219.876 207.518 220.01C207.384 220.144 207.225 220.25 207.049 220.323C206.874 220.396 206.687 220.433 206.497 220.433V220.433C206.246 220.428 206.002 220.516 205.812 220.681C205.623 220.845 205.501 221.075 205.471 221.324C205.459 221.459 205.475 221.596 205.518 221.725C205.562 221.854 205.632 221.972 205.723 222.072C205.815 222.173 205.927 222.253 206.051 222.308C206.176 222.363 206.31 222.391 206.446 222.391H206.497C206.687 222.391 206.874 222.428 207.049 222.501C207.225 222.573 207.384 222.68 207.518 222.814C207.652 222.948 207.758 223.107 207.83 223.282C207.903 223.458 207.94 223.645 207.94 223.835V223.835C207.935 224.086 208.024 224.33 208.189 224.52C208.353 224.709 208.583 224.831 208.832 224.861C208.967 224.873 209.104 224.857 209.232 224.813C209.361 224.77 209.479 224.7 209.58 224.608C209.68 224.517 209.76 224.405 209.815 224.281C209.87 224.156 209.898 224.022 209.898 223.886V223.835C209.898 223.645 209.935 223.458 210.008 223.282C210.08 223.107 210.187 222.948 210.321 222.814C210.455 222.68 210.614 222.573 210.789 222.501C210.965 222.428 211.152 222.391 211.342 222.391H211.393C211.529 222.391 211.663 222.362 211.788 222.307C211.912 222.253 212.024 222.172 212.115 222.072C212.207 221.972 212.277 221.853 212.32 221.725C212.364 221.596 212.38 221.459 212.368 221.324C212.338 221.075 212.216 220.846 212.026 220.681C211.837 220.517 211.593 220.428 211.342 220.433Z" fill="white"/>
<path id="star-9" d="M175.448 240.67C174.573 240.669 173.735 240.32 173.117 239.702C172.5 239.083 172.153 238.244 172.153 237.37C172.165 236.799 171.967 236.243 171.597 235.808C171.226 235.373 170.709 235.09 170.143 235.012C169.83 234.98 169.515 235.013 169.216 235.11C168.918 235.208 168.643 235.366 168.41 235.577C168.177 235.787 167.99 236.044 167.863 236.331C167.735 236.618 167.669 236.928 167.67 237.242V237.37C167.67 237.803 167.584 238.233 167.418 238.633C167.253 239.033 167.009 239.397 166.703 239.704C166.397 240.01 166.033 240.253 165.632 240.419C165.232 240.585 164.803 240.67 164.37 240.67V240.67C163.799 240.658 163.243 240.856 162.808 241.227C162.374 241.597 162.09 242.114 162.012 242.68C161.979 242.992 162.013 243.308 162.11 243.606C162.207 243.905 162.366 244.179 162.577 244.412C162.787 244.646 163.044 244.832 163.33 244.96C163.617 245.087 163.928 245.153 164.242 245.153H164.37C165.245 245.153 166.084 245.501 166.703 246.12C167.322 246.738 167.67 247.578 167.67 248.453C167.657 249.024 167.855 249.58 168.226 250.015C168.596 250.45 169.114 250.733 169.68 250.811C169.992 250.843 170.307 250.81 170.606 250.712C170.904 250.615 171.179 250.456 171.412 250.246C171.645 250.036 171.831 249.779 171.959 249.492C172.087 249.205 172.153 248.895 172.153 248.581V248.465C172.153 247.588 172.501 246.747 173.121 246.127C173.742 245.507 174.583 245.158 175.46 245.158H175.576C175.889 245.158 176.2 245.092 176.487 244.965C176.773 244.837 177.03 244.651 177.241 244.417C177.451 244.184 177.61 243.91 177.707 243.611C177.804 243.313 177.838 242.997 177.806 242.685C177.728 242.118 177.445 241.6 177.011 241.228C176.576 240.857 176.019 240.658 175.448 240.67V240.67Z" fill="white"/>
<path id="star-8" d="M247.605 166.677C246.263 166.677 244.975 166.143 244.025 165.194C243.076 164.244 242.542 162.957 242.542 161.614V161.614C242.56 160.733 242.25 159.877 241.673 159.212C241.096 158.547 240.292 158.12 239.417 158.014C238.942 157.971 238.464 158.028 238.012 158.18C237.56 158.333 237.145 158.578 236.793 158.899C236.441 159.221 236.16 159.613 235.968 160.049C235.776 160.485 235.676 160.957 235.676 161.434V161.613C235.676 162.956 235.143 164.243 234.193 165.193C233.244 166.142 231.956 166.676 230.613 166.676C229.733 166.658 228.877 166.968 228.212 167.545C227.547 168.123 227.12 168.926 227.013 169.801C226.971 170.276 227.027 170.754 227.18 171.206C227.332 171.658 227.577 172.073 227.899 172.425C228.221 172.777 228.612 173.058 229.049 173.25C229.485 173.442 229.957 173.542 230.433 173.542H230.611C231.954 173.542 233.242 174.075 234.191 175.025C235.141 175.974 235.674 177.262 235.674 178.605C235.657 179.486 235.967 180.342 236.544 181.007C237.122 181.672 237.926 182.099 238.8 182.205C239.275 182.247 239.754 182.191 240.206 182.038C240.657 181.886 241.072 181.641 241.424 181.319C241.776 180.997 242.057 180.606 242.249 180.169C242.441 179.733 242.54 179.262 242.54 178.785V178.607C242.54 177.264 243.074 175.976 244.023 175.027C244.973 174.077 246.261 173.544 247.603 173.544H247.782C248.259 173.544 248.731 173.444 249.167 173.252C249.603 173.059 249.994 172.778 250.316 172.426C250.638 172.075 250.882 171.659 251.035 171.208C251.187 170.756 251.244 170.278 251.201 169.803C251.096 168.929 250.669 168.125 250.005 167.548C249.34 166.97 248.485 166.66 247.605 166.677V166.677Z" fill="white"/>
<path id="star-1" d="M110.879 209.215C109.536 209.215 108.248 208.682 107.299 207.732C106.349 206.783 105.816 205.495 105.816 204.152V204.152C105.834 203.271 105.524 202.415 104.947 201.75C104.369 201.085 103.565 200.658 102.691 200.552C102.216 200.509 101.738 200.566 101.286 200.719C100.834 200.871 100.419 201.116 100.067 201.438C99.7151 201.759 99.4341 202.151 99.2417 202.587C99.0494 203.024 98.9501 203.495 98.9501 203.972V204.151C98.9501 205.494 98.4166 206.782 97.4672 207.731C96.5177 208.681 95.2299 209.214 93.8871 209.214C93.0064 209.196 92.1506 209.506 91.4854 210.083C90.8203 210.661 90.3932 211.465 90.2871 212.339C90.2444 212.814 90.3012 213.292 90.4537 213.744C90.6062 214.196 90.8511 214.611 91.1728 214.963C91.4945 215.315 91.886 215.596 92.3223 215.788C92.7587 215.981 93.2302 216.08 93.7071 216.08H93.8851C95.2279 216.08 96.5157 216.613 97.4652 217.563C98.4146 218.512 98.9481 219.8 98.9481 221.143C98.9303 222.024 99.2402 222.88 99.8178 223.545C100.395 224.21 101.2 224.637 102.074 224.743C102.549 224.786 103.027 224.729 103.479 224.576C103.931 224.424 104.346 224.179 104.698 223.857C105.05 223.535 105.331 223.144 105.523 222.708C105.715 222.271 105.814 221.8 105.814 221.323V221.145C105.814 219.802 106.347 218.514 107.297 217.565C108.246 216.615 109.534 216.082 110.877 216.082H111.056C111.533 216.082 112.004 215.982 112.44 215.79C112.877 215.598 113.268 215.317 113.59 214.965C113.911 214.613 114.156 214.198 114.309 213.746C114.461 213.294 114.518 212.816 114.475 212.341C114.369 211.467 113.943 210.664 113.279 210.086C112.614 209.509 111.759 209.198 110.879 209.215V209.215Z" fill="white"/>
<path id="star-2" d="M193.376 97.3111C192.704 97.3111 192.06 97.0443 191.586 96.5695C191.111 96.0946 190.844 95.4506 190.844 94.7791V94.7791C190.853 94.3388 190.698 93.9108 190.41 93.5782C190.121 93.2456 189.719 93.0321 189.282 92.9791C189.045 92.9577 188.805 92.986 188.579 93.0622C188.354 93.1385 188.146 93.2609 187.97 93.4218C187.794 93.5827 187.654 93.7785 187.558 93.9967C187.461 94.2149 187.412 94.4507 187.412 94.6891V94.7781C187.412 95.4496 187.145 96.0936 186.67 96.5685C186.196 97.0433 185.552 97.3101 184.88 97.3101V97.3101C184.44 97.3012 184.012 97.456 183.679 97.7446C183.347 98.0332 183.133 98.435 183.08 98.8721C183.059 99.1096 183.087 99.3489 183.163 99.5749C183.239 99.8008 183.362 100.008 183.523 100.184C183.684 100.36 183.879 100.501 184.098 100.597C184.316 100.693 184.552 100.743 184.79 100.743H184.879C185.55 100.743 186.194 101.01 186.669 101.484C187.144 101.959 187.411 102.603 187.411 103.274V103.274C187.402 103.714 187.556 104.143 187.845 104.475C188.134 104.808 188.536 105.021 188.973 105.074C189.21 105.095 189.45 105.067 189.676 104.991C189.902 104.915 190.109 104.792 190.285 104.631C190.461 104.47 190.601 104.275 190.698 104.057C190.794 103.838 190.843 103.602 190.843 103.364V103.275C190.843 102.604 191.11 101.96 191.585 101.485C192.06 101.011 192.704 100.744 193.375 100.744H193.464C193.702 100.744 193.938 100.694 194.157 100.598C194.375 100.502 194.571 100.361 194.731 100.185C194.892 100.009 195.015 99.8018 195.091 99.5759C195.167 99.3499 195.195 99.1106 195.174 98.8731C195.121 98.4363 194.908 98.0348 194.575 97.7463C194.243 97.4577 193.816 97.3027 193.376 97.3111V97.3111Z" fill="white"/>
<path id="star-3" d="M129.342 301.433C128.959 301.433 128.592 301.281 128.321 301.01C128.05 300.739 127.898 300.372 127.898 299.989V299.989C127.903 299.738 127.814 299.494 127.65 299.305C127.485 299.115 127.256 298.993 127.007 298.963C126.872 298.951 126.735 298.967 126.606 299.011C126.478 299.054 126.359 299.124 126.259 299.216C126.159 299.307 126.078 299.419 126.023 299.543C125.969 299.668 125.94 299.802 125.94 299.938V299.989C125.94 300.179 125.903 300.366 125.83 300.542C125.758 300.717 125.652 300.876 125.518 301.01C125.384 301.144 125.225 301.25 125.049 301.323C124.874 301.396 124.687 301.433 124.497 301.433V301.433C124.246 301.428 124.002 301.516 123.812 301.681C123.623 301.845 123.501 302.075 123.471 302.324C123.459 302.459 123.475 302.596 123.518 302.725C123.562 302.854 123.632 302.972 123.723 303.072C123.815 303.173 123.927 303.253 124.051 303.308C124.176 303.363 124.31 303.391 124.446 303.391H124.497C124.687 303.391 124.874 303.428 125.049 303.501C125.225 303.573 125.384 303.68 125.518 303.814C125.652 303.948 125.758 304.107 125.83 304.282C125.903 304.458 125.94 304.645 125.94 304.835V304.835C125.935 305.086 126.024 305.33 126.189 305.52C126.353 305.709 126.583 305.831 126.832 305.861C126.967 305.873 127.104 305.857 127.232 305.813C127.361 305.77 127.479 305.7 127.58 305.608C127.68 305.517 127.76 305.405 127.815 305.281C127.87 305.156 127.898 305.022 127.898 304.886V304.835C127.898 304.645 127.935 304.458 128.008 304.282C128.08 304.107 128.187 303.948 128.321 303.814C128.455 303.68 128.614 303.573 128.789 303.501C128.965 303.428 129.152 303.391 129.342 303.391H129.393C129.529 303.391 129.663 303.362 129.788 303.307C129.912 303.253 130.024 303.172 130.115 303.072C130.207 302.972 130.277 302.853 130.32 302.725C130.364 302.596 130.38 302.459 130.368 302.324C130.338 302.075 130.216 301.846 130.026 301.681C129.837 301.517 129.593 301.428 129.342 301.433Z" fill="white"/>
<path id="star-4" d="M313.385 250.825C313.097 250.825 312.821 250.711 312.617 250.507C312.413 250.303 312.298 250.027 312.298 249.739C312.302 249.55 312.235 249.367 312.111 249.224C311.987 249.081 311.815 248.99 311.627 248.967C311.525 248.958 311.423 248.971 311.326 249.004C311.23 249.037 311.141 249.089 311.066 249.158C310.991 249.227 310.931 249.311 310.889 249.405C310.848 249.498 310.827 249.599 310.827 249.701V249.74C310.827 250.028 310.712 250.304 310.508 250.508C310.304 250.712 310.028 250.826 309.74 250.826V250.826C309.551 250.822 309.368 250.889 309.225 251.013C309.082 251.137 308.991 251.309 308.968 251.497C308.959 251.599 308.972 251.701 309.005 251.798C309.038 251.894 309.09 251.983 309.159 252.058C309.228 252.134 309.312 252.194 309.406 252.235C309.499 252.276 309.6 252.297 309.702 252.297H309.74C310.028 252.297 310.304 252.411 310.508 252.615C310.712 252.819 310.827 253.095 310.827 253.383V253.383C310.823 253.572 310.89 253.755 311.013 253.898C311.137 254.041 311.31 254.132 311.497 254.155C311.599 254.164 311.701 254.151 311.798 254.118C311.894 254.085 311.983 254.033 312.058 253.964C312.134 253.895 312.194 253.811 312.235 253.717C312.276 253.624 312.297 253.523 312.297 253.421V253.383C312.298 253.095 312.413 252.82 312.617 252.617C312.821 252.414 313.097 252.3 313.385 252.3H313.423C313.525 252.3 313.626 252.279 313.719 252.238C313.813 252.197 313.897 252.137 313.966 252.061C314.035 251.986 314.087 251.897 314.12 251.801C314.153 251.704 314.166 251.602 314.157 251.5C314.135 251.312 314.044 251.138 313.901 251.014C313.759 250.889 313.575 250.822 313.385 250.825V250.825Z" fill="white"/>
<path id="star-5" d="M296.565 204.107C296.201 204.107 295.84 204.035 295.504 203.896C295.167 203.757 294.862 203.552 294.604 203.295C294.347 203.037 294.142 202.732 294.003 202.395C293.864 202.059 293.792 201.698 293.792 201.334C293.802 200.853 293.635 200.386 293.324 200.02C293.012 199.654 292.576 199.416 292.1 199.35C291.837 199.323 291.572 199.351 291.32 199.433C291.069 199.515 290.838 199.649 290.642 199.826C290.446 200.003 290.289 200.219 290.181 200.46C290.074 200.702 290.018 200.963 290.018 201.227V201.335C290.018 202.07 289.726 202.775 289.206 203.295C288.686 203.815 287.981 204.108 287.246 204.108V204.108C286.765 204.098 286.297 204.264 285.931 204.576C285.565 204.888 285.327 205.324 285.261 205.8C285.234 206.063 285.262 206.328 285.344 206.579C285.426 206.831 285.56 207.062 285.737 207.258C285.914 207.454 286.13 207.611 286.371 207.718C286.613 207.825 286.874 207.881 287.138 207.881H287.246C287.981 207.881 288.686 208.173 289.206 208.693C289.726 209.214 290.018 209.919 290.018 210.654V210.654C290.008 211.135 290.174 211.602 290.486 211.968C290.798 212.334 291.234 212.573 291.71 212.639C291.973 212.666 292.238 212.638 292.49 212.556C292.741 212.474 292.972 212.34 293.168 212.163C293.364 211.986 293.521 211.77 293.629 211.529C293.736 211.287 293.792 211.026 293.792 210.762V210.662C293.792 209.924 294.085 209.216 294.607 208.694C295.128 208.173 295.836 207.879 296.574 207.879H296.674C296.938 207.879 297.199 207.823 297.441 207.716C297.682 207.609 297.898 207.452 298.075 207.256C298.252 207.06 298.386 206.829 298.468 206.577C298.55 206.326 298.578 206.061 298.551 205.798C298.485 205.322 298.246 204.886 297.88 204.574C297.514 204.263 297.046 204.096 296.565 204.107V204.107Z" fill="white"/>
<g id="star-7" style="mix-blend-mode:overlay" opacity="0.59">
<g id="Vector_3" style="mix-blend-mode:overlay" opacity="0.59">
<path d="M81.7581 270.273C81.0226 270.273 80.3173 269.981 79.7973 269.461C79.2772 268.941 78.9851 268.235 78.9851 267.5V267.5C78.9955 267.019 78.8289 266.551 78.5169 266.185C78.205 265.819 77.7694 265.581 77.2931 265.515C77.0303 265.488 76.7648 265.516 76.5136 265.598C76.2625 265.68 76.0314 265.814 75.8352 265.991C75.6391 266.168 75.4822 266.384 75.3749 266.625C75.2676 266.867 75.2121 267.128 75.2121 267.392V267.5C75.2118 268.235 74.9196 268.941 74.3996 269.461C73.8796 269.98 73.1745 270.273 72.4391 270.273C71.9584 270.263 71.4907 270.429 71.1247 270.741C70.7588 271.053 70.5202 271.489 70.4541 271.965C70.4269 272.228 70.4552 272.493 70.5372 272.744C70.6192 272.996 70.7529 273.227 70.9299 273.423C71.1068 273.619 71.3229 273.776 71.5643 273.883C71.8057 273.991 72.0669 274.046 72.3311 274.046H72.4391C73.1745 274.046 73.8796 274.339 74.3996 274.858C74.9196 275.378 75.2118 276.084 75.2121 276.819V276.819C75.2019 277.3 75.3686 277.767 75.6805 278.133C75.9924 278.499 76.4278 278.738 76.9041 278.804C77.1669 278.831 77.4324 278.803 77.6835 278.721C77.9347 278.639 78.1658 278.505 78.3619 278.328C78.5581 278.151 78.7149 277.935 78.8223 277.694C78.9296 277.452 78.9851 277.191 78.9851 276.927V276.827C78.9851 276.089 79.2783 275.381 79.8002 274.859C80.3221 274.337 81.03 274.044 81.7681 274.044H81.8681C82.1322 274.044 82.3934 273.989 82.6347 273.881C82.8761 273.774 83.0922 273.617 83.269 273.421C83.4459 273.225 83.5795 272.993 83.6614 272.742C83.7432 272.491 83.7714 272.226 83.7441 271.963C83.678 271.487 83.4391 271.051 83.0729 270.74C82.7067 270.428 82.2388 270.262 81.7581 270.273V270.273Z" fill="#174268"/>
</g>
</g>
<path id="star-6" d="M274.812 259.825C273.938 259.824 273.1 259.475 272.482 258.857C271.864 258.238 271.517 257.399 271.517 256.525C271.53 255.954 271.332 255.398 270.961 254.963C270.591 254.528 270.073 254.245 269.507 254.167C269.195 254.135 268.879 254.168 268.581 254.265C268.282 254.363 268.007 254.522 267.774 254.732C267.541 254.942 267.355 255.199 267.227 255.486C267.1 255.773 267.034 256.083 267.034 256.397V256.525C267.034 256.958 266.949 257.388 266.783 257.788C266.617 258.188 266.374 258.552 266.068 258.859C265.761 259.165 265.397 259.408 264.997 259.574C264.597 259.74 264.167 259.825 263.734 259.825V259.825C263.163 259.813 262.607 260.011 262.173 260.382C261.738 260.752 261.455 261.269 261.376 261.835C261.344 262.147 261.377 262.463 261.475 262.761C261.572 263.06 261.731 263.334 261.941 263.567C262.151 263.801 262.408 263.987 262.695 264.115C262.982 264.242 263.292 264.308 263.606 264.308H263.734C264.609 264.308 265.449 264.656 266.068 265.275C266.686 265.893 267.034 266.733 267.034 267.608C267.022 268.179 267.219 268.735 267.59 269.17C267.961 269.605 268.478 269.888 269.044 269.966C269.356 269.998 269.672 269.965 269.97 269.868C270.269 269.77 270.543 269.611 270.776 269.401C271.01 269.191 271.196 268.934 271.324 268.647C271.451 268.36 271.517 268.05 271.517 267.736V267.62C271.517 266.743 271.866 265.902 272.486 265.282C273.106 264.662 273.947 264.313 274.824 264.313H274.94C275.254 264.313 275.564 264.247 275.851 264.12C276.138 263.992 276.395 263.806 276.605 263.572C276.815 263.339 276.974 263.065 277.071 262.766C277.169 262.468 277.202 262.152 277.17 261.84C277.093 261.273 276.81 260.755 276.375 260.383C275.94 260.012 275.384 259.813 274.812 259.825V259.825Z" fill="white"/>
<path id="Vector_4" d="M195.182 369C276.92 369 343.182 302.738 343.182 221C343.182 139.262 276.92 73 195.182 73C113.444 73 47.182 139.262 47.182 221C47.182 302.738 113.444 369 195.182 369Z" stroke="#020129" stroke-width="8" stroke-linecap="round" stroke-linejoin="round"/>
<g id="hand">
<path id="Vector_5" d="M232.682 228.394H157.682V359.12H232.682V228.394Z" fill="#FFA183"/>
<path id="Vector_6" d="M232.682 228.394H157.682V359.12H232.682V228.394Z" fill="#F9A991"/>
<g id="Vector_7" style="mix-blend-mode:multiply" opacity="0.58">
<path d="M157.685 263.767C165.056 267.562 173.228 269.539 181.518 269.533H208.852C217.143 269.539 225.314 267.562 232.685 263.767V228.394H157.685V263.767Z" fill="#FFA183"/>
</g>
<path id="Vector_8" d="M232.682 228.394H157.682V359.12H232.682V228.394Z" stroke="#020129" stroke-width="8" stroke-linecap="round" stroke-linejoin="round"/>
<path id="Vector_9" d="M137.185 150.453H253.185V217.2C253.185 228.958 248.514 240.234 240.2 248.548C231.886 256.862 220.61 261.533 208.852 261.533H181.515C169.758 261.532 158.482 256.861 150.169 248.547C141.855 240.233 137.185 228.957 137.185 217.2V150.453Z" fill="#F9A991"/>
<path id="Vector_10" d="M208.848 247.374H181.515C169.758 247.373 158.482 242.702 150.168 234.388C141.855 226.074 137.185 214.798 137.185 203.04V217.2C137.185 223.022 138.332 228.787 140.559 234.166C142.787 239.544 146.053 244.432 150.17 248.548C154.286 252.665 159.174 255.931 164.552 258.159C169.931 260.387 175.696 261.533 181.518 261.533H208.851C214.673 261.533 220.438 260.387 225.817 258.159C231.196 255.931 236.083 252.665 240.2 248.549C244.317 244.432 247.582 239.545 249.81 234.166C252.038 228.787 253.185 223.022 253.185 217.2V203.04C253.185 208.862 252.038 214.628 249.81 220.007C247.582 225.386 244.316 230.273 240.199 234.39C236.082 238.507 231.194 241.772 225.815 244C220.436 246.228 214.67 247.374 208.848 247.374V247.374Z" fill="#F98568"/>
<path id="Vector_11" d="M137.185 150.453H253.185V217.2C253.185 228.958 248.514 240.234 240.2 248.548C231.886 256.862 220.61 261.533 208.852 261.533H181.515C169.758 261.532 158.482 256.861 150.169 248.547C141.855 240.233 137.185 228.957 137.185 217.2V150.453Z" stroke="#020129" stroke-width="8" stroke-linecap="round" stroke-linejoin="round"/>
<g id="pencil" filter="url(#filter0_d)">
<path id="XMLID 126" d="M315.741 182V142H57.2964V182H315.741Z" fill="#47A942"/>
<path id="XMLID 22" d="M315.741 182V142H57.2964V182H315.741Z" stroke="#1F2120" stroke-width="8" stroke-miterlimit="10" stroke-linecap="round" stroke-linejoin="round"/>
<path id="XMLID 128" d="M315.741 169.408V154.593H57.2964V169.408H315.741Z" stroke="#1F2120" stroke-width="8" stroke-miterlimit="10" stroke-linecap="round" stroke-linejoin="round"/>
<path id="XMLID 129" d="M315.741 182V142L375.444 162L315.741 182Z" fill="#C4C4C4"/>
<path id="XMLID 23" d="M315.741 182V142L375.444 162L315.741 182Z" stroke="#1F2120" stroke-width="8" stroke-miterlimit="10" stroke-linecap="round" stroke-linejoin="round"/>
<path id="XMLID 130" d="M57.2964 142V182H44.0372C35.7409 182 29.0001 175.259 29.0001 166.963V157.037C29.0001 148.741 35.7409 142 44.0372 142H57.2964V142Z" fill="#C4C4C4"/>
<path id="XMLID 24" d="M57.2964 142V182H44.0372C35.7409 182 29.0001 175.259 29.0001 166.963V157.037C29.0001 148.741 35.7409 142 44.0372 142H57.2964V142Z" stroke="#1F2120" stroke-width="8" stroke-miterlimit="10" stroke-linecap="round" stroke-linejoin="round"/>
<path id="XMLID 127" d="M83.5925 182V142H57.3703V182H83.5925Z" fill="#CCCC00"/>
<path id="XMLID 25" d="M83.5925 182V142H57.3703V182H83.5925Z" stroke="#1F2120" stroke-width="8" stroke-miterlimit="10" stroke-linecap="round" stroke-linejoin="round"/>
<path id="XMLID 29" d="M375.444 162L351.37 153.926V170.074L375.444 162Z" fill="#1F2120"/>
</g>
<path id="Vector_12" d="M166.182 142.791C166.182 134.783 159.69 128.291 151.682 128.291C143.674 128.291 137.182 134.783 137.182 142.791V175.66C137.182 183.668 143.674 190.16 151.682 190.16C159.69 190.16 166.182 183.668 166.182 175.66V142.791Z" fill="#F9A991"/>
<path id="Vector_13" d="M195.182 136.162C195.182 128.154 188.69 121.662 180.682 121.662C172.674 121.662 166.182 128.154 166.182 136.162V175.551C166.182 183.559 172.674 190.051 180.682 190.051C188.69 190.051 195.182 183.559 195.182 175.551V136.162Z" fill="#F9A991"/>
<path id="Vector_14" d="M224.182 134.953C224.182 126.945 217.69 120.453 209.682 120.453C201.674 120.453 195.182 126.945 195.182 134.953V175.551C195.182 183.559 201.674 190.051 209.682 190.051C217.69 190.051 224.182 183.559 224.182 175.551V134.953Z" fill="#F9A991"/>
<path id="Vector_15" d="M253.182 143.896C253.182 135.888 246.69 129.396 238.682 129.396C230.674 129.396 224.182 135.888 224.182 143.896V173.447C224.182 181.455 230.674 187.947 238.682 187.947C246.69 187.947 253.182 181.455 253.182 173.447V143.896Z" fill="#F9A991"/>
<path id="Vector_16" d="M155.323 175.2H148.04C146.614 175.2 145.202 174.918 143.884 174.372C142.567 173.826 141.37 173.025 140.362 172.017C139.354 171.008 138.555 169.81 138.01 168.492C137.464 167.174 137.184 165.762 137.185 164.336V175.66C137.185 179.506 138.713 183.194 141.432 185.913C144.151 188.632 147.839 190.16 151.685 190.16C155.531 190.16 159.219 188.632 161.938 185.913C164.657 183.194 166.185 179.506 166.185 175.66V164.336C166.186 165.763 165.905 167.175 165.36 168.494C164.814 169.812 164.014 171.01 163.005 172.019C161.997 173.028 160.799 173.828 159.481 174.374C158.163 174.92 156.75 175.2 155.323 175.2V175.2Z" fill="#F98568"/>
<path id="Vector_17" d="M184.323 175.086H177.04C174.161 175.085 171.4 173.941 169.364 171.905C167.329 169.869 166.185 167.107 166.185 164.228V175.551C166.185 179.397 167.713 183.085 170.432 185.804C173.151 188.523 176.839 190.051 180.685 190.051C184.531 190.051 188.219 188.523 190.938 185.804C193.657 183.085 195.185 179.397 195.185 175.551V164.228C195.185 165.654 194.904 167.067 194.358 168.384C193.812 169.702 193.012 170.899 192.003 171.907C190.995 172.916 189.797 173.715 188.479 174.261C187.162 174.806 185.749 175.087 184.323 175.086V175.086Z" fill="#F98568"/>
<g id="Vector_18" style="mix-blend-mode:multiply" opacity="0.58">
<path d="M213.323 175.086H206.04C203.161 175.085 200.4 173.941 198.364 171.905C196.329 169.869 195.185 167.107 195.185 164.228V175.551C195.185 179.397 196.713 183.085 199.432 185.804C202.151 188.523 205.839 190.051 209.685 190.051C213.531 190.051 217.219 188.523 219.938 185.804C222.657 183.085 224.185 179.397 224.185 175.551V164.228C224.185 165.654 223.904 167.067 223.358 168.384C222.812 169.702 222.012 170.899 221.003 171.907C219.995 172.916 218.797 173.715 217.479 174.261C216.162 174.806 214.749 175.087 213.323 175.086V175.086Z" fill="#FFA183"/>
</g>
<g id="Vector_19" style="mix-blend-mode:multiply" opacity="0.58">
<path d="M242.323 172.982H235.04C232.161 172.981 229.4 171.837 227.364 169.8C225.328 167.764 224.185 165.002 224.185 162.123V173.446C224.185 177.292 225.713 180.98 228.432 183.699C231.151 186.418 234.839 187.946 238.685 187.946C242.531 187.946 246.219 186.418 248.938 183.699C251.657 180.98 253.185 177.292 253.185 173.446V162.123C253.185 163.549 252.904 164.962 252.358 166.279C251.812 167.597 251.012 168.794 250.003 169.803C248.995 170.811 247.797 171.611 246.48 172.156C245.162 172.702 243.749 172.982 242.323 172.982V172.982Z" fill="#FFA183"/>
</g>
<path id="Vector_20" opacity="0.43" d="M151.685 128.291C147.839 128.291 144.151 129.819 141.432 132.538C138.713 135.257 137.185 138.945 137.185 142.791V152.391C137.185 150.487 137.56 148.601 138.289 146.842C139.017 145.083 140.086 143.484 141.432 142.138C142.778 140.792 144.377 139.723 146.136 138.995C147.895 138.266 149.781 137.891 151.685 137.891C153.589 137.891 155.475 138.266 157.234 138.995C158.993 139.723 160.592 140.792 161.938 142.138C163.285 143.484 164.353 145.083 165.081 146.842C165.81 148.601 166.185 150.487 166.185 152.391V142.791C166.185 138.945 164.657 135.257 161.938 132.538C159.219 129.819 155.531 128.291 151.685 128.291V128.291Z" fill="white"/>
<path id="Vector_21" opacity="0.43" d="M180.685 121.662C176.839 121.662 173.151 123.19 170.432 125.909C167.713 128.628 166.185 132.316 166.185 136.162V145.762C166.185 141.916 167.713 138.228 170.432 135.509C173.151 132.79 176.839 131.262 180.685 131.262C184.531 131.262 188.219 132.79 190.938 135.509C193.657 138.228 195.185 141.916 195.185 145.762V136.162C195.185 132.316 193.657 128.628 190.938 125.909C188.219 123.19 184.531 121.662 180.685 121.662V121.662Z" fill="white"/>
<path id="Vector_22" opacity="0.43" d="M209.685 120.453C205.839 120.453 202.151 121.981 199.432 124.7C196.713 127.419 195.185 131.107 195.185 134.953V144.553C195.185 140.707 196.713 137.019 199.432 134.3C202.151 131.581 205.839 130.053 209.685 130.053C213.531 130.053 217.219 131.581 219.938 134.3C222.657 137.019 224.185 140.707 224.185 144.553V134.953C224.185 131.107 222.657 127.419 219.938 124.7C217.219 121.981 213.531 120.453 209.685 120.453V120.453Z" fill="white"/>
<path id="Vector_23" opacity="0.43" d="M238.685 129.4C234.839 129.4 231.151 130.928 228.432 133.647C225.713 136.366 224.185 140.054 224.185 143.9V153.5C224.185 149.654 225.713 145.966 228.432 143.247C231.151 140.528 234.839 139 238.685 139C242.531 139 246.219 140.528 248.938 143.247C251.657 145.966 253.185 149.654 253.185 153.5V143.9C253.185 140.054 251.657 136.366 248.938 133.647C246.219 130.928 242.531 129.4 238.685 129.4V129.4Z" fill="white"/>
<path id="Vector_24" d="M166.182 142.791C166.182 134.783 159.69 128.291 151.682 128.291C143.674 128.291 137.182 134.783 137.182 142.791V175.66C137.182 183.668 143.674 190.16 151.682 190.16C159.69 190.16 166.182 183.668 166.182 175.66V142.791Z" stroke="#020129" stroke-width="8" stroke-linecap="round" stroke-linejoin="round"/>
<path id="Vector_25" d="M195.182 136.162C195.182 128.154 188.69 121.662 180.682 121.662C172.674 121.662 166.182 128.154 166.182 136.162V175.551C166.182 183.559 172.674 190.051 180.682 190.051C188.69 190.051 195.182 183.559 195.182 175.551V136.162Z" stroke="#020129" stroke-width="8" stroke-linecap="round" stroke-linejoin="round"/>
<path id="Vector_26" d="M224.182 134.953C224.182 126.945 217.69 120.453 209.682 120.453C201.674 120.453 195.182 126.945 195.182 134.953V175.551C195.182 183.559 201.674 190.051 209.682 190.051C217.69 190.051 224.182 183.559 224.182 175.551V134.953Z" stroke="#020129" stroke-width="8" stroke-linecap="round" stroke-linejoin="round"/>
<path id="Vector_27" d="M253.182 143.896C253.182 135.888 246.69 129.396 238.682 129.396C230.674 129.396 224.182 135.888 224.182 143.896V173.447C224.182 181.455 230.674 187.947 238.682 187.947C246.69 187.947 253.182 181.455 253.182 173.447V143.896Z" stroke="#020129" stroke-width="8" stroke-linecap="round" stroke-linejoin="round"/>
<path id="Vector_28" d="M232.685 206.453H207.685C203.839 206.453 200.151 204.925 197.432 202.206C194.713 199.487 193.185 195.799 193.185 191.953V191.953C193.185 188.107 194.713 184.419 197.432 181.7C200.151 178.981 203.839 177.453 207.685 177.453H238.685C242.531 177.453 246.219 178.981 248.938 181.7C251.657 184.419 253.185 188.107 253.185 191.953V206.453H232.685Z" fill="#F9A991"/>
<path id="Vector_29" d="M207.685 197.632C204.61 197.632 201.616 196.654 199.133 194.841C196.65 193.027 194.808 190.471 193.873 187.542C193.223 189.577 193.03 191.731 193.308 193.849C193.831 197.379 195.615 200.6 198.329 202.916C201.044 205.232 204.505 206.487 208.073 206.449H236.725C236.725 204.11 235.796 201.866 234.141 200.212C232.487 198.557 230.244 197.628 227.904 197.628L207.685 197.632Z" fill="#F98568"/>
<path id="Vector_30" opacity="0.43" d="M238.685 177.453H207.685C205.419 177.453 203.184 177.984 201.16 179.004C199.136 180.024 197.38 181.503 196.031 183.325C194.683 185.146 193.78 187.258 193.395 189.492C193.01 191.725 193.155 194.017 193.816 196.185C194.723 193.214 196.56 190.612 199.057 188.763C201.554 186.915 204.578 185.917 207.685 185.917H238.685C242.531 185.917 246.219 187.445 248.938 190.164C251.657 192.883 253.185 196.571 253.185 200.417V191.953C253.185 188.107 251.657 184.419 248.938 181.7C246.219 178.981 242.531 177.453 238.685 177.453V177.453Z" fill="white"/>
<path id="Vector_31" d="M232.685 206.453H207.685C203.839 206.453 200.151 204.925 197.432 202.206C194.713 199.487 193.185 195.799 193.185 191.953V191.953C193.185 188.107 194.713 184.419 197.432 181.7C200.151 178.981 203.839 177.453 207.685 177.453H238.685C242.531 177.453 246.219 178.981 248.938 181.7C251.657 184.419 253.185 188.107 253.185 191.953V206.453" stroke="#020129" stroke-width="8" stroke-linecap="round" stroke-linejoin="round"/>
<path id="Vector_32" d="M204.533 187.542H211.662C212.973 187.549 214.233 187.035 215.166 186.113C216.098 185.191 216.626 183.937 216.633 182.626V182.626" stroke="#0A002D" stroke-width="4.02196" stroke-linecap="round" stroke-linejoin="round"/>
<g id="cuff">
<path id="Vector_33" d="M144.185 359.977C177.121 372.008 213.249 372.008 246.185 359.977V293.757H144.185V359.977Z" fill="#2561A1"/>
<path id="Vector_34" d="M144.185 359.977C177.121 372.008 213.249 372.008 246.185 359.977V293.757H144.185V359.977Z" fill="#2561A1"/>
<path id="Vector_35" d="M144.185 359.977C177.121 372.008 213.249 372.008 246.185 359.977V293.757H144.185V359.977Z" fill="#2561A1"/>
<path id="Vector_36" d="M144.185 293.757V359.977C160.521 365.965 177.786 369.019 195.185 369V293.757H144.185Z" fill="#1C5393"/>
<path id="Vector_37" d="M246.182 293.757H144.182V302.334H246.182V293.757Z" fill="#A4C7E2"/>
<path id="Vector_38" d="M144.185 356.037C144.187 357.205 144.555 358.342 145.238 359.289C145.921 360.236 146.884 360.945 147.991 361.315C178.619 371.562 211.75 371.562 242.378 361.315C243.485 360.945 244.449 360.236 245.132 359.289C245.815 358.342 246.183 357.205 246.185 356.037V293.757H144.185V356.037Z" stroke="#020129" stroke-width="8" stroke-linecap="round" stroke-linejoin="round"/>
</g>
</g>
</g>
</g>
</g>
<defs>
<filter id="filter0_d" x="21.0001" y="138" width="362.444" height="56.0001" filterUnits="userSpaceOnUse" color-interpolation-filters="sRGB">
<feFlood flood-opacity="0" result="BackgroundImageFix"/>
<feColorMatrix in="SourceAlpha" type="matrix" values="0 0 0 0 0 0 0 0 0 0 0 0 0 0 0 0 0 0 127 0"/>
<feOffset dy="4"/>
<feGaussianBlur stdDeviation="2"/>
<feColorMatrix type="matrix" values="0 0 0 0 0 0 0 0 0 0 0 0 0 0 0 0 0 0 0.25 0"/>
<feBlend mode="normal" in2="BackgroundImageFix" result="effect1_dropShadow"/>
<feBlend mode="normal" in="SourceGraphic" in2="effect1_dropShadow" result="shape"/>
</filter>
</defs>
</svg>
