<svg width="363" height="304" viewBox="0 0 363 304" fill="none" xmlns="http://www.w3.org/2000/svg">
<g id="power">
<g id="background">
<path id="Vector" d="M174.182 300C255.92 300 322.182 233.738 322.182 152C322.182 70.2619 255.92 4 174.182 4C92.4438 4 26.182 70.2619 26.182 152C26.182 233.738 92.4438 300 174.182 300Z" fill="#1895DE"/>
<path id="Vector_2" d="M174.182 261.865C234.859 261.865 284.047 212.677 284.047 152C284.047 91.3232 234.859 42.135 174.182 42.135C113.505 42.135 64.317 91.3232 64.317 152C64.317 212.677 113.505 261.865 174.182 261.865Z" fill="#28B1D5"/>
<path id="Vector_3" d="M174.182 300C255.92 300 322.182 233.738 322.182 152C322.182 70.2619 255.92 4 174.182 4C92.4438 4 26.182 70.2619 26.182 152C26.182 233.738 92.4438 300 174.182 300Z" stroke="#020129" stroke-width="8" stroke-linecap="round" stroke-linejoin="round"/>
<path id="star-11" d="M127.303 96.3389C126.631 96.3389 125.987 96.0722 125.512 95.5973C125.037 95.1225 124.771 94.4785 124.771 93.8069V93.8069C124.78 93.3666 124.625 92.9386 124.336 92.606C124.048 92.2734 123.646 92.0599 123.209 92.0069C122.971 91.9855 122.732 92.0138 122.506 92.0901C122.28 92.1663 122.072 92.2887 121.897 92.4496C121.721 92.6105 121.58 92.8063 121.484 93.0245C121.388 93.2427 121.338 93.4785 121.339 93.7169V93.8059C121.339 94.4774 121.072 95.1215 120.597 95.5963C120.122 96.0712 119.478 96.3379 118.807 96.3379V96.3379C118.366 96.329 117.938 96.4838 117.606 96.7724C117.273 97.061 117.06 97.4628 117.007 97.8999C116.985 98.1374 117.013 98.3768 117.09 98.6027C117.166 98.8287 117.288 99.0362 117.449 99.2123C117.61 99.3883 117.806 99.5289 118.024 99.625C118.242 99.7212 118.478 99.7709 118.717 99.7709H118.806C119.477 99.7709 120.121 100.038 120.596 100.512C121.07 100.987 121.337 101.631 121.338 102.302V102.302C121.328 102.742 121.483 103.17 121.772 103.503C122.06 103.836 122.462 104.049 122.9 104.102C123.137 104.123 123.376 104.095 123.602 104.019C123.828 103.943 124.036 103.82 124.212 103.659C124.388 103.498 124.528 103.303 124.624 103.084C124.72 102.866 124.77 102.63 124.77 102.392V102.303C124.77 101.632 125.037 100.988 125.512 100.513C125.986 100.039 126.63 99.7719 127.302 99.7719H127.391C127.629 99.7719 127.865 99.7222 128.083 99.626C128.301 99.5299 128.497 99.3893 128.658 99.2133C128.819 99.0373 128.941 98.8297 129.017 98.6037C129.094 98.3778 129.122 98.1384 129.101 97.9009C129.047 97.4642 128.834 97.0627 128.502 96.7741C128.17 96.4856 127.742 96.3305 127.303 96.3389V96.3389Z" fill="white"/>
<path id="star-10" d="M190.342 151.433C189.959 151.433 189.592 151.281 189.321 151.01C189.05 150.739 188.898 150.372 188.898 149.989V149.989C188.903 149.738 188.814 149.494 188.65 149.305C188.485 149.115 188.256 148.993 188.007 148.963C187.872 148.951 187.735 148.967 187.606 149.011C187.478 149.054 187.359 149.124 187.259 149.216C187.159 149.307 187.078 149.419 187.023 149.543C186.969 149.668 186.94 149.802 186.94 149.938V149.989C186.94 150.179 186.903 150.366 186.83 150.542C186.758 150.717 186.652 150.876 186.518 151.01C186.384 151.144 186.225 151.25 186.049 151.323C185.874 151.396 185.687 151.433 185.497 151.433V151.433C185.246 151.428 185.002 151.516 184.812 151.681C184.623 151.845 184.501 152.075 184.471 152.324C184.459 152.459 184.475 152.596 184.518 152.725C184.562 152.854 184.632 152.972 184.723 153.072C184.815 153.173 184.927 153.253 185.051 153.308C185.176 153.363 185.31 153.391 185.446 153.391H185.497C185.687 153.391 185.874 153.428 186.049 153.501C186.225 153.573 186.384 153.68 186.518 153.814C186.652 153.948 186.758 154.107 186.83 154.282C186.903 154.458 186.94 154.645 186.94 154.835V154.835C186.935 155.086 187.024 155.33 187.189 155.52C187.353 155.709 187.583 155.831 187.832 155.861C187.967 155.873 188.104 155.857 188.232 155.813C188.361 155.77 188.479 155.7 188.58 155.608C188.68 155.517 188.76 155.405 188.815 155.281C188.87 155.156 188.898 155.022 188.898 154.886V154.835C188.898 154.645 188.935 154.458 189.008 154.282C189.08 154.107 189.187 153.948 189.321 153.814C189.455 153.68 189.614 153.573 189.789 153.501C189.965 153.428 190.152 153.391 190.342 153.391H190.393C190.529 153.391 190.663 153.362 190.788 153.307C190.912 153.253 191.024 153.172 191.115 153.072C191.207 152.972 191.277 152.853 191.32 152.725C191.364 152.596 191.38 152.459 191.368 152.324C191.338 152.075 191.216 151.846 191.026 151.681C190.837 151.517 190.593 151.428 190.342 151.433Z" fill="white"/>
<path id="star-9" d="M154.448 171.67C153.573 171.669 152.735 171.32 152.117 170.702C151.5 170.083 151.153 169.244 151.153 168.37C151.165 167.799 150.967 167.243 150.597 166.808C150.226 166.373 149.709 166.09 149.143 166.012C148.83 165.98 148.515 166.013 148.216 166.11C147.918 166.208 147.643 166.366 147.41 166.577C147.177 166.787 146.99 167.044 146.863 167.331C146.735 167.618 146.669 167.928 146.67 168.242V168.37C146.67 168.803 146.584 169.233 146.418 169.633C146.253 170.033 146.009 170.397 145.703 170.704C145.397 171.01 145.033 171.253 144.632 171.419C144.232 171.585 143.803 171.67 143.37 171.67V171.67C142.799 171.658 142.243 171.856 141.808 172.227C141.374 172.597 141.09 173.114 141.012 173.68C140.979 173.992 141.013 174.308 141.11 174.606C141.207 174.905 141.366 175.179 141.577 175.412C141.787 175.646 142.044 175.832 142.33 175.96C142.617 176.087 142.928 176.153 143.242 176.153H143.37C144.245 176.153 145.084 176.501 145.703 177.12C146.322 177.738 146.67 178.578 146.67 179.453C146.657 180.024 146.855 180.58 147.226 181.015C147.596 181.45 148.114 181.733 148.68 181.811C148.992 181.843 149.307 181.81 149.606 181.712C149.904 181.615 150.179 181.456 150.412 181.246C150.645 181.036 150.831 180.779 150.959 180.492C151.087 180.205 151.153 179.895 151.153 179.581V179.465C151.153 178.588 151.501 177.747 152.121 177.127C152.742 176.507 153.583 176.158 154.46 176.158H154.576C154.889 176.158 155.2 176.092 155.487 175.965C155.773 175.837 156.03 175.651 156.241 175.417C156.451 175.184 156.61 174.91 156.707 174.611C156.804 174.313 156.838 173.997 156.806 173.685C156.728 173.118 156.445 172.6 156.011 172.228C155.576 171.857 155.019 171.658 154.448 171.67V171.67Z" fill="white"/>
<path id="star-8" d="M226.605 97.6767C225.263 97.6767 223.975 97.1433 223.025 96.1938C222.076 95.2443 221.542 93.9565 221.542 92.6138V92.6138C221.56 91.7331 221.25 90.8772 220.673 90.2121C220.096 89.5469 219.292 89.1199 218.417 89.0138C217.942 88.9711 217.464 89.0279 217.012 89.1803C216.56 89.3328 216.145 89.5778 215.793 89.8995C215.441 90.2212 215.16 90.6127 214.968 91.049C214.776 91.4854 214.676 91.9569 214.676 92.4337V92.6128C214.676 93.9555 214.143 95.2433 213.193 96.1928C212.244 97.1423 210.956 97.6757 209.613 97.6757C208.733 97.6579 207.877 97.9678 207.212 98.5452C206.547 99.1225 206.12 99.9264 206.013 100.801C205.971 101.276 206.027 101.754 206.18 102.206C206.332 102.658 206.577 103.073 206.899 103.425C207.221 103.777 207.612 104.058 208.049 104.25C208.485 104.442 208.957 104.542 209.433 104.542H209.611C210.954 104.542 212.242 105.075 213.191 106.025C214.141 106.974 214.674 108.262 214.674 109.605C214.657 110.486 214.967 111.342 215.544 112.007C216.122 112.672 216.926 113.099 217.8 113.205C218.275 113.247 218.754 113.191 219.206 113.038C219.657 112.886 220.072 112.641 220.424 112.319C220.776 111.997 221.057 111.606 221.249 111.169C221.441 110.733 221.54 110.262 221.54 109.785V109.607C221.54 108.264 222.074 106.976 223.023 106.027C223.973 105.077 225.261 104.544 226.603 104.544H226.782C227.259 104.544 227.731 104.444 228.167 104.252C228.603 104.059 228.994 103.778 229.316 103.426C229.638 103.075 229.882 102.659 230.035 102.208C230.187 101.756 230.244 101.278 230.201 100.803C230.096 99.9289 229.669 99.1254 229.005 98.5479C228.34 97.9704 227.485 97.66 226.605 97.6767V97.6767Z" fill="white"/>
<path id="star-1" d="M89.8791 140.215C88.5363 140.215 87.2485 139.682 86.299 138.732C85.3495 137.783 84.8161 136.495 84.8161 135.152V135.152C84.8339 134.271 84.5241 133.415 83.9467 132.75C83.3693 132.085 82.5655 131.658 81.6911 131.552C81.2162 131.509 80.7376 131.566 80.2858 131.719C79.834 131.871 79.419 132.116 79.067 132.438C78.7151 132.759 78.4341 133.151 78.2417 133.587C78.0494 134.024 77.9501 134.495 77.9501 134.972V135.151C77.9501 136.494 77.4166 137.782 76.4672 138.731C75.5177 139.681 74.2299 140.214 72.8871 140.214C72.0064 140.196 71.1506 140.506 70.4854 141.083C69.8203 141.661 69.3932 142.465 69.2871 143.339C69.2444 143.814 69.3012 144.292 69.4537 144.744C69.6062 145.196 69.8511 145.611 70.1728 145.963C70.4945 146.315 70.886 146.596 71.3223 146.788C71.7587 146.981 72.2302 147.08 72.7071 147.08H72.8851C74.2279 147.08 75.5157 147.613 76.4652 148.563C77.4146 149.512 77.9481 150.8 77.9481 152.143C77.9303 153.024 78.2402 153.88 78.8178 154.545C79.3954 155.21 80.1995 155.637 81.0741 155.743C81.5489 155.786 82.0275 155.729 82.4792 155.576C82.9309 155.424 83.3459 155.179 83.6978 154.857C84.0496 154.535 84.3306 154.144 84.5228 153.708C84.715 153.271 84.8142 152.8 84.8141 152.323V152.145C84.8141 150.802 85.3475 149.514 86.297 148.565C87.2465 147.615 88.5343 147.082 89.8771 147.082H90.0561C90.5328 147.082 91.0043 146.982 91.4405 146.79C91.8767 146.598 92.268 146.317 92.5897 145.965C92.9113 145.613 93.1561 145.198 93.3085 144.746C93.461 144.294 93.5177 143.816 93.4751 143.341C93.3692 142.467 92.9428 141.664 92.2785 141.086C91.6142 140.509 90.7592 140.198 89.8791 140.215V140.215Z" fill="white"/>
<path id="star-2" d="M172.376 28.3111C171.704 28.3111 171.06 28.0443 170.586 27.5695C170.111 27.0946 169.844 26.4506 169.844 25.7791V25.7791C169.853 25.3388 169.698 24.9108 169.41 24.5782C169.121 24.2456 168.719 24.0321 168.282 23.9791C168.045 23.9577 167.805 23.986 167.579 24.0622C167.354 24.1385 167.146 24.2609 166.97 24.4218C166.794 24.5827 166.654 24.7785 166.558 24.9967C166.461 25.2149 166.412 25.4507 166.412 25.6891V25.7781C166.412 26.4496 166.145 27.0936 165.67 27.5685C165.196 28.0433 164.552 28.3101 163.88 28.3101V28.3101C163.44 28.3012 163.012 28.456 162.679 28.7446C162.347 29.0332 162.133 29.435 162.08 29.8721C162.059 30.1096 162.087 30.3489 162.163 30.5749C162.239 30.8008 162.362 31.0084 162.523 31.1844C162.684 31.3604 162.879 31.501 163.098 31.5972C163.316 31.6934 163.552 31.7431 163.79 31.7431H163.879C164.55 31.7431 165.194 32.0097 165.669 32.4843C166.144 32.959 166.411 33.6027 166.411 34.2741V34.2741C166.402 34.7144 166.556 35.1426 166.845 35.4752C167.134 35.8079 167.536 36.0213 167.973 36.0741C168.21 36.0955 168.45 36.0672 168.676 35.9909C168.902 35.9147 169.109 35.7923 169.285 35.6314C169.461 35.4705 169.601 35.2747 169.698 35.0565C169.794 34.8383 169.843 34.6025 169.843 34.3641V34.2751C169.843 33.6037 170.11 32.96 170.585 32.4853C171.06 32.0107 171.704 31.7441 172.375 31.7441H172.464C172.702 31.7441 172.938 31.6944 173.157 31.5982C173.375 31.502 173.571 31.3615 173.731 31.1854C173.892 31.0094 174.015 30.8018 174.091 30.5759C174.167 30.3499 174.195 30.1106 174.174 29.8731C174.121 29.4363 173.908 29.0348 173.575 28.7463C173.243 28.4577 172.816 28.3027 172.376 28.3111V28.3111Z" fill="white"/>
<path id="star-3" d="M108.342 232.433C107.959 232.433 107.592 232.281 107.321 232.01C107.05 231.739 106.898 231.372 106.898 230.989V230.989C106.903 230.738 106.814 230.494 106.65 230.305C106.485 230.115 106.256 229.993 106.007 229.963C105.872 229.951 105.735 229.967 105.606 230.011C105.478 230.054 105.359 230.124 105.259 230.216C105.159 230.307 105.078 230.419 105.023 230.543C104.969 230.668 104.94 230.802 104.94 230.938V230.989C104.94 231.179 104.903 231.366 104.83 231.542C104.758 231.717 104.652 231.876 104.518 232.01C104.384 232.144 104.225 232.25 104.049 232.323C103.874 232.396 103.687 232.433 103.497 232.433V232.433C103.246 232.428 103.002 232.516 102.812 232.681C102.623 232.845 102.501 233.075 102.471 233.324C102.459 233.459 102.475 233.596 102.518 233.725C102.562 233.854 102.632 233.972 102.723 234.072C102.815 234.173 102.927 234.253 103.051 234.308C103.176 234.363 103.31 234.391 103.446 234.391H103.497C103.687 234.391 103.874 234.428 104.049 234.501C104.225 234.573 104.384 234.68 104.518 234.814C104.652 234.948 104.758 235.107 104.83 235.282C104.903 235.458 104.94 235.645 104.94 235.835V235.835C104.935 236.086 105.024 236.33 105.189 236.52C105.353 236.709 105.583 236.831 105.832 236.861C105.967 236.873 106.104 236.857 106.232 236.813C106.361 236.77 106.479 236.7 106.58 236.608C106.68 236.517 106.76 236.405 106.815 236.281C106.87 236.156 106.898 236.022 106.898 235.886V235.835C106.898 235.645 106.935 235.458 107.008 235.282C107.08 235.107 107.187 234.948 107.321 234.814C107.455 234.68 107.614 234.573 107.789 234.501C107.965 234.428 108.152 234.391 108.342 234.391H108.393C108.529 234.391 108.663 234.362 108.788 234.307C108.912 234.253 109.024 234.172 109.115 234.072C109.207 233.972 109.277 233.853 109.32 233.725C109.364 233.596 109.38 233.459 109.368 233.324C109.338 233.075 109.216 232.846 109.026 232.681C108.837 232.517 108.593 232.428 108.342 232.433Z" fill="white"/>
<path id="star-4" d="M292.385 181.825C292.097 181.825 291.821 181.711 291.617 181.507C291.413 181.303 291.298 181.027 291.298 180.739C291.302 180.55 291.235 180.367 291.111 180.224C290.987 180.081 290.815 179.99 290.627 179.967C290.525 179.958 290.423 179.971 290.326 180.004C290.23 180.037 290.141 180.089 290.066 180.158C289.991 180.227 289.931 180.311 289.889 180.405C289.848 180.498 289.827 180.599 289.827 180.701V180.74C289.827 181.028 289.712 181.304 289.508 181.508C289.304 181.712 289.028 181.826 288.74 181.826V181.826C288.551 181.822 288.368 181.889 288.225 182.013C288.082 182.137 287.991 182.309 287.968 182.497C287.959 182.599 287.972 182.701 288.005 182.798C288.038 182.894 288.09 182.983 288.159 183.058C288.228 183.134 288.312 183.194 288.406 183.235C288.499 183.276 288.6 183.297 288.702 183.297H288.74C289.028 183.297 289.304 183.411 289.508 183.615C289.712 183.819 289.827 184.095 289.827 184.383V184.383C289.823 184.572 289.89 184.755 290.013 184.898C290.137 185.041 290.31 185.132 290.497 185.155C290.599 185.164 290.701 185.151 290.798 185.118C290.894 185.085 290.983 185.033 291.058 184.964C291.134 184.895 291.194 184.811 291.235 184.717C291.276 184.624 291.297 184.523 291.297 184.421V184.383C291.298 184.095 291.413 183.82 291.617 183.617C291.821 183.414 292.097 183.3 292.385 183.3H292.423C292.525 183.3 292.626 183.279 292.719 183.238C292.813 183.197 292.897 183.137 292.966 183.061C293.035 182.986 293.087 182.897 293.12 182.801C293.153 182.704 293.166 182.602 293.157 182.5C293.135 182.312 293.044 182.138 292.901 182.014C292.759 181.889 292.575 181.822 292.385 181.825V181.825Z" fill="white"/>
<path id="star-5" d="M275.565 135.107C275.201 135.107 274.84 135.035 274.504 134.896C274.167 134.757 273.862 134.552 273.604 134.295C273.347 134.037 273.142 133.732 273.003 133.395C272.864 133.059 272.792 132.698 272.792 132.334C272.802 131.853 272.635 131.386 272.324 131.02C272.012 130.654 271.576 130.416 271.1 130.35C270.837 130.323 270.572 130.351 270.32 130.433C270.069 130.515 269.838 130.649 269.642 130.826C269.446 131.003 269.289 131.219 269.181 131.46C269.074 131.702 269.018 131.963 269.018 132.227V132.335C269.018 133.07 268.726 133.775 268.206 134.295C267.686 134.815 266.981 135.108 266.246 135.108V135.108C265.765 135.098 265.297 135.264 264.931 135.576C264.565 135.888 264.327 136.324 264.261 136.8C264.234 137.063 264.262 137.328 264.344 137.579C264.426 137.831 264.56 138.062 264.737 138.258C264.914 138.454 265.13 138.611 265.371 138.718C265.613 138.825 265.874 138.881 266.138 138.881H266.246C266.981 138.881 267.686 139.173 268.206 139.693C268.726 140.214 269.018 140.919 269.018 141.654V141.654C269.008 142.135 269.174 142.602 269.486 142.968C269.798 143.334 270.234 143.573 270.71 143.639C270.973 143.666 271.238 143.638 271.49 143.556C271.741 143.474 271.972 143.34 272.168 143.163C272.364 142.986 272.521 142.77 272.629 142.529C272.736 142.287 272.792 142.026 272.792 141.762V141.662C272.792 140.924 273.085 140.216 273.607 139.694C274.128 139.173 274.836 138.879 275.574 138.879H275.674C275.938 138.879 276.199 138.823 276.441 138.716C276.682 138.609 276.898 138.452 277.075 138.256C277.252 138.06 277.386 137.829 277.468 137.577C277.55 137.326 277.578 137.061 277.551 136.798C277.485 136.322 277.246 135.886 276.88 135.574C276.514 135.263 276.046 135.096 275.565 135.107V135.107Z" fill="white"/>
<g id="star-7" style="mix-blend-mode:overlay" opacity="0.59">
<g id="Vector_4" style="mix-blend-mode:overlay" opacity="0.59">
<path d="M60.7581 201.273C60.0226 201.273 59.3173 200.981 58.7973 200.461C58.2772 199.941 57.9851 199.235 57.9851 198.5V198.5C57.9955 198.019 57.8289 197.551 57.5169 197.185C57.205 196.819 56.7694 196.581 56.2931 196.515C56.0303 196.488 55.7648 196.516 55.5136 196.598C55.2625 196.68 55.0314 196.814 54.8352 196.991C54.6391 197.168 54.4822 197.384 54.3749 197.625C54.2676 197.867 54.2121 198.128 54.2121 198.392V198.5C54.2118 199.235 53.9196 199.941 53.3996 200.461C52.8796 200.98 52.1745 201.273 51.4391 201.273C50.9584 201.263 50.4907 201.429 50.1247 201.741C49.7588 202.053 49.5202 202.489 49.4541 202.965C49.4269 203.228 49.4552 203.493 49.5372 203.744C49.6192 203.996 49.7529 204.227 49.9299 204.423C50.1068 204.619 50.3229 204.776 50.5643 204.883C50.8057 204.991 51.0669 205.046 51.3311 205.046H51.4391C52.1745 205.046 52.8796 205.339 53.3996 205.858C53.9196 206.378 54.2118 207.084 54.2121 207.819V207.819C54.2019 208.3 54.3686 208.767 54.6805 209.133C54.9924 209.499 55.4278 209.738 55.9041 209.804C56.1669 209.831 56.4324 209.803 56.6835 209.721C56.9347 209.639 57.1658 209.505 57.3619 209.328C57.5581 209.151 57.7149 208.935 57.8223 208.694C57.9296 208.452 57.9851 208.191 57.9851 207.927V207.827C57.9851 207.089 58.2783 206.381 58.8002 205.859C59.3221 205.337 60.03 205.044 60.7681 205.044H60.8681C61.1322 205.044 61.3934 204.989 61.6347 204.881C61.8761 204.774 62.0922 204.617 62.269 204.421C62.4459 204.225 62.5795 203.993 62.6614 203.742C62.7432 203.491 62.7714 203.226 62.7441 202.963C62.678 202.487 62.4391 202.051 62.0729 201.74C61.7067 201.428 61.2388 201.262 60.7581 201.273V201.273Z" fill="#174268"/>
</g>
</g>
<path id="star-6" d="M253.812 190.825C252.938 190.824 252.1 190.475 251.482 189.857C250.864 189.238 250.517 188.399 250.517 187.525C250.53 186.954 250.332 186.398 249.961 185.963C249.591 185.528 249.073 185.245 248.507 185.167C248.195 185.135 247.879 185.168 247.581 185.265C247.282 185.363 247.007 185.522 246.774 185.732C246.541 185.942 246.355 186.199 246.227 186.486C246.1 186.773 246.034 187.083 246.034 187.397V187.525C246.034 187.958 245.949 188.388 245.783 188.788C245.617 189.188 245.374 189.552 245.068 189.859C244.761 190.165 244.397 190.408 243.997 190.574C243.597 190.74 243.167 190.825 242.734 190.825V190.825C242.163 190.813 241.607 191.011 241.173 191.382C240.738 191.752 240.455 192.269 240.376 192.835C240.344 193.147 240.377 193.463 240.475 193.761C240.572 194.06 240.731 194.334 240.941 194.567C241.151 194.801 241.408 194.987 241.695 195.115C241.982 195.242 242.292 195.308 242.606 195.308H242.734C243.609 195.308 244.449 195.656 245.068 196.275C245.686 196.893 246.034 197.733 246.034 198.608C246.022 199.179 246.219 199.735 246.59 200.17C246.961 200.605 247.478 200.888 248.044 200.966C248.356 200.998 248.672 200.965 248.97 200.868C249.269 200.77 249.543 200.611 249.776 200.401C250.01 200.191 250.196 199.934 250.324 199.647C250.451 199.36 250.517 199.05 250.517 198.736V198.62C250.517 197.743 250.866 196.902 251.486 196.282C252.106 195.662 252.947 195.313 253.824 195.313H253.94C254.254 195.313 254.564 195.247 254.851 195.12C255.138 194.992 255.395 194.806 255.605 194.572C255.815 194.339 255.974 194.065 256.071 193.766C256.169 193.468 256.202 193.152 256.17 192.84C256.093 192.273 255.81 191.755 255.375 191.383C254.94 191.012 254.384 190.813 253.812 190.825V190.825Z" fill="white"/>
</g>
<g id="hand">
<path id="Vector_5" d="M211.682 159.394H136.682V290.12H211.682V159.394Z" fill="#FFA183"/>
<path id="Vector_6" d="M211.682 159.394H136.682V290.12H211.682V159.394Z" fill="#F9A991"/>
<g id="Vector_7" style="mix-blend-mode:multiply" opacity="0.58">
<path d="M136.685 194.767C144.056 198.562 152.228 200.539 160.518 200.533H187.852C196.143 200.539 204.314 198.562 211.685 194.767V159.394H136.685V194.767Z" fill="#FFA183"/>
</g>
<path id="Vector_8" d="M211.682 159.394H136.682V290.12H211.682V159.394Z" stroke="#020129" stroke-width="8" stroke-linecap="round" stroke-linejoin="round"/>
<path id="Vector_9" d="M116.185 81.4531H232.185V148.2C232.185 159.958 227.514 171.234 219.2 179.548C210.886 187.862 199.61 192.533 187.852 192.533H160.515C148.758 192.532 137.482 187.861 129.169 179.547C120.855 171.233 116.185 159.957 116.185 148.2V81.4531Z" fill="#F9A991"/>
<path id="Vector_10" d="M187.848 178.374H160.515C148.758 178.373 137.482 173.702 129.168 165.388C120.855 157.074 116.185 145.798 116.185 134.04V148.2C116.185 154.022 117.332 159.787 119.559 165.166C121.787 170.544 125.053 175.432 129.17 179.548C133.286 183.665 138.174 186.931 143.552 189.159C148.931 191.387 154.696 192.533 160.518 192.533H187.851C193.673 192.533 199.438 191.387 204.817 189.159C210.196 186.931 215.083 183.665 219.2 179.549C223.317 175.432 226.582 170.545 228.81 165.166C231.038 159.787 232.185 154.022 232.185 148.2V134.04C232.185 139.862 231.038 145.628 228.81 151.007C226.582 156.386 223.316 161.273 219.199 165.39C215.082 169.507 210.194 172.772 204.815 175C199.436 177.228 193.67 178.374 187.848 178.374V178.374Z" fill="#F98568"/>
<path id="Vector_11" d="M116.185 81.4531H232.185V148.2C232.185 159.958 227.514 171.234 219.2 179.548C210.886 187.862 199.61 192.533 187.852 192.533H160.515C148.758 192.532 137.482 187.861 129.169 179.547C120.855 171.233 116.185 159.957 116.185 148.2V81.4531Z" stroke="#020129" stroke-width="8" stroke-linecap="round" stroke-linejoin="round"/>
<g id="pencil" filter="url(#filter0_d)">
<path id="XMLID 126" d="M294.741 113V73H36.2964V113H294.741Z" fill="#47A942"/>
<path id="XMLID 22" d="M294.741 113V73H36.2964V113H294.741Z" stroke="#1F2120" stroke-width="8" stroke-miterlimit="10" stroke-linecap="round" stroke-linejoin="round"/>
<path id="XMLID 128" d="M294.741 100.408V85.5928H36.2964V100.408H294.741Z" stroke="#1F2120" stroke-width="8" stroke-miterlimit="10" stroke-linecap="round" stroke-linejoin="round"/>
<path id="XMLID 129" d="M294.741 113V73L354.444 93L294.741 113Z" fill="#C4C4C4"/>
<path id="XMLID 23" d="M294.741 113V73L354.444 93L294.741 113Z" stroke="#1F2120" stroke-width="8" stroke-miterlimit="10" stroke-linecap="round" stroke-linejoin="round"/>
<path id="XMLID 130" d="M36.2964 73V113H23.0372C14.7409 113 8.00013 106.259 8.00013 97.963V88.037C8.00013 79.7407 14.7409 73 23.0372 73H36.2964V73Z" fill="#C4C4C4"/>
<path id="XMLID 24" d="M36.2964 73V113H23.0372C14.7409 113 8.00013 106.259 8.00013 97.963V88.037C8.00013 79.7407 14.7409 73 23.0372 73H36.2964V73Z" stroke="#1F2120" stroke-width="8" stroke-miterlimit="10" stroke-linecap="round" stroke-linejoin="round"/>
<path id="XMLID 127" d="M62.5925 113V73H36.3703V113H62.5925Z" fill="#CCCC00"/>
<path id="XMLID 25" d="M62.5925 113V73H36.3703V113H62.5925Z" stroke="#1F2120" stroke-width="8" stroke-miterlimit="10" stroke-linecap="round" stroke-linejoin="round"/>
<path id="XMLID 29" d="M354.444 93.0001L330.37 84.926V101.074L354.444 93.0001Z" fill="#1F2120"/>
</g>
<path id="Vector_12" d="M145.182 73.791C145.182 65.7829 138.69 59.291 130.682 59.291C122.674 59.291 116.182 65.7829 116.182 73.791V106.66C116.182 114.668 122.674 121.16 130.682 121.16C138.69 121.16 145.182 114.668 145.182 106.66V73.791Z" fill="#F9A991"/>
<path id="Vector_13" d="M174.182 67.1621C174.182 59.154 167.69 52.6621 159.682 52.6621C151.674 52.6621 145.182 59.154 145.182 67.1621V106.551C145.182 114.559 151.674 121.051 159.682 121.051C167.69 121.051 174.182 114.559 174.182 106.551V67.1621Z" fill="#F9A991"/>
<path id="Vector_14" d="M203.182 65.9531C203.182 57.945 196.69 51.4531 188.682 51.4531C180.674 51.4531 174.182 57.945 174.182 65.9531V106.551C174.182 114.559 180.674 121.051 188.682 121.051C196.69 121.051 203.182 114.559 203.182 106.551V65.9531Z" fill="#F9A991"/>
<path id="Vector_15" d="M232.182 74.896C232.182 66.8879 225.69 60.396 217.682 60.396C209.674 60.396 203.182 66.8879 203.182 74.896V104.447C203.182 112.455 209.674 118.947 217.682 118.947C225.69 118.947 232.182 112.455 232.182 104.447V74.896Z" fill="#F9A991"/>
<path id="Vector_16" d="M134.323 106.2H127.04C125.614 106.2 124.202 105.918 122.884 105.372C121.567 104.826 120.37 104.025 119.362 103.017C118.354 102.008 117.555 100.81 117.01 99.4923C116.464 98.1744 116.184 96.7621 116.185 95.3359V106.66C116.185 110.506 117.713 114.194 120.432 116.913C123.151 119.632 126.839 121.16 130.685 121.16C134.531 121.16 138.219 119.632 140.938 116.913C143.657 114.194 145.185 110.506 145.185 106.66V95.3359C145.186 96.7626 144.905 98.1755 144.36 99.4937C143.814 100.812 143.014 102.01 142.005 103.019C140.997 104.028 139.799 104.828 138.481 105.374C137.163 105.92 135.75 106.2 134.323 106.2V106.2Z" fill="#F98568"/>
<path id="Vector_17" d="M163.323 106.086H156.04C153.161 106.085 150.4 104.941 148.364 102.905C146.329 100.869 145.185 98.1072 145.185 95.228V106.551C145.185 110.397 146.713 114.085 149.432 116.804C152.151 119.523 155.839 121.051 159.685 121.051C163.531 121.051 167.219 119.523 169.938 116.804C172.657 114.085 174.185 110.397 174.185 106.551V95.228C174.185 96.6543 173.904 98.0665 173.358 99.3841C172.812 100.702 172.012 101.899 171.003 102.907C169.995 103.916 168.797 104.715 167.479 105.261C166.162 105.806 164.749 106.087 163.323 106.086V106.086Z" fill="#F98568"/>
<g id="Vector_18" style="mix-blend-mode:multiply" opacity="0.58">
<path d="M192.323 106.086H185.04C182.161 106.085 179.4 104.941 177.364 102.905C175.329 100.869 174.185 98.1072 174.185 95.228V106.551C174.185 110.397 175.713 114.085 178.432 116.804C181.151 119.523 184.839 121.051 188.685 121.051C192.531 121.051 196.219 119.523 198.938 116.804C201.657 114.085 203.185 110.397 203.185 106.551V95.228C203.185 96.6543 202.904 98.0665 202.358 99.3841C201.812 100.702 201.012 101.899 200.003 102.907C198.995 103.916 197.797 104.715 196.479 105.261C195.162 105.806 193.749 106.087 192.323 106.086V106.086Z" fill="#FFA183"/>
</g>
<g id="Vector_19" style="mix-blend-mode:multiply" opacity="0.58">
<path d="M221.323 103.982H214.04C211.161 103.981 208.4 102.837 206.364 100.8C204.328 98.764 203.185 96.0024 203.185 93.123V104.446C203.185 108.292 204.713 111.98 207.432 114.699C210.151 117.418 213.839 118.946 217.685 118.946C221.531 118.946 225.219 117.418 227.938 114.699C230.657 111.98 232.185 108.292 232.185 104.446V93.123C232.185 94.5493 231.904 95.9616 231.358 97.2793C230.812 98.597 230.012 99.7942 229.003 100.803C227.995 101.811 226.797 102.611 225.48 103.156C224.162 103.702 222.749 103.982 221.323 103.982V103.982Z" fill="#FFA183"/>
</g>
<path id="Vector_20" opacity="0.43" d="M130.685 59.291C126.839 59.291 123.151 60.8187 120.432 63.538C117.713 66.2572 116.185 69.9454 116.185 73.791V83.391C116.185 81.4869 116.56 79.6013 117.289 77.8421C118.017 76.0829 119.086 74.4844 120.432 73.138C121.778 71.7915 123.377 70.7235 125.136 69.9948C126.895 69.2661 128.781 68.891 130.685 68.891C132.589 68.891 134.475 69.2661 136.234 69.9948C137.993 70.7235 139.592 71.7915 140.938 73.138C142.285 74.4844 143.353 76.0829 144.081 77.8421C144.81 79.6013 145.185 81.4869 145.185 83.391V73.791C145.185 69.9454 143.657 66.2572 140.938 63.538C138.219 60.8187 134.531 59.291 130.685 59.291V59.291Z" fill="white"/>
<path id="Vector_21" opacity="0.43" d="M159.685 52.6621C155.839 52.6621 152.151 54.1898 149.432 56.9091C146.713 59.6283 145.185 63.3165 145.185 67.1621V76.7621C145.185 72.9165 146.713 69.2283 149.432 66.5091C152.151 63.7898 155.839 62.2621 159.685 62.2621C163.531 62.2621 167.219 63.7898 169.938 66.5091C172.657 69.2283 174.185 72.9165 174.185 76.7621V67.1621C174.185 63.3165 172.657 59.6283 169.938 56.9091C167.219 54.1898 163.531 52.6621 159.685 52.6621V52.6621Z" fill="white"/>
<path id="Vector_22" opacity="0.43" d="M188.685 51.4531C184.839 51.4531 181.151 52.9808 178.432 55.7001C175.713 58.4194 174.185 62.1075 174.185 65.9531V75.5531C174.185 71.7075 175.713 68.0194 178.432 65.3001C181.151 62.5808 184.839 61.0531 188.685 61.0531C192.531 61.0531 196.219 62.5808 198.938 65.3001C201.657 68.0194 203.185 71.7075 203.185 75.5531V65.9531C203.185 62.1075 201.657 58.4194 198.938 55.7001C196.219 52.9808 192.531 51.4531 188.685 51.4531V51.4531Z" fill="white"/>
<path id="Vector_23" opacity="0.43" d="M217.685 60.3999C213.839 60.3999 210.151 61.9276 207.432 64.6469C204.713 67.3661 203.185 71.0543 203.185 74.8999V84.4999C203.185 80.6543 204.713 76.9661 207.432 74.2469C210.151 71.5276 213.839 69.9999 217.685 69.9999C221.531 69.9999 225.219 71.5276 227.938 74.2469C230.657 76.9661 232.185 80.6543 232.185 84.4999V74.8999C232.185 71.0543 230.657 67.3661 227.938 64.6469C225.219 61.9276 221.531 60.3999 217.685 60.3999V60.3999Z" fill="white"/>
<path id="Vector_24" d="M145.182 73.791C145.182 65.7829 138.69 59.291 130.682 59.291C122.674 59.291 116.182 65.7829 116.182 73.791V106.66C116.182 114.668 122.674 121.16 130.682 121.16C138.69 121.16 145.182 114.668 145.182 106.66V73.791Z" stroke="#020129" stroke-width="8" stroke-linecap="round" stroke-linejoin="round"/>
<path id="Vector_25" d="M174.182 67.1621C174.182 59.154 167.69 52.6621 159.682 52.6621C151.674 52.6621 145.182 59.154 145.182 67.1621V106.551C145.182 114.559 151.674 121.051 159.682 121.051C167.69 121.051 174.182 114.559 174.182 106.551V67.1621Z" stroke="#020129" stroke-width="8" stroke-linecap="round" stroke-linejoin="round"/>
<path id="Vector_26" d="M203.182 65.9531C203.182 57.945 196.69 51.4531 188.682 51.4531C180.674 51.4531 174.182 57.945 174.182 65.9531V106.551C174.182 114.559 180.674 121.051 188.682 121.051C196.69 121.051 203.182 114.559 203.182 106.551V65.9531Z" stroke="#020129" stroke-width="8" stroke-linecap="round" stroke-linejoin="round"/>
<path id="Vector_27" d="M232.182 74.896C232.182 66.8879 225.69 60.396 217.682 60.396C209.674 60.396 203.182 66.8879 203.182 74.896V104.447C203.182 112.455 209.674 118.947 217.682 118.947C225.69 118.947 232.182 112.455 232.182 104.447V74.896Z" stroke="#020129" stroke-width="8" stroke-linecap="round" stroke-linejoin="round"/>
<path id="Vector_28" d="M211.685 137.453H186.685C182.839 137.453 179.151 135.925 176.432 133.206C173.713 130.487 172.185 126.799 172.185 122.953V122.953C172.185 119.107 173.713 115.419 176.432 112.7C179.151 109.981 182.839 108.453 186.685 108.453H217.685C221.531 108.453 225.219 109.981 227.938 112.7C230.657 115.419 232.185 119.107 232.185 122.953V137.453H211.685Z" fill="#F9A991"/>
<path id="Vector_29" d="M186.685 128.632C183.61 128.632 180.616 127.654 178.133 125.841C175.65 124.027 173.808 121.471 172.873 118.542C172.223 120.577 172.03 122.731 172.308 124.849C172.831 128.379 174.615 131.6 177.329 133.916C180.044 136.232 183.505 137.487 187.073 137.449H215.725C215.725 135.11 214.796 132.866 213.141 131.212C211.487 129.557 209.244 128.628 206.904 128.628L186.685 128.632Z" fill="#F98568"/>
<path id="Vector_30" opacity="0.43" d="M217.685 108.453H186.685C184.419 108.453 182.184 108.984 180.16 110.004C178.136 111.024 176.38 112.503 175.031 114.325C173.683 116.146 172.78 118.258 172.395 120.492C172.01 122.725 172.155 125.017 172.816 127.185C173.723 124.214 175.56 121.612 178.057 119.763C180.554 117.915 183.578 116.917 186.685 116.917H217.685C221.531 116.917 225.219 118.445 227.938 121.164C230.657 123.883 232.185 127.571 232.185 131.417V122.953C232.185 119.107 230.657 115.419 227.938 112.7C225.219 109.981 221.531 108.453 217.685 108.453V108.453Z" fill="white"/>
<path id="Vector_31" d="M211.685 137.453H186.685C182.839 137.453 179.151 135.925 176.432 133.206C173.713 130.487 172.185 126.799 172.185 122.953V122.953C172.185 119.107 173.713 115.419 176.432 112.7C179.151 109.981 182.839 108.453 186.685 108.453H217.685C221.531 108.453 225.219 109.981 227.938 112.7C230.657 115.419 232.185 119.107 232.185 122.953V137.453" stroke="#020129" stroke-width="8" stroke-linecap="round" stroke-linejoin="round"/>
<path id="Vector_32" d="M183.533 118.542H190.662C191.973 118.549 193.233 118.035 194.166 117.113C195.098 116.191 195.626 114.937 195.633 113.626V113.626" stroke="#0A002D" stroke-width="4.02196" stroke-linecap="round" stroke-linejoin="round"/>
<path id="Vector_33" d="M123.185 290.977C156.121 303.008 192.249 303.008 225.185 290.977V224.757H123.185V290.977Z" fill="#2561A1"/>
<path id="Vector_34" d="M123.185 290.977C156.121 303.008 192.249 303.008 225.185 290.977V224.757H123.185V290.977Z" fill="#2561A1"/>
<path id="Vector_35" d="M123.185 290.977C156.121 303.008 192.249 303.008 225.185 290.977V224.757H123.185V290.977Z" fill="#2561A1"/>
<path id="Vector_36" d="M123.185 224.757V290.977C139.521 296.965 156.786 300.019 174.185 300V224.757H123.185Z" fill="#1C5393"/>
<path id="Vector_37" d="M225.182 224.757H123.182V233.334H225.182V224.757Z" fill="#A4C7E2"/>
<path id="Vector_38" d="M123.185 287.037C123.187 288.205 123.555 289.342 124.238 290.289C124.921 291.236 125.884 291.945 126.991 292.315C157.619 302.562 190.75 302.562 221.378 292.315C222.485 291.945 223.449 291.236 224.132 290.289C224.815 289.342 225.183 288.205 225.185 287.037V224.757H123.185V287.037Z" stroke="#020129" stroke-width="8" stroke-linecap="round" stroke-linejoin="round"/>
</g>
</g>
<defs>
<filter id="filter0_d" x="0.00012207" y="69" width="362.444" height="56.0001" filterUnits="userSpaceOnUse" color-interpolation-filters="sRGB">
<feFlood flood-opacity="0" result="BackgroundImageFix"/>
<feColorMatrix in="SourceAlpha" type="matrix" values="0 0 0 0 0 0 0 0 0 0 0 0 0 0 0 0 0 0 127 0"/>
<feOffset dy="4"/>
<feGaussianBlur stdDeviation="2"/>
<feColorMatrix type="matrix" values="0 0 0 0 0 0 0 0 0 0 0 0 0 0 0 0 0 0 0.25 0"/>
<feBlend mode="normal" in2="BackgroundImageFix" result="effect1_dropShadow"/>
<feBlend mode="normal" in="SourceGraphic" in2="effect1_dropShadow" result="shape"/>
</filter>
</defs>
</svg>
