<svg width="345" height="357" viewBox="0 0 345 357" fill="none" xmlns="http://www.w3.org/2000/svg">
<g id="projects">
<g id="white-sands">
<path id="XMLID 52" d="M151.93 348.8L103.43 313.5C95.43 307.7 93.63 296.4 99.43 288.4L259.33 68.2999C265.13 60.2999 276.43 58.4999 284.43 64.2999L332.93 99.5999C340.93 105.4 342.73 116.7 336.93 124.7L177.03 344.8C171.23 352.8 159.93 354.6 151.93 348.8Z" fill="white"/>
<path id="XMLID 24" d="M151.93 348.8L103.43 313.5C95.43 307.7 93.63 296.4 99.43 288.4L259.33 68.2999C265.13 60.2999 276.43 58.4999 284.43 64.2999L332.93 99.5999C340.93 105.4 342.73 116.7 336.93 124.7L177.03 344.8C171.23 352.8 159.93 354.6 151.93 348.8Z" stroke="#330E00" stroke-width="8" stroke-miterlimit="10" stroke-linecap="round" stroke-linejoin="round"/>
<path id="XMLID 23" d="M231.13 270.3L153.43 213.9L259.23 68.2999C265.03 60.2999 276.33 58.4999 284.33 64.2999L332.83 99.5999C340.83 105.4 342.63 116.7 336.83 124.7L231.13 270.3Z" stroke="#330E00" stroke-width="8" stroke-miterlimit="10" stroke-linecap="round" stroke-linejoin="round"/>
<path id="XMLID 62" d="M308.73 163.6L231.03 107.2L259.23 68.4C265.03 60.4 276.33 58.6 284.33 64.4L332.83 99.7C340.83 105.5 342.63 116.8 336.83 124.8L308.73 163.6Z" fill="#2A98C8"/>
<path id="XMLID 22" d="M308.73 163.6L231.03 107.2L259.23 68.4C265.03 60.4 276.33 58.6 284.33 64.4L332.83 99.7C340.83 105.5 342.63 116.8 336.83 124.8L308.73 163.6Z" stroke="#330E00" stroke-width="8" stroke-miterlimit="10" stroke-linecap="round" stroke-linejoin="round"/>
<path id="XMLID 60" d="M269.869 216.899L192.205 160.47L153.41 213.864L231.074 270.293L269.869 216.899Z" fill="white"/>
<path id="XMLID 61" d="M308.671 163.505L231.007 107.076L192.212 160.47L269.876 216.899L308.671 163.505Z" fill="black"/>
<path id="XMLID 21" d="M308.671 163.505L231.007 107.076L192.212 160.47L269.876 216.899L308.671 163.505Z" stroke="#330E00" stroke-width="8" stroke-miterlimit="10" stroke-linecap="round" stroke-linejoin="round"/>
<path id="XMLID 20" d="M269.869 216.899L192.205 160.47L153.41 213.864L231.074 270.293L269.869 216.899Z" stroke="#330E00" stroke-width="8" stroke-miterlimit="10" stroke-linecap="round" stroke-linejoin="round"/>
<path id="XMLID 19" d="M121.23 306C125.648 306 129.23 302.418 129.23 298C129.23 293.582 125.648 290 121.23 290C116.812 290 113.23 293.582 113.23 298C113.23 302.418 116.812 306 121.23 306Z" stroke="#330E00" stroke-width="8" stroke-miterlimit="10" stroke-linecap="round" stroke-linejoin="round"/>
</g>
<g id="recallchek">
<path id="XMLID 112" opacity="0.3" d="M258.63 44.0999L200.93 27.5999C191.33 24.8999 181.43 30.3999 178.63 39.8999L103.63 301.4C100.93 311 106.43 320.9 115.93 323.7L168.53 320.7C169.03 320.8 173.43 321 173.93 321.1H178.73L186.43 320.3C194.63 319.4 201.43 313.7 203.63 305.7L271.03 66.3999C273.73 56.7999 268.23 46.8999 258.63 44.0999Z" fill="#2D2D2D" stroke="#2D2D2D" stroke-width="8" stroke-miterlimit="10" stroke-linecap="round" stroke-linejoin="round"/>
<g id="XMLID 11">
<path id="XMLID 53" d="M166.73 336.2L109.03 319.7C99.43 317 93.93 307 96.73 297.4L171.73 35.9001C174.43 26.3001 184.43 20.8001 194.03 23.6001L251.73 40.1001C261.33 42.8001 266.83 52.8001 264.03 62.4001L189.03 323.9C186.23 333.4 176.33 338.9 166.73 336.2Z" fill="white"/>
<path id="XMLID 17" d="M166.73 336.2L109.03 319.7C99.43 317 93.93 307 96.73 297.4L171.73 35.9001C174.43 26.3001 184.43 20.8001 194.03 23.6001L251.73 40.1001C261.33 42.8001 266.83 52.8001 264.03 62.4001L189.03 323.9C186.23 333.4 176.33 338.9 166.73 336.2Z" stroke="#330E00" stroke-width="8" stroke-miterlimit="10" stroke-linecap="round" stroke-linejoin="round"/>
<path id="XMLID 15" d="M250.73 108.5L158.43 82.0001L171.63 35.9001C174.33 26.3001 184.33 20.8001 193.93 23.6001L251.63 40.1001C261.23 42.8001 266.73 52.8001 263.93 62.4001L250.73 108.5Z" fill="#B53B4D"/>
<path id="XMLID 16" d="M214.33 235.4L122.03 208.9L171.63 35.9001C174.33 26.3001 184.33 20.8001 193.93 23.6001L251.63 40.1001C261.23 42.8001 266.73 52.8001 263.93 62.4001L214.33 235.4Z" stroke="#330E00" stroke-width="8" stroke-miterlimit="10" stroke-linecap="round" stroke-linejoin="round"/>
<path id="XMLID 64" d="M250.82 108.499L158.536 82.0413L140.346 145.487L232.631 171.945L250.82 108.499Z" fill="#AFAFAF"/>
<path id="XMLID 14" d="M250.82 108.499L158.536 82.0413L140.346 145.487L232.631 171.945L250.82 108.499Z" stroke="#330E00" stroke-width="8" stroke-miterlimit="10" stroke-linecap="round" stroke-linejoin="round"/>
<path id="XMLID 63" d="M232.607 171.998L140.322 145.54L122.132 208.986L214.417 235.443L232.607 171.998Z" fill="#8AB53B"/>
<path id="XMLID 13" d="M232.607 171.998L140.322 145.54L122.132 208.986L214.417 235.443L232.607 171.998Z" stroke="#330E00" stroke-width="8" stroke-miterlimit="10" stroke-linecap="round" stroke-linejoin="round"/>
<path id="XMLID 12" d="M120.53 307C124.948 307 128.53 303.418 128.53 299C128.53 294.582 124.948 291 120.53 291C116.112 291 112.53 294.582 112.53 299C112.53 303.418 116.112 307 120.53 307Z" stroke="#330E00" stroke-width="8" stroke-miterlimit="10" stroke-linecap="round" stroke-linejoin="round"/>
</g>
</g>
<g id="massage-fluke">
<path id="XMLID 108" opacity="0.3" d="M182.03 325H122.03C112.13 325 104.03 316.9 104.03 307V35C104.03 25.1 112.13 17 122.03 17H182.03C191.93 17 200.03 25.1 200.03 35V307C200.03 317 192.03 325 182.03 325Z" fill="#2D2D2D" stroke="#2D2D2D" stroke-width="8" stroke-miterlimit="10" stroke-linecap="round" stroke-linejoin="round"/>
<g id="XMLID 9">
<path id="XMLID 54" d="M174.03 321H114.03C104.13 321 96.03 312.9 96.03 303V31C96.03 21.1 104.13 13 114.03 13H174.03C183.93 13 192.03 21.1 192.03 31V303C192.03 313 184.03 321 174.03 321Z" fill="white"/>
<path id="XMLID 1" d="M174.03 321H114.03C104.13 321 96.03 312.9 96.03 303V31C96.03 21.1 104.13 13 114.03 13H174.03C183.93 13 192.03 21.1 192.03 31V303C192.03 313 184.03 321 174.03 321Z" stroke="#330E00" stroke-width="8" stroke-miterlimit="10" stroke-linecap="round" stroke-linejoin="round"/>
<path id="XMLID 4" d="M192.03 211H96.03V31C96.03 21.1 104.13 13 114.03 13H174.03C183.93 13 192.03 21.1 192.03 31V211Z" stroke="#330E00" stroke-width="8" stroke-miterlimit="10" stroke-linecap="round" stroke-linejoin="round"/>
<path id="XMLID 59" d="M192.03 79H96.03V31C96.03 21.1 104.13 13 114.03 13H174.03C183.93 13 192.03 21.1 192.03 31V79Z" fill="#2C786C"/>
<path id="XMLID 5" d="M192.03 79H96.03V31C96.03 21.1 104.13 13 114.03 13H174.03C183.93 13 192.03 21.1 192.03 31V79Z" stroke="#330E00" stroke-width="8" stroke-miterlimit="10" stroke-linecap="round" stroke-linejoin="round"/>
<path id="XMLID 58" d="M192.03 79H96.03V145H192.03V79Z" fill="#FF0000"/>
<path id="XMLID 7" d="M192.03 79H96.03V145H192.03V79Z" fill="#F75F00" stroke="#330E00" stroke-width="8" stroke-miterlimit="10" stroke-linecap="round" stroke-linejoin="round"/>
<path id="XMLID 56" d="M192.03 145H96.03V211H192.03V145Z" fill="white"/>
<path id="XMLID 8" d="M192.03 145H96.03V211H192.03V145Z" stroke="#330E00" stroke-width="8" stroke-miterlimit="10" stroke-linecap="round" stroke-linejoin="round"/>
<path id="XMLID 6" d="M119.43 306C123.848 306 127.43 302.418 127.43 298C127.43 293.582 123.848 290 119.43 290C115.012 290 111.43 293.582 111.43 298C111.43 302.418 115.012 306 119.43 306Z" stroke="#330E00" stroke-width="8" stroke-miterlimit="10" stroke-linecap="round" stroke-linejoin="round"/>
<g id="Group">
<path id="Vector" d="M110.23 227.6H108.53V230.5H107.73V223.7H110.23C112.23 223.7 113.03 224.5 113.03 225.7C113.03 226.8 112.23 227.6 110.23 227.6ZM110.23 227C111.63 227 112.23 226.5 112.23 225.6C112.23 224.7 111.63 224.2 110.23 224.2H108.53V227H110.23Z" fill="#330E00"/>
<path id="Vector_2" d="M119.53 228.9H115.73L115.03 230.5H114.13L117.23 223.8H118.23L121.33 230.5H120.43L119.53 228.9ZM117.63 224.7L115.93 228.4H119.23L117.63 224.7Z" fill="#330E00"/>
<path id="Vector_3" d="M129.03 223.7V230.5H128.23L123.53 224.8V230.5H122.73V223.7H123.53L128.23 229.4V223.7H129.03Z" fill="#330E00"/>
<path id="Vector_4" d="M130.53 223.7H136.03V224.3H133.73V230.5H132.93V224.3H130.53V223.7Z" fill="#330E00"/>
<path id="Vector_5" d="M141.33 230.6C138.93 230.6 137.13 229.2 137.13 227.1C137.13 225.1 138.93 223.6 141.33 223.6C143.73 223.6 145.53 225 145.53 227.1C145.53 229.2 143.73 230.6 141.33 230.6ZM141.33 230C143.23 230 144.63 228.9 144.63 227.1C144.63 225.3 143.23 224.2 141.33 224.2C139.43 224.2 138.03 225.3 138.03 227.1C138.03 228.9 139.53 230 141.33 230Z" fill="#330E00"/>
<path id="Vector_6" d="M153.63 223.7V230.5H152.83L148.13 224.8V230.5H147.33V223.7H148.13L152.83 229.4V223.7H153.63Z" fill="#330E00"/>
<path id="Vector_7" d="M160.13 224.3H156.53V226.8H159.73V227.4H156.53V230H160.13V230.6H155.73V223.8H160.13V224.3Z" fill="#330E00"/>
</g>
<g id="Group_2">
<path id="Vector_8" d="M162.33 223.6H163.93V223.8H163.33V225.8H162.93V223.8H162.33V223.6Z" fill="#330E00"/>
<path id="Vector_9" d="M164.33 223.6H164.63L165.43 225.4L166.23 223.6H166.53V225.8H166.23V224.1L165.43 225.8H165.23L164.43 224.1V225.8H164.13V223.6H164.33Z" fill="#330E00"/>
</g>
</g>
</g>
<g id="dgifolios">
<path id="XMLID 54_2" d="M184.638 301.582L128.257 322.103C118.954 325.489 108.572 320.648 105.186 311.345L12.1564 55.7485C8.77036 46.4455 13.6115 36.0636 22.9145 32.6776L79.296 12.1564C88.599 8.77041 98.9809 13.6116 102.367 22.9145L195.396 278.511C198.817 287.908 194.035 298.162 184.638 301.582Z" fill="white"/>
<path id="XMLID 1_2" d="M184.638 301.582L128.257 322.103C118.954 325.489 108.572 320.648 105.186 311.345L12.1564 55.7485C8.77036 46.4455 13.6115 36.0636 22.9145 32.6776L79.296 12.1564C88.599 8.77041 98.9809 13.6116 102.367 22.9145L195.396 278.511C198.817 287.908 194.035 298.162 184.638 301.582Z" stroke="#330E00" stroke-width="8" stroke-miterlimit="10" stroke-linecap="round" stroke-linejoin="round"/>
<path id="XMLID 4_2" d="M163.93 192.059L73.72 224.893L12.1564 55.7485C8.77036 46.4455 13.6115 36.0636 22.9145 32.6776L79.296 12.1564C88.599 8.77041 98.9809 13.6116 102.367 22.9145L163.93 192.059Z" stroke="#330E00" stroke-width="8" stroke-miterlimit="10" stroke-linecap="round" stroke-linejoin="round"/>
<path id="XMLID 59_2" d="M118.784 68.0198L28.5733 100.854L12.1564 55.7485C8.77036 46.4455 13.6115 36.0636 22.9145 32.6776L79.296 12.1564C88.599 8.77041 98.9809 13.6116 102.367 22.9145L118.784 68.0198Z" fill="#E0E0E0"/>
<path id="XMLID 5_2" d="M118.784 68.0198L28.5733 100.854L12.1564 55.7485C8.77036 46.4455 13.6115 36.0636 22.9145 32.6776L79.296 12.1564C88.599 8.77041 98.9809 13.6116 102.367 22.9145L118.784 68.0198Z" stroke="#330E00" stroke-width="8" stroke-miterlimit="10" stroke-linecap="round" stroke-linejoin="round"/>
<path id="XMLID 58_2" d="M118.784 68.0198L28.5733 100.854L51.1467 162.873L141.357 130.04L118.784 68.0198Z" fill="#FF0000"/>
<path id="XMLID 7_2" d="M118.784 68.0198L28.5733 100.854L51.1467 162.873L141.357 130.04L118.784 68.0198Z" fill="#61CDBB" stroke="#330E00" stroke-width="8" stroke-miterlimit="10" stroke-linecap="round" stroke-linejoin="round"/>
<path id="XMLID 56_2" d="M141.357 130.04L51.1467 162.874L73.72 224.893L163.93 192.059L141.357 130.04Z" fill="#100303"/>
<path id="XMLID 8_2" d="M141.357 130.04L51.1467 162.874L73.72 224.893L163.93 192.059L141.357 130.04Z" stroke="#330E00" stroke-width="8" stroke-miterlimit="10" stroke-linecap="round" stroke-linejoin="round"/>
<path id="XMLID 6_2" d="M128.201 306.161C132.353 304.65 134.493 300.059 132.982 295.907C131.471 291.755 126.88 289.615 122.728 291.126C118.577 292.637 116.436 297.228 117.947 301.379C119.458 305.531 124.049 307.672 128.201 306.161Z" stroke="#330E00" stroke-width="8" stroke-miterlimit="10" stroke-linecap="round" stroke-linejoin="round"/>
<g id="Group_3">
<path id="Vector_10" d="M92.7412 235.635L91.1437 236.217L92.1355 238.942L91.3838 239.216L89.0581 232.826L91.4073 231.971C93.2867 231.287 94.312 231.765 94.7225 232.892C95.0987 233.926 94.6206 234.951 92.7412 235.635ZM92.536 235.072C93.8515 234.593 94.2443 233.918 93.9365 233.072C93.6287 232.226 92.8939 231.962 91.5783 232.44L89.9808 233.022L90.9385 235.653L92.536 235.072Z" fill="#330E00"/>
<path id="Vector_11" d="M101.925 233.676L98.3541 234.976L98.2435 236.719L97.3978 237.027L98.0194 229.67L98.959 229.328L104.164 234.564L103.318 234.872L101.925 233.676ZM98.7031 230.379L98.3711 234.438L101.472 233.309L98.7031 230.379Z" fill="#330E00"/>
<path id="Vector_12" d="M109.074 225.541L111.399 231.93L110.647 232.204L104.281 228.455L106.231 233.812L105.479 234.085L103.153 227.695L103.905 227.422L110.271 231.17L108.322 225.814L109.074 225.541Z" fill="#330E00"/>
<path id="Vector_13" d="M110.483 225.028L115.651 223.146L115.857 223.71L113.695 224.497L115.816 230.323L115.064 230.597L112.944 224.771L110.688 225.591L110.483 225.028Z" fill="#330E00"/>
<path id="Vector_14" d="M122.992 227.818C120.736 228.638 118.566 227.939 117.848 225.965C117.164 224.086 118.342 222.061 120.598 221.24C122.853 220.419 125.023 221.119 125.741 223.092C126.46 225.066 125.247 226.997 122.992 227.818ZM122.786 227.254C124.572 226.604 125.511 225.091 124.896 223.4C124.28 221.709 122.588 221.154 120.803 221.804C119.017 222.453 118.078 223.966 118.694 225.657C119.309 227.349 121.095 227.869 122.786 227.254Z" fill="#330E00"/>
<path id="Vector_15" d="M132.19 217.127L134.516 223.517L133.764 223.791L127.398 220.042L129.347 225.398L128.596 225.672L126.27 219.282L127.022 219.008L133.388 222.757L131.438 217.401L132.19 217.127Z" fill="#330E00"/>
<path id="Vector_16" d="M138.503 215.468L135.12 216.699L135.975 219.048L138.982 217.954L139.188 218.517L136.181 219.612L137.07 222.055L140.453 220.824L140.658 221.388L136.523 222.893L134.198 216.503L138.332 214.998L138.503 215.468Z" fill="#330E00"/>
</g>
<g id="Group_4">
<path id="Vector_17" d="M140.331 214.057L141.835 213.51L141.903 213.698L141.339 213.903L142.023 215.783L141.647 215.92L140.963 214.04L140.4 214.245L140.331 214.057Z" fill="#330E00"/>
<path id="Vector_18" d="M142.211 213.373L142.492 213.271L143.86 214.688L143.996 212.723L144.278 212.621L145.03 214.688L144.748 214.791L144.167 213.193L143.997 215.064L143.809 215.133L142.475 213.809L143.057 215.406L142.775 215.509L142.023 213.442L142.211 213.373Z" fill="#330E00"/>
</g>
</g>
</g>
</svg>
