<svg width="1416" height="709" viewBox="0 0 1416 709" fill="none" xmlns="http://www.w3.org/2000/svg">
<g id="rocket">
<path id="cloud" stroke="black" d="M1416 708.328C1394.48 714.695 1387 550.572 1360 515C1333 479.428 1301.31 471.34 1282.2 471.34C1225.56 471.34 1207.15 517.465 1178.27 561.466C1163.26 554.392 1146.55 550.572 1128.85 550.572C1121.07 550.572 1113.56 551.279 1106.34 552.836C1106.34 552.128 1106.34 551.421 1106.34 550.572C1106.34 514.493 1080.85 484.357 1047.01 477.141C1033.99 432.574 992.927 399.891 944.078 399.891C903.442 399.891 868.044 422.528 849.92 455.777C837.319 444.034 820.47 436.677 801.921 436.677C791.302 436.677 781.249 439.082 772.187 443.185C638.384 561.466 719.232 418.85 710.878 399.891C690.206 353.201 710.878 290.381 710.878 235.768C710.878 230.816 711.02 226.006 711.162 221.054C713.569 157.81 681.569 168.783 711.162 117L678 97.5C707.592 149.283 685.675 157.951 688.082 221.195C688.224 226.006 688.365 230.816 688.365 235.627C708.471 189.22 688.365 289.391 688.365 235.627C675.198 265.904 686.124 464.408 665.876 490.017C648.744 468.794 563.482 436.677 534.173 436.677C504.722 436.677 478.528 450.259 461.396 471.482C447.661 463.417 431.803 458.748 414.671 458.748C387.202 458.748 362.424 470.916 345.574 490.017C320.655 453.089 278.46 428.754 230.603 428.754C154.144 428.754 92.1271 490.724 92.1271 567.126C92.1271 567.55 92.1271 567.975 92.1271 568.399C40.3049 594.715 3.91611 647.065 0.376343 708.328H334.53H1019.69H1416Z" fill="white"/>
<path id="cloud_2" stroke="black" d="M1169.8 597.9C1154.6 602.4 1238.3 555.4 1136 449.1C1124 444.8 1088.8 430.4 1075.3 430.4C1035.3 430.4 1022.3 463 1001.9 494.1C991.3 489.1 979.5 486.4 967 486.4C961.5 486.4 956.2 486.9 951.1 488C951.1 487.5 951.1 487 951.1 486.4C951.1 460.9 933.1 439.6 909.2 434.5C900 403 871 379.9 836.5 379.9C807.8 379.9 782.8 395.9 770 419.4C761.1 411.1 749.2 405.9 736.1 405.9C728.6 405.9 721.5 407.6 715.1 410.5C707.3 398.4 700.4 385.7 694.5 372.3C679.9 339.3 671.8 302.5 671.8 263.9C671.8 260.4 671.9 257 672 253.5C673.7 208.8 681.6 471.1 702.5 434.5L655.9 474.3C676.8 510.9 654 208.9 655.7 253.6L655.9 263.8C655.9 301.8 678.972 397.7 664.772 430.5C655.472 451.9 612.6 412.3 598.3 430.4C586.2 415.4 567.7 405.9 547 405.9C526.2 405.9 507.7 415.5 495.6 430.5C485.9 424.8 474.7 421.5 462.6 421.5C443.2 421.5 425.7 430.1 413.8 443.6C396.2 417.5 366.4 400.3 332.6 400.3C278.6 400.3 234.8 444.1 234.8 498.1C234.8 498.4 234.8 498.7 234.8 499C198.2 517.6 172.5 554.6 170 597.9H406H889.9H1169.8Z" fill="white"/>
<g id="rocket_2">
<g id="flame">
<path id="XMLID 29" d="M684.1 363.5C674.7 364.7 667.2 377.9 665.8 388.8C665.4 392 665.2 395.1 665.2 398.3C665.2 408.7 667.4 418.6 671.4 428.7C675.4 438.6 681.4 448.7 688.6 454.5C695.9 448.7 701.8 438.6 705.8 428.7C709.8 418.6 712 408.7 712 398.3C712 395.1 711.8 392 711.4 388.8C710 377.8 702.5 364.7 693.1 363.5C690.2 363.2 687.1 363.2 684.1 363.5Z" stroke="#601B23" stroke-width="6" stroke-miterlimit="10" stroke-linecap="round" stroke-linejoin="round"/>
<path id="XMLID 35" d="M684.1 363.5C674.7 364.7 667.2 377.9 665.8 388.8C665.4 392 665.2 395.1 665.2 398.3C665.2 408.7 667.4 418.6 671.4 428.7C675.4 438.6 681.4 448.7 688.6 454.5C695.9 448.7 701.8 438.6 705.8 428.7C709.8 418.6 712 408.7 712 398.3C712 395.1 711.8 392 711.4 388.8C710 377.8 702.5 364.7 693.1 363.5C690.2 363.2 687.1 363.2 684.1 363.5Z" fill="#E36535"/>
<path id="XMLID 178" d="M730.6 426.2C730.6 444.8 726.7 462.6 719.5 480.7C719.3 481.3 719 481.9 718.7 482.6C711.5 499.8 701.2 517 688.7 527.1C675.8 516.7 665.3 498.8 658 481.1C657.9 481 657.9 480.9 657.8 480.7C650.6 462.6 646.7 444.8 646.7 426.2C646.7 420.5 647.1 414.9 647.8 409.1C650.2 389.7 663.4 366.3 679.9 363.8C680.1 363.8 680.3 363.7 680.5 363.7C685.7 363.1 691 363.1 696.2 363.6C696.4 363.6 696.7 363.6 696.9 363.7C713.7 365.8 727.2 389.5 729.6 409.1C730.2 414.9 730.6 420.5 730.6 426.2Z" fill="#F4A045"/>
<path id="XMLID 177" d="M730.6 426.2C730.6 444.8 726.7 462.6 719.5 480.7C719.3 481.3 719 481.9 718.7 482.6C711.5 499.8 701.2 517 688.7 527.1C675.8 516.7 665.3 498.8 658 481.1C657.9 481 657.9 480.9 657.8 480.7C650.6 462.6 646.7 444.8 646.7 426.2C646.7 420.5 647.1 414.9 647.8 409.1C650.2 389.7 663.4 366.3 679.9 363.8C680.1 363.8 680.3 363.7 680.5 363.7C685.7 363.1 691 363.1 696.2 363.6C696.4 363.6 696.7 363.6 696.9 363.7C713.7 365.8 727.2 389.5 729.6 409.1C730.2 414.9 730.6 420.5 730.6 426.2Z" stroke="#601B23" stroke-width="6" stroke-miterlimit="10" stroke-linecap="round" stroke-linejoin="round"/>
</g>
<path id="XMLID 79" d="M568 210.8L535.4 223.5V161.6L635.5 83.5V200.6L611.3 213.3C598.4 206.5 582.7 205.1 568 210.8Z" fill="#C11A4D"/>
<path id="XMLID 19" d="M524.8 239.7C514.6 224.9 508.7 207.4 508.7 188.7C508.7 165 518 143.3 533.5 126.6C549 143.3 558.4 165 558.5 188.7C558.5 207.5 552.6 224.9 542.5 239.7H524.8Z" fill="#CF264D"/>
<path id="XMLID 83" opacity="0.72" d="M535.4 223.5L567.8 210.9C568.2 202.3 567.6 193.5 566 184.7C563.6 171.5 559.1 159.1 552.9 147.9L535.4 161.6V223.5V223.5Z" fill="#A5143A"/>
<path id="XMLID 63" opacity="0.23" d="M539.6 178.9L635.6 104.1V83.5L535.4 161.5V223.5L539.6 221.9V178.9Z" fill="#F4A15D"/>
<path id="XMLID 69" opacity="0.72" d="M595.7 208C601.2 208.9 606.4 210.7 611.3 213.3L635.5 200.6V83.5L593.3 116.4C591.2 129.1 590.2 142.4 590.2 156.1C590.3 174.2 592.2 191.7 595.7 208Z" fill="#A5143A"/>
<path id="XMLID 72" d="M568 210.8L535.4 223.5V161.6L635.5 83.5V200.6L611.3 213.3C598.4 206.5 582.7 205.1 568 210.8Z" stroke="#601B23" stroke-width="6" stroke-miterlimit="10" stroke-linecap="round" stroke-linejoin="round"/>
<path id="XMLID 34" d="M524.8 239.7C514.6 224.9 508.7 207.4 508.7 188.7C508.7 165 518 143.3 533.5 126.6C549 143.3 558.4 165 558.5 188.7C558.5 207.5 552.6 224.9 542.5 239.7H524.8Z" fill="#CF264D"/>
<path id="XMLID 37" opacity="0.23" d="M532 126.6C533.2 127.9 534.4 129.3 535.5 130.7C525.1 146.7 519.1 165.5 519 185.5C519 205.3 522 223.8 532.2 239.8H523C512.9 225 507 207.5 507 188.8C507.1 165 516.5 143.3 532 126.6Z" fill="#F4A15D"/>
<path id="XMLID 4" opacity="0.32" d="M532 126.6C532.4 127 532.8 127.5 533.2 128C521.5 145.3 514.8 165.6 514.7 187.4C514.7 206.3 519.8 224.1 528.7 239.8H523C512.9 225 507 207.5 507 188.8C507.1 165 516.5 143.3 532 126.6Z" fill="#F4A15D"/>
<path id="XMLID 9" opacity="0.37" d="M558.5 188.7C558.5 165 549.1 143.4 533.5 126.6C532.3 127.9 531.1 129.3 530 130.7C540.4 146.7 546.4 165.5 546.5 185.5C546.5 205.3 540.7 223.8 530.5 239.8H542.5C552.6 224.9 558.5 207.4 558.5 188.7Z" fill="#A5143A"/>
<path id="XMLID 45" opacity="0.72" d="M558.5 188.7C558.5 165 549.1 143.4 533.5 126.6C533.1 127 532.7 127.5 532.3 128C544 145.3 550.7 165.6 550.8 187.4C550.8 206.3 545.7 224.1 536.8 239.8H542.5C552.6 224.9 558.5 207.4 558.5 188.7Z" fill="#A5143A"/>
<path id="XMLID 10" opacity="0.37" d="M533.5 126.6C532.3 127.9 531.1 129.3 530 130.7C540.4 146.7 546.4 165.5 546.5 185.5C546.5 205.3 540.7 223.8 530.5 239.8H542.5C552.6 225 558.5 207.5 558.5 188.8C558.4 165 549 143.3 533.5 126.6Z" fill="#A5143A"/>
<path id="XMLID 16" opacity="0.72" d="M533.5 126.6C533.1 127 532.7 127.5 532.3 128C544 145.3 550.7 165.6 550.8 187.4C550.8 206.3 545.7 224.1 536.8 239.8H542.5C552.6 225 558.5 207.5 558.5 188.8C558.4 165 549 143.3 533.5 126.6Z" fill="#A5143A"/>
<path id="XMLID 95" d="M544.9 144.6C541.2 138.1 536.8 132.1 531.7 126.5C526.6 132 522.2 138.1 518.5 144.6H544.9Z" fill="#601B23"/>
<path id="XMLID 28" d="M524.8 239.7C514.6 224.9 508.7 207.4 508.7 188.7C508.7 165 518 143.3 533.5 126.6C549 143.3 558.4 165 558.5 188.7C558.5 207.5 552.6 224.9 542.5 239.7H524.8Z" stroke="#601B23" stroke-width="6" stroke-miterlimit="10" stroke-linecap="round" stroke-linejoin="round"/>
<path id="XMLID 31" d="M654.7 316.9C654.7 316.9 642.6 319.5 625.2 336.9C618.9 343.2 609 356 601.7 365.7C598.7 369.7 592.3 367.7 592.2 362.7L589.8 256.2C589.3 253.2 590.1 250.1 592 247.8L618.2 215.2L654.7 316.9Z" fill="#CF264D"/>
<path id="XMLID 24" opacity="0.32" d="M592 364.8C597.7 364 602 359.1 602.1 353.3L603.2 254.3C602.7 251.3 603.5 248.2 605.4 245.9L621.8 225.4L618.1 215.2L592 247.7C590.1 250.1 589.3 253.1 589.8 256.1L592 364.8Z" fill="#F4A15D"/>
<path id="XMLID 84" opacity="0.72" d="M654.7 316.9L618.2 215.2L603.7 233.3C611.5 263.3 623.8 293.8 640.4 324.2C649.2 318.1 654.7 316.9 654.7 316.9Z" fill="#A5143A"/>
<path id="XMLID 21" d="M654.7 316.9C654.7 316.9 642.6 319.5 625.2 336.9C618.9 343.2 609 356 601.7 365.7C598.7 369.7 592.3 367.7 592.2 362.7L589.8 256.2C589.3 253.2 590.1 250.1 592 247.8L618.2 215.2L654.7 316.9Z" stroke="#601B23" stroke-width="6" stroke-miterlimit="10" stroke-linecap="round" stroke-linejoin="round"/>
<path id="XMLID 32" d="M515.3 226.5H548.2" stroke="#601B23" stroke-width="4" stroke-miterlimit="10" stroke-linecap="round" stroke-linejoin="round"/>
<path id="XMLID 192" d="M524.8 239.7C514.6 224.9 508.7 207.4 508.7 188.7C508.7 165 518 143.3 533.5 126.6C549 143.3 558.4 165 558.5 188.7C558.5 207.5 552.6 224.9 542.5 239.7H524.8Z" fill="#CF264D"/>
<path id="XMLID 161" d="M524.8 239.7C514.6 224.9 508.7 207.4 508.7 188.7C508.7 165 518 143.3 533.5 126.6C549 143.3 558.4 165 558.5 188.7C558.5 207.5 552.6 224.9 542.5 239.7H524.8Z" fill="#CF264D"/>
<path id="XMLID 155" opacity="0.23" d="M532 126.6C533.2 127.9 534.4 129.3 535.5 130.7C525.1 146.7 519.1 165.5 519 185.5C519 205.3 522 223.8 532.2 239.8H523C512.9 225 507 207.5 507 188.8C507.1 165 516.5 143.3 532 126.6Z" fill="#F4A15D"/>
<path id="XMLID 147" opacity="0.32" d="M532 126.6C532.4 127 532.8 127.5 533.2 128C521.5 145.3 514.8 165.6 514.7 187.4C514.7 206.3 519.8 224.1 528.7 239.8H523C512.9 225 507 207.5 507 188.8C507.1 165 516.5 143.3 532 126.6Z" fill="#F4A15D"/>
<path id="XMLID 144" opacity="0.37" d="M558.5 188.7C558.5 165 549.1 143.4 533.5 126.6C532.3 127.9 531.1 129.3 530 130.7C540.4 146.7 546.4 165.5 546.5 185.5C546.5 205.3 540.7 223.8 530.5 239.8H542.5C552.6 224.9 558.5 207.4 558.5 188.7Z" fill="#A5143A"/>
<path id="XMLID 140" opacity="0.72" d="M558.5 188.7C558.5 165 549.1 143.4 533.5 126.6C533.1 127 532.7 127.5 532.3 128C544 145.3 550.7 165.6 550.8 187.4C550.8 206.3 545.7 224.1 536.8 239.8H542.5C552.6 224.9 558.5 207.4 558.5 188.7Z" fill="#A5143A"/>
<path id="XMLID 134" opacity="0.37" d="M533.5 126.6C532.3 127.9 531.1 129.3 530 130.7C540.4 146.7 546.4 165.5 546.5 185.5C546.5 205.3 540.7 223.8 530.5 239.8H542.5C552.6 225 558.5 207.5 558.5 188.8C558.4 165 549 143.3 533.5 126.6Z" fill="#A5143A"/>
<path id="XMLID 130" opacity="0.72" d="M533.5 126.6C533.1 127 532.7 127.5 532.3 128C544 145.3 550.7 165.6 550.8 187.4C550.8 206.3 545.7 224.1 536.8 239.8H542.5C552.6 225 558.5 207.5 558.5 188.8C558.4 165 549 143.3 533.5 126.6Z" fill="#A5143A"/>
<path id="XMLID 67" d="M546.7 144.6C543 138.1 538.6 132.1 533.5 126.5C528.4 132 524 138.1 520.3 144.6H546.7Z" fill="#601B23"/>
<path id="XMLID 39" d="M524.8 239.7C514.6 224.9 508.7 207.4 508.7 188.7C508.7 165 518 143.3 533.5 126.6C549 143.3 558.4 165 558.5 188.7C558.5 207.5 552.6 224.9 542.5 239.7H524.8Z" stroke="#601B23" stroke-width="6" stroke-miterlimit="10" stroke-linecap="round" stroke-linejoin="round"/>
<path id="XMLID 12" d="M515.3 226.5H548.2" stroke="#601B23" stroke-width="4" stroke-miterlimit="10" stroke-linecap="round" stroke-linejoin="round"/>
<path id="XMLID 196" d="M803.5 210.8L836.1 223.5V161.6L736 83.5V200.6L760.2 213.3C773.1 206.5 788.8 205.1 803.5 210.8Z" fill="#C11A4D"/>
<path id="XMLID 188" opacity="0.72" d="M836.1 223.5L803.7 210.9C803.3 202.3 803.9 193.5 805.5 184.7C807.9 171.5 812.4 159.1 818.6 147.9L836.1 161.6V223.5Z" fill="#A5143A"/>
<path id="XMLID 181" opacity="0.23" d="M832 178.9L736 104.1V83.5L836.1 161.5V223.5L832 221.9V178.9Z" fill="#F4A15D"/>
<path id="XMLID 175" opacity="0.72" d="M775.8 208C770.3 208.9 765.1 210.7 760.2 213.3L736 200.6V83.5L778.2 116.4C780.3 129.1 781.3 142.4 781.3 156.1C781.3 174.2 779.4 191.7 775.8 208Z" fill="#A5143A"/>
<path id="XMLID 166" d="M803.5 210.8L836.1 223.5V161.6L736 83.5V200.6L760.2 213.3C773.1 206.5 788.8 205.1 803.5 210.8Z" stroke="#601B23" stroke-width="6" stroke-miterlimit="10" stroke-linecap="round" stroke-linejoin="round"/>
<path id="XMLID 59" d="M716.9 316.9C716.9 316.9 729 319.5 746.4 336.9C752.7 343.2 762.6 356 769.9 365.7C772.9 369.7 779.3 367.7 779.4 362.7L781.8 256.2C782.3 253.2 781.5 250.1 779.6 247.8L753.4 215.2L716.9 316.9Z" fill="#CF264D"/>
<path id="XMLID 48" opacity="0.72" d="M779.5 364.8C773.8 364 769.5 359.1 769.4 353.3L768.3 254.3C768.8 251.3 768 248.2 766.1 245.9L749.7 225.4L753.4 215.2L779.6 247.8C781.5 250.2 782.3 253.2 781.8 256.2L779.5 364.8Z" fill="#A5143A"/>
<path id="XMLID 47" opacity="0.72" d="M716.9 316.9L753.4 215.2L767.9 233.3C760.1 263.3 747.8 293.8 731.2 324.2C722.4 318.1 716.9 316.9 716.9 316.9Z" fill="#A5143A"/>
<path id="XMLID 33" d="M716.9 316.9C716.9 316.9 729 319.5 746.4 336.9C752.7 343.2 762.6 356 769.9 365.7C772.9 369.7 779.3 367.7 779.4 362.7L781.8 256.2C782.3 253.2 781.5 250.1 779.6 247.8L753.4 215.2L716.9 316.9Z" stroke="#601B23" stroke-width="6" stroke-miterlimit="10" stroke-linecap="round" stroke-linejoin="round"/>
<path id="XMLID 22" d="M716.4 374.1C717.5 362.2 715.9 351 695.9 321.5C692.6 316.8 684.7 316.8 681.4 321.5C661.4 351.1 659.8 362.3 660.9 374.1C661.1 375.6 663.8 377.3 665.5 376.7C677 370.8 700.3 370.8 711.8 376.7C713.5 377.3 716.2 375.7 716.4 374.1Z" fill="#4E8280"/>
<g id="XMLID 107" opacity="0.32">
<g id="XMLID 222" opacity="0.32">
<g id="XMLID 225" opacity="0.32">
<path id="XMLID 226" opacity="0.32" d="M671 374.1C669.9 362.2 671.5 351 691.5 321.5C692.1 320.6 692.9 319.9 693.7 319.4C689.9 316.9 684.1 317.6 681.4 321.5C661.4 351.1 659.8 362.3 660.9 374.1C661.1 375.6 663.8 377.3 665.5 376.7C667.2 375.9 669.1 375.1 671.1 374.5C671.1 374.4 671 374.3 671 374.1Z" fill="#F4A15D"/>
</g>
<g id="XMLID 223" opacity="0.32">
<path id="XMLID 224" opacity="0.32" d="M693.7 372.5C700.6 373 707.1 374.4 711.8 376.7C713.3 377.3 715.7 375.9 716.3 374.5C709.7 372.6 701.5 371.9 693.7 372.5Z" fill="#F4A15D"/>
</g>
</g>
</g>
<g id="XMLID 46">
<g id="XMLID 168">
<g id="XMLID 169">
<path id="XMLID 170" d="M684.9 321.5C684.6 321.1 684.3 320.8 684 320.5C687.7 316.8 694.6 317.2 697.6 321.5C717.6 351.1 719.2 362.3 718.1 374.1C717.9 375.6 715.2 377.3 713.5 376.7C711.2 375.5 708.4 374.6 705.4 373.9C706.5 362.1 704.8 350.9 684.9 321.5Z" fill="#37605D"/>
</g>
</g>
</g>
<path id="XMLID 17" d="M716.4 374.1C717.5 362.2 715.9 351 695.9 321.5C692.6 316.8 684.7 316.8 681.4 321.5C661.4 351.1 659.8 362.3 660.9 374.1C661.1 375.6 663.8 377.3 665.5 376.7C677 370.8 700.3 370.8 711.8 376.7C713.5 377.3 716.2 375.7 716.4 374.1Z" stroke="#601B23" stroke-width="6" stroke-miterlimit="10" stroke-linecap="round" stroke-linejoin="round"/>
<path id="XMLID 15" d="M711.2 338.2C758.3 261.1 775.4 185.4 764.8 122.3C755.6 67.4998 726 27.9998 688.6 3.2998C651.2 27.9998 621.6 67.4998 612.4 122.3C601.8 185.4 619 261.1 666 338.2H711.2Z" fill="#CF264D"/>
<path id="XMLID 20" opacity="0.23" d="M648.2 123.4C654.2 73.7999 669.8 34.3999 690.8 4.8999C690.1 4.3999 689.3 3.8999 688.6 3.3999C651.2 28.0999 621.6 67.5999 612.4 122.4C601.8 185.5 619 261.2 666 338.3H675.5C649.4 261.2 640.6 187.1 648.2 123.4Z" fill="#F4A15D"/>
<path id="XMLID 54" opacity="0.37" d="M764.8 122.3C755.7 67.8999 726.5 28.5999 689.4 3.8999C696.3 14.9999 705.1 30.9999 712.5 51.2999C726 88.1999 727.5 118.6 728.3 137.7C731.9 223.6 699 318.6 692.1 338.3H711.2C758.3 261.1 775.4 185.4 764.8 122.3Z" fill="#A5143A"/>
<path id="XMLID 5" opacity="0.72" d="M764.8 122.3C755.6 67.4998 726 27.9998 688.6 3.2998C687.6 3.8998 686.7 4.59983 685.7 5.19983C699.9 16.2998 710.7 28.1998 718.9 39.5998C792.5 142 721.9 295.3 712.2 315.6C711.8 301.8 710 284.7 704.9 265.6C701.6 253.4 697.6 242.7 693.6 233.6C692.1 267.5 690.6 301.4 689.1 335.3H701.5C701.2 336.3 700.9 337.2 700.5 338.2H711C758.3 261.1 775.4 185.4 764.8 122.3Z" fill="#A5143A"/>
<path id="XMLID 6" opacity="0.32" d="M625 139.7C626.4 123.7 631.6 71.6998 663.7 28.9998C668.8 22.2998 676.4 13.1999 675.8 12.6999C674.9 11.8999 657.3 27.7999 644.8 44.6999C629.1 65.7999 617.6 91.6998 612.5 122.3C601.9 185.4 619.1 261.1 666.1 338.2H670.2C657.3 312.5 648.8 289.3 643 271C639.2 258.7 632.5 236.9 628.3 207.7C625.6 188.1 622.6 167.1 625 139.7Z" fill="#F4A15D"/>
<path id="XMLID 13" opacity="0.72" d="M694 160.3C709.022 160.3 721.2 148.122 721.2 133.1C721.2 118.078 709.022 105.9 694 105.9C678.978 105.9 666.8 118.078 666.8 133.1C666.8 148.122 678.978 160.3 694 160.3Z" fill="#A5143A" stroke="#A5143A" stroke-width="6" stroke-miterlimit="10" stroke-linecap="round" stroke-linejoin="round"/>
<path id="XMLID 11" d="M711.2 338.2C758.3 261.1 775.4 185.4 764.8 122.3C755.6 67.4998 726 27.9998 688.6 3.2998C651.2 27.9998 621.6 67.4998 612.4 122.3C601.8 185.4 619 261.1 666 338.2H711.2Z" stroke="#601B23" stroke-width="6" stroke-miterlimit="10" stroke-linecap="round" stroke-linejoin="round"/>
<path id="XMLID 25" d="M688.6 156.1C703.622 156.1 715.8 143.922 715.8 128.9C715.8 113.878 703.622 101.7 688.6 101.7C673.578 101.7 661.4 113.878 661.4 128.9C661.4 143.922 673.578 156.1 688.6 156.1Z" fill="#ABCFD8"/>
<path id="XMLID 26" opacity="0.93" d="M684.9 143.8C693.957 143.8 701.3 136.457 701.3 127.4C701.3 118.343 693.957 111 684.9 111C675.843 111 668.5 118.343 668.5 127.4C668.5 136.457 675.843 143.8 684.9 143.8Z" fill="#E2F0F2"/>
<path id="XMLID 1" d="M688.6 156.1C703.622 156.1 715.8 143.922 715.8 128.9C715.8 113.878 703.622 101.7 688.6 101.7C673.578 101.7 661.4 113.878 661.4 128.9C661.4 143.922 673.578 156.1 688.6 156.1Z" stroke="#601B23" stroke-width="6" stroke-miterlimit="10" stroke-linecap="round" stroke-linejoin="round"/>
<path id="XMLID 44" d="M650.2 37.7998C675.1 29.1998 702.4 29.1998 727.3 37.8998C716 24.1998 702.9 12.6998 688.7 3.2998C674.5 12.6998 661.4 24.1998 650.2 37.7998Z" fill="#601B23"/>
<path id="XMLID 23" d="M650.2 37.7998C675.1 29.1998 702.4 29.1998 727.3 37.8998C716 24.1998 702.9 12.6998 688.7 3.2998C674.5 12.6998 661.4 24.1998 650.2 37.7998Z" stroke="#601B23" stroke-width="6" stroke-miterlimit="10" stroke-linecap="round" stroke-linejoin="round"/>
<path id="XMLID 18" d="M688.6 385C689.7 385 690.6 383.8 690.7 382.2L698.2 259.8C699 247.2 695 235.5 689.1 232.7C688.7 232.5 688.3 232.5 688 232.7C682.1 235.4 678.1 247.1 678.9 259.8L686.4 382.2C686.6 383.8 687.6 385 688.6 385Z" fill="#BC1D4E"/>
<path id="XMLID 2" opacity="0.74" d="M688.6 385C689.7 385 690.6 383.8 690.7 382.2L698.2 259.8C699 247.2 695 235.5 689.1 232.7C688.7 232.5 688.3 232.5 688 232.7C682.1 235.4 678.1 247.1 678.9 259.8L686.4 382.2C686.6 383.8 687.6 385 688.6 385Z" fill="#A5143A"/>
<g id="XMLID 8" opacity="0.53">
<g id="XMLID 199" opacity="0.53">
<g id="XMLID 202" opacity="0.53">
<path id="XMLID 203" opacity="0.53" d="M688.1 232.7C682.2 235.4 678.2 247.1 679 259.8L686.5 382.2C686.6 383.5 687.2 384.6 688 384.9V232.7H688.1Z" fill="#F4A15D"/>
</g>
<g id="XMLID 200" opacity="0.53">
<path id="XMLID 201" opacity="0.53" d="M688.1 232.7H689.2C688.8 232.5 688.4 232.5 688.1 232.7Z" fill="#F4A15D"/>
</g>
</g>
</g>
<path id="XMLID 27" d="M688.6 385C689.7 385 690.6 383.8 690.7 382.2L698.2 259.8C699 247.2 695 235.5 689.1 232.7C688.7 232.5 688.3 232.5 688 232.7C682.1 235.4 678.1 247.1 678.9 259.8L686.4 382.2C686.6 383.8 687.6 385 688.6 385Z" stroke="#601B23" stroke-width="6" stroke-miterlimit="10" stroke-linecap="round" stroke-linejoin="round"/>
<path id="XMLID 255" d="M835.4 239.7C825.2 224.9 819.3 207.4 819.3 188.7C819.3 165 828.6 143.3 844.1 126.6C859.6 143.3 869 165 869.1 188.7C869.1 207.5 863.2 224.9 853.1 239.7H835.4Z" fill="#CF264D"/>
<path id="XMLID 249" d="M835.4 239.7C825.2 224.9 819.3 207.4 819.3 188.7C819.3 165 828.6 143.3 844.1 126.6C859.6 143.3 869 165 869.1 188.7C869.1 207.5 863.2 224.9 853.1 239.7H835.4Z" fill="#CF264D"/>
<path id="XMLID 245" opacity="0.23" d="M842.7 126.6C843.9 127.9 845.1 129.3 846.2 130.7C835.8 146.7 829.8 165.5 829.7 185.5C829.7 205.3 832.7 223.8 842.9 239.8H833.7C823.6 225 817.7 207.5 817.7 188.8C817.7 165 827.1 143.3 842.7 126.6Z" fill="#F4A15D"/>
<path id="XMLID 242" opacity="0.32" d="M842.7 126.6C843.1 127 843.5 127.5 843.9 128C832.2 145.3 825.5 165.6 825.4 187.4C825.4 206.3 830.5 224.1 839.4 239.8H833.7C823.6 225 817.7 207.5 817.7 188.8C817.7 165 827.1 143.3 842.7 126.6Z" fill="#F4A15D"/>
<path id="XMLID 239" opacity="0.37" d="M869.1 188.7C869.1 165 859.7 143.4 844.1 126.6C842.9 127.9 841.7 129.3 840.6 130.7C851 146.7 857 165.5 857.1 185.5C857.1 205.3 851.3 223.8 841.1 239.8H853.1C863.2 224.9 869.1 207.4 869.1 188.7Z" fill="#A5143A"/>
<path id="XMLID 236" opacity="0.72" d="M869.1 188.7C869.1 165 859.7 143.4 844.1 126.6C843.7 127 843.3 127.5 842.9 128C854.6 145.3 861.3 165.6 861.4 187.4C861.4 206.3 856.3 224.1 847.4 239.8H853.1C863.2 224.9 869.1 207.4 869.1 188.7Z" fill="#A5143A"/>
<path id="XMLID 233" opacity="0.37" d="M844.1 126.6C842.9 127.9 841.7 129.3 840.6 130.7C851 146.7 857 165.5 857.1 185.5C857.1 205.3 851.3 223.8 841.1 239.8H853.1C863.2 225 869.1 207.5 869.1 188.8C869.1 165 859.7 143.3 844.1 126.6Z" fill="#A5143A"/>
<path id="XMLID 230" opacity="0.72" d="M844.1 126.6C843.7 127 843.3 127.5 842.9 128C854.6 145.3 861.3 165.6 861.4 187.4C861.4 206.3 856.3 224.1 847.4 239.8H853.1C863.2 225 869.1 207.5 869.1 188.8C869.1 165 859.7 143.3 844.1 126.6Z" fill="#A5143A"/>
<path id="XMLID 227" d="M857.4 144.6C853.7 138.1 849.3 132.1 844.2 126.5C839.1 132 834.7 138.1 831 144.6H857.4Z" fill="#601B23"/>
<path id="XMLID 219" d="M835.4 239.7C825.2 224.9 819.3 207.4 819.3 188.7C819.3 165 828.6 143.3 844.1 126.6C859.6 143.3 869 165 869.1 188.7C869.1 207.5 863.2 224.9 853.1 239.7H835.4Z" stroke="#601B23" stroke-width="6" stroke-miterlimit="10" stroke-linecap="round" stroke-linejoin="round"/>
<path id="XMLID 210" d="M827.8 226.5H860.7" stroke="#601B23" stroke-width="4" stroke-miterlimit="10" stroke-linecap="round" stroke-linejoin="round"/>
<path id="XMLID 228" opacity="0.41" d="M657.8 34.4002C657.8 34.4002 664.6 23.7002 687.7 5.7002C677 20.2002 674.9 29.3002 674.2 30.0002C667.4 31.3002 657.8 34.4002 657.8 34.4002Z" fill="white"/>
</g>
</g>
</svg>
