<svg width="1418" height="446" viewBox="0 0 1418 446" fill="none" xmlns="http://www.w3.org/2000/svg">
<g id="small-rocket">
<path id="cloud" d="M1415.62 444.157C1426 460 1388.5 279 1370.5 242.623C1352.5 206.247 1341.14 178.031 1284.5 178.031C1227.86 178.031 1206.78 196.779 1177.89 253.81C1162.88 244.641 1146.18 239.689 1128.48 239.689C1120.69 239.689 1113.19 240.606 1105.96 242.623C1105.96 241.706 1105.96 240.79 1105.96 239.689C1105.96 192.928 1080.48 153.868 1046.64 144.516C1033.61 86.7512 992.551 44.3906 943.702 44.3906C903.065 44.3906 867.668 73.7313 849.544 116.825C836.943 101.605 820.093 92.0692 801.545 92.0692C790.926 92.0692 780.873 95.1866 771.811 100.505C638.008 253.809 705.854 231.118 697.5 206.545C676.828 146.03 673.615 248.815 673.615 178.031C651.103 509.813 687.848 184.449 687.989 178.031C673.615 178.031 658.397 256.813 687.989 189.696H680.792C710.384 256.813 671.208 96.0606 673.615 178.031C640.067 554.944 675.455 196.003 675.455 202.238C695.561 142.09 675.455 271.922 675.455 202.238C662.287 241.481 685.747 128.011 665.5 161.203C648.368 133.696 563.106 92.0692 533.797 92.0692C504.346 92.0692 478.152 109.674 461.019 137.18C447.285 126.728 431.427 120.676 414.294 120.676C386.826 120.676 362.047 136.447 345.198 161.203C320.278 113.341 278.084 81.8 230.226 81.8C153.768 81.8 91.7508 162.12 91.7508 261.145C91.7508 261.695 91.7508 262.245 91.7508 262.795C39.9286 296.903 3.53977 364.754 0 444.157H334.154H1019.31H1415.62Z" fill="#F9F9F9"/>
<g id="rocket">
<g id="flame">
<path id="XMLID 29" d="M691.364 152.213C687.47 152.71 684.363 158.178 683.783 162.694C683.617 164.019 683.534 165.303 683.534 166.629C683.534 170.937 684.446 175.038 686.103 179.222C687.76 183.323 690.245 187.507 693.228 189.91C696.252 187.507 698.696 183.323 700.353 179.222C702.01 175.038 702.921 170.937 702.921 166.629C702.921 165.303 702.838 164.019 702.673 162.694C702.093 158.137 698.986 152.71 695.092 152.213C693.891 152.089 692.606 152.089 691.364 152.213Z" stroke="#601B23" stroke-width="6" stroke-miterlimit="10" stroke-linecap="round" stroke-linejoin="round"/>
<path id="XMLID 35" d="M691.364 152.213C687.47 152.71 684.363 158.178 683.783 162.694C683.617 164.019 683.534 165.303 683.534 166.629C683.534 170.937 684.446 175.038 686.103 179.222C687.76 183.323 690.245 187.507 693.228 189.91C696.252 187.507 698.696 183.323 700.353 179.222C702.01 175.038 702.921 170.937 702.921 166.629C702.921 165.303 702.838 164.019 702.673 162.694C702.093 158.137 698.986 152.71 695.092 152.213C693.891 152.089 692.606 152.089 691.364 152.213Z" fill="#E36535"/>
<path id="XMLID 178" d="M710.626 178.186C710.626 185.892 709.011 193.265 706.028 200.763C705.945 201.012 705.821 201.26 705.697 201.55C702.714 208.675 698.447 215.8 693.269 219.984C687.925 215.676 683.576 208.261 680.552 200.929C680.51 200.887 680.51 200.846 680.469 200.763C677.486 193.265 675.871 185.892 675.871 178.186C675.871 175.825 676.036 173.505 676.326 171.103C677.32 163.066 682.789 153.373 689.624 152.337C689.707 152.337 689.789 152.296 689.872 152.296C692.026 152.047 694.222 152.047 696.376 152.254C696.459 152.254 696.583 152.254 696.666 152.296C703.625 153.166 709.218 162.983 710.212 171.103C710.46 173.505 710.626 175.825 710.626 178.186Z" fill="#F4A045"/>
<path id="XMLID 177" d="M710.626 178.186C710.626 185.892 709.011 193.265 706.028 200.763C705.945 201.012 705.821 201.26 705.697 201.55C702.714 208.675 698.447 215.8 693.269 219.984C687.925 215.676 683.576 208.261 680.552 200.929C680.51 200.887 680.51 200.846 680.469 200.763C677.486 193.265 675.871 185.892 675.871 178.186C675.871 175.825 676.036 173.505 676.326 171.103C677.32 163.066 682.789 153.373 689.624 152.337C689.707 152.337 689.789 152.296 689.872 152.296C692.026 152.047 694.222 152.047 696.376 152.254C696.459 152.254 696.583 152.254 696.666 152.296C703.625 153.166 709.218 162.983 710.212 171.103C710.46 173.505 710.626 175.825 710.626 178.186Z" stroke="#601B23" stroke-width="6" stroke-miterlimit="10" stroke-linecap="round" stroke-linejoin="round"/>
</g>
<path id="XMLID 79" d="M643.269 88.9569L629.765 94.2179V68.5758L671.231 36.2229V84.7316L661.206 89.9926C655.862 87.1757 649.359 86.5957 643.269 88.9569Z" fill="#C11A4D"/>
<path id="XMLID 19" d="M625.374 100.929C621.148 94.7979 618.704 87.5486 618.704 79.8021C618.704 69.9844 622.557 60.9951 628.978 54.0771C635.398 60.9951 639.292 69.9844 639.334 79.8021C639.334 87.59 636.89 94.7979 632.706 100.929H625.374Z" fill="#CF264D"/>
<path id="XMLID 83" opacity="0.72" d="M629.765 94.2179L643.186 88.9984C643.352 85.4358 643.104 81.7904 642.441 78.145C641.447 72.6769 639.582 67.5402 637.014 62.9006L629.765 68.5759V94.2179V94.2179Z" fill="#A5143A"/>
<path id="XMLID 63" opacity="0.23" d="M631.505 75.7424L671.273 44.7565V36.2229L629.765 68.5344V94.2179L631.505 93.5551V75.7424Z" fill="#F4A15D"/>
<path id="XMLID 69" opacity="0.72" d="M654.744 87.797C657.022 88.1699 659.176 88.9155 661.206 89.9926L671.231 84.7316V36.2229L653.75 49.8517C652.88 55.1127 652.466 60.6222 652.466 66.2975C652.507 73.7954 653.294 81.0448 654.744 87.797Z" fill="#A5143A"/>
<path id="XMLID 72" d="M643.269 88.9569L629.765 94.2179V68.5758L671.231 36.2229V84.7316L661.206 89.9926C655.862 87.1757 649.359 86.5957 643.269 88.9569Z" stroke="#601B23" stroke-width="6" stroke-miterlimit="10" stroke-linecap="round" stroke-linejoin="round"/>
<path id="XMLID 34" d="M625.374 100.929C621.148 94.7979 618.704 87.5486 618.704 79.8021C618.704 69.9844 622.557 60.9951 628.978 54.0771C635.398 60.9951 639.292 69.9844 639.334 79.8021C639.334 87.59 636.89 94.7979 632.706 100.929H625.374Z" fill="#CF264D"/>
<path id="XMLID 37" opacity="0.23" d="M628.356 54.0771C628.853 54.6157 629.35 55.1956 629.806 55.7756C625.498 62.4036 623.012 70.1915 622.971 78.4765C622.971 86.6786 624.214 94.3423 628.439 100.97H624.628C620.444 94.8394 618 87.59 618 79.8435C618.041 69.9843 621.935 60.9951 628.356 54.0771Z" fill="#F4A15D"/>
<path id="XMLID 4" opacity="0.32" d="M628.356 54.0771C628.522 54.2428 628.688 54.45 628.853 54.6571C624.007 61.8236 621.231 70.2329 621.19 79.2636C621.19 87.0929 623.302 94.4665 626.989 100.97H624.628C620.444 94.8394 618 87.59 618 79.8435C618.041 69.9843 621.935 60.9951 628.356 54.0771Z" fill="#F4A15D"/>
<path id="XMLID 9" opacity="0.37" d="M639.334 79.8021C639.334 69.9844 635.44 61.0366 628.978 54.0771C628.481 54.6157 627.984 55.1956 627.528 55.7756C631.836 62.4036 634.322 70.1915 634.363 78.4765C634.363 86.6786 631.96 94.3423 627.735 100.97H632.706C636.89 94.7979 639.334 87.5486 639.334 79.8021Z" fill="#A5143A"/>
<path id="XMLID 45" opacity="0.72" d="M639.334 79.8021C639.334 69.9844 635.44 61.0366 628.978 54.0771C628.812 54.2428 628.646 54.45 628.48 54.6571C633.327 61.8236 636.103 70.2329 636.144 79.2636C636.144 87.0929 634.031 94.4665 630.345 100.97H632.706C636.89 94.7979 639.334 87.5486 639.334 79.8021Z" fill="#A5143A"/>
<path id="XMLID 10" opacity="0.37" d="M628.978 54.0771C628.481 54.6157 627.984 55.1956 627.528 55.7756C631.836 62.4036 634.322 70.1915 634.363 78.4765C634.363 86.6786 631.96 94.3423 627.735 100.97H632.706C636.89 94.8394 639.334 87.59 639.334 79.8435C639.293 69.9843 635.399 60.9951 628.978 54.0771Z" fill="#A5143A"/>
<path id="XMLID 16" opacity="0.72" d="M628.978 54.0771C628.812 54.2428 628.646 54.45 628.48 54.6571C633.327 61.8236 636.103 70.2329 636.144 79.2636C636.144 87.0929 634.031 94.4665 630.345 100.97H632.706C636.89 94.8394 639.334 87.59 639.334 79.8435C639.292 69.9843 635.398 60.9951 628.978 54.0771Z" fill="#A5143A"/>
<path id="XMLID 95" d="M633.7 61.5336C632.167 58.8409 630.345 56.3554 628.232 54.0356C626.119 56.314 624.297 58.8409 622.764 61.5336H633.7Z" fill="#601B23"/>
<path id="XMLID 28" d="M625.374 100.929C621.148 94.7979 618.704 87.5486 618.704 79.8021C618.704 69.9844 622.557 60.9951 628.978 54.0771C635.398 60.9951 639.292 69.9844 639.334 79.8021C639.334 87.59 636.89 94.7979 632.706 100.929H625.374Z" stroke="#601B23" stroke-width="6" stroke-miterlimit="10" stroke-linecap="round" stroke-linejoin="round"/>
<path id="XMLID 31" d="M679.185 132.909C679.185 132.909 674.172 133.986 666.964 141.194C664.355 143.804 660.253 149.106 657.229 153.124C655.987 154.781 653.335 153.953 653.294 151.882L652.3 107.764C652.093 106.521 652.424 105.237 653.211 104.284L664.065 90.7797L679.185 132.909Z" fill="#CF264D"/>
<path id="XMLID 24" opacity="0.32" d="M653.211 152.751C655.572 152.42 657.354 150.39 657.395 147.988L657.851 106.977C657.644 105.734 657.975 104.45 658.762 103.497L665.556 95.005L664.023 90.7797L653.211 104.243C652.424 105.237 652.093 106.48 652.3 107.722L653.211 152.751Z" fill="#F4A15D"/>
<path id="XMLID 84" opacity="0.72" d="M679.185 132.909L664.064 90.7797L658.058 98.2776C661.289 110.705 666.384 123.34 673.261 135.933C676.906 133.406 679.185 132.909 679.185 132.909Z" fill="#A5143A"/>
<path id="XMLID 21" d="M679.185 132.909C679.185 132.909 674.172 133.986 666.964 141.194C664.355 143.804 660.253 149.106 657.229 153.124C655.987 154.781 653.335 153.953 653.294 151.882L652.3 107.764C652.093 106.521 652.424 105.237 653.211 104.284L664.065 90.7797L679.185 132.909Z" stroke="#601B23" stroke-width="6" stroke-miterlimit="10" stroke-linecap="round" stroke-linejoin="round"/>
<path id="XMLID 32" d="M621.438 95.4607H635.067" stroke="#601B23" stroke-width="4" stroke-miterlimit="10" stroke-linecap="round" stroke-linejoin="round"/>
<path id="XMLID 192" d="M625.374 100.929C621.148 94.7979 618.704 87.5486 618.704 79.8021C618.704 69.9844 622.557 60.9951 628.978 54.0771C635.398 60.9951 639.292 69.9844 639.334 79.8021C639.334 87.59 636.89 94.7979 632.706 100.929H625.374Z" fill="#CF264D"/>
<path id="XMLID 161" d="M625.374 100.929C621.148 94.7979 618.704 87.5486 618.704 79.8021C618.704 69.9844 622.557 60.9951 628.978 54.0771C635.398 60.9951 639.292 69.9844 639.334 79.8021C639.334 87.59 636.89 94.7979 632.706 100.929H625.374Z" fill="#CF264D"/>
<path id="XMLID 155" opacity="0.23" d="M628.356 54.0771C628.853 54.6157 629.35 55.1956 629.806 55.7756C625.498 62.4036 623.012 70.1915 622.971 78.4765C622.971 86.6786 624.214 94.3423 628.439 100.97H624.628C620.444 94.8394 618 87.59 618 79.8435C618.041 69.9843 621.935 60.9951 628.356 54.0771Z" fill="#F4A15D"/>
<path id="XMLID 147" opacity="0.32" d="M628.356 54.0771C628.522 54.2428 628.688 54.45 628.853 54.6571C624.007 61.8236 621.231 70.2329 621.19 79.2636C621.19 87.0929 623.302 94.4665 626.989 100.97H624.628C620.444 94.8394 618 87.59 618 79.8435C618.041 69.9843 621.935 60.9951 628.356 54.0771Z" fill="#F4A15D"/>
<path id="XMLID 144" opacity="0.37" d="M639.334 79.8021C639.334 69.9844 635.44 61.0366 628.978 54.0771C628.481 54.6157 627.984 55.1956 627.528 55.7756C631.836 62.4036 634.322 70.1915 634.363 78.4765C634.363 86.6786 631.96 94.3423 627.735 100.97H632.706C636.89 94.7979 639.334 87.5486 639.334 79.8021Z" fill="#A5143A"/>
<path id="XMLID 140" opacity="0.72" d="M639.334 79.8021C639.334 69.9844 635.44 61.0366 628.978 54.0771C628.812 54.2428 628.646 54.45 628.48 54.6571C633.327 61.8236 636.103 70.2329 636.144 79.2636C636.144 87.0929 634.031 94.4665 630.345 100.97H632.706C636.89 94.7979 639.334 87.5486 639.334 79.8021Z" fill="#A5143A"/>
<path id="XMLID 134" opacity="0.37" d="M628.978 54.0771C628.481 54.6157 627.984 55.1956 627.528 55.7756C631.836 62.4036 634.322 70.1915 634.363 78.4765C634.363 86.6786 631.96 94.3423 627.735 100.97H632.706C636.89 94.8394 639.334 87.59 639.334 79.8435C639.293 69.9843 635.399 60.9951 628.978 54.0771Z" fill="#A5143A"/>
<path id="XMLID 130" opacity="0.72" d="M628.978 54.0771C628.812 54.2428 628.646 54.45 628.48 54.6571C633.327 61.8236 636.103 70.2329 636.144 79.2636C636.144 87.0929 634.031 94.4665 630.345 100.97H632.706C636.89 94.8394 639.334 87.59 639.334 79.8435C639.292 69.9843 635.398 60.9951 628.978 54.0771Z" fill="#A5143A"/>
<path id="XMLID 67" d="M634.446 61.5336C632.913 58.8409 631.09 56.3554 628.978 54.0356C626.865 56.314 625.042 58.8409 623.51 61.5336H634.446Z" fill="#601B23"/>
<path id="XMLID 39" d="M625.374 100.929C621.148 94.7979 618.704 87.5486 618.704 79.8021C618.704 69.9844 622.557 60.9951 628.978 54.0771C635.398 60.9951 639.292 69.9844 639.334 79.8021C639.334 87.59 636.89 94.7979 632.706 100.929H625.374Z" stroke="#601B23" stroke-width="6" stroke-miterlimit="10" stroke-linecap="round" stroke-linejoin="round"/>
<path id="XMLID 12" d="M621.438 95.4607H635.067" stroke="#601B23" stroke-width="4" stroke-miterlimit="10" stroke-linecap="round" stroke-linejoin="round"/>
<path id="XMLID 196" d="M740.825 88.9569L754.33 94.2179V68.5758L712.863 36.2229V84.7316L722.888 89.9926C728.232 87.1757 734.736 86.5957 740.825 88.9569Z" fill="#C11A4D"/>
<path id="XMLID 188" opacity="0.72" d="M754.33 94.2179L740.908 88.9984C740.742 85.4358 740.991 81.7904 741.654 78.145C742.648 72.6769 744.512 67.5402 747.08 62.9006L754.33 68.5759V94.2179Z" fill="#A5143A"/>
<path id="XMLID 181" opacity="0.23" d="M752.631 75.7424L712.863 44.7565V36.2229L754.33 68.5344V94.2179L752.631 93.5551V75.7424Z" fill="#F4A15D"/>
<path id="XMLID 175" opacity="0.72" d="M729.35 87.797C727.072 88.1699 724.918 88.9155 722.888 89.9926L712.863 84.7316V36.2229L730.345 49.8517C731.215 55.1127 731.629 60.6222 731.629 66.2975C731.629 73.7954 730.842 81.0448 729.35 87.797Z" fill="#A5143A"/>
<path id="XMLID 166" d="M740.825 88.9569L754.33 94.2179V68.5758L712.863 36.2229V84.7316L722.888 89.9926C728.232 87.1757 734.736 86.5957 740.825 88.9569Z" stroke="#601B23" stroke-width="6" stroke-miterlimit="10" stroke-linecap="round" stroke-linejoin="round"/>
<path id="XMLID 59" d="M704.951 132.909C704.951 132.909 709.964 133.986 717.172 141.194C719.781 143.804 723.882 149.106 726.906 153.124C728.149 154.781 730.8 153.953 730.842 151.882L731.836 107.764C732.043 106.521 731.712 105.237 730.925 104.284L720.071 90.7797L704.951 132.909Z" fill="#CF264D"/>
<path id="XMLID 48" opacity="0.72" d="M730.883 152.751C728.522 152.42 726.741 150.39 726.699 147.988L726.244 106.977C726.451 105.734 726.119 104.45 725.332 103.497L718.539 95.005L720.071 90.7797L730.925 104.284C731.712 105.278 732.043 106.521 731.836 107.764L730.883 152.751Z" fill="#A5143A"/>
<path id="XMLID 47" opacity="0.72" d="M704.951 132.909L720.071 90.7797L726.078 98.2776C722.847 110.705 717.751 123.34 710.875 135.933C707.23 133.406 704.951 132.909 704.951 132.909Z" fill="#A5143A"/>
<path id="XMLID 33" d="M704.951 132.909C704.951 132.909 709.964 133.986 717.172 141.194C719.781 143.804 723.882 149.106 726.906 153.124C728.149 154.781 730.8 153.953 730.842 151.882L731.836 107.764C732.043 106.521 731.712 105.237 730.925 104.284L720.071 90.7797L704.951 132.909Z" stroke="#601B23" stroke-width="6" stroke-miterlimit="10" stroke-linecap="round" stroke-linejoin="round"/>
<path id="XMLID 22" d="M704.744 156.604C705.2 151.674 704.537 147.035 696.252 134.814C694.885 132.868 691.612 132.868 690.245 134.814C681.96 147.076 681.297 151.716 681.753 156.604C681.836 157.225 682.954 157.93 683.659 157.681C688.423 155.237 698.075 155.237 702.838 157.681C703.543 157.93 704.661 157.267 704.744 156.604Z" fill="#4E8280"/>
<g id="XMLID 107" opacity="0.32">
<g id="XMLID 222" opacity="0.32">
<g id="XMLID 225" opacity="0.32">
<path id="XMLID 226" opacity="0.32" d="M685.937 156.604C685.481 151.674 686.144 147.035 694.429 134.814C694.678 134.442 695.009 134.152 695.341 133.944C693.766 132.909 691.364 133.199 690.245 134.814C681.96 147.076 681.297 151.716 681.753 156.604C681.836 157.225 682.954 157.93 683.659 157.681C684.363 157.35 685.15 157.018 685.978 156.77C685.978 156.728 685.937 156.687 685.937 156.604Z" fill="#F4A15D"/>
</g>
<g id="XMLID 223" opacity="0.32">
<path id="XMLID 224" opacity="0.32" d="M695.341 155.941C698.199 156.148 700.892 156.728 702.838 157.681C703.46 157.93 704.454 157.35 704.703 156.77C701.969 155.983 698.572 155.693 695.341 155.941Z" fill="#F4A15D"/>
</g>
</g>
</g>
<g id="XMLID 46">
<g id="XMLID 168">
<g id="XMLID 169">
<path id="XMLID 170" d="M691.695 134.814C691.571 134.649 691.447 134.525 691.322 134.4C692.855 132.868 695.713 133.033 696.956 134.814C705.241 147.076 705.904 151.716 705.448 156.604C705.365 157.225 704.247 157.93 703.543 157.681C702.59 157.184 701.43 156.811 700.187 156.521C700.643 151.633 699.939 146.993 691.695 134.814Z" fill="#37605D"/>
</g>
</g>
</g>
<path id="XMLID 17" d="M704.744 156.604C705.2 151.674 704.537 147.035 696.252 134.814C694.885 132.868 691.612 132.868 690.245 134.814C681.96 147.076 681.297 151.716 681.753 156.604C681.836 157.225 682.954 157.93 683.659 157.681C688.423 155.237 698.075 155.237 702.838 157.681C703.543 157.93 704.661 157.267 704.744 156.604Z" stroke="#601B23" stroke-width="6" stroke-miterlimit="10" stroke-linecap="round" stroke-linejoin="round"/>
<path id="XMLID 15" d="M702.59 141.732C722.101 109.794 729.185 78.435 724.794 52.2958C720.983 29.5949 708.721 13.232 693.228 3C677.735 13.232 665.473 29.5949 661.662 52.2958C657.271 78.435 664.396 109.794 683.866 141.732H702.59Z" fill="#CF264D"/>
<path id="XMLID 20" opacity="0.23" d="M676.492 52.7515C678.978 32.2047 685.44 15.8833 694.139 3.66288C693.849 3.45575 693.518 3.24863 693.228 3.0415C677.735 13.2735 665.473 29.6364 661.662 52.3373C657.271 78.4765 664.396 109.835 683.866 141.774H687.801C676.989 109.835 673.344 79.1393 676.492 52.7515Z" fill="#F4A15D"/>
<path id="XMLID 54" opacity="0.37" d="M724.794 52.2958C721.024 29.7605 708.928 13.4805 693.559 3.24854C696.417 7.84671 700.063 14.4747 703.128 22.884C708.721 38.1698 709.342 50.763 709.673 58.6752C711.165 94.2593 697.536 133.613 694.678 141.774H702.59C722.101 109.794 729.185 78.4349 724.794 52.2958Z" fill="#A5143A"/>
<path id="XMLID 5" opacity="0.72" d="M724.794 52.2958C720.982 29.5949 708.721 13.232 693.228 3C692.813 3.24855 692.441 3.53854 692.026 3.78709C697.909 8.38526 702.383 13.3148 705.779 18.0373C736.268 60.4565 707.022 123.961 703.004 132.37C702.838 126.654 702.093 119.57 699.98 111.658C698.613 106.604 696.956 102.171 695.299 98.4018C694.678 112.445 694.056 126.488 693.435 140.531H698.572C698.447 140.945 698.323 141.318 698.157 141.732H702.507C722.101 109.794 729.185 78.435 724.794 52.2958Z" fill="#A5143A"/>
<path id="XMLID 6" opacity="0.32" d="M666.882 59.5037C667.461 52.8757 669.616 31.3347 682.913 13.6462C685.026 10.8708 688.174 7.10108 687.925 6.89396C687.553 6.56256 680.262 13.1491 675.084 20.15C668.58 28.8906 663.816 39.6197 661.703 52.2958C657.312 78.435 664.437 109.794 683.907 141.732H685.606C680.262 131.086 676.741 121.476 674.338 113.895C672.764 108.799 669.988 99.7688 668.249 87.6727C667.13 79.5534 665.887 70.8542 666.882 59.5037Z" fill="#F4A15D"/>
<path id="XMLID 13" opacity="0.72" d="M695.465 68.0373C701.688 68.0373 706.732 62.9926 706.732 56.7697C706.732 50.5468 701.688 45.5021 695.465 45.5021C689.242 45.5021 684.197 50.5468 684.197 56.7697C684.197 62.9926 689.242 68.0373 695.465 68.0373Z" fill="#A5143A" stroke="#A5143A" stroke-width="6" stroke-miterlimit="10" stroke-linecap="round" stroke-linejoin="round"/>
<path id="XMLID 11" d="M702.59 141.732C722.101 109.794 729.185 78.435 724.794 52.2958C720.983 29.5949 708.721 13.232 693.228 3C677.735 13.232 665.473 29.5949 661.662 52.2958C657.271 78.435 664.396 109.794 683.866 141.732H702.59Z" stroke="#601B23" stroke-width="6" stroke-miterlimit="10" stroke-linecap="round" stroke-linejoin="round"/>
<path id="XMLID 25" d="M693.228 66.2975C699.451 66.2975 704.495 61.2529 704.495 55.0299C704.495 48.807 699.451 43.7623 693.228 43.7623C687.005 43.7623 681.96 48.807 681.96 55.0299C681.96 61.2529 687.005 66.2975 693.228 66.2975Z" fill="#ABCFD8"/>
<path id="XMLID 26" opacity="0.93" d="M691.695 61.2023C695.447 61.2023 698.489 58.1606 698.489 54.4086C698.489 50.6565 695.447 47.6149 691.695 47.6149C687.943 47.6149 684.901 50.6565 684.901 54.4086C684.901 58.1606 687.943 61.2023 691.695 61.2023Z" fill="#E2F0F2"/>
<path id="XMLID 1" d="M693.228 66.2975C699.451 66.2975 704.495 61.2529 704.495 55.0299C704.495 48.807 699.451 43.7623 693.228 43.7623C687.005 43.7623 681.96 48.807 681.96 55.0299C681.96 61.2529 687.005 66.2975 693.228 66.2975Z" stroke="#601B23" stroke-width="6" stroke-miterlimit="10" stroke-linecap="round" stroke-linejoin="round"/>
<path id="XMLID 44" d="M677.321 17.2916C687.635 13.7291 698.944 13.7291 709.259 17.3331C704.578 11.6578 699.152 6.89395 693.269 3C687.387 6.89395 681.96 11.6578 677.321 17.2916Z" fill="#601B23"/>
<path id="XMLID 23" d="M677.321 17.2916C687.635 13.7291 698.944 13.7291 709.259 17.3331C704.578 11.6578 699.152 6.89395 693.269 3C687.387 6.89395 681.96 11.6578 677.321 17.2916Z" stroke="#601B23" stroke-width="6" stroke-miterlimit="10" stroke-linecap="round" stroke-linejoin="round"/>
<path id="XMLID 18" d="M693.228 161.119C693.684 161.119 694.056 160.622 694.098 159.959L697.205 109.255C697.536 104.036 695.879 99.189 693.435 98.0291C693.269 97.9462 693.104 97.9462 692.979 98.0291C690.535 99.1475 688.878 103.994 689.21 109.255L692.317 159.959C692.399 160.622 692.814 161.119 693.228 161.119Z" fill="#BC1D4E"/>
<path id="XMLID 2" opacity="0.74" d="M693.228 161.119C693.684 161.119 694.056 160.622 694.098 159.959L697.205 109.255C697.536 104.036 695.879 99.189 693.435 98.0291C693.269 97.9462 693.104 97.9462 692.979 98.0291C690.535 99.1475 688.878 103.994 689.21 109.255L692.317 159.959C692.399 160.622 692.814 161.119 693.228 161.119Z" fill="#A5143A"/>
<g id="XMLID 8" opacity="0.53">
<g id="XMLID 199" opacity="0.53">
<g id="XMLID 202" opacity="0.53">
<path id="XMLID 203" opacity="0.53" d="M693.021 98.0291C690.577 99.1475 688.92 103.994 689.251 109.255L692.358 159.959C692.399 160.498 692.648 160.954 692.979 161.078V98.0291H693.021Z" fill="#F4A15D"/>
</g>
<g id="XMLID 200" opacity="0.53">
<path id="XMLID 201" opacity="0.53" d="M693.021 98.0289H693.476C693.311 97.9461 693.145 97.9461 693.021 98.0289Z" fill="#F4A15D"/>
</g>
</g>
</g>
<path id="XMLID 27" d="M693.228 161.119C693.684 161.119 694.056 160.622 694.098 159.959L697.205 109.255C697.536 104.036 695.879 99.189 693.435 98.0291C693.269 97.9462 693.104 97.9462 692.979 98.0291C690.535 99.1475 688.878 103.994 689.21 109.255L692.317 159.959C692.399 160.622 692.814 161.119 693.228 161.119Z" stroke="#601B23" stroke-width="6" stroke-miterlimit="10" stroke-linecap="round" stroke-linejoin="round"/>
<path id="XMLID 255" d="M754.04 100.929C749.814 94.7979 747.37 87.5486 747.37 79.8021C747.37 69.9844 751.223 60.9951 757.644 54.0771C764.065 60.9951 767.959 69.9844 768 79.8021C768 87.59 765.556 94.7979 761.372 100.929H754.04Z" fill="#CF264D"/>
<path id="XMLID 249" d="M754.04 100.929C749.814 94.7979 747.37 87.5486 747.37 79.8021C747.37 69.9844 751.223 60.9951 757.644 54.0771C764.065 60.9951 767.959 69.9844 768 79.8021C768 87.59 765.556 94.7979 761.372 100.929H754.04Z" fill="#CF264D"/>
<path id="XMLID 245" opacity="0.23" d="M757.064 54.0771C757.561 54.6157 758.058 55.1956 758.514 55.7756C754.205 62.4036 751.72 70.1915 751.679 78.4765C751.679 86.6786 752.921 94.3423 757.147 100.97H753.336C749.152 94.8394 746.708 87.59 746.708 79.8435C746.708 69.9843 750.601 60.9951 757.064 54.0771Z" fill="#F4A15D"/>
<path id="XMLID 242" opacity="0.32" d="M757.064 54.0771C757.229 54.2428 757.395 54.45 757.561 54.6571C752.714 61.8236 749.939 70.2329 749.897 79.2636C749.897 87.0929 752.01 94.4665 755.697 100.97H753.336C749.152 94.8394 746.708 87.59 746.708 79.8435C746.708 69.9843 750.601 60.9951 757.064 54.0771Z" fill="#F4A15D"/>
<path id="XMLID 239" opacity="0.37" d="M768 79.8021C768 69.9844 764.106 61.0366 757.644 54.0771C757.147 54.6157 756.65 55.1956 756.194 55.7756C760.502 62.4036 762.988 70.1915 763.029 78.4765C763.029 86.6786 760.626 94.3423 756.401 100.97H761.372C765.556 94.7979 768 87.5486 768 79.8021Z" fill="#A5143A"/>
<path id="XMLID 236" opacity="0.72" d="M768 79.8021C768 69.9844 764.106 61.0366 757.644 54.0771C757.478 54.2428 757.312 54.45 757.146 54.6571C761.993 61.8236 764.769 70.2329 764.81 79.2636C764.81 87.0929 762.697 94.4665 759.011 100.97H761.372C765.556 94.7979 768 87.5486 768 79.8021Z" fill="#A5143A"/>
<path id="XMLID 233" opacity="0.37" d="M757.644 54.0771C757.147 54.6157 756.65 55.1956 756.194 55.7756C760.502 62.4036 762.988 70.1915 763.029 78.4765C763.029 86.6786 760.626 94.3423 756.401 100.97H761.372C765.556 94.8394 768 87.59 768 79.8435C768 69.9843 764.106 60.9951 757.644 54.0771Z" fill="#A5143A"/>
<path id="XMLID 230" opacity="0.72" d="M757.644 54.0771C757.478 54.2428 757.312 54.45 757.146 54.6571C761.993 61.8236 764.769 70.2329 764.81 79.2636C764.81 87.0929 762.697 94.4665 759.011 100.97H761.372C765.556 94.8394 768 87.59 768 79.8435C768 69.9843 764.106 60.9951 757.644 54.0771Z" fill="#A5143A"/>
<path id="XMLID 227" d="M763.153 61.5336C761.621 58.8409 759.798 56.3554 757.685 54.0356C755.572 56.314 753.75 58.8409 752.217 61.5336H763.153Z" fill="#601B23"/>
<path id="XMLID 219" d="M754.04 100.929C749.814 94.7979 747.37 87.5486 747.37 79.8021C747.37 69.9844 751.223 60.9951 757.644 54.0771C764.065 60.9951 767.959 69.9844 768 79.8021C768 87.59 765.556 94.7979 761.372 100.929H754.04Z" stroke="#601B23" stroke-width="6" stroke-miterlimit="10" stroke-linecap="round" stroke-linejoin="round"/>
<path id="XMLID 210" d="M750.892 95.4607H764.52" stroke="#601B23" stroke-width="4" stroke-miterlimit="10" stroke-linecap="round" stroke-linejoin="round"/>
<path id="XMLID 228" opacity="0.41" d="M680.469 15.8834C680.469 15.8834 683.286 11.4509 692.855 3.99438C688.423 10.001 687.553 13.7707 687.263 14.0607C684.446 14.5992 680.469 15.8834 680.469 15.8834Z" fill="white"/>
</g>
</g>
</svg>
