<svg width="650" height="463" viewBox="0 0 650 463" fill="none" xmlns="http://www.w3.org/2000/svg">
<path d="M327.168 173V117.051C327.168 110.632 315.971 105.431 302.152 105.431H113.016C99.1968 105.431 88 100.229 88 93.8099C88 87.3903 99.1968 82.1891 113.016 82.1891H513.984C527.803 82.1891 539 76.9878 539 70.5683C539 64.1487 527.803 58.9475 513.984 58.9475H352.084C338.264 58.9475 327.067 53.7462 327.067 47.3266V0" stroke="#663C3B" stroke-width="10" stroke-miterlimit="10" stroke-linejoin="round"/>
<path d="M354 183H296V195.5H354V183Z" fill="#663C3B"/>
<path d="M345.7 176.8H304.2V186.6H345.7V176.8Z" fill="#663C3B"/>
<path d="M340.2 170.5H309.7V179.9H340.2V170.5Z" fill="#663C3B"/>
<path d="M515 195.8H135C62.1 195.8 3 254.9 3 327.8C3 400.7 62.1 459.8 135 459.8C186.3 459.8 230.8 430.5 252.6 387.8H397.4C419.2 430.5 463.7 459.8 515 459.8C587.9 459.8 647 400.7 647 327.8C647 254.9 587.9 195.8 515 195.8Z" fill="#DFDFDF"/>
<path d="M304.4 247.6H276.4C274.2 247.6 272.4 245.8 272.4 243.6C272.4 241.4 274.2 239.6 276.4 239.6H304.4C306.6 239.6 308.4 241.4 308.4 243.6C308.4 245.8 306.7 247.6 304.4 247.6Z" fill="#E086FF"/>
<path d="M383.1 247.9H326.2C324 247.9 322.2 246.1 322.2 243.9C322.2 241.7 324 239.9 326.2 239.9H383.1C385.3 239.9 387.1 241.7 387.1 243.9C387.1 246.1 385.4 247.9 383.1 247.9Z" fill="#E086FF"/>
<path d="M383.1 264.4H276.3C274.1 264.4 272.3 262.6 272.3 260.4C272.3 258.2 274.1 256.4 276.3 256.4H383.1C385.3 256.4 387.1 258.2 387.1 260.4C387.1 262.6 385.3 264.4 383.1 264.4Z" fill="#E086FF"/>
<path d="M275.1 346.7C271.6 343.2 271.6 337.5 275.1 334L304.8 304.3C308.3 300.8 314 300.8 317.5 304.3C321 307.8 321 313.5 317.5 317L287.8 346.7C284.3 350.2 278.6 350.2 275.1 346.7Z" fill="#EEBDFF"/>
<path d="M342.1 346.7C338.6 343.2 338.6 337.5 342.1 334L371.8 304.3C375.3 300.8 381 300.8 384.5 304.3C388 307.8 388 313.5 384.5 317L354.8 346.7C351.3 350.2 345.6 350.2 342.1 346.7Z" fill="#EEBDFF"/>
<path d="M135 207.3H515C586.3 207.3 644.4 262.9 646.9 332.4C647 330.8 647 329.3 647 327.7C647 254.8 587.9 195.7 515 195.7H135C62.1 195.7 3 254.8 3 327.7C3 329.3 2.99999 330.8 3.09999 332.4C5.49999 262.9 63.6 207.3 135 207.3Z" fill="#D6D6D6"/>
<path d="M515 442.8C463.7 442.8 422.2 421.5 400.4 378.8H249.6C227.8 421.5 186.3 442.8 135 442.8C65 442.8 7.7 388.2 3.3 319.3C3.1 322.1 3 324.9 3 327.8C3 400.7 62.1 459.8 135 459.8C186.3 459.8 230.8 430.5 252.6 387.8H397.4C419.2 430.5 463.7 459.8 515 459.8C587.9 459.8 647 400.7 647 327.8C647 324.9 646.9 322.1 646.7 319.3C642.3 388.2 585 442.8 515 442.8Z" fill="#B4B4B4"/>
<path d="M135.5 420C182.444 420 220.5 381.944 220.5 335C220.5 288.056 182.444 250 135.5 250C88.5558 250 50.5 288.056 50.5 335C50.5 381.944 88.5558 420 135.5 420Z" fill="#EEBDFF"/>
<path d="M135.5 411.8C181.892 411.8 219.5 374.192 219.5 327.8C219.5 281.408 181.892 243.8 135.5 243.8C89.1081 243.8 51.5 281.408 51.5 327.8C51.5 374.192 89.1081 411.8 135.5 411.8Z" fill="#835559"/>
<path d="M135.5 398.8C174.712 398.8 206.5 367.012 206.5 327.8C206.5 288.588 174.712 256.8 135.5 256.8C96.2878 256.8 64.5 288.588 64.5 327.8C64.5 367.012 96.2878 398.8 135.5 398.8Z" fill="#95676B"/>
<path d="M185.9 311.8H151.5V277.4C151.5 274.9 149.4 272.8 146.9 272.8H124.1C121.6 272.8 119.5 274.9 119.5 277.4V311.8H85.1C82.6 311.8 80.5 313.9 80.5 316.4V339.2C80.5 341.7 82.6 343.8 85.1 343.8H119.5V378.2C119.5 380.7 121.6 382.8 124.1 382.8H146.9C149.4 382.8 151.5 380.7 151.5 378.2V343.8H185.9C188.4 343.8 190.5 341.7 190.5 339.2V316.4C190.5 313.8 188.4 311.8 185.9 311.8Z" fill="#663C3B"/>
<path d="M135.5 411.8C181.892 411.8 219.5 374.192 219.5 327.8C219.5 281.408 181.892 243.8 135.5 243.8C89.1081 243.8 51.5 281.408 51.5 327.8C51.5 374.192 89.1081 411.8 135.5 411.8Z" stroke="#663C3B" stroke-width="6" stroke-miterlimit="10" stroke-linecap="round" stroke-linejoin="round"/>
<path d="M515.5 420C562.444 420 600.5 381.944 600.5 335C600.5 288.056 562.444 250 515.5 250C468.556 250 430.5 288.056 430.5 335C430.5 381.944 468.556 420 515.5 420Z" fill="#EEBDFF"/>
<path d="M515.5 411.8C561.892 411.8 599.5 374.192 599.5 327.8C599.5 281.408 561.892 243.8 515.5 243.8C469.108 243.8 431.5 281.408 431.5 327.8C431.5 374.192 469.108 411.8 515.5 411.8Z" fill="#835559"/>
<path d="M515.5 398.8C554.712 398.8 586.5 367.012 586.5 327.8C586.5 288.588 554.712 256.8 515.5 256.8C476.288 256.8 444.5 288.588 444.5 327.8C444.5 367.012 476.288 398.8 515.5 398.8Z" fill="#95676B"/>
<path d="M515.5 411.8C561.892 411.8 599.5 374.192 599.5 327.8C599.5 281.408 561.892 243.8 515.5 243.8C469.108 243.8 431.5 281.408 431.5 327.8C431.5 374.192 469.108 411.8 515.5 411.8Z" stroke="#663C3B" stroke-width="6" stroke-miterlimit="10" stroke-linecap="round" stroke-linejoin="round"/>
<path d="M129 291.2L134.5 281.6C134.9 280.9 135.9 280.9 136.3 281.6L141.8 291.2C142.2 291.9 141.7 292.8 140.9 292.8H129.8C129.1 292.8 128.6 291.9 129 291.2Z" fill="#FEC556"/>
<path d="M129 364.4L134.5 374C134.9 374.7 135.9 374.7 136.3 374L141.8 364.4C142.2 363.7 141.7 362.8 140.9 362.8H129.8C129.1 362.8 128.6 363.7 129 364.4Z" fill="#FEC556"/>
<path d="M185.9 311.8H151.5V277.4C151.5 274.9 149.4 272.8 146.9 272.8H124.1C121.6 272.8 119.5 274.9 119.5 277.4V311.8H85.1C82.6 311.8 80.5 313.9 80.5 316.4V339.2C80.5 341.7 82.6 343.8 85.1 343.8H119.5V378.2C119.5 380.7 121.6 382.8 124.1 382.8H146.9C149.4 382.8 151.5 380.7 151.5 378.2V343.8H185.9C188.4 343.8 190.5 341.7 190.5 339.2V316.4C190.5 313.8 188.4 311.8 185.9 311.8Z" stroke="#663C3B" stroke-width="3" stroke-miterlimit="10" stroke-linecap="round" stroke-linejoin="round"/>
<path d="M170.3 321.3L179.9 326.8C180.6 327.2 180.6 328.2 179.9 328.6L170.3 334.1C169.6 334.5 168.7 334 168.7 333.2V322.1C168.7 321.4 169.6 320.9 170.3 321.3Z" fill="#FEC556"/>
<path d="M98.8999 321.3L89.2999 326.8C88.5999 327.2 88.5999 328.2 89.2999 328.6L98.8999 334.1C99.5999 334.5 100.5 334 100.5 333.2V322.1C100.5 321.4 99.5999 320.9 98.8999 321.3Z" fill="#FEC556"/>
<path d="M424.7 189.8H515.5C535 189.8 553.6 193.9 570.5 201.2" stroke="#663C3B" stroke-width="8" stroke-miterlimit="10" stroke-linecap="round" stroke-linejoin="round"/>
<path d="M80.5 201.2C97.4 193.8 116 189.8 135.5 189.8H224.7" stroke="#663C3B" stroke-width="8" stroke-miterlimit="10" stroke-linecap="round" stroke-linejoin="round"/>
<path d="M515 195.8H135C62.1 195.8 3 254.9 3 327.8C3 400.7 62.1 459.8 135 459.8C186.3 459.8 230.8 430.5 252.6 387.8H397.4C419.2 430.5 463.7 459.8 515 459.8C587.9 459.8 647 400.7 647 327.8C647 254.9 587.9 195.8 515 195.8Z" stroke="#663C3B" stroke-width="6" stroke-miterlimit="10" stroke-linecap="round" stroke-linejoin="round"/>
<path opacity="0.17" d="M529 315.5L489.4 355.1C480.8 363.7 466.9 363.7 458.3 355.1C449.7 346.5 449.7 332.6 458.3 324L497.9 284.4C506.5 275.8 520.4 275.8 529 284.4C537.6 292.9 537.6 306.9 529 315.5Z" fill="black"/>
<path d="M527 311.5L487.4 351.1C478.8 359.7 464.9 359.7 456.3 351.1C447.7 342.5 447.7 328.6 456.3 320L495.9 280.4C504.5 271.8 518.4 271.8 527 280.4C535.6 288.9 535.6 302.9 527 311.5Z" fill="#FEC556"/>
<path d="M527 311.5L487.4 351.1C478.8 359.7 464.9 359.7 456.3 351.1C447.7 342.5 447.7 328.6 456.3 320L495.9 280.4C504.5 271.8 518.4 271.8 527 280.4C535.6 288.9 535.6 302.9 527 311.5Z" stroke="#663C3B" stroke-width="3" stroke-miterlimit="10" stroke-linecap="round" stroke-linejoin="round"/>
<path d="M471.9 349.5C479.632 349.5 485.9 343.232 485.9 335.5C485.9 327.768 479.632 321.5 471.9 321.5C464.168 321.5 457.9 327.768 457.9 335.5C457.9 343.232 464.168 349.5 471.9 349.5Z" fill="#32B94D"/>
<path d="M462.9 334.7C463.3 329.7 467.7 326.1 472.7 326.5" stroke="#663C3B" stroke-width="2" stroke-miterlimit="10" stroke-linecap="round" stroke-linejoin="round"/>
<path d="M471.9 349.5C479.632 349.5 485.9 343.232 485.9 335.5C485.9 327.768 479.632 321.5 471.9 321.5C464.168 321.5 457.9 327.768 457.9 335.5C457.9 343.232 464.168 349.5 471.9 349.5Z" stroke="#663C3B" stroke-width="3" stroke-miterlimit="10" stroke-linecap="round" stroke-linejoin="round"/>
<path d="M511.5 309.9C519.232 309.9 525.5 303.632 525.5 295.9C525.5 288.168 519.232 281.9 511.5 281.9C503.768 281.9 497.5 288.168 497.5 295.9C497.5 303.632 503.768 309.9 511.5 309.9Z" fill="#8BD8F5"/>
<path d="M502.5 295.9C502.5 290.9 506.5 286.9 511.5 286.9" stroke="#663C3B" stroke-width="2" stroke-miterlimit="10" stroke-linecap="round" stroke-linejoin="round"/>
<path d="M511.5 309.9C519.232 309.9 525.5 303.632 525.5 295.9C525.5 288.168 519.232 281.9 511.5 281.9C503.768 281.9 497.5 288.168 497.5 295.9C497.5 303.632 503.768 309.9 511.5 309.9Z" stroke="#663C3B" stroke-width="3" stroke-miterlimit="10" stroke-linecap="round" stroke-linejoin="round"/>
<path opacity="0.17" d="M575.6 341.7L536 381.3C527.4 389.9 513.5 389.9 504.9 381.3C496.3 372.7 496.3 358.8 504.9 350.2L544.5 310.6C553.1 302 567 302 575.6 310.6C584.2 319.2 584.2 333.1 575.6 341.7Z" fill="black"/>
<path d="M574.6 336.7L535 376.3C526.4 384.9 512.5 384.9 503.9 376.3C495.3 367.7 495.3 353.8 503.9 345.2L543.5 305.6C552.1 297 566 297 574.6 305.6C583.2 314.2 583.2 328.1 574.6 336.7Z" fill="#FEC556"/>
<path d="M574.6 336.7L535 376.3C526.4 384.9 512.5 384.9 503.9 376.3C495.3 367.7 495.3 353.8 503.9 345.2L543.5 305.6C552.1 297 566 297 574.6 305.6C583.2 314.2 583.2 328.1 574.6 336.7Z" stroke="#663C3B" stroke-width="3" stroke-miterlimit="10" stroke-linecap="round" stroke-linejoin="round"/>
<path d="M519.5 374.8C527.232 374.8 533.5 368.532 533.5 360.8C533.5 353.068 527.232 346.8 519.5 346.8C511.768 346.8 505.5 353.068 505.5 360.8C505.5 368.532 511.768 374.8 519.5 374.8Z" fill="#FEF585"/>
<path d="M510.5 360.8C510.5 355.8 514.5 351.8 519.5 351.8" stroke="#663C3B" stroke-width="2" stroke-miterlimit="10" stroke-linecap="round" stroke-linejoin="round"/>
<path d="M519.5 374.8C527.232 374.8 533.5 368.532 533.5 360.8C533.5 353.068 527.232 346.8 519.5 346.8C511.768 346.8 505.5 353.068 505.5 360.8C505.5 368.532 511.768 374.8 519.5 374.8Z" stroke="#663C3B" stroke-width="3" stroke-miterlimit="10" stroke-linecap="round" stroke-linejoin="round"/>
<path d="M559.1 335.2C566.832 335.2 573.1 328.932 573.1 321.2C573.1 313.468 566.832 307.2 559.1 307.2C551.368 307.2 545.1 313.468 545.1 321.2C545.1 328.932 551.368 335.2 559.1 335.2Z" fill="#E7503B"/>
<path d="M550.1 321.2C550.1 316.2 554.1 312.2 559.1 312.2" stroke="#663C3B" stroke-width="2" stroke-miterlimit="10" stroke-linecap="round" stroke-linejoin="round"/>
<path d="M559.1 335.2C566.832 335.2 573.1 328.932 573.1 321.2C573.1 313.468 566.832 307.2 559.1 307.2C551.368 307.2 545.1 313.468 545.1 321.2C545.1 328.932 551.368 335.2 559.1 335.2Z" stroke="#663C3B" stroke-width="3" stroke-miterlimit="10" stroke-linecap="round" stroke-linejoin="round"/>
<path d="M275.1 342.7C271.6 339.2 271.6 333.5 275.1 330L304.8 300.3C308.3 296.8 314 296.8 317.5 300.3C321 303.8 321 309.5 317.5 313L287.8 342.7C284.3 346.2 278.6 346.2 275.1 342.7Z" fill="#663C3B"/>
<path d="M342.1 342.7C338.6 339.2 338.6 333.5 342.1 330L371.8 300.3C375.3 296.8 381 296.8 384.5 300.3C388 303.8 388 309.5 384.5 313L354.8 342.7C351.3 346.2 345.6 346.2 342.1 342.7Z" fill="#663C3B"/>
<path d="M135.5 343.8C144.337 343.8 151.5 336.637 151.5 327.8C151.5 318.963 144.337 311.8 135.5 311.8C126.663 311.8 119.5 318.963 119.5 327.8C119.5 336.637 126.663 343.8 135.5 343.8Z" fill="#FEC556"/>
<path d="M135.5 340.5C127.4 340.5 120.4 334.1 119.6 326.1C119.5 326.6 119.5 327.2 119.5 327.7C119.5 336.4 126.8 343.7 135.5 343.7C144.2 343.7 151.5 336.4 151.5 327.7C151.5 327.1 151.5 326.6 151.4 326.1C150.5 334.1 143.6 340.5 135.5 340.5Z" fill="#F29940"/>
<path d="M123.5 327.8C123.5 321.3 129 315.8 135.5 315.8" stroke="#663C3B" stroke-width="2" stroke-miterlimit="10" stroke-linecap="round" stroke-linejoin="round"/>
</svg>
