<svg width="116" height="23" viewBox="0 0 116 23" fill="none" xmlns="http://www.w3.org/2000/svg">
<path d="M6 8L4 7L3 5V4L4 2L6 1H7L9 2L10 4V6L9 10L7 16L5 20L3 22H1L0 21V19M6 13L15 10L17 9L20 7L22 5L23 3V2L22 1H21L19 3L17 7L15 13L14 18V21L15 22H16L18 21L19 20L21 17" stroke="black"/>
<path d="M21 17L23.5 12.5L21.5 18.5L21 21L22 22H23L25 21L26 20L28 17M24 8V9H25V8H24Z" stroke="black"/>
<path d="M28 17L30 14L31 12V14H34L35 15V17L34 20V21L35 22H36L38 21L39 20L41 17" stroke="black"/>
<path d="M44 20L46 19L47 18L48 16V14L47 13H46L44 14L43 16V19L44 21L46 22H48L50 21L51 20L53 17" stroke="black"/>
<path d="M67 17L70 14L72 13L73 14V15L71 22L73 17L75 14L77 13H79L80 14V15L78.5 22L80 17L82 14L84 13H86L87 14V16L86 19V21L87 22H88L90 21L91 20L93 17" stroke="black"/>
<path d="M96 20L98 19L99 18L100 16V14L99 13H98L96 14L95 16V19L96 21L98 22H100L102 21L103 20L105 17" stroke="black"/>
<path d="M114 1L113 2L111 14M114 1L111 14M114 1L115 2L111 14M111 14L114 2M109 20L108 21L109 22L110 21L109 20Z" stroke="black"/>
</svg>
