<svg width="342" height="274" viewBox="0 0 342 274" fill="none" xmlns="http://www.w3.org/2000/svg">
<path d="M337.953 222.8H31.2533V269.7H337.953V222.8Z" fill="#FFCED2"/>
<path opacity="0.2" d="M337.953 255.5H31.2533V269.6H337.953V255.5Z" fill="#D8B2B6"/>
<path d="M247.653 84.1001L261.453 116.8L99.3533 191.8L138.353 123.3L247.653 84.1001Z" fill="#D8B2B6"/>
<path d="M247.653 84.1001L261.453 116.8L99.3533 191.8L138.353 123.3L247.653 84.1001Z" stroke="#030037" stroke-width="8" stroke-miterlimit="10" stroke-linecap="round" stroke-linejoin="round"/>
<path d="M337.953 222.8H31.2533V269.7H337.953V222.8Z" stroke="#030037" stroke-width="8" stroke-miterlimit="10" stroke-linecap="round" stroke-linejoin="round"/>
<path d="M277.653 62.3L29.5534 242.5L12.1534 218.5C-1.54659 199.6 2.55337 173.1 21.5534 159.4L235.353 4L277.653 62.3Z" fill="#38AD3D"/>
<path opacity="0.84" d="M26.0533 222.4C12.3533 203.5 16.4533 177 35.4533 163.3L238.753 8.79999L235.253 4L21.4533 159.4C2.55334 173.1 -1.64668 199.6 12.0533 218.5L29.4533 242.5L36.7533 237.2L26.0533 222.4Z" fill="#38AD3D"/>
<path opacity="0.6" d="M235.253 4L220.753 14.6L255.453 62.3L21.8533 232L29.5533 242.5L277.653 62.3L235.253 4Z" fill="#38AD3D"/>
<path d="M277.653 62.3L29.5534 242.5L12.1534 218.5C-1.54659 199.6 2.55337 173.1 21.5534 159.4L235.353 4L277.653 62.3Z" stroke="#030037" stroke-width="8" stroke-miterlimit="10" stroke-linecap="round" stroke-linejoin="round"/>
<path d="M312.553 191.8H56.6533V222.8H312.553V191.8Z" fill="#D8B2B6"/>
<path opacity="0.2" d="M312.553 208.4H56.6533V222.8H312.553V208.4Z" fill="#D8B2B6"/>
<path d="M312.553 191.8H56.6533V222.8H312.553V191.8Z" stroke="#030037" stroke-width="8" stroke-miterlimit="10" stroke-linecap="round" stroke-linejoin="round"/>
<path d="M67.6534 239C85.1608 239 99.3533 224.808 99.3533 207.3C99.3533 189.793 85.1608 175.6 67.6534 175.6C50.146 175.6 35.9534 189.793 35.9534 207.3C35.9534 224.808 50.146 239 67.6534 239Z" fill="#D8B2B6"/>
<path d="M67.6534 239C85.1608 239 99.3533 224.808 99.3533 207.3C99.3533 189.793 85.1608 175.6 67.6534 175.6C50.146 175.6 35.9534 189.793 35.9534 207.3C35.9534 224.808 50.146 239 67.6534 239Z" stroke="#030037" stroke-width="8" stroke-miterlimit="10" stroke-linecap="round" stroke-linejoin="round"/>
<path d="M67.6534 223.9C76.8213 223.9 84.2534 216.468 84.2534 207.3C84.2534 198.132 76.8213 190.7 67.6534 190.7C58.4855 190.7 51.0533 198.132 51.0533 207.3C51.0533 216.468 58.4855 223.9 67.6534 223.9Z" fill="#247C1A"/>
<path d="M67.6534 223.9C76.8213 223.9 84.2534 216.468 84.2534 207.3C84.2534 198.132 76.8213 190.7 67.6534 190.7C58.4855 190.7 51.0533 198.132 51.0533 207.3C51.0533 216.468 58.4855 223.9 67.6534 223.9Z" stroke="#030037" stroke-width="8" stroke-miterlimit="10" stroke-linecap="round" stroke-linejoin="round"/>
</svg>
