<?xml version="1.0" standalone="no"?>
<!DOCTYPE svg PUBLIC "-//W3C//DTD SVG 20010904//EN"
 "http://www.w3.org/TR/2001/REC-SVG-20010904/DTD/svg10.dtd">
<svg version="1.0" xmlns="http://www.w3.org/2000/svg"
 width="88.000000pt" height="95.000000pt" viewBox="0 0 88.000000 95.000000"
 preserveAspectRatio="xMidYMid meet">

<g transform="translate(0.000000,95.000000) scale(0.100000,-0.100000)"
fill="#000000" stroke="none">
<path d="M226 915 c-12 -47 11 -138 46 -184 21 -28 23 -38 6 -44 -7 -2 -2 -2
12 0 24 3 24 3 6 -12 -11 -8 -15 -15 -10 -15 6 0 15 5 22 12 20 20 26 -1 7
-22 -12 -13 -26 -18 -39 -15 -12 3 -7 -2 9 -9 44 -21 82 -65 100 -115 17 -48
13 -68 -6 -30 -6 13 -31 41 -56 62 -37 31 -51 37 -86 36 l-42 -2 49 -6 c45 -7
54 -13 122 -87 40 -43 73 -82 74 -86 0 -3 -15 -21 -32 -39 -24 -24 -27 -29
-10 -20 12 6 32 25 43 41 20 27 25 28 73 23 28 -3 53 -7 55 -9 2 -2 -7 -28
-21 -56 -32 -66 -48 -140 -48 -224 l0 -64 -37 15 c-21 9 -68 36 -104 60 -76
50 -107 101 -134 215 l-15 65 6 -60 c9 -106 81 -225 155 -256 33 -13 36 -25
13 -57 -9 -13 -14 -26 -11 -29 3 -2 13 8 23 24 10 15 19 30 21 32 2 2 21 -2
42 -9 34 -11 42 -11 55 3 9 9 16 22 16 29 0 10 -3 9 -11 -2 -8 -11 -9 8 -5 70
8 126 29 186 59 174 23 -8 21 -17 -8 -52 -19 -23 -23 -34 -16 -58 5 -18 3 -43
-6 -68 -16 -47 -10 -59 8 -17 14 30 14 30 26 8 14 -25 17 -87 4 -87 -5 0 -8
-11 -8 -25 0 -36 39 -34 57 3 24 52 29 81 16 89 -7 5 -19 36 -28 71 -12 53
-13 64 -1 74 12 9 13 6 9 -18 -5 -27 -5 -27 6 4 17 50 28 38 28 -32 0 -36 4
-76 10 -90 7 -18 6 -26 -1 -26 -8 0 -7 -5 1 -15 11 -14 15 -14 33 2 10 10 31
41 45 68 24 44 27 63 29 163 1 61 -2 112 -7 112 -5 0 -22 12 -39 26 -22 18
-37 24 -49 18 -9 -4 -21 -9 -27 -10 -30 -5 -75 -30 -75 -41 0 -8 -14 -13 -40
-13 -37 0 -40 2 -40 29 0 35 14 47 69 60 23 5 48 17 55 27 7 9 26 18 41 20 16
2 39 14 53 27 19 20 22 28 14 44 -9 17 -3 26 45 66 30 26 64 47 75 47 10 0 17
4 14 9 -10 15 -88 21 -151 11 l-60 -9 75 4 75 4 -44 -15 c-24 -9 -53 -13 -64
-10 -15 4 -17 2 -8 -7 19 -19 13 -27 -20 -27 -27 0 -30 2 -19 15 11 13 10 14
-2 10 -10 -4 -18 6 -27 34 -6 22 -20 46 -29 53 -10 7 -21 21 -25 31 -3 9 -11
17 -17 17 -12 0 9 -41 27 -53 14 -9 43 -65 43 -82 0 -7 -9 -15 -20 -18 -11 -3
-18 -2 -15 2 6 11 -61 41 -93 41 -21 0 -24 -2 -12 -10 13 -8 11 -11 -7 -16
-22 -6 -22 -7 10 -41 26 -27 39 -34 67 -32 44 2 108 -10 116 -23 4 -5 1 -15
-5 -21 -9 -9 -14 -8 -21 3 -7 10 -10 11 -10 2 0 -9 -5 -9 -23 2 -13 9 -28 12
-36 7 -9 -6 -6 -10 13 -15 15 -4 24 -11 21 -15 -3 -5 6 -8 20 -6 25 2 25 2 -7
-32 -24 -25 -39 -32 -55 -28 -13 3 -23 1 -23 -4 0 -12 -66 -34 -83 -28 -7 2 1
11 18 21 26 15 27 16 5 10 -14 -4 -32 -9 -40 -12 -13 -5 -13 -4 0 13 14 16 13
17 -6 11 -14 -4 -26 0 -40 15 -10 11 -33 35 -50 53 -27 27 -30 35 -19 49 7 9
18 17 25 17 7 0 0 10 -15 22 -35 28 -85 96 -85 117 1 10 7 5 16 -11 20 -38 24
-35 17 10 -6 34 -5 36 11 23 15 -13 15 -24 -1 -68 -4 -11 80 -73 99 -73 4 0 8
14 8 31 0 26 -13 43 -70 98 -38 37 -70 71 -70 75 0 9 71 -47 128 -102 43 -41
46 -42 64 -25 19 17 19 18 -2 35 -12 10 -31 18 -41 18 -28 0 -23 16 14 42 64
46 160 17 206 -63 21 -37 36 -38 17 -1 -16 31 -60 74 -93 91 -41 21 -97 13
-141 -19 -23 -16 -47 -30 -53 -30 -6 0 -37 25 -69 55 -58 56 -58 56 -64 30z
m43 -80 c0 -5 -6 -1 -14 9 -8 11 -15 27 -15 35 1 17 29 -26 29 -44z m175 -48
c16 -12 17 -15 3 -20 -8 -3 -23 3 -33 14 -14 15 -14 19 -2 19 8 0 22 -6 32
-13z m-101 -4 c2 -5 -2 -19 -9 -33 l-14 -25 0 33 c0 29 13 43 23 25z m38 -49
c11 -31 8 -37 -15 -28 -17 7 -23 54 -6 54 6 0 15 -12 21 -26z m419 -8 c0 -3
-4 -8 -10 -11 -5 -3 -10 -1 -10 4 0 6 5 11 10 11 6 0 10 -2 10 -4z m-245 -37
c5 -6 3 -9 -7 -9 -24 0 -48 11 -48 22 0 10 39 1 55 -13z m197 -11 c-8 -8 -9
-4 -5 13 4 13 8 18 11 10 2 -7 -1 -18 -6 -23z m-71 -8 c5 0 9 -4 9 -9 0 -15
-58 -23 -77 -11 -15 9 -12 10 17 6 19 -2 29 -2 23 1 -19 7 -16 26 3 19 9 -3
20 -6 25 -6z m39 -64 c0 -15 -46 -56 -63 -56 -6 0 -3 8 6 18 10 10 17 26 17
35 0 10 8 17 20 17 11 0 20 -6 20 -14z m-5 -157 c0 -7 -11 -19 -25 -26 -22
-11 -26 -10 -29 4 -3 18 27 45 44 40 5 -2 10 -10 10 -18z m-65 4 c0 -16 -16
-30 -37 -37 -32 -10 -29 6 5 26 33 20 32 20 32 11z m109 -54 c-6 -11 -16 -18
-24 -16 -7 3 -18 0 -24 -6 -18 -18 -14 24 5 44 13 14 21 16 35 8 16 -8 17 -14
8 -30z m-106 -1 c3 -10 7 -10 20 1 25 20 23 -9 -4 -43 -15 -19 -30 -26 -54
-26 -19 0 -37 5 -40 10 -9 15 5 52 18 47 7 -2 18 2 25 10 17 16 29 17 35 1z
m115 -62 c-2 -10 -9 -6 -23 12 -15 21 -15 24 -2 13 15 -12 17 -11 18 5 1 17 2
17 6 2 2 -10 3 -24 1 -32z m-8 -121 c-7 -24 -24 -61 -40 -85 l-28 -42 -11 33
c-13 39 -15 156 -2 164 15 9 24 -15 11 -30 -9 -11 -6 -21 12 -45 19 -27 23
-29 26 -13 2 10 10 38 20 63 14 38 17 41 20 21 2 -13 -2 -43 -8 -66z"/>
<path d="M360 736 c0 -8 4 -17 9 -20 5 -4 7 3 4 14 -6 23 -13 26 -13 6z"/>
<path d="M505 830 c16 -16 31 -28 33 -25 7 7 -39 55 -52 55 -5 0 3 -13 19 -30z"/>
<path d="M220 754 c0 -8 5 -12 10 -9 6 4 8 11 5 16 -9 14 -15 11 -15 -7z"/>
<path d="M581 736 c13 -14 26 -23 28 -20 6 6 -30 44 -42 44 -5 0 1 -11 14 -24z"/>
<path d="M205 720 c27 -11 57 -12 51 -2 -3 5 -20 9 -38 9 -27 1 -29 -1 -13 -7z"/>
<path d="M200 705 c0 -4 5 -15 10 -26 9 -15 7 -19 -6 -19 -23 0 -15 -6 20 -14
26 -6 27 -6 12 9 -9 9 -16 23 -16 30 0 8 -4 17 -10 20 -5 3 -10 3 -10 0z"/>
<path d="M161 643 c-10 -26 -10 -27 4 -9 8 11 15 23 15 28 0 15 -7 8 -19 -19z"/>
<path d="M130 600 c-11 -8 -7 -9 15 -4 37 8 45 14 19 14 -10 0 -26 -5 -34 -10z"/>
<path d="M270 594 c19 -8 48 -27 65 -42 l30 -27 -25 28 c-26 30 -70 57 -92 57
-7 -1 3 -8 22 -16z"/>
<path d="M50 570 c6 -12 15 -40 20 -63 l9 -42 -3 40 c-2 22 -7 48 -11 57 -5
13 0 17 22 21 23 3 22 4 -10 6 -35 1 -37 0 -27 -19z"/>
<path d="M130 518 c-16 -22 -30 -47 -30 -55 0 -7 -4 -13 -10 -13 -5 0 -10 -8
-10 -17 0 -10 -11 -63 -25 -118 -28 -116 -55 -275 -46 -275 3 0 19 66 35 147
33 176 67 287 101 337 34 50 22 46 -15 -6z"/>
<path d="M544 452 c-9 -24 -8 -28 7 -28 10 0 15 5 11 11 -4 5 -5 18 -4 28 5
26 -2 21 -14 -11z"/>
<path d="M304 318 c10 -6 27 -6 44 0 24 8 23 9 -17 9 -32 0 -39 -2 -27 -9z"/>
<path d="M562 85 c0 -16 2 -22 5 -12 2 9 2 23 0 30 -3 6 -5 -1 -5 -18z"/>
<path d="M105 50 l-40 -7 35 -1 c19 0 46 4 60 8 32 10 2 10 -55 0z"/>
</g>
</svg>
