<svg width="200" height="200" viewBox="0 0 200 200" fill="none" xmlns="http://www.w3.org/2000/svg">
<g clip-path="url(#clip0)">
<path d="M136.416 89.3258C136.416 106.976 129.474 123.537 116.958 136.588C113.387 140.318 114.297 143.255 119.451 142.877C134.035 141.794 147.818 136.057 158.413 125.457C171.306 112.564 177.043 94.9548 175.904 76.9222C175.577 71.7623 170.586 66.7771 165.427 66.4552C157.729 65.9749 150.112 66.7514 142.899 68.8001C137.918 70.2153 135.195 75.8144 135.834 80.6001C136.222 83.4716 136.416 86.3833 136.416 89.3258Z" fill="#2C786C"/>
<path d="M195.561 112.386C193.155 110.649 190.673 109.075 188.108 107.671C183.566 105.188 178.381 107.788 176.134 112.442C172.941 119.057 168.67 125.126 163.353 130.434C150.684 143.108 133.29 150.126 114.363 150.126C113.945 150.126 113.525 150.121 113.096 150.106C112.397 150.085 115.364 152.343 120.09 154.458C131.921 159.741 145.034 161.426 158.082 158.489C175.874 154.489 190.132 142.679 198.811 126.832C201.293 122.29 199.74 115.415 195.561 112.386Z" fill="#2C786C"/>
<path d="M85.6333 150.126C66.7172 150.126 49.3181 143.103 36.644 130.434C31.3309 125.115 27.0605 119.047 23.868 112.442C21.6207 107.788 16.4197 105.183 11.8891 107.666C9.32497 109.071 6.83706 110.644 4.44076 112.386C0.256861 115.42 -1.29102 122.291 1.19175 126.832C9.8609 142.688 24.1231 154.499 41.916 158.494C54.9574 161.431 68.0707 159.746 79.9076 154.463C84.6274 152.354 87.5956 150.101 86.8961 150.111C86.4706 150.121 86.052 150.126 85.6333 150.126Z" fill="#2C786C"/>
<path d="M80.6883 142.883C85.8482 143.251 86.7523 140.298 83.1762 136.569C70.681 123.522 63.7336 106.971 63.7336 89.3206C63.7336 86.3884 63.9279 83.487 64.3055 80.6309C64.939 75.8597 62.2165 70.2658 57.2458 68.8403C49.9867 66.7565 42.3141 65.9646 34.5542 66.45C29.3943 66.7719 24.4142 71.758 24.0871 76.917C22.9476 94.9497 28.6845 112.553 41.5787 125.447C52.2144 136.083 66.0528 141.836 80.6883 142.883Z" fill="#2C786C"/>
<path d="M107.482 42.6351C103.604 39.2175 96.5498 39.2175 92.6724 42.6351C79.1148 54.579 70.7213 71.0791 70.7213 89.3206C70.7213 107.558 79.1148 124.068 92.6724 136.011C96.5498 139.424 103.604 139.424 107.482 136.011C121.039 124.067 129.433 107.563 129.433 89.3206C129.433 71.0834 121.039 54.5781 107.482 42.6351Z" fill="#2C786C"/>
</g>
<defs>
<clipPath id="clip0">
<rect width="200" height="200" fill="white"/>
</clipPath>
</defs>
</svg>
